<?xml version="1.0" encoding="UTF-8" standalone="no"?>
<!-- Created with Inkscape (http://www.inkscape.org/) -->

<svg
   xmlns:dc="http://purl.org/dc/elements/1.1/"
   xmlns:cc="http://creativecommons.org/ns#"
   xmlns:rdf="http://www.w3.org/1999/02/22-rdf-syntax-ns#"
   xmlns:svg="http://www.w3.org/2000/svg"
   xmlns="http://www.w3.org/2000/svg"
   xmlns:sodipodi="http://sodipodi.sourceforge.net/DTD/sodipodi-0.dtd"
   xmlns:inkscape="http://www.inkscape.org/namespaces/inkscape"
   version="1.1"
   id="svg3820"
   width="1920"
   height="1080"
   viewBox="0 0 1920 1080"
   sodipodi:docname="self-portrait-wide.svg"
   inkscape:version="0.92.2 (5c3e80d, 2017-08-06)"
   inkscape:export-filename="/home/elm/Documents/Self-Portrait/export/self-portrait.png"
   inkscape:export-xdpi="192"
   inkscape:export-ydpi="192">
  <sodipodi:namedview
     pagecolor="#ffffff"
     bordercolor="#666666"
     borderopacity="1"
     objecttolerance="10"
     gridtolerance="10"
     guidetolerance="10"
     inkscape:pageopacity="0"
     inkscape:pageshadow="2"
     inkscape:window-width="1849"
     inkscape:window-height="1024"
     id="namedview3822"
     showgrid="false"
     units="px"
     inkscape:snap-others="true"
     inkscape:snap-global="true"
     inkscape:zoom="0.23862597"
     inkscape:cx="731.73851"
     inkscape:cy="687.14255"
     inkscape:window-x="71"
     inkscape:window-y="30"
     inkscape:window-maximized="1"
     inkscape:current-layer="layer16"
     inkscape:snap-bbox="true"
     inkscape:snap-grids="false"
     inkscape:bbox-paths="true"
     inkscape:bbox-nodes="true"
     inkscape:object-paths="true"
     inkscape:snap-intersection-paths="true"
     showguides="true"
     inkscape:guide-bbox="true"
     inkscape:snap-bbox-edge-midpoints="true"
     inkscape:snap-bbox-midpoints="true"
     inkscape:snap-smooth-nodes="true"
     inkscape:snap-midpoints="true"
     inkscape:snap-object-midpoints="true"
     inkscape:snap-center="true"
     inkscape:snap-page="true">
    <inkscape:grid
       spacingy="24"
       spacingx="24"
       units="in"
       id="grid3830"
       type="xygrid" />
    <sodipodi:guide
       id="guide1071"
       position="408.0,0"
       orientation="1056.0,0"
       inkscape:locked="false" />
    <sodipodi:guide
       id="guide1073"
       position="0,352.0"
       orientation="0,816.0"
       inkscape:locked="false" />
    <sodipodi:guide
       id="guide1075"
       position="0,704.0"
       orientation="0,816.0"
       inkscape:locked="false" />
    <sodipodi:guide
       position="0,1056"
       orientation="0,816"
       id="guide1181"
       inkscape:locked="false" />
    <sodipodi:guide
       position="816,1056"
       orientation="1056,0"
       id="guide1183"
       inkscape:locked="false" />
    <sodipodi:guide
       position="816,0"
       orientation="0,-816"
       id="guide1185"
       inkscape:locked="false" />
    <sodipodi:guide
       position="0,0"
       orientation="-1056,0"
       id="guide1187"
       inkscape:locked="false" />
    <sodipodi:guide
       position="283.5152,452.81433"
       orientation="291.07367,-707.25898"
       id="guide924"
       inkscape:locked="false" />
    <sodipodi:guide
       position="-423.74378,161.74066"
       orientation="161.74066,0"
       id="guide926"
       inkscape:locked="false" />
    <sodipodi:guide
       position="-423.74378,0"
       orientation="0,1920"
       id="guide928"
       inkscape:locked="false" />
    <sodipodi:guide
       position="1496.2562,0"
       orientation="-327.47229,-0.5084"
       id="guide930"
       inkscape:locked="false" />
    <sodipodi:guide
       position="1495.7478,327.47229"
       orientation="-125.34204,-1212.2326"
       id="guide932"
       inkscape:locked="false" />
  </sodipodi:namedview>
  <metadata
     id="metadata3826">
    <rdf:RDF>
      <cc:Work
         rdf:about="">
        <dc:format>image/svg+xml</dc:format>
        <dc:type
           rdf:resource="http://purl.org/dc/dcmitype/StillImage" />
        <dc:title></dc:title>
      </cc:Work>
    </rdf:RDF>
  </metadata>
  <defs
     id="defs3824">
    <clipPath
       id="clipPath3842"
       clipPathUnits="userSpaceOnUse">
      <rect
         style="stroke-width:3.77460217"
         y="0"
         x="0"
         height="1056"
         width="816"
         id="rect3844" />
    </clipPath>
    <clipPath
       id="clipPath3842-3"
       clipPathUnits="userSpaceOnUse">
      <rect
         style="stroke-width:3.77460217"
         y="0"
         x="0"
         height="1056"
         width="816"
         id="rect3844-5" />
    </clipPath>
    <clipPath
       id="clipPath3842-3-9"
       clipPathUnits="userSpaceOnUse">
      <rect
         style="stroke-width:3.77460217"
         y="0"
         x="0"
         height="1056"
         width="816"
         id="rect3844-5-1" />
    </clipPath>
    <clipPath
       id="clipPath3842-3-9-2"
       clipPathUnits="userSpaceOnUse">
      <rect
         style="stroke-width:3.77460217"
         y="0"
         x="0"
         height="1056"
         width="816"
         id="rect3844-5-1-7" />
    </clipPath>
    <clipPath
       id="clipPath3842-3-9-2-3"
       clipPathUnits="userSpaceOnUse">
      <rect
         style="stroke-width:3.77460217"
         y="0"
         x="0"
         height="1056"
         width="816"
         id="rect3844-5-1-7-6" />
    </clipPath>
  </defs>
  <g
     style="display:inline"
     inkscape:label="bottom"
     id="layer8"
     inkscape:groupmode="layer"
     transform="translate(0,24)" />
  <g
     style="display:inline"
     inkscape:label="bg"
     id="layer13"
     inkscape:groupmode="layer"
     transform="translate(0,24)">
    <g
       style="display:inline;opacity:1"
       inkscape:label="walls"
       id="layer16"
       inkscape:groupmode="layer">
      <path
         sodipodi:nodetypes="ccccc"
         inkscape:connector-curvature="0"
         id="path1024"
         d="M 1643.5216,-24 1588.3464,583.31172 1920,719.86685 V -24 Z"
         style="display:inline;fill:#b2dfdb;stroke:none;stroke-width:1px;stroke-linecap:butt;stroke-linejoin:miter;stroke-opacity:1" />
      <path
         inkscape:connector-curvature="0"
         id="path1056"
         d="M 0,772.3944 V -24 h 1643.5216 l -7.0368,627.18567 z"
         style="fill:#26a69a;stroke:none;stroke-width:1px;stroke-linecap:butt;stroke-linejoin:miter;stroke-opacity:1"
         sodipodi:nodetypes="ccccc" />
    </g>
    <g
       inkscape:label="floor"
       id="layer17"
       inkscape:groupmode="layer"
       style="display:inline">
      <path
         sodipodi:nodetypes="cccccc"
         inkscape:connector-curvature="0"
         id="path1022"
         d="M 1636.4848,603.18567 1920,719.86685 V 1056 H 0 V 772.3944 Z"
         style="display:inline;fill:#78909c;stroke:none;stroke-width:1px;stroke-linecap:butt;stroke-linejoin:miter;stroke-opacity:1" />
    </g>
    <g
       inkscape:label="surface"
       id="layer15"
       inkscape:groupmode="layer"
       style="display:inline">
      <path
         sodipodi:nodetypes="ccccc"
         inkscape:connector-curvature="0"
         id="path880-3-6"
         d="m 662.9687,634.4212 48.231,-2.8042 v 223.07345 l -47.9012,3.81954 z"
         style="display:inline;fill:#37474f;stroke:none;stroke-width:1px;stroke-linecap:butt;stroke-linejoin:miter;stroke-opacity:1" />
      <path
         inkscape:connector-curvature="0"
         id="path880"
         d="m 1699.9746,677.81563 12.5949,-0.81789 -23.5208,151.31061 -17.5942,3.51885 z"
         style="fill:#37474f;stroke:none;stroke-width:1px;stroke-linecap:butt;stroke-linejoin:miter;stroke-opacity:1"
         sodipodi:nodetypes="ccccc" />
      <path
         sodipodi:nodetypes="ccccc"
         inkscape:connector-curvature="0"
         id="path882"
         d="m 1699.9746,677.81563 -16.0189,-6.46657 -23.8912,151.0328 11.39,9.44534 z"
         style="display:inline;fill:#455a64;stroke:none;stroke-width:1px;stroke-linecap:butt;stroke-linejoin:miter;stroke-opacity:1" />
      <path
         sodipodi:nodetypes="ccccc"
         inkscape:connector-curvature="0"
         id="path874"
         d="M 749.2033,772.86632 1699.9746,677.81563 1413.2033,561.70193 705.933,612.04196 Z"
         style="display:inline;fill:#37474f;stroke:none;stroke-width:1px;stroke-linecap:butt;stroke-linejoin:miter;stroke-opacity:1" />
      <path
         sodipodi:nodetypes="ccccc"
         inkscape:connector-curvature="0"
         id="path876"
         d="m 1699.9746,677.81563 -11.1111,59.8863 -939.6602,136.45226 V 772.86632 Z"
         style="display:inline;fill:#263238;stroke:none;stroke-width:1px;stroke-linecap:butt;stroke-linejoin:miter;stroke-opacity:1" />
      <path
         sodipodi:nodetypes="ccccc"
         inkscape:connector-curvature="0"
         id="path880-3"
         d="m 701.2033,777.66499 48,-4.79867 v 223.07346 l -48,5.76212 z"
         style="display:inline;fill:#37474f;stroke:none;stroke-width:1px;stroke-linecap:butt;stroke-linejoin:miter;stroke-opacity:1" />
      <path
         sodipodi:nodetypes="ccccc"
         inkscape:connector-curvature="0"
         id="path973"
         d="m 701.2033,777.66499 -43.6556,-163.53391 48.3853,-2.08912 43.2703,160.82436 z"
         style="fill:#455a64;stroke:none;stroke-width:1px;stroke-linecap:butt;stroke-linejoin:miter;stroke-opacity:1" />
      <path
         sodipodi:nodetypes="ccccc"
         inkscape:connector-curvature="0"
         id="path977"
         d="m 701.2033,1001.7019 -9.5947,-14.33331 1.0226,-241.81452 8.5721,32.11092 z"
         style="fill:#546e7a;stroke:none;stroke-width:1px;stroke-linecap:butt;stroke-linejoin:miter;stroke-opacity:1" />
      <path
         inkscape:connector-curvature="0"
         id="path996"
         d="M 663.2985,858.50999 657.5477,846.0281 V 614.13108 l 5.421,20.29012 z"
         style="fill:#546e7a;stroke:none;stroke-width:1px;stroke-linecap:butt;stroke-linejoin:miter;stroke-opacity:1"
         sodipodi:nodetypes="ccccc" />
      <path
         sodipodi:nodetypes="ccccc"
         inkscape:connector-curvature="0"
         id="path884"
         d="m 1712.5695,676.99774 -287.9268,-116.12913 -12.2212,0.86708 287.5531,116.07994 z"
         style="display:inline;fill:#455a64;stroke:none;stroke-width:1px;stroke-linecap:butt;stroke-linejoin:miter;stroke-opacity:1" />
    </g>
    <g
       inkscape:groupmode="layer"
       id="layer18"
       inkscape:label="paper">
      <path
         style="fill:#cfd8dc;stroke:none;stroke-width:1px;stroke-linecap:butt;stroke-linejoin:miter;stroke-opacity:1"
         d="m 1255.5571,681.57619 -185.9604,7.81029 -32.2157,-46.35916 179.6109,-6.55881 z"
         id="path1190"
         inkscape:connector-curvature="0"
         sodipodi:nodetypes="ccccc" />
      <path
         style="fill:#b0bec5;stroke:none;stroke-width:1px;stroke-linecap:butt;stroke-linejoin:miter;stroke-opacity:1"
         d="m 1069.5967,689.38648 -1.0477,11.78623 -31.287,-47.52575 0.119,-10.61964 z"
         id="path1192"
         inkscape:connector-curvature="0"
         sodipodi:nodetypes="ccccc" />
      <path
         style="fill:#90a4ae;stroke:none;stroke-width:1px;stroke-linecap:butt;stroke-linejoin:miter;stroke-opacity:1"
         d="m 1255.5571,681.57619 -2.1051,9.31176 -184.903,10.28476 1.0477,-11.78623 z"
         id="path1194"
         inkscape:connector-curvature="0"
         sodipodi:nodetypes="ccccc" />
      <path
         style="opacity:1;fill:#263238;fill-rule:nonzero;stroke:none"
         d="m 1094.2717,641.98904 c 0.1017,-0.0199 0.2076,-0.0138 0.3047,0.0273 0.4511,0.26068 0.9653,0.39489 1.4394,0.60938 -0.8105,1.38281 -1.6211,2.76562 -2.4316,4.14844 -0.1808,0.10023 -0.2794,0.39833 -0.1074,0.54882 l -4.3282,11.86914 c -0.6627,0.71941 -1.3255,1.43881 -1.9882,2.15821 -1.112,-0.20703 -2.224,-0.41407 -3.336,-0.6211 -0.7627,-0.4977 -1.591,-1.09126 -1.834,-2.02148 0,-0.009 2e-4,-0.0183 0,-0.0273 -0.1254,-0.0877 -0.2147,-0.16258 -0.2011,-0.18555 0.054,-0.0756 0.1065,-0.15104 0.1601,-0.22656 -0.013,-0.63347 0.2482,-1.25989 0.586,-1.78711 1.7918,-2.93838 3.6156,-5.85636 5.4199,-8.78711 0.5989,-0.96931 1.1979,-1.93889 1.7969,-2.90821 0.3839,-0.51987 1.0136,-0.89192 1.6738,-0.84179 1.039,-0.31728 1.6768,-1.269 2.5664,-1.82813 0.081,-0.0608 0.1795,-0.10703 0.2812,-0.12695 z m 22.1133,1.13086 0.084,0.0996 c 0.013,0.1912 -0.2616,-0.14632 -0.084,-0.0996 z m -2.2891,0.0508 c 0.7188,0.2207 1.4375,0.44141 2.1563,0.66211 l 3.3047,0.35352 c 1.789,0.53124 3.5781,1.0625 5.3671,1.59374 -0.2461,0.48438 -0.4921,0.96875 -0.7382,1.45313 -1.9506,-0.69206 -3.9011,-1.38411 -5.8516,-2.07617 -0.2307,0.11134 -0.5392,0.0435 -0.6836,-0.17383 -0.1283,0.0898 0.101,0.27524 -0.051,0.35156 -0.1803,0.73177 -0.3607,1.46355 -0.541,2.19531 l -1.5938,-0.2871 c -0.123,0.43033 -0.2461,0.86067 -0.3691,1.29101 -1.0312,-0.1901 -2.0625,-0.38021 -3.0937,-0.57031 -0.1485,0.49935 -0.2969,0.9987 -0.4454,1.49805 0.321,0.32226 0.642,0.64453 0.9629,0.96679 -0.033,0.21615 -0.066,0.43229 -0.1,0.64844 1.1732,0.35221 2.3464,0.70443 3.5196,1.05664 0.1568,-0.057 -0.046,-0.29816 0.125,-0.33984 0.3392,-0.79493 0.6783,-1.58985 1.0175,-2.38477 0.6713,-0.61719 1.3425,-1.23437 2.0137,-1.85156 1.0755,0.23437 2.1511,0.46875 3.2266,0.70312 0.9583,0.40951 1.9166,0.81901 2.875,1.22852 -9e-4,-0.1339 0.1773,-0.26549 0.291,-0.15625 l 3.123,-1.42578 c 0.2029,-0.0723 0.4338,-0.106 0.5918,-0.26758 l 2.8301,0.95508 -0.1582,0.0723 c 0.1256,-0.0299 0.3301,0.0101 0.3926,-0.14843 0.064,0.0241 0.1697,0.19643 0.2578,0.0918 -0.8451,0.89323 -1.6901,1.78646 -2.5352,2.67969 -0.4583,0.94141 -0.9166,1.88281 -1.375,2.82422 -0.7955,0.58073 -1.5911,1.16146 -2.3867,1.74219 l -2.9394,-1.06446 c -0.4479,-0.005 -0.7643,0.52808 -0.5996,0.92969 l -0.2422,1.92969 c -1.892,0.75651 -3.7839,1.51302 -5.6758,2.26953 -0.9622,-0.5332 -1.9245,-1.06641 -2.8867,-1.59961 -0.4473,-0.20378 -0.8946,-0.40755 -1.3418,-0.61133 -0.4408,1.10352 -0.8815,2.20703 -1.3223,3.31055 -1.6263,-0.4388 -3.2526,-0.8776 -4.8789,-1.31641 0.957,-2.80664 1.9141,-5.61328 2.8711,-8.41992 -0.3919,-0.52213 -0.7839,-1.04426 -1.1758,-1.56641 0.3633,-1.03515 0.7266,-2.07031 1.0899,-3.10546 0.4121,-0.95248 0.8242,-1.90495 1.2363,-2.85743 0.4108,0.0846 0.8216,0.16928 1.2324,0.25391 -0.053,0.23903 0.4181,0.19657 0.3301,-0.0273 0.7233,-0.27019 1.4466,-0.54037 2.1699,-0.81055 z m -30.4805,1.83789 c 0.8816,0.46784 1.1725,1.64136 0.8399,2.53906 -0.3651,1.02592 -1.1218,1.84395 -1.7695,2.69922 -2.6933,3.42421 -5.3869,6.84923 -8.0801,10.27344 -1.127,1.23503 -2.2539,2.47005 -3.3809,3.70508 -0.9765,0.53873 -1.9386,1.2735 -3.1054,1.27148 -0.9804,0.0521 -2.0862,0.12056 -2.918,-0.49609 -0.7488,-0.58491 -1.0477,-1.65241 -0.7383,-2.54688 0.3249,-0.94843 0.9688,-1.74199 1.5098,-2.57422 1.5156,-2.19836 3.0314,-4.39722 4.5468,-6.5957 0.7519,-0.89801 1.6293,-1.69243 2.6114,-2.33203 2.3374,-1.61027 4.7388,-3.1247 7.123,-4.66406 0.8597,-0.49372 1.7474,-0.95626 2.7051,-1.22852 0.2158,-0.0347 0.4362,-0.0855 0.6562,-0.0508 z m 12.0528,3.76563 0.033,0.043 c -0.016,0.15122 0.2621,0.15328 0.2675,0.01 0.124,-0.0355 0.2812,0.10008 0.3731,-0.043 0.1646,0.19369 0.4378,-0.0784 0.6152,0.084 l 3.0489,0.041 -0.9942,3.24609 c -1.3262,2.6133 -2.6523,5.22657 -3.9785,7.83985 0.7832,0.78385 1.5664,1.56771 2.3496,2.35156 1.3431,0.82748 2.6862,1.65495 4.0293,2.48242 4.3281,1.93034 8.6563,3.86068 12.9844,5.79102 -0.433,1.33854 -0.8659,2.67708 -1.2988,4.01562 -0.9492,-0.33549 -1.8991,-0.72094 -2.8438,-1.08789 -2.201,-0.90472 -4.4232,-1.76192 -6.5723,-2.78711 -1.1032,-0.49899 -2.1225,-1.15898 -3.1484,-1.79687 -1.2004,-0.86342 -2.3989,-1.73149 -3.5605,-2.64649 -1.4542,-1.22414 -2.9346,-2.42378 -4.2872,-3.76171 -0.7179,-0.68252 -1.2313,-1.66967 -1.0996,-2.68164 0.1524,-1.10406 0.6285,-2.12657 1.0059,-3.16602 1,-2.65413 2.0374,-5.29448 3.0762,-7.93359 z m 9.0762,2.06445 0.031,0.0566 c -0.6895,2.26237 -1.379,4.52474 -2.0684,6.78711 -0.2507,1.07682 -0.5013,2.15364 -0.752,3.23047 3.0007,0.94596 6.0013,1.89192 9.002,2.83789 l 1.3711,3.29883 -10.3008,-3.67383 c -0.9177,-0.48008 -1.9193,-1.13463 -2.1426,-2.22266 -0.2481,-1.0349 0.1405,-2.06838 0.3399,-3.07617 0.2688,-1.10507 0.5665,-2.2023 0.8535,-3.30273 0.4048,-0.89944 0.7965,-1.8562 1.5625,-2.51563 0.6871,-0.49303 1.3913,-0.96357 2.1035,-1.41992 z m 33.9687,1.27148 0.018,0.0957 c 0.4994,0.37109 0.9987,0.74218 1.4981,1.11328 0.3997,-0.28841 0.7994,-0.57683 1.1992,-0.86524 1.1875,0.75847 2.375,1.51693 3.5625,2.27539 0.2953,0.0224 0.2265,0.53516 -0.055,0.50977 -5.0775,3.99284 -10.155,7.98568 -15.2324,11.97851 2.9817,3.12176 5.9635,6.24349 8.9453,9.36524 l -3.0801,3.5293 c -0.9251,-0.57878 -1.8503,-1.15756 -2.7754,-1.73633 -0.9889,1.12174 -1.9779,2.24349 -2.9668,3.36523 l -3.291,-1.63281 c -0.9323,-0.59831 -1.8646,-1.19661 -2.7969,-1.79492 l -3.5527,-3.61134 c -0.6276,-0.9043 -1.2553,-1.80859 -1.8829,-2.71289 -0.4908,-1.7526 -0.9817,-3.50521 -1.4726,-5.25781 0.7034,-0.90889 1.3947,-1.82873 2.1621,-2.68555 3.5866,-2.4349 7.1732,-4.86979 10.7598,-7.30469 2.9773,-1.56214 5.9507,-3.13244 8.9609,-4.63086 z m -11.748,0.69336 c 0,-0.007 -0.02,-0.006 -0.049,0.008 l -0.045,0.0723 c 0.037,0.0287 0.1088,-0.0587 0.094,-0.0801 z m -1.3086,0.1211 c -0.01,-0.005 -0.022,0.004 -0.045,0.0312 l -0.019,0.0879 c 0.049,0.0141 0.087,-0.10559 0.064,-0.11914 z m 22.8691,3.58593 c 0.046,-0.007 0.092,-10e-4 0.1309,0.0254 l 7.1582,6.70704 0.5898,0.61132 c -1.903,1.35157 -3.806,2.70313 -5.709,4.05469 -1.7956,1.0319 -3.5911,2.0638 -5.3867,3.0957 2.901,0.86915 5.8021,1.73829 8.7031,2.60743 -0.4993,1.24218 -0.9987,2.48437 -1.498,3.72656 -0.082,0.16992 -0.1641,0.33984 -0.2461,0.50976 l -3.416,-0.77343 -4.668,-1.4961 c -1.0163,-0.43424 -2.0325,-0.86849 -3.0488,-1.30273 -1.002,-0.528 -2.0039,-1.05599 -3.0059,-1.58399 -0.4316,-1.03971 -0.8633,-2.07942 -1.2949,-3.11914 -0.2552,-1.05208 -0.5104,-2.10416 -0.7656,-3.15625 2.8528,-2.347 5.7057,-4.69401 8.5586,-7.04101 l 3.7734,-2.81055 c 0.035,-0.0265 0.079,-0.0473 0.125,-0.0547 z m -28.9414,0.9043 c -0.035,-0.002 -0.08,0.008 -0.082,0.0195 l 0.1074,0.0332 c 0.035,-0.0366 0.01,-0.0507 -0.025,-0.0527 z m -7.8984,0.01 c -0.013,0.002 -0.024,0.0118 -0.033,0.0332 l 0.164,0.004 c -0.043,0.013 -0.093,-0.044 -0.1308,-0.0371 z m -31.2344,3.86523 c 0.183,0.006 0.3664,0.0476 0.5469,0.13477 l 0.1757,0.0469 0.094,0.0254 c 1.0135,0.34971 2.029,0.70445 3.0039,1.15235 0.9929,0.43791 1.9683,0.91805 2.9317,1.41601 0.845,0.49861 1.5387,1.23659 1.9961,2.10352 0.2363,0.40347 0.3931,0.84663 0.4824,1.30468 -0.7758,0.0225 -1.5467,0.11474 -2.3184,0.19141 2.5847,1.11328 5.1693,2.22656 7.7539,3.33984 1.1941,0.58399 2.3881,1.16797 3.5821,1.75196 2.3021,1.57812 4.6041,3.15625 6.9062,4.73437 0.7919,0.59579 1.5705,1.6248 1.1387,2.65625 -0.4319,1.01679 -1.5006,1.57424 -2.5312,1.79883 -1.3532,0.33353 -2.7469,0.46687 -4.1368,0.52734 -1.0183,0.0144 -2.0618,0.0189 -3.039,-0.30468 -1.2683,-0.42756 -2.4078,-1.14123 -3.5625,-1.80274 -3.3231,-1.99333 -6.6212,-4.02827 -9.9278,-6.04883 -1.5949,-0.99031 -3.2018,-1.96262 -4.789,-2.96484 -0.8011,-0.54845 -1.6189,-1.097 -2.2735,-1.82227 -0.5648,-0.716 -0.9526,-1.56247 -1.1699,-2.44531 -0.3702,-1.03994 0.1168,-2.19385 0.9063,-2.90039 0.8944,-0.76621 1.8151,-1.50071 2.7187,-2.25586 0.4209,-0.35135 0.9628,-0.65554 1.5117,-0.63867 z"
         id="path1225"
         inkscape:connector-curvature="0"
         sodipodi:nodetypes="ccccccccccccccccccccccccccccccccccccccccccccccccccccccccccccccccccccccccccccccccccccccccccccccccccccccccccccccccccccccccccccccccccccccccccscccscccccccccccccccccccccccccccccccccccccccccccccccccccccccccc" />
    </g>
  </g>
  <g
     inkscape:label="evan"
     id="layer14"
     inkscape:groupmode="layer"
     transform="translate(0,24)">
    <g
       style="display:inline"
       inkscape:label="arm-under"
       id="layer2"
       inkscape:groupmode="layer">
      <path
         sodipodi:nodetypes="cccsssscc"
         inkscape:connector-curvature="0"
         id="path825"
         d="m 1305.136,396.38669 c -12.2187,29.8297 -5.6466,63.12402 -16.8525,93.97207 -27.6728,42.38024 -37.6708,85.51335 -50.7219,131.79968 -3.143,11.00048 -7.3336,19.3818 7.8575,15.71497 15.1912,-3.66683 14.6673,-5.23832 34.573,-35.6206 19.9056,-30.38228 40.3351,-59.71689 44.5257,-70.71737 4.1907,-11.00048 9.1857,-7.24377 10.7572,-25.57791 1.5715,-18.33413 11.2438,-15.80484 14.9106,-62.94976 13.5872,-52.09861 -21.1732,-97.24778 -45.0496,-46.62108 z"
         style="display:inline;opacity:1;fill:#ffcdd2;fill-rule:nonzero;stroke:none;stroke-width:1px;stroke-linecap:butt;stroke-linejoin:miter;stroke-opacity:1" />
    </g>
    <g
       inkscape:label="foot bottom"
       id="layer12"
       inkscape:groupmode="layer">
      <path
         sodipodi:nodetypes="cccczscscc"
         inkscape:connector-curvature="0"
         id="path893"
         d="m 1510.6985,807.19523 c 32.9818,-2.66383 22.7881,24.84111 39.0778,38.70737 15.2719,21.48312 61.2897,44.4891 66.5523,59.79933 8.5143,16.58847 -6.3063,24.83384 -20.1027,19.54189 -31.0226,-14.03544 -57.9584,-39.23562 -79.0226,-46.00474 -21.0642,-6.76911 -31.1367,-9.44533 -45.9529,-21.66871 -14.8163,-12.22338 -22.2244,-30.55844 -22.2244,-30.55844 0,0 2.9633,-19.26108 21.1131,-25.92838 18.1499,-6.6673 25.9284,-6.6673 25.9284,-6.6673 0,0 5.7683,13.89874 14.631,12.77898 z"
         style="fill:#263238;stroke:none;stroke-width:1px;stroke-linecap:butt;stroke-linejoin:miter;stroke-opacity:1" />
    </g>
    <g
       inkscape:label="pants bottom"
       id="layer9"
       inkscape:groupmode="layer">
      <path
         sodipodi:nodetypes="ccccsssccsczczzcsccc"
         inkscape:connector-curvature="0"
         id="path41"
         d="m 1492.7909,702.38559 c -17.1859,1.71952 -34.3198,2.58843 -53.7658,2.76296 -12.2234,0 -16.7228,-1.63505 -12.6483,0.58739 19.7277,9.52722 26.1317,16.25699 39.6879,39.04598 21.1131,10.00095 34.8181,51.11595 42.2262,54.4496 7.4081,3.33365 14.0754,7.03771 7.4081,14.81622 -6.6673,7.77851 -10.7417,24.44676 -31.8549,24.44676 -21.1131,0 -51.4863,-0.74082 -58.524,-7.40811 -9.4502,-9.11808 -11.9415,-24.70065 -21.4835,-24.81716 -8.5193,0 -24.0764,-0.74082 -28.5212,-10.37136 -4.4449,-9.63054 -2.9633,-15.55702 -10.001,-18.52027 -7.0377,-2.96324 -19.2539,0.11842 -18.5203,-8.14892 0.7337,-8.26734 -10.0875,-20.74251 -23.3355,-29.63243 -2.9632,-2.59284 -15.8516,-1.70836 -14.4458,-11.11216 1.4059,-9.4038 -8.733,-6.82823 -6.2783,-30.68009 2.4548,-23.85186 8.6296,-44.4452 32.2067,-54.88356 15.557,-6.6673 24.4467,-9.63054 38.1517,-12.96419 13.705,-3.33365 30.7848,-10.35273 42.6377,-11.46395 17.8782,0.40928 26.7651,3.18603 38.1107,3.31503 101.0428,2.2924 121.3759,12.45762 38.9496,80.57826 z"
         style="opacity:1;fill:#00695c;stroke:none;stroke-width:1px;stroke-linecap:butt;stroke-linejoin:miter;stroke-opacity:1" />
    </g>
    <g
       inkscape:label="foot top"
       id="layer11"
       inkscape:groupmode="layer">
      <path
         sodipodi:nodetypes="cccczsscsc"
         inkscape:connector-curvature="0"
         id="path890"
         d="m 1511.995,861.08923 c 0,0 -1.4817,10.92695 4.4448,32.78087 6.1206,32.13586 27.2666,53.62716 3.7041,77.22953 -21.6266,20.89869 -60.2144,55.17567 -82.23,54.60227 -33.4653,2.2802 -32.5305,-24.1787 -20.3723,-37.93403 12.1582,-13.7553 37.4246,-23.5978 41.4854,-37.96655 4.8153,-17.03865 9.2601,-23.15034 6.2969,-36.48493 -2.9633,-13.3346 -9.6306,-28.52122 -11.1122,-35.92933 -1.4816,-7.4081 -11.1122,-13.33459 5.5561,-16.66824 16.6682,-3.33365 52.2272,0.37041 52.2272,0.37041 z"
         style="fill:#37474f;stroke:none;stroke-width:1px;stroke-linecap:butt;stroke-linejoin:miter;stroke-opacity:1" />
    </g>
    <g
       inkscape:label="pants top"
       id="layer10"
       inkscape:groupmode="layer">
      <path
         sodipodi:nodetypes="cccsscscccscsccccccssscscczcccscc"
         inkscape:connector-curvature="0"
         id="path41-3"
         d="m 1581.26,567.35818 c 0,0 1.1115,10.36994 3.334,11.85156 2.2224,1.48162 4.0754,1.85317 3.705,4.81641 -0.3704,2.96324 -3.3337,5.55662 -1.1113,11.85351 2.2224,6.2969 5.5558,17.0386 4.0742,18.89063 -1.4816,1.85203 1.4805,6.66601 1.4805,6.66602 0,0 0.3717,2.22321 -0.3691,7.77929 -0.7409,5.55608 -3.3337,24.07593 -6.2969,28.15039 -24.3068,33.84164 -57.1012,44.28795 -93.3028,45.19746 2.2961,7.68904 4.5378,15.69784 5.6563,20.17187 2.3572,9.42899 8.2717,52.01726 7.334,59.7168 -0.5529,4.53973 7.0699,1.61879 9.168,12.83398 0.5238,2.88108 -2.3589,12.04796 4.7128,23.57227 7.0718,11.52431 9.9528,24.8822 10.4766,28.28711 0.5238,3.40491 -4.7134,6.02396 -9.166,13.0957 -4.4526,7.07173 -2.8814,12.83278 -7.334,17.02344 -4.4526,4.19066 -28.5491,5.23845 -38.5019,7.5957 -9.9529,2.35724 -22.0002,-0.78631 -29.5958,-1.83398 -7.5955,-1.04766 -8.1193,-10.47496 -10.4765,-15.18945 -2.3573,-4.7145 -9.4297,-18.85956 -9.4297,-21.2168 0,-2.35725 6.8096,-14.66734 8.1191,-20.69141 1.3096,-6.02407 -1.3087,-4.19 -6.2851,-8.64258 -4.9764,-4.45257 -20.9543,-43.74077 -22.002,-50.8125 -1.0476,-7.07174 -13.6189,-31.29753 -16.5,-35.61914 -2.6124,-3.91869 -1.6825,-19.23929 -1.6797,-24.03711 -11.5835,-1.151 -9.6117,-20.04656 -13.4355,-28.15234 -1.4816,-2.77804 -6.7322,-7.21386 -6.5751,-12.96308 0.157,-5.74922 1.0054,-34.52505 5.8329,-35.7459 13.705,-3.33365 30.7857,-10.35167 42.6387,-11.46289 43.4815,-0.79121 58.5757,-0.79121 88.4863,-5.94532 18.5203,-7.03771 29.6317,-8.51927 44.8184,-18.89062 15.1866,-10.37135 27.0389,-19.26113 32.2246,-26.29883 z"
         style="opacity:1;fill:#00796b;fill-rule:nonzero;stroke:none;stroke-width:1px;stroke-linecap:butt;stroke-linejoin:miter;stroke-opacity:1" />
    </g>
    <g
       style="display:inline"
       inkscape:label="torso"
       id="layer1"
       inkscape:groupmode="layer">
      <path
         inkscape:connector-curvature="0"
         id="path3846"
         d="m 1303.8166,209.5242 c -0.8613,0.01 -1.7223,0.0379 -2.584,0.0762 0.8614,-0.0382 1.7229,-0.0661 2.584,-0.0762 z m 0,0 c 1.0802,-0.0126 2.1585,0.006 3.2364,0.0391 -1.0775,-0.0327 -2.1566,-0.0517 -3.2364,-0.0391 z m 3.9746,0.0625 c 1.0592,0.0425 2.1175,0.10374 3.1719,0.1914 -1.0549,-0.0877 -2.1122,-0.14889 -3.1719,-0.1914 z m -7.4843,0.0644 c -0.5861,0.0328 -1.1723,0.0697 -1.7579,0.11523 0.5856,-0.0455 1.1718,-0.0825 1.7579,-0.11523 z m 11.1035,0.16992 c 0.955,0.0853 1.9062,0.19106 2.8554,0.31445 -0.9488,-0.12332 -1.9008,-0.22915 -2.8554,-0.31445 z m -13.791,0.0234 c -0.5955,0.0531 -1.1908,0.11372 -1.7852,0.17969 0.5946,-0.066 1.1895,-0.12661 1.7852,-0.17969 z m -2.6583,0.2793 c -0.6497,0.079 -1.2975,0.16761 -1.9453,0.26171 0.6476,-0.0941 1.2959,-0.18274 1.9453,-0.26171 z m 19.9864,0.0996 c 1.0368,0.1451 2.0701,0.31398 3.0976,0.50586 -1.0279,-0.19194 -2.0604,-0.36072 -3.0976,-0.50586 z m -22.6211,0.25977 c -0.8546,0.13128 -1.7086,0.2747 -2.5586,0.43164 0.8502,-0.15697 1.7038,-0.30035 2.5586,-0.43164 z m 26.3633,0.375 c 0.907,0.17852 1.809,0.37378 2.707,0.58984 -0.8976,-0.21596 -1.8004,-0.41139 -2.707,-0.58984 z m -29.5938,0.18945 c -0.6508,0.12549 -1.2999,0.25629 -1.9473,0.39649 0.6475,-0.1402 1.2964,-0.271 1.9473,-0.39649 z m 32.9551,0.55469 c 0.1775,0.0447 0.3541,0.0925 0.5313,0.13867 -0.1771,-0.0461 -0.3538,-0.094 -0.5313,-0.13867 z m -35.75,0.0332 c -0.5659,0.12842 -1.1307,0.26095 -1.6934,0.40039 0.563,-0.1395 1.1273,-0.27191 1.6934,-0.40039 z m 37.8184,0.52539 c 0.2132,0.0613 0.426,0.12401 0.6386,0.1875 -0.2125,-0.0634 -0.4255,-0.12627 -0.6386,-0.1875 z m -40.5176,0.12891 c -0.5716,0.14877 -1.1413,0.30491 -1.709,0.46484 0.5679,-0.15999 1.1372,-0.31602 1.709,-0.46484 z m 42.6816,0.53711 c 0.1652,0.0539 0.3314,0.10482 0.4961,0.16016 -0.1647,-0.0553 -0.3309,-0.10621 -0.4961,-0.16016 z m -45.1504,0.14258 c -0.7226,0.21053 -1.4407,0.42993 -2.1562,0.6582 0.7149,-0.22807 1.4341,-0.44784 2.1562,-0.6582 z m 47.6309,0.7207 c 0.1243,0.0465 0.2471,0.0972 0.3711,0.14453 -0.124,-0.0474 -0.2468,-0.098 -0.3711,-0.14453 z m -50.2031,0.0664 c -0.8265,0.2681 -1.6473,0.55058 -2.4629,0.84179 0.816,-0.29134 1.636,-0.57358 2.4629,-0.84179 z m 52.1738,0.71484 c 0.2214,0.0919 0.4417,0.18662 0.6621,0.28125 -0.2202,-0.0945 -0.4409,-0.18943 -0.6621,-0.28125 z m -55.2285,0.3457 c -0.6074,0.22174 -1.2119,0.44738 -1.8125,0.68165 0.6006,-0.23427 1.2051,-0.45991 1.8125,-0.68165 z m 57.1972,0.51573 c 0.2127,0.0974 0.4251,0.19486 0.6368,0.29492 -0.2118,-0.10012 -0.424,-0.19742 -0.6368,-0.29492 z m -59.9218,0.5293 c -0.5055,0.20364 -1.0077,0.41262 -1.5079,0.625 0.5001,-0.21233 1.0025,-0.4214 1.5079,-0.625 z m 62.1953,0.57031 c 0.087,0.0445 0.175,0.0859 0.2617,0.13086 -0.087,-0.0449 -0.1748,-0.0864 -0.2617,-0.13086 z m -64.5782,0.42969 c -0.5785,0.25312 -1.1539,0.51272 -1.7246,0.77734 0.571,-0.26476 1.1458,-0.5241 1.7246,-0.77734 z m 66.752,0.74023 c 0.1308,0.0741 0.2603,0.15134 0.3906,0.22656 -0.1303,-0.0752 -0.2598,-0.15244 -0.3906,-0.22656 z m -69.0957,0.32227 c -0.7801,0.36922 -1.5524,0.74648 -2.3164,1.13672 0.7638,-0.39012 1.5365,-0.76761 2.3164,-1.13672 z m 70.875,0.73242 c 0.2327,0.14325 0.4643,0.28866 0.6953,0.43554 -0.2309,-0.14681 -0.4627,-0.29236 -0.6953,-0.43554 z m -73.4609,0.54687 c -0.663,0.34166 -1.3189,0.69176 -1.9688,1.04883 0.65,-0.35715 1.3056,-0.7071 1.9688,-1.04883 z m 75.3613,0.67774 c 0.1854,0.1246 0.3724,0.24601 0.5566,0.37304 -0.1843,-0.12707 -0.3711,-0.2484 -0.5566,-0.37304 z m -78.0313,0.76367 c -0.5058,0.28438 -1.0086,0.57363 -1.5058,0.86719 0.4975,-0.29379 0.9996,-0.5826 1.5058,-0.86719 z m -2.2871,1.33398 c -0.4932,0.29874 -0.9809,0.60252 -1.4648,0.91016 0.4838,-0.30759 0.9717,-0.61146 1.4648,-0.91016 z m 84.3184,0.85157 c 0.2056,0.16614 0.4094,0.33632 0.6133,0.50586 -0.2039,-0.16956 -0.4077,-0.3397 -0.6133,-0.50586 z m -86.416,0.46093 c -0.6275,0.40738 -1.2468,0.82207 -1.8574,1.24414 0.6103,-0.42188 1.2301,-0.83693 1.8574,-1.24414 z m 88.1523,1.00391 c 0.1864,0.16343 0.3738,0.32579 0.5586,0.49219 -0.185,-0.16655 -0.372,-0.32861 -0.5586,-0.49219 z m -90.2265,0.38867 c -0.6725,0.46823 -1.3338,0.94609 -1.9844,1.43164 0.651,-0.48585 1.3115,-0.96313 1.9844,-1.43164 z m 92.0527,1.28516 c 0.122,0.11674 0.2459,0.22955 0.3672,0.34765 -0.1212,-0.11799 -0.2453,-0.23102 -0.3672,-0.34765 z m -94.5801,0.5625 c -0.4983,0.37925 -0.992,0.76119 -1.4766,1.15039 0.4846,-0.38925 0.9782,-0.77109 1.4766,-1.15039 z m 96.5273,1.38476 c 0.1144,0.12041 0.2263,0.24548 0.3399,0.36719 -0.1136,-0.12163 -0.2256,-0.24685 -0.3399,-0.36719 z m -98.4843,0.15625 c -0.4655,0.38075 -0.9232,0.76648 -1.375,1.15625 0.4517,-0.38969 0.9096,-0.77557 1.375,-1.15625 z m 100.041,1.55469 c 0.1491,0.16996 0.2976,0.34133 0.4453,0.51367 -0.1477,-0.17231 -0.2962,-0.34374 -0.4453,-0.51367 z m -101.9981,0.10938 c -0.4461,0.39393 -0.8845,0.79269 -1.3164,1.19531 0.432,-0.40274 0.8701,-0.80126 1.3164,-1.19531 z m -1.75,1.5957 c -0.5818,0.5526 -1.1512,1.11166 -1.705,1.67969 0.5536,-0.56786 1.1234,-1.12725 1.705,-1.67969 z m 105.3301,0.17578 c 0.1254,0.15541 0.2507,0.30956 0.375,0.4668 -0.1243,-0.15729 -0.2495,-0.31134 -0.375,-0.4668 z m -107.1074,1.58008 c -0.5234,0.53871 -1.0321,1.0867 -1.5293,1.63867 0.4975,-0.55239 1.0055,-1.09956 1.5293,-1.63867 z m 108.9277,0.78125 c 0.6657,0.68524 1.2897,1.38803 1.875,2.10547 -0.5853,-0.71745 -1.2093,-1.42023 -1.875,-2.10547 z m -110.8574,1.3125 c -0.3748,0.42504 -0.7428,0.85271 -1.1015,1.28515 0.3586,-0.43227 0.7269,-0.86027 1.1015,-1.28515 z m -1.5801,1.87305 c -0.3269,0.40536 -0.6465,0.81313 -0.9589,1.2246 0.3123,-0.41146 0.6321,-0.81925 0.9589,-1.2246 z m 115.4942,0.46875 c 0.3157,0.43781 0.6177,0.88116 0.9082,1.32812 -0.2905,-0.44699 -0.5925,-0.89029 -0.9082,-1.32812 z m -116.9082,1.35937 c -0.3406,0.46234 -0.6704,0.92887 -0.9922,1.39844 0.322,-0.46983 0.6515,-0.93585 0.9922,-1.39844 z m 118.3672,0.8457 c 0.6077,1.00065 1.1642,2.01881 1.6621,3.05469 -0.4977,-1.0355 -1.0547,-2.0544 -1.6621,-3.05469 z m -119.6621,0.99024 c -0.407,0.60775 -0.7973,1.22074 -1.1719,1.83984 0.3744,-0.61881 0.7651,-1.23237 1.1719,-1.83984 z m -1.4981,2.4043 c -0.2546,0.4346 -0.5059,0.87073 -0.7441,1.31054 0.2383,-0.43995 0.4894,-0.8758 0.7441,-1.31054 z m -1.1211,2.03124 c -0.2251,0.43466 -0.4436,0.87116 -0.6523,1.31055 0.2088,-0.43961 0.4271,-0.87567 0.6523,-1.31055 z m -0.9453,1.93946 c -0.2122,0.46654 -0.4141,0.93474 -0.6074,1.40625 0.1932,-0.47132 0.3953,-0.9399 0.6074,-1.40625 z m 126.8281,0.51367 c 0.5421,1.63295 0.9874,3.28509 1.3594,4.93945 -0.372,-1.65445 -0.8173,-3.30641 -1.3594,-4.93945 z m -127.6816,1.49414 c -0.2588,0.66169 -0.5039,1.32735 -0.7246,1.99805 0.2206,-0.67046 0.4659,-1.3366 0.7246,-1.99805 z m 129.5469,5.92773 c 0.4565,2.47903 0.7742,4.94468 1.0312,7.3418 -0.257,-2.39722 -0.5746,-4.86263 -1.0312,-7.3418 z m 19.8398,67.69532 c 0.1508,0.10852 0.303,0.21517 0.4551,0.32226 -0.152,-0.10687 -0.3043,-0.21394 -0.4551,-0.32226 z m 2.2051,1.50586 c 0.096,0.0624 0.1908,0.12564 0.2871,0.1875 -0.096,-0.0618 -0.1913,-0.12524 -0.2871,-0.1875 z m 4.8242,2.8457 c 34.6422,18.54626 91.7992,13.18339 121.6543,81.58789 10.9638,16.28916 17.8553,43.85571 20.3613,55.13281 2.506,11.27711 7.0367,20.36213 14.4102,33.9043 7.3735,13.54217 26.0012,36.57763 30.3867,44.0957 4.3855,7.51808 3.4453,24.4336 3.4453,24.4336 0,0 0.6268,4.38572 -18.7949,19.42187 -19.4217,15.03614 -46.9878,27.56742 -84.5781,34.45899 -37.5904,6.89156 -85.832,-5.0129 -93.9766,-9.39844 -8.1446,-4.38554 -7.5189,-17.54243 -9.3984,-33.20508 -1.8162,-15.29992 -3.6421,-35.70087 -13.4688,-56.07226 -6.6363,-18.54889 -58.7146,-24.5417 -30.0722,-86.77149 4.3855,-5.01204 7.2037,-15.66221 9.3964,-25.37305 2.0825,-9.2225 -0.9157,-12.23067 -1.7597,-15.99804 6.9735,-2.4859 12.6462,-6.04316 17.7793,-10.39844 12.2233,-10.37135 29.632,-40.0041 34.4472,-54.82031 z m -141.0996,24.97852 c 0.017,1.02201 6e-4,1.84216 -0.059,2.37695 0.059,-0.53473 0.076,-1.35399 0.059,-2.37695 z m -0.5762,2.97656 c 0.055,-0.0126 0.1209,0.01 0.1992,0.0684 -0.078,-0.0587 -0.1445,-0.079 -0.1992,-0.0664 4e-4,-1e-4 -4e-4,-0.002 0,-0.002 z m 0.1992,0.0684 c 0.039,0.0294 0.075,0.0348 0.1075,0.0195 -0.033,0.0159 -0.068,0.0101 -0.1075,-0.0195 z m -0.33,0.0664 c -0.066,0.14987 -0.088,0.41476 -0.076,0.75977 -0.012,-0.34507 0.011,-0.60987 0.076,-0.75977 z m -0.076,0.75977 c 0.024,0.69002 0.1909,1.69883 0.4453,2.73633 -0.2545,-1.03765 -0.4209,-2.0462 -0.4453,-2.73633 z m 15.2382,4.62109 c 0.023,0.0529 0.062,0.11028 0.1153,0.17383 -0.053,-0.0639 -0.092,-0.12074 -0.1153,-0.17383 z m 7.1836,11.77149 c -0.022,0.30109 -0.1045,0.68376 -0.1113,1.12109 0.01,-0.4373 0.089,-0.82007 0.1113,-1.12109 z m -0.088,1.57617 c 0.02,0.15663 0.054,0.32271 0.1016,0.49219 -0.047,-0.17029 -0.082,-0.33485 -0.1016,-0.49219 z m 0.1016,0.49215 c 0.1233,0.44395 0.341,0.91213 0.6075,1.33789 -0.2667,-0.42532 -0.4838,-0.89419 -0.6075,-1.33789 z m 11.9336,10.43164 c 0.456,0.93158 0.9126,1.71872 1.3848,2.38672 -0.4723,-0.66801 -0.9288,-1.45513 -1.3848,-2.38672 z m 2.1075,3.30273 c 0.4929,0.55409 1.0107,0.99927 1.5703,1.36133 -0.5596,-0.36208 -1.0774,-0.80722 -1.5703,-1.36133 z m 2.4433,1.8457 c 0.6054,0.28393 1.26,0.49476 1.9824,0.65821 -0.7225,-0.16347 -1.3769,-0.37426 -1.9824,-0.65821 z"
         style="opacity:1;fill:#ffebee;fill-rule:nonzero;stroke:none;stroke-width:1px;stroke-linecap:butt;stroke-linejoin:miter;stroke-opacity:1"
         sodipodi:nodetypes="ccccccccccccccccccccccccccccccccccccccccccccccccccccccccccccccccccccccccccccccccccccccccccccccccccccccccccccccccccccccccccccccccccccccccccccccccccccccccccccccccccccccccccccccccccccccssccssscccccsccccccccccccccccccccccccccccccccccccccc" />
    </g>
    <g
       style="display:inline"
       inkscape:label="tanktop"
       id="layer3"
       inkscape:groupmode="layer">
      <path
         sodipodi:nodetypes="scccsssccccccsccssscccccccccssscccsczcs"
         inkscape:connector-curvature="0"
         id="path865"
         d="m 1426.5998,340.29568 c 2.1025,-0.0227 4.3196,0.17888 6.6602,0.62891 23.4152,3.49029 43.0953,5.11453 65.6941,36.68003 13.7446,18.64805 20.6859,38.10881 29.7629,58.06997 1.8334,3.66683 3.4043,2.35624 3.4043,3.92773 0,1.5715 -0.2618,5.76315 4.9766,22.00195 5.2383,16.23881 5.4999,15.19119 8.1191,18.07227 2.6192,2.88108 4.977,7.59548 4.4531,10.47656 -0.5238,2.88107 -1.3092,2.88005 2.0957,6.54688 3.405,3.66683 4.9754,0.525 6.5469,1.04883 1.5715,0.52384 -1.5701,5.49997 -1.832,8.11914 -0.2619,2.61916 8.6429,6.54764 10.7383,8.11914 2.0953,1.5715 0.7855,1.83435 -2.3575,3.92968 -3.143,2.09533 0.7859,2.35699 4.9766,8.11914 4.1907,5.76216 8.3809,12.83399 8.3809,12.83399 3.0893,4.75284 -0.024,7.28609 -10.4766,15.78515 -9.1671,10.47666 -22.262,14.405 -40.0723,23.83399 -17.8103,9.42898 -66.6227,13.02168 -104.5058,23.83594 -38.0913,10.87369 -49.2278,7.50445 -46.7871,-9.23828 1.9232,-13.19315 -10.6186,-57.35395 -16.0137,-64.65625 -4.1461,-19.27856 -18.0189,-20.51812 -32.2422,-31.10547 -6.0636,-7.37445 -6.1851,-22.81912 -4.7148,-34.04883 0.7857,-5.76216 11.8362,-79.69842 11.8362,-79.69842 l 8.656,5.9992 c 0.7876,1.31278 -1.5979,13.9361 -4.1895,26.4668 -4.6307,23.67118 -10.2324,64.52984 15.7148,71.75195 15.3933,4.07501 26.9472,-36.58294 28.5489,-55.00195 1.0476,-8.38131 2.3578,-26.4544 4.4531,-37.7168 4.6203,-23.01975 13.3641,-54.51365 38.1738,-54.78125 z m 24.4863,11.89063 c -6.2806,0.077 -13.2076,2.35956 -20.4921,8.58007 -23.3106,19.90563 -33.2625,45.83531 -34.834,51.85938 -1.5715,6.02407 -4.9774,17.28627 -3.9297,23.57226 1.0477,6.28599 0.5242,10.99995 4.7148,16.23829 4.1907,5.23831 21.2155,17.2875 35.8828,16.76367 14.6673,-0.52383 35.0961,0.26216 45.0489,-5.5 9.9528,-5.76215 20.5407,-21.65556 23.1797,-34.44228 2.639,-12.78672 -4.635,-52.91931 -20.5606,-64.03819 -4.5017,-2.70101 -15.1924,-13.20272 -29.0098,-13.0332 z"
         style="fill:#263238;stroke:none;stroke-width:1px;stroke-linecap:butt;stroke-linejoin:miter;stroke-opacity:1" />
    </g>
    <g
       style="display:inline"
       inkscape:label="head"
       id="layer4"
       inkscape:groupmode="layer">
      <path
         sodipodi:nodetypes="ccsccccsccccccsscsassccsc"
         id="path3846-6"
         d="m 1303.8166,209.5242 c 19.445,-0.22669 38.6846,6.79713 51.4824,24.3457 10.6506,10.96386 10.6513,26.3147 11.9043,37.5918 1.253,11.27711 5.326,40.0958 15.9766,49.80664 2.7713,2.19219 5.7777,4.09919 8.9707,5.80859 l 0.8797,2.70051 c -4.8153,14.81621 -21.6346,43.79416 -33.858,54.16551 -4.912,5.60744 -7.2502,8.42072 -10.2033,8.83981 -3.4315,0.487 -7.6934,-6.25891 -17.7891,-11.61013 -2.9759,-2.03615 -6.8931,-1.7234 -8.3027,-1.41015 -8.5814,5.77607 -12.625,10.12193 -22.9453,11.67383 -9.7572,-0.30069 -10.5301,-1.01492 -16.6797,-9.86719 -1.3314,-3.05422 -2.5847,-2.74069 -3.1328,-3.36719 -0.5482,-0.62651 -4.0736,-0.93907 -5.17,-1.0957 -1.0964,-0.15662 -2.191,-1.95793 -2.3476,-3.21094 -0.1567,-1.25301 0.5473,-2.19318 -0.4707,-2.27148 -1.0181,-0.0783 -1.9575,-1.72255 -2.584,-2.58399 -0.6265,-0.86145 -0.7051,-1.09674 -0.7051,-3.91601 0,-2.81928 -0.2798,-4.38062 -1.9239,-5.27471 -3.0376,-1.65183 -5.8588,1.45136 -10.1118,2.31339 -1.6794,0.3404 -5.1229,-2.66546 -5.3299,-3.30645 -1.9037,-5.89501 2.5995,-18.65165 -1.4081,-29.62832 -24.1773,-17.32611 -35.6533,-41.72883 -15.0583,-78.1273 7.6404,-23.22155 38.4724,-41.22255 68.8066,-41.57617 z"
         style="display:inline;opacity:1;fill:#ffebee;fill-rule:nonzero;stroke:none;stroke-width:1px;stroke-linecap:butt;stroke-linejoin:miter;stroke-opacity:1"
         inkscape:connector-curvature="0" />
    </g>
    <g
       inkscape:label="hair"
       id="layer5"
       inkscape:groupmode="layer">
      <path
         sodipodi:nodetypes="ccsccssssscscsszccczsccsaccscascszzcsccsccczssccszcscccscssacssscccscccc"
         inkscape:connector-curvature="0"
         id="path911"
         d="m 1293.2619,191.2156 c 12.5294,-0.43498 24.1647,6.65117 32.5664,12.92383 5.7622,4.19066 12.048,1.04861 18.334,3.92969 6.286,2.88108 4.9752,7.33379 9.4278,7.5957 4.4525,0.26192 -0.5235,3.66602 -0.5235,3.66602 0,0 -4.7147,2.88084 0.2617,5.5 4.9764,2.61916 8.637,3.52185 12.0489,3.66797 1.5363,0.0658 3.8817,-1.67642 4.2102,-3.10411 0.3369,-1.46422 2.2073,-0.94799 2.2228,1.36907 0.01,1.06091 -0.8754,3.70813 -2.1208,5.70907 -2.6176,4.20563 -4.3249,8.16274 2.4661,13.90086 5.5625,2.91149 7.3656,1.50559 8.1514,-0.58974 0.7857,-2.09533 0.2521,-7.07549 1.4635,-7.04401 0.3378,0.009 0.8093,0.79791 1.0849,1.14852 0.7131,0.90691 0.4898,4.11094 -0.4547,6.94432 -1.3096,3.92874 -3.7613,4.01114 -4.7129,8.38086 -0.9515,4.36972 9.9403,1.77469 12.0168,-0.43339 1.1002,-2.90888 2.1883,-1.33078 2.2899,-0.49825 0.1015,0.83254 -0.8975,3.53505 -3.045,5.9082 -3.0671,2.83119 -6.8298,4.72852 -8.1054,5.5625 -1.2757,0.83398 1.2066,2.87898 3.3409,5.38703 3.0688,3.60619 7.9085,-0.45717 8.386,0.27631 2.1762,-1.14967 2.5565,4.01537 0.6346,3.50794 -11.5948,2.647 0.3599,6.44408 -0.3131,8.83488 -0.1937,0.68828 -0.9164,1.19391 -1.5863,1.44393 -1.7048,0.63628 -3.2147,-0.28008 -5.4574,-0.13106 -5.7288,12.88433 2.9406,14.7015 -3.4481,27.23957 -1.2291,2.58194 3.1444,4.19019 -1.832,8.38085 -4.9764,4.19066 -7.8586,1.83394 -6.2871,7.07227 0.4387,1.46254 6.6469,3.57903 6.3809,6.63624 -0.044,0.50576 -0.7255,0.96074 -1.2294,0.89904 -3.1921,-0.3909 -9.3727,-5.34979 -11.6984,-1.51184 -2.8811,4.45257 -1.1401,7.19281 -4.0506,13.85064 -1.0341,2.36575 -4.1858,2.20616 -2.4255,-1.54408 1.7603,-3.75024 -2.9799,-9.34988 -7.9302,-5.75773 -4.9503,3.59215 -6.0012,29.039 0,31.16796 1.8376,0.51424 0.7852,5.34641 -2.6191,2.35743 -5.4437,-4.77964 -4.976,-8.57711 -5.7617,-12.50586 -0.2128,-0.81849 -0.2444,-3.74991 -2.8145,0.32617 -3.1694,5.02664 -6.8167,9.95022 -8.9238,10.75781 -1.0885,0.41721 -2.2031,-0.40056 -1.8809,-0.93555 2.7704,-4.59955 14.7218,-15.83073 5.7618,-19.11914 -8.6148,-2.07795 -18.9007,-14.77804 -21.2149,-22.00195 -5.8843,-17.8743 -17.758,-34.31745 -27.21,-31.93073 -9.4521,2.38672 -1.765,9.40996 -2.9435,10.21425 -0.9044,0.61715 -2.0214,0.60274 -3.9151,-0.56511 -1.5516,-0.9569 -3.3627,-4.25967 -6.2673,-7.05239 -27.4027,-19.09687 -23.5141,21.35354 -10.2149,10.73828 3.143,-4.19066 1.9973,-5.75189 5.043,-3.33985 3.3394,2.64463 -13.645,12.86836 -21.0195,12.24414 -7.3745,-0.62422 -18.4905,-5.76386 -14.9297,0.26149 3.4955,4.41057 8.4077,4.47722 11.0996,6.18074 1.8629,1.17886 0.6865,2.37762 -2.98,1.48279 -4.5057,-0.25589 -12.2869,-7.86989 -12.0473,-4.25728 0.5238,4.9764 3.9289,7.33377 2.3574,10.21485 -0.7605,1.39424 -1.4598,1.7174 -2.1571,0.75306 -0.7437,-1.02838 -1.4196,-4.82409 -2.2306,-6.58125 -2.6191,-2.4882 -0.065,1.89865 -3.4697,6.87506 -2.1407,3.12858 -4.6515,6.4453 -6.5614,7.26137 -1.128,0.482 -2.1063,-0.16218 -2.3449,-0.97426 -0.3893,-1.3248 1.6986,-2.19274 2.3574,-3.40625 5.2925,-10.07465 0.017,-17.21344 -4.3948,-13.52809 -2.6539,2.21671 -6.7204,3.08564 -10.4306,2.74516 -0.9147,-0.0839 -2.5085,-1.72659 -1.6965,-2.13514 1.0627,-0.53463 12.3713,-1.38188 9.7114,-10.13076 -5.7704,-9.91315 2.7678,-13.77344 0.2637,-23.31054 -4.9403,-15.36263 -2.269,-22.05608 4.7128,-29.07227 7.3337,-7.33365 0.524,-7.07102 4.9766,-16.5 4.4526,-9.42898 6.548,-13.35895 12.834,-16.50195 14.5542,-4.0744 7.227,-23.39847 19.6445,-26.71485 11.2103,-1.19732 9.9537,-8.37417 17.5488,-8.38086 11.1061,1.83122 13.1776,-3.73821 21.6504,-3.75758 z"
         style="opacity:1;fill:#004d40;stroke:none;stroke-width:1px;stroke-linecap:butt;stroke-linejoin:miter;stroke-opacity:1" />
    </g>
    <g
       inkscape:groupmode="layer"
       id="layer19"
       inkscape:label="pen"
       style="display:none">
      <g
         id="g901"
         transform="rotate(-2.7613822,1040.926,-2684.3238)">
        <path
           sodipodi:nodetypes="ccccc"
           inkscape:connector-curvature="0"
           id="path1426"
           d="m 580.58629,600.04479 c -5.32307,-1.01847 -8.39017,0.84732 -8.5725,4.73528 l 20.86065,39.87287 2.77414,-2.94326 c -7.69083,-17.11577 -7.6998,-23.87534 -15.06229,-41.66489 z"
           style="fill:#009688;stroke:none;stroke-width:1.24685657px;stroke-linecap:butt;stroke-linejoin:miter;stroke-opacity:1" />
        <path
           sodipodi:nodetypes="ccc"
           inkscape:connector-curvature="0"
           id="path1428"
           d="m 572.01379,604.78007 c 1.38069,2.54566 11.44376,2.43568 8.5725,-4.73528 -6.25692,-1.27092 -8.65117,1.37026 -8.5725,4.73528 z"
           style="fill:#4db6ac;stroke:none;stroke-width:1.24685657px;stroke-linecap:butt;stroke-linejoin:miter;stroke-opacity:1" />
        <path
           sodipodi:nodetypes="ccccc"
           inkscape:connector-curvature="0"
           id="path1430"
           d="m 578.56138,602.43114 -3.08744,-6.84604 c -2.88427,-0.27608 -2.68687,1.47887 -2.88608,1.47658 l 2.41628,6.57759 c 1.39896,0.58996 2.69547,0.63099 3.55724,-1.20813 z"
           style="fill:#009688;stroke:none;stroke-width:1.44961405px;stroke-linecap:butt;stroke-linejoin:miter;stroke-opacity:1" />
        <path
           sodipodi:nodetypes="ccc"
           inkscape:connector-curvature="0"
           id="path1428-7"
           d="m 572.58786,597.06168 c 0.44856,0.82699 3.81887,0.853 2.88608,-1.47658 -2.03266,-0.41289 -2.91163,0.38339 -2.88608,1.47658 z"
           style="fill:#4db6ac;stroke:none;stroke-width:0.40505967px;stroke-linecap:butt;stroke-linejoin:miter;stroke-opacity:1" />
      </g>
    </g>
    <g
       inkscape:label="top-arm"
       id="layer7"
       inkscape:groupmode="layer">
      <path
         sodipodi:nodetypes="czccsscczsssssscc"
         inkscape:connector-curvature="0"
         id="path1118"
         d="m 1441.6179,356.22665 c -52.591,34.51412 -48.4182,123.88122 -50.7455,144.45811 -2.3273,20.57689 0.482,66.6494 -17.7795,74.08108 -40.1642,10.45909 -73.8356,44.68299 -130.0123,50.37514 -10.3713,0.51962 -40.8318,-1.17662 -46.1293,-1.58626 -3.6707,-0.28384 -8.5141,1.13649 -9.1728,1.98451 -0.9089,1.17012 -0.8876,1.48167 -2.3537,3.88095 -2.6511,4.92523 -5.6895,9.26105 -10.2357,10.15619 -6.4008,1.23464 -1.2662,-4.39485 -10.5432,1.02574 -9.277,5.42059 -7.1653,13.03425 -0.4192,23.77094 10.7954,17.18142 15.5354,20.2769 36.1077,15.47173 21.1131,-4.93147 33.2466,-10.38997 43.9884,-14.83484 10.7418,-4.44486 82.4695,-19.49666 93.5816,-22.83031 11.1122,-3.33365 41.7721,-15.05453 61.8577,-18.52027 20.8002,-3.58905 25.4325,-4.32553 31.4845,-15.92743 5.9071,-11.32417 4.8152,-21.11312 14.0754,-37.04055 39.5765,-74.3045 91.3548,-210.9455 -3.7041,-214.46473 z"
         style="fill:#ffebee;stroke:none;stroke-width:1px;stroke-linecap:butt;stroke-linejoin:miter;stroke-opacity:1" />
    </g>
  </g>
</svg>
