<?xml version="1.0" encoding="UTF-8" standalone="no"?>
<svg version="1.1" id="svg3820" width="960" height="540" viewBox="0 0 960 540" sodipodi:docname="self-portrait-mobile.svg" inkscape:version="1.4.1 (93de688d07, 2025-03-30)" inkscape:export-filename="/home/elm/Documents/Self-Portrait/export/self-portrait.png" inkscape:export-xdpi="192" inkscape:export-ydpi="192" xmlns:inkscape="http://www.inkscape.org/namespaces/inkscape" xmlns:sodipodi="http://sodipodi.sourceforge.net/DTD/sodipodi-0.dtd" xmlns="http://www.w3.org/2000/svg" xmlns:svg="http://www.w3.org/2000/svg" xmlns:rdf="http://www.w3.org/1999/02/22-rdf-syntax-ns#" xmlns:cc="http://creativecommons.org/ns#" xmlns:dc="http://purl.org/dc/elements/1.1/">
    <sodipodi:namedview pagecolor="#ffffff" bordercolor="#666666" borderopacity="1" objecttolerance="10" gridtolerance="10" guidetolerance="10" inkscape:pageopacity="0" inkscape:pageshadow="2" inkscape:window-width="1849" inkscape:window-height="1024" id="namedview3822" showgrid="false" units="px" inkscape:snap-others="true" inkscape:snap-global="true" inkscape:zoom="0.67493617" inkscape:cx="1891.3196" inkscape:cy="92.781858" inkscape:window-x="71" inkscape:window-y="30" inkscape:window-maximized="1" inkscape:current-layer="layer16" inkscape:snap-bbox="true" inkscape:snap-grids="false" inkscape:bbox-paths="true" inkscape:bbox-nodes="true" inkscape:object-paths="true" inkscape:snap-intersection-paths="true" showguides="false" inkscape:guide-bbox="true" inkscape:snap-bbox-edge-midpoints="true" inkscape:snap-bbox-midpoints="true" inkscape:snap-smooth-nodes="true" inkscape:snap-midpoints="true" inkscape:snap-object-midpoints="true" inkscape:snap-center="true" inkscape:snap-page="true" inkscape:snap-nodes="true" inkscape:snap-to-guides="true" inkscape:showpageshadow="0" inkscape:pagecheckerboard="0" inkscape:deskcolor="#d1d1d1">
        <inkscape:grid spacingy="24" spacingx="24" units="in" id="grid3830" type="xygrid" originx="0" originy="0" />
        <sodipodi:guide id="guide1071" position="408,0" orientation="1056.0,0" inkscape:locked="false" />
        <sodipodi:guide id="guide1073" position="0,352" orientation="0,816.0" inkscape:locked="false" />
        <sodipodi:guide id="guide1075" position="0,704" orientation="0,816.0" inkscape:locked="false" />
        <sodipodi:guide position="0,1056" orientation="0,816" id="guide1181" inkscape:locked="false" />
        <sodipodi:guide position="816,1056" orientation="1056,0" id="guide1183" inkscape:locked="false" />
        <sodipodi:guide position="816,0" orientation="0,-816" id="guide1185" inkscape:locked="false" />
        <sodipodi:guide position="0,0" orientation="-1056,0" id="guide1187" inkscape:locked="false" />
        <sodipodi:guide position="-423.74378,161.74066" orientation="161.74066,0" id="guide926" inkscape:locked="false" />
        <sodipodi:guide position="-423.74378,0" orientation="0,1920" id="guide928" inkscape:locked="false" />
        <sodipodi:guide position="1496.2562,0" orientation="-327.47229,-0.5084" id="guide930" inkscape:locked="false" />
        <sodipodi:guide position="1920,168.0665" orientation="168.0665,0" inkscape:locked="false" id="guide1008" />
        <sodipodi:guide position="1920,0" orientation="0,-960.00019" inkscape:locked="false" id="guide1010" />
        <sodipodi:guide position="959.99981,0" orientation="-141.8027,0" inkscape:locked="false" id="guide1012" />
        <sodipodi:guide position="1920,287.19851" orientation="86.96802,0" inkscape:locked="false" id="guide1088" />
        <sodipodi:guide position="1920,200.23049" orientation="200.23049,0" inkscape:locked="false" id="guide1090" />
        <sodipodi:guide position="1920,0" orientation="0,-2287.4422" inkscape:locked="false" id="guide1092" />
        <sodipodi:guide position="-367.4422,0" orientation="-50.6824,0" inkscape:locked="false" id="guide1094" />
        <sodipodi:guide position="-367.4422,50.68240000000003" orientation="-236.51611,2287.4422" inkscape:locked="false" id="guide1096" />
    </sodipodi:namedview>
    <metadata id="metadata3826">
        <rdf:RDF>
            <cc:Work rdf:about="">
                <dc:format>image/svg+xml</dc:format>
                <dc:type rdf:resource="http://purl.org/dc/dcmitype/StillImage" />
            </cc:Work>
        </rdf:RDF>
    </metadata>
    <defs id="defs3824">
        <inkscape:path-effect effect="powerstroke" message="" id="path-effect45" is_visible="true" lpeversion="1.3" scale_width="1" interpolator_type="CubicBezierJohan" interpolator_beta="0.2" start_linecap_type="zerowidth" end_linecap_type="zerowidth" offset_points="0,0.89010672165522" linejoin_type="extrp_arc" miter_limit="4" not_jump="false" sort_points="true" />
        <inkscape:path-effect effect="powerstroke" message="" id="path-effect43" is_visible="true" lpeversion="1.3" scale_width="1" interpolator_type="CubicBezierJohan" interpolator_beta="0.2" start_linecap_type="zerowidth" end_linecap_type="zerowidth" offset_points="0,0.89010672165522" linejoin_type="extrp_arc" miter_limit="4" not_jump="false" sort_points="true" />
        <inkscape:path-effect effect="powerstroke" message="" id="path-effect41" is_visible="true" lpeversion="1.3" scale_width="1" interpolator_type="CubicBezierJohan" interpolator_beta="0.2" start_linecap_type="zerowidth" end_linecap_type="zerowidth" offset_points="8.40197570706689e-16,0.89010672165522" linejoin_type="extrp_arc" miter_limit="4" not_jump="false" sort_points="true" />
        <inkscape:path-effect effect="powerstroke" message="" id="path-effect39" is_visible="true" lpeversion="1.3" scale_width="1" interpolator_type="CubicBezierJohan" interpolator_beta="0.2" start_linecap_type="zerowidth" end_linecap_type="zerowidth" offset_points="0,0.89010672165522" linejoin_type="extrp_arc" miter_limit="4" not_jump="false" sort_points="true" />
        <inkscape:path-effect effect="powerstroke" message="" id="path-effect37" is_visible="true" lpeversion="1.3" scale_width="1" interpolator_type="CubicBezierJohan" interpolator_beta="0.2" start_linecap_type="zerowidth" end_linecap_type="zerowidth" offset_points="0,0.89010672165522" linejoin_type="extrp_arc" miter_limit="4" not_jump="false" sort_points="true" />
        <inkscape:path-effect effect="powerstroke" message="" id="path-effect36" is_visible="true" lpeversion="1.3" scale_width="1" interpolator_type="CubicBezierJohan" interpolator_beta="0.2" start_linecap_type="zerowidth" end_linecap_type="zerowidth" offset_points="0.01037313402978376,0.8901067216552203" linejoin_type="extrp_arc" miter_limit="4" not_jump="false" sort_points="true" />
        <inkscape:path-effect effect="powerstroke" message="" id="path-effect35" is_visible="true" lpeversion="1.3" scale_width="1" interpolator_type="CubicBezierJohan" interpolator_beta="0.2" start_linecap_type="zerowidth" end_linecap_type="zerowidth" offset_points="0.02606882829488448,2.461925459614312" linejoin_type="extrp_arc" miter_limit="4" not_jump="false" sort_points="true" />
        <inkscape:path-effect effect="powerstroke" message="" id="path-effect34" is_visible="true" lpeversion="1.3" scale_width="1" interpolator_type="CubicBezierJohan" interpolator_beta="0.2" start_linecap_type="zerowidth" end_linecap_type="zerowidth" offset_points="0.001186129318461862,2.922934053488965" linejoin_type="extrp_arc" miter_limit="4" not_jump="false" sort_points="true" />
        <inkscape:path-effect effect="powerstroke" message="" id="path-effect33" is_visible="true" lpeversion="1.3" scale_width="1" interpolator_type="CubicBezierJohan" interpolator_beta="0.2" start_linecap_type="zerowidth" end_linecap_type="zerowidth" offset_points="0,4.44441018384093" linejoin_type="extrp_arc" miter_limit="4" not_jump="false" sort_points="true" />
        <inkscape:path-effect effect="powerstroke" message="" id="path-effect32" is_visible="true" lpeversion="1.3" scale_width="1" interpolator_type="CubicBezierJohan" interpolator_beta="0.2" start_linecap_type="zerowidth" end_linecap_type="zerowidth" offset_points="0,4.44441018384093" linejoin_type="extrp_arc" miter_limit="4" not_jump="false" sort_points="true" />
        <inkscape:path-effect effect="powerstroke" message="" id="path-effect30" is_visible="true" lpeversion="1.3" scale_width="1" interpolator_type="CubicBezierJohan" interpolator_beta="0.2" start_linecap_type="zerowidth" end_linecap_type="zerowidth" offset_points="0,4.44441018384093" linejoin_type="extrp_arc" miter_limit="4" not_jump="false" sort_points="true" />
        <inkscape:path-effect effect="powerstroke" message="" id="path-effect28" is_visible="true" lpeversion="1.3" scale_width="1" interpolator_type="CubicBezierJohan" interpolator_beta="0.2" start_linecap_type="zerowidth" end_linecap_type="zerowidth" offset_points="0,4.44441018384093" linejoin_type="extrp_arc" miter_limit="4" not_jump="false" sort_points="true" />
        <inkscape:path-effect effect="powerstroke" message="" id="path-effect26" is_visible="true" lpeversion="1.3" scale_width="1" interpolator_type="CubicBezierJohan" interpolator_beta="0.2" start_linecap_type="zerowidth" end_linecap_type="zerowidth" offset_points="0,4.44441018384093" linejoin_type="extrp_arc" miter_limit="4" not_jump="false" sort_points="true" />
        <inkscape:path-effect effect="powerstroke" message="" id="path-effect23" is_visible="true" lpeversion="1.3" scale_width="1" interpolator_type="CubicBezierJohan" interpolator_beta="0.2" start_linecap_type="zerowidth" end_linecap_type="zerowidth" offset_points="0,4.44441018384093" linejoin_type="extrp_arc" miter_limit="4" not_jump="false" sort_points="true" />
        <inkscape:path-effect effect="powerstroke" message="" id="path-effect20" is_visible="true" lpeversion="1.3" scale_width="1" interpolator_type="CubicBezierJohan" interpolator_beta="0.2" start_linecap_type="zerowidth" end_linecap_type="zerowidth" offset_points="0,4.44441018384093" linejoin_type="extrp_arc" miter_limit="4" not_jump="false" sort_points="true" />
        <inkscape:path-effect effect="powerstroke" message="" id="path-effect18" is_visible="true" lpeversion="1.3" scale_width="1" interpolator_type="CubicBezierJohan" interpolator_beta="0.2" start_linecap_type="zerowidth" end_linecap_type="zerowidth" offset_points="0,4.44441018384093" linejoin_type="extrp_arc" miter_limit="4" not_jump="false" sort_points="true" />
        <clipPath id="clipPath3842" clipPathUnits="userSpaceOnUse">
            <rect style="stroke-width:3.7746" y="0" x="0" height="1056" width="816" id="rect3844" />
        </clipPath>
        <clipPath id="clipPath3842-3" clipPathUnits="userSpaceOnUse">
            <rect style="stroke-width:3.7746" y="0" x="0" height="1056" width="816" id="rect3844-5" />
        </clipPath>
        <clipPath id="clipPath3842-3-9" clipPathUnits="userSpaceOnUse">
            <rect style="stroke-width:3.7746" y="0" x="0" height="1056" width="816" id="rect3844-5-1" />
        </clipPath>
        <clipPath id="clipPath3842-3-9-2" clipPathUnits="userSpaceOnUse">
            <rect style="stroke-width:3.7746" y="0" x="0" height="1056" width="816" id="rect3844-5-1-7" />
        </clipPath>
        <clipPath id="clipPath3842-3-9-2-3" clipPathUnits="userSpaceOnUse">
            <rect style="stroke-width:3.7746" y="0" x="0" height="1056" width="816" id="rect3844-5-1-7-6" />
        </clipPath>
        <inkscape:path-effect effect="fill_between_many" method="bsplinespiro" autoreverse="false" close="false" join="false" linkedpaths="#path18,0,1" id="path-effect19" is_visible="true" lpeversion="0" />
        <inkscape:path-effect effect="fill_between_many" method="bsplinespiro" autoreverse="false" close="false" join="false" linkedpaths="#path20,0,1" id="path-effect21" is_visible="true" lpeversion="0" />
        <inkscape:path-effect effect="fill_between_many" method="bsplinespiro" autoreverse="false" close="false" join="false" linkedpaths="#path23,0,1" id="path-effect24" is_visible="true" lpeversion="0" />
        <inkscape:path-effect effect="fill_between_many" method="bsplinespiro" autoreverse="false" close="false" join="false" linkedpaths="#path26,0,1" id="path-effect27" is_visible="true" lpeversion="0" />
        <inkscape:path-effect effect="fill_between_many" method="bsplinespiro" autoreverse="false" close="false" join="false" linkedpaths="#path28,0,1" id="path-effect29" is_visible="true" lpeversion="0" />
        <inkscape:path-effect effect="fill_between_many" method="bsplinespiro" autoreverse="false" close="false" join="false" linkedpaths="#path30,0,1" id="path-effect31" is_visible="true" lpeversion="0" />
        <inkscape:path-effect effect="fill_between_many" method="bsplinespiro" autoreverse="false" close="false" join="false" linkedpaths="#path37,0,1" id="path-effect38" is_visible="true" lpeversion="0" />
        <inkscape:path-effect effect="fill_between_many" method="bsplinespiro" autoreverse="false" close="false" join="false" linkedpaths="#path39,0,1" id="path-effect40" is_visible="true" lpeversion="0" />
        <inkscape:path-effect effect="fill_between_many" method="bsplinespiro" autoreverse="false" close="false" join="false" linkedpaths="#path40,0,1" id="path-effect42" is_visible="true" lpeversion="0" />
        <inkscape:path-effect effect="fill_between_many" method="bsplinespiro" autoreverse="false" close="false" join="false" linkedpaths="#path42,0,1" id="path-effect44" is_visible="true" lpeversion="0" />
        <inkscape:path-effect effect="fill_between_many" method="bsplinespiro" autoreverse="false" close="false" join="false" linkedpaths="#path44,0,1" id="path-effect46" is_visible="true" lpeversion="0" />
    </defs>
    <g style="display:inline" inkscape:label="bottom" id="layer8" inkscape:groupmode="layer" transform="translate(0,-516)" sodipodi:insensitive="true" />
    <g style="display:inline" inkscape:label="bg" id="layer13" inkscape:groupmode="layer" transform="translate(0,-516)">
        <g style="display:inline;opacity:1" inkscape:label="walls" id="layer16" inkscape:groupmode="layer">
            <path inkscape:connector-curvature="0" id="path1056" d="M 2.842170943040401e-14,516 H 960 V 884.0463579579087 L 2.842170943040401e-14,983.308087957909 Z" style="display:inline;fill:#51cf66;stroke:none;stroke-width:0.356655px;stroke-linecap:butt;stroke-linejoin:miter;stroke-opacity:1" sodipodi:nodetypes="ccccc" />
            <path sodipodi:nodetypes="cccccc" inkscape:connector-curvature="0" id="path1022" d="M 960,884.0463579579087 V 936.1165019854297 1056 H 2.842170943040401e-14 V 983.3080879579091 Z" style="display:inline;fill:#69db7c;stroke:none;stroke-width:0.356655px;stroke-linecap:butt;stroke-linejoin:miter;stroke-opacity:1" />
            <path style="font-variation-settings:normal;display:inline;vector-effect:none;fill:#40c057;fill-opacity:1;stroke-width:0.999531;stroke-linecap:butt;stroke-linejoin:miter;stroke-miterlimit:4;stroke-dasharray:0.999531, 5.99717;stroke-dashoffset:0;stroke-opacity:1;-inkscape-stroke:none;paint-order:fill markers stroke" d="M 1920,473.4604096792678 1581.534998651888,287.7979708106936 1543.485456750884,-361.9128269585445 H 1920 Z" id="path18" transform="matrix(0.5987274865809403,0,0,0.5987274865809403,-189.5567742354054,732.6871572462921)" sodipodi:nodetypes="ccccc" />
            <path id="path880" style="display:inline;fill:#b2f2bb;stroke:none;stroke-width:0.356655px;stroke-linecap:butt;stroke-linejoin:miter;stroke-opacity:1" d="M 783.3286158737333,879.4093037576674 778.969131362066,879.7180226179357 778.9866722063992,879.7250389556691 393.2363911816482,905.6947872524534 443.1063639641639,966.8176653503113 881.5269400107411,921.1190928033098 886.0185655497201,920.8267453977529 Z" sodipodi:nodetypes="cccccccc" />
            <path id="path14" style="font-variation-settings:normal;display:inline;vector-effect:none;fill:#8ce99a;fill-opacity:1;stroke-width:0.598447;stroke-linecap:butt;stroke-linejoin:miter;stroke-miterlimit:4;stroke-dasharray:0.598447, 3.59067;stroke-dashoffset:0;stroke-opacity:1;-inkscape-stroke:none;paint-order:fill markers stroke" d="M 878.8911358022381,802.3395113150825 886.0185655497201,920.8267453977529 443.1063991826031,966.8176698503734 430.4185217814249,1039.259018168178 920.2091793244343,998.5619205353857 905.3064779787555,802.3395113150825 Z" sodipodi:nodetypes="ccccccc" />
            <path style="font-variation-settings:normal;display:inline;vector-effect:none;fill:#51cf66;fill-opacity:1;stroke-width:0.598447;stroke-linecap:butt;stroke-linejoin:miter;stroke-miterlimit:4;stroke-dasharray:0.598447, 3.59067;stroke-dashoffset:0;stroke-opacity:1;-inkscape-stroke:none;paint-order:fill markers stroke" d="M 393.2363911816482,905.6947872524534 380.5448370661271,951.5020910445985 430.4188715264613,1039.258686395727 443.1063639641639,966.8176653503113 Z" id="path19" sodipodi:nodetypes="ccccc" />
            <path style="font-variation-settings:normal;display:inline;vector-effect:none;fill:#51cf66;fill-opacity:1;stroke-width:0.598447;stroke-linecap:butt;stroke-linejoin:miter;stroke-miterlimit:4;stroke-dasharray:0.598447, 3.59067;stroke-dashoffset:0;stroke-opacity:1;-inkscape-stroke:none;paint-order:fill markers stroke;stop-color:#000000" d="M 878.8909205274934,802.3397382192025 782.0451132801633,812.7075668034972 795.2965003517812,872.255601506833 842.8367611156007,903.4104366868532 886.0185655497201,920.8267453977529 Z" id="path21" />
            <path style="display:inline;fill:#d3f9d8;stroke:none;stroke-width:0.356655px;stroke-linecap:butt;stroke-linejoin:miter;stroke-opacity:1" d="M 723.0231219565258,922.4599830494086 656.6994438670142,925.2455267570768 645.2095041630337,908.7113079786527 709.2686751527993,906.3720617267561 Z" id="path1190" inkscape:connector-curvature="0" sodipodi:nodetypes="ccccc" />
            <path style="display:inline;fill:#51cf66;stroke:none;stroke-width:0.356655px;stroke-linecap:butt;stroke-linejoin:miter;stroke-opacity:1" d="M 656.6994438670142,925.2455207698022 656.3258379153877,929.4491505294379 645.1671741297326,912.4988820078631 645.2102825087664,908.7113019913775 Z" id="path1192" inkscape:connector-curvature="0" sodipodi:nodetypes="ccccc" />
            <path style="display:inline;fill:#8ce99a;stroke:none;stroke-width:0.356655px;stroke-linecap:butt;stroke-linejoin:miter;stroke-opacity:1" d="M 723.0231219565258,922.4599830494086 722.272377561102,925.7810645447241 656.3258379153877,929.449150529438 656.6994438670142,925.2455267570773 Z" id="path1194" inkscape:connector-curvature="0" sodipodi:nodetypes="ccccc" />
            <path style="display:inline;fill:#2f9e44;fill-rule:nonzero;stroke:none;stroke-width:0.356655" d="M 665.4999595740214,908.3409950282019 C 665.5358832232161,908.333630680117 665.5739622913629,908.3362052083094 665.608628612836,908.3509339044794 665.7694468157313,908.4438863467712 665.9529567903687,908.491760596598 666.1219775598302,908.5682600075587 665.8328520565604,909.0614438128047 665.5437864260392,909.5546455798762 665.2547207955177,910.0478353723973 665.1905372089563,910.0833399123514 665.1550326690021,910.1898655067641 665.2170009638632,910.2435414259362 L 663.6733018852115,914.4767123997594 C 663.4369841462581,914.7333329877831 663.2005466618071,914.989881728508 662.9642289228537,915.246490341982 662.5676318357426,915.1726253319619 662.1710347486314,915.0988201946914 661.7744975342689,915.0249551846719 661.5023758916179,914.8474624212749 661.2069637497387,914.6357823183942 661.1203278824305,914.3039914944307 661.1203278824305,914.2992016745381 661.1203877551793,914.2975851103241 661.1203278824305,914.2940526181537 661.075423320937,914.2627990433541 661.0436907641479,914.2362155429499 661.0484805840408,914.227857307237 661.0676398636113,914.2005553338492 661.0856016882089,914.1737323424498 661.1053596952659,914.1470470583731 661.098174965427,913.9211352031367 661.1939114905311,913.6977380033433 661.3144353335801,913.5096357888843 661.9535170527565,912.4617010309464 662.6040344669268,911.4209809392217 663.2474868967552,910.3756686076745 663.4611727367159,910.0299693441978 663.6747388311795,909.6841922461477 663.8883647983916,909.3384510717467 664.0252339018238,909.1530251691525 664.2497567092917,909.0203411708512 664.4852961025128,909.0382251608756 664.855968289455,908.9250896150109 665.0833649888584,908.585635079219 665.400570811249,908.3862049407141 665.4299084580914,908.3642915147048 665.4640359248267,908.3478863815729 665.5008576652512,908.3407615244824 Z M 673.3867572637575,908.744291875888 673.4166936380864,908.7797964158422 C 673.4238783679254,908.847991476564 673.3233520229287,908.7278268700073 673.3867572637575,908.744291875888 Z M 672.5702725903071,908.7623135732344 C 672.8265878273124,908.8410522249945 673.0829629370664,908.9197310040061 673.3393979195689,908.9984636684913 L 674.5180528496523,909.1245137662415 C 675.1561167321015,909.3140050284691 675.7942404872994,909.5034663543231 676.4321846242513,909.6929396547266 676.3444710474675,909.8657324073536 676.2566975979347,910.0384592999574 676.1689241484018,910.2111981671109 675.4732626817434,909.9643787480429 674.7775413423363,909.7175653162494 674.0819397484267,909.4707458971811 673.9996745917704,909.5106810205362 673.8896883524854,909.4860733208379 673.8380780431423,909.4087596404956 673.792574754162,909.4410909247709 673.8740016923369,909.5069150246457 673.8201162185448,909.53416311256 673.7566511049673,909.7950945384868 673.6915095544271,910.0560798498875 673.6271463496198,910.3171250340366 L 673.0587144738599,910.2147007229075 C 673.0144086398529,910.3681725395425 672.9710008970755,910.5216443561778 672.9271141723093,910.675176045562 672.5593158773026,910.6073402213322 672.1914577095474,910.5395403207519 671.8237192872893,910.4717464074461 671.7710312684703,910.6498438856044 671.7178642676617,910.8279293892135 671.664936757848,911.0060388419211 671.7794134532822,911.1209885320702 671.8938302759678,911.2359382222189 672.0083069714015,911.3508400141686 671.9957336941839,911.4279321653405 671.9843578719388,911.5050183292379 671.9735807771801,911.5821224549597 672.3919715448025,911.7077354816447 672.8103623124261,911.8333604828786 673.2288129527976,911.9589914713881 673.2844946090493,911.9387544823417 673.2126473106598,911.8526155588474 673.2737175142909,911.837809028104 673.3946604665802,911.5542097795355 673.5155435461209,911.2707422510137 673.636546371159,910.9872088624686 673.8759176202943,910.7670926893016 674.1153487421778,910.54698250341 674.3547798640614,910.3268603429684 674.7383246919654,910.4104786237445 675.1219892653664,910.4940729554208 675.5054742205214,910.5776253761731 675.8473476153592,910.7237029083494 676.1891012646997,910.8697445168761 676.5308549140398,911.015774150853 676.5305555502967,910.9681154429215 676.5936015546336,910.9211153352246 676.6347341329618,910.9600326218526 L 677.7485468762483,910.4515213929494 C 677.8211126476219,910.425835983775 677.9032580587809,910.4138015612948 677.959598315268,910.3560962061383 L 678.9689331121461,910.6966943114292 678.9126527284075,910.7223797206039 C 678.9575572899012,910.7113631348505 679.0303625522693,910.7271695404964 679.0526352147702,910.6693324652926 679.075985586747,910.6780140138481 679.1132264364123,910.7393835812226 679.1445398839605,910.7021427315572 678.8432602127123,911.020683716243 678.5418009232192,911.3392845736773 678.2404613792232,911.6578315456379 678.0768890298893,911.9936098946623 677.9135561715501,912.3293343582124 677.7500436949649,912.6651127072369 677.4661869935766,912.8722125448455 677.1825697831834,913.0793602806525 676.8988328272926,913.286502029185 L 675.8504011255407,912.9068429426689 C 675.6907205048695,912.9068429426689 675.5778005009004,913.0951726735734 675.6366554128313,913.2384122374629 L 675.5502590365175,913.9266614578373 C 674.8753734136437,914.1964600378405 674.2006075362669,914.4662526305688 673.5259015316388,914.7361050960457 673.1827109363307,914.5459252972083 672.8395203410225,914.3557335238208 672.4962698729657,914.165553724983 672.3368886160377,914.0929460426857 672.177327740864,914.0202305894405 672.0178267384388,913.9475690216688 671.8606009004627,914.3411245731482 671.7034349352352,914.7346801246277 671.546268970007,915.1282955488559 670.96610203551,914.9717642347641 670.3861147192599,914.8152748315964 669.8060675302597,914.6587974029785 670.1473421976107,913.6577370199646 670.4886767377112,912.6567424969746 670.8300711505588,911.6557659358094 670.6903281551909,911.4695676747575 670.5505252870742,911.2833215155067 670.4107224189579,911.0970693689812 670.5403469198025,910.7279179498547 670.6698516751498,910.3587006707048 670.7994163032467,909.9895492515786 670.9464637739504,909.6498312756928 671.0934513719058,909.3101073125318 671.2403790971128,908.9703893366456 671.3868877130793,909.0005053292208 671.5334562017942,909.0308069273165 671.6799049450119,909.0609408817163 671.6607456654413,909.1462415867295 671.8289880891707,909.1310638449446 671.7977345143709,909.051002005439 672.0556064428416,908.9546547782981 672.3135382440605,908.8582895893332 672.5715299180283,908.7619483494672 Z M 661.6992973619542,909.4177824637183 C 662.0137490379065,909.5846657760531 662.1174486385823,910.0032301746471 661.9989005962395,910.3233577871723 661.868677367908,910.6893000269706 661.598830889706,910.981024007532 661.3677819526343,911.2860636873956 660.407183573164,912.5073240654237 659.4465253209448,913.7288778199206 658.4859269414744,914.9501561597733 658.0840610524811,915.3906040480019 657.6820754179908,915.8311058217041 657.280149656249,916.2715596972075 656.9318698773048,916.4637093094759 656.5887990274941,916.7257902921769 656.1726235515715,916.7250837937427 655.8229068266598,916.7437042185754 655.4284651585002,916.7677131907872 655.1319753071453,916.5481298850836 654.8648231026329,916.3395092796595 654.7581897372725,915.958808407317 654.8685950857983,915.6397764660922 654.9844488544516,915.3015313598232 655.2140608455556,915.0184949150918 655.4070307144805,914.7216697763443 655.9475618893657,913.9375642853684 656.4882128097483,913.1533929343687 657.0286242391364,912.3692874433926 657.2968541531245,912.0489981744459 657.609689264863,911.7656863150708 657.9600645900103,911.5375232444846 658.7937327423258,910.9632477884556 659.6501525391311,910.4231117737111 660.5005251883219,909.8740427448675 660.807193406948,909.6979749528885 661.1237406291039,909.5330195430608 661.4652547874499,909.4358999574624 661.5423110149728,909.4232668074955 661.6208640612122,909.4053049828983 661.6992973619542,909.4178782601164 Z M 665.9979810973594,910.7608060506928 666.0099556470911,910.7761334743493 C 666.0027709172519,910.8302584391361 666.1033571349978,910.8308571666226 666.1053329357033,910.7809232942421 666.150237497197,910.768290144275 666.2055599169569,910.8164278341962 666.2384300559704,910.7655958705853 666.2971053496553,910.8346471116127 666.3945183117219,910.7376951697108 666.4577439343048,910.7957118631603 L 667.5452725409305,910.8105004320789 667.1906462506286,911.9682358237812 C 666.7177114089784,912.9002988512412 666.2447166945794,913.8323499041515 665.7717219801803,914.7644129316114 666.0510283526705,915.0439468205462 666.3302748524117,915.323534594955 666.6096410976506,915.6030624966151 667.0887428324125,915.8981872493005 667.5677248216773,916.193323976536 668.0467666836907,916.4884547164963 669.590346016845,917.1769254660406 671.1341049682453,917.8653842410354 672.6776244286511,918.5538490033052 672.5232724826106,919.0312383774556 672.3688007910726,919.5086157770565 672.214448845032,919.9860470621307 671.8759283241191,919.8663973612126 671.537108439463,919.7288995939192 671.2002643555124,919.5980177653526 670.4152128751077,919.2753695101091 669.6226773011203,918.9696233318114 668.8561863727994,918.6039804557567 668.4627625413671,918.4260446340197 668.0992152115152,918.1906010371967 667.7332130989683,917.9631085413951 667.3051229460628,917.6551770077719 666.8776913933927,917.3455989735604 666.4634917181762,917.0192326206248 665.9448140965512,916.5826644865095 665.4167963261354,916.1547359900257 664.934401590197,915.6775861068698 664.6782659714375,915.4341614726507 664.4951751060414,915.0820677996171 664.5421752137377,914.7211848070802 664.5966594150168,914.3274077264308 664.7663986574624,913.9627288016292 664.9009925964459,913.592050627412 665.2577144329509,912.6453906238293 665.6276082741604,911.7037000583851 665.9980409701081,910.7624585385559 Z M 669.2350611263078,911.4971390755148 669.2458382210663,911.517376064561 C 668.9998809695789,912.3242511618517 668.7539835908401,913.1311741573415 668.5080862121013,913.9380432673573 668.4186961983548,914.3220790518004 668.3293061846084,914.7061687217167 668.2399161708616,915.0902104934342 669.3100816803765,915.4275754702981 670.3803070626398,915.7650003199106 671.4504725721545,916.1023652967742 L 671.9395131831939,917.2789426424792 668.2656614527846,915.9685856271728 C 667.938337135871,915.7973914769346 667.5811961901256,915.563923680817 667.5015055616614,915.1758943840388 667.4130735118934,914.8067968503863 667.5523973980208,914.4381902732728 667.6226880049455,914.0787621885286 667.7186640210443,913.6846019222878 667.8247585316667,913.2932975861579 667.9271409318719,912.9008317187042 668.0714941288864,912.5800395186687 668.2111772515057,912.238788800417 668.4843766036326,912.0036266055128 668.7294956366389,911.8277683681543 668.9807216900081,911.6599690027652 669.2346420170673,911.497198948263 Z M 681.3501920717759,911.9506092865759 681.357376801615,911.9851558625517 C 681.5354383561241,912.1175105607354 681.7134999106333,912.2498712461938 681.8916213378911,912.3822139698277 682.0342382251947,912.2793525876331 682.1767353670009,912.1764971927135 682.3192923815557,912.0736298232437 682.742892078312,912.3441289144062 683.1663720295706,912.6146399801184 683.5900315990752,912.8851450585558 683.6952280184674,912.8927488976354 683.6707400642665,913.0759954321782 683.5702735920181,913.0670264944292 681.7592426906079,914.4910758721623 679.9484512801926,915.9151072880713 678.1374802515313,917.3392105512782 679.2009400131963,918.452538325301 680.2644596476102,919.5659139975223 681.327919409275,920.679337567942 L 680.2293742168965,921.9380962484552 C 679.8994154990417,921.7316550110822 679.5695166539354,921.5252257482587 679.2394980633321,921.3188443836345 678.8868475737358,921.7188602046936 678.5340773386426,922.1189837967009 678.1813669762976,922.5190475159597 L 677.0076216116043,921.936677264312 C 676.6751482383059,921.7232848008195 676.3426149922588,921.5099043118772 676.0100218734633,921.2965238229346 L 674.7429947663606,920.0084933556025 C 674.5191305591281,919.6859528713066 674.2953262246439,919.3634662724846 674.0714620174113,919.0409377627382 673.8963941003353,918.4158722540224 673.7213261832589,917.7907708216577 673.5462582661828,917.1657172874914 673.7970652103114,916.8415243153325 674.0436810620341,916.5135174490843 674.3173593961503,916.2079449017578 675.5965406712305,915.3395146315716 676.875662073562,914.471108310485 678.1549032213907,913.6026720530239 679.2168062915908,913.0455202031113 680.2772724158229,912.4854645248882 681.3509105447599,911.9510283958168 Z M 677.1601773751851,912.1978657767093 C 677.1601773751851,912.1930759568168 677.1529926453463,912.1930759568168 677.1422155505879,912.2026555966018 L 677.1266486359368,912.2284008785252 C 677.1392219131548,912.2388187367914 677.1649671950779,912.2075651619918 677.1601773751851,912.1999613229122 Z M 676.693529172144,912.2410939012405 C 676.686344442305,912.2363040813478 676.686344442305,912.2410939012405 676.6779622574929,912.252050614245 L 676.6707775276538,912.2833041890446 C 676.6887393522513,912.2880940089371 676.7019113569563,912.2455843573899 676.6941278996306,912.2406747919999 Z M 684.8499338490876,913.520047659876 C 684.8660994912252,913.515257839983 684.8828638608495,913.520047659876 684.8960358655543,913.5287890811797 L 687.449069741084,915.9208909955916 687.6594027071198,916.1389235971048 C 686.9807451010805,916.6209590965512 686.3019677495435,917.1029945959976 685.6232502707555,917.5850181208943 684.9828513511084,917.953079855995 684.3424524314615,918.3210877056217 683.7021133845631,918.6891494407225 684.7367743541236,918.9991046732503 685.7714353236841,919.3091137912526 686.8061561659934,919.6190690237807 686.6280347387362,920.0620854529263 686.4499133114776,920.5051677420959 686.2717918842198,920.9481901585164 686.242454237378,921.0087454565093 686.2131165905357,921.0693845763504 686.1841381801845,921.1299518488929 L 684.9657277449922,920.8541300703748 683.3009060958054,920.3205561088833 C 682.938436475429,920.165665308105 682.5760267278019,920.0107625327767 682.2134972346771,919.8559316047469 681.856116797937,919.6676018738429 681.4987962339454,919.4792781302138 681.1414157972052,919.2910022847836 680.9874829604052,918.9201564668702 680.8334902508565,918.5493585471557 680.6795574140567,918.1785546401663 680.5886107088449,917.803332124326 680.497544258136,917.4281036212108 680.4065376801758,917.0528152453471 681.4240151708714,916.2157463209082 682.441492661567,915.3786714091943 683.4589701522627,914.5416563702286 L 684.8048496693478,913.5392488503706 C 684.8174229465662,913.5299087015797 684.8323911337307,913.5222449897514 684.8497542308416,913.5195507160618 Z M 674.5278121076835,913.8425282714231 C 674.5152388304653,913.8425282714231 674.4990731883276,913.8473180913158 674.498474460841,913.8489346555296 L 674.5361942924954,913.8609690780099 C 674.549965024687,913.847797073305 674.5433790223346,913.8429473806637 674.5278121076835,913.8423486531772 Z M 671.7108591560687,913.8473180913158 C 671.7036744262296,913.8473180913158 671.7024769712566,913.8521079112084 671.6976871513641,913.8594722592936 H 671.756362445049 C 671.7407955303979,913.8642620791861 671.7228337058004,913.8435461081502 671.710260428582,913.8463601273373 Z M 660.5709355407439,915.225953989192 C 660.6358376002891,915.2307438090847 660.7015180055669,915.2428979770621 660.7659410831231,915.2740916791133 L 660.8287475964657,915.291095539732 660.8616776082276,915.2998968337849 C 661.223189264625,915.4246417056136 661.5853595212579,915.5511408489785 661.9331004454641,915.7109052914977 662.2873076265253,915.867065394548 662.6349886779828,916.0383134302599 662.978718128029,916.2159199518789 663.2799977992765,916.3937360281189 663.5274518694805,916.6569665675941 663.6906649823224,916.966161416214 663.7749059396843,917.1100535930643 663.8308270869312,917.2680757385977 663.8626195164683,917.431444520586 663.5859475449194,917.4397069599009 663.3109520103329,917.4724573534168 663.035836730249,917.4997114286061 663.957637568589,917.8967575613322 664.879438406929,918.2938216558831 665.8012991180174,918.6908857504338 666.2271141064741,918.8991231702666 666.6529290949304,919.1074204628481 667.0788638288839,919.3157177554295 667.8998988312324,919.8785635037395 668.7208739608322,920.4414631375234 669.5419089631807,921.0042550003598 669.8243885913494,921.2167613471722 670.1020185268771,921.583793270996 669.948085690077,921.951621502377 669.7940929805286,922.3142707409989 669.4128831898224,922.5130961647428 669.0453842585591,922.5932059024473 668.5626901588774,922.7121550922064 668.0655667267693,922.7597060291907 667.5698802406291,922.7812482441579 667.2066322745204,922.7860380640505 666.8345830143589,922.7876546282644 666.4859439989229,922.6725851926183 666.0336652555597,922.5201012763359 665.6271891649198,922.2655702472407 665.2153843996494,922.0296536557031 664.0302033399625,921.3187485872363 662.8539433198257,920.592959153453 661.6746297895072,919.8723127887797 661.1058985500038,919.5190875207963 660.5326768543512,919.1723045605688 659.9665800157888,918.81486425108 659.6808672591926,918.6192599812139 659.389227100479,918.4236018258742 659.1557233807125,918.1649036534723 658.954431199724,917.9095643422703 658.8161251503238,917.6076979180857 658.7384701953142,917.292821145618 658.6064507845229,916.9219154549557 658.7797823918882,916.5103561679551 659.0616632925707,916.258351768853 659.380665297421,915.9851045185274 659.7091870693078,915.7231372940489 660.0313623298369,915.4538296705848 660.1815830562202,915.328486071269 660.3747325433913,915.2199786888759 660.5705763042518,915.2260557728644 Z" id="path1225" inkscape:connector-curvature="0" sodipodi:nodetypes="ccccccccccccccccccccccccccccccccccccccccccccccccccccccccccccccccccccccccccccccccccccccccccccccccccccccccccccccccccccccccccccccccccccccccccscccsccccccccccccccccccccccccccccccccccccccccccccccccccccccccccc" />
            <path style="font-variation-settings:normal;vector-effect:none;fill:#2f9e44;fill-opacity:1;stroke-width:0.598447;stroke-linecap:butt;stroke-linejoin:miter;stroke-miterlimit:4;stroke-dasharray:0.598447, 3.59067;stroke-dashoffset:0;stroke-opacity:1;-inkscape-stroke:none;paint-order:fill markers stroke;stop-color:#000000" d="M 743.5863375061311,813.4084755003483 735.9784852210028,832.0575076988819 735.4090693761984,853.1266349885961 715.0827171675068,904.6434242071762 726.7645287816972,905.6947872524534 751.9972418683488,864.1075379059352 756.319512165599,812.7075668034972 Z" id="path2" sodipodi:nodetypes="cccccccc" />
            <path style="font-variation-settings:normal;vector-effect:none;fill:#fff5f5;fill-opacity:1;stroke-width:0.598447;stroke-linecap:butt;stroke-linejoin:miter;stroke-miterlimit:4;stroke-dasharray:0.598447, 3.59067;stroke-dashoffset:0;stroke-opacity:1;-inkscape-stroke:none;paint-order:fill markers stroke;stop-color:#000000" d="M 776.1231641135739,900.4206322380664 776.9838073346468,893.388837971621 818.8329111110556,886.269480880331 837.6700926175809,874.32425794205 839.2451578579713,882.1937902986411 821.6595508608792,894.8690495093857 787.9724995357694,896.0251644014541 Z" id="path7" sodipodi:nodetypes="cccccccc" />
            <path style="font-variation-settings:normal;vector-effect:none;fill:#40c057;fill-opacity:1;stroke-width:0.598447;stroke-linecap:butt;stroke-linejoin:miter;stroke-miterlimit:4;stroke-dasharray:0.598447, 3.59067;stroke-dashoffset:0;stroke-opacity:1;-inkscape-stroke:none;paint-order:fill markers stroke;stop-color:#000000" d="M 837.6700926175809,874.32425794205 839.6264542618232,870.3939558563331 833.8046970669438,865.5462256062763 835.7558311420921,861.654357466955 831.6729740499273,859.4033459872483 832.4942460483647,854.8789067307244 827.9256405726055,854.1548252276355 814.9622064688335,817.9643820298828 799.6723763236035,802.3397382192025 798.165858434761,803.7241229864678 799.6723763236035,806.7533349946627 810.580946417959,828.6876059162318 757.9458447336437,862.4578317938445 768.9358687089227,891.5597951992825 785.6611411731735,891.9126525190752 818.8329111110556,886.269480880331 Z" id="path8" sodipodi:nodetypes="ccccccccccccccccc" />
            <path id="path1" style="font-variation-settings:normal;vector-effect:none;fill:#ebfbee;fill-opacity:1;stroke-width:0.598447;stroke-linecap:butt;stroke-linejoin:miter;stroke-miterlimit:4;stroke-dasharray:0.598447, 3.59067;stroke-dashoffset:0;stroke-opacity:1;-inkscape-stroke:none;paint-order:fill markers stroke;stop-color:#000000" d="M 749.8361277034897,755.8644595588591 724.790140774602,758.5423617937623 707.4504314561993,783.56729970945 714.6877838281709,795.3360368675565 720.9533734240706,797.6023139554353 V 809.3114122428081 L 726.0156610986972,809.3932695163641 727.8176905065513,807.5631747575768 728.18955640642,812.7084890953816 732.9559885066229,816.7382057335806 737.2394626928454,821.6052053412953 741.2648780729001,821.4028888050188 747.0331007790083,814.8168985842595 752.1339783111685,817.0071653466934 752.8671856043057,828.6414226982436 744.3107617384606,855.1199119143614 757.9458447336437,862.4578317938445 769.9776945567517,861.4123974715722 771.5820971184491,853.0255351009501 768.4259145280548,880.476956482762 765.6988979290181,883.9769396220915 738.1165049095168,896.809821336426 718.5736655428357,902.3316791325885 699.2845837241784,901.674482164896 695.714437207515,906.8665720875901 694.3591146353522,907.48050163926 693.6724577516072,906.3092066580662 687.6596814896058,909.4205190225369 690.6977557281552,918.7124889607639 697.6123565643918,922.537562415073 714.9544046620388,918.2236840986723 782.2738264344834,899.922736510798 786.9022705592634,893.1227358575398 810.5812410197662,828.6881982831328 798.1658314005674,803.7240686278008 772.0533611362071,796.9895537933874 761.576799510663,790.5123046758643 762.432792714134,772.1528876068787 Z" sodipodi:nodetypes="ccccccccccccccccccccccccccccccccccccccc" />
            <path style="font-variation-settings:normal;vector-effect:none;fill:#40c057;fill-opacity:1;stroke-width:0.598447;stroke-linecap:butt;stroke-linejoin:miter;stroke-miterlimit:4;stroke-dasharray:0.598447, 3.59067;stroke-dashoffset:0;stroke-opacity:1;-inkscape-stroke:none;paint-order:fill markers stroke;stop-color:#000000" d="M 757.9458447336437,862.4578317938445 744.3107617384606,855.1199119143614 750.89523746811,834.743762680187 751.6297916900446,839.8513566635556 764.2738286913789,839.2010109869661 772.5594002727011,807.216466010229 780.7701729990328,799.2376558765945 799.6723763236035,802.3397382192025 798.165858434761,803.7241229864678 777.6606956367966,809.3198414353817 772.1024722701462,838.2415344301123 771.5820971184491,853.0255351009501 770.525849613877,862.2124229000679 Z" id="path9" sodipodi:nodetypes="cccccccccccccc" />
            <path id="path6" style="fill:#37b24d;fill-opacity:1;stroke-width:0.598447;stroke-dasharray:0.598447, 3.59067;-inkscape-stroke:none;paint-order:fill markers stroke" d="M 782.2738264344834,899.922736510798 764.2734119795217,904.8166320798237 744.8358176788411,913.486486739025 740.5885945709077,935.2090683615399 784.1705764017377,968.432596918671 785.2955292183215,972.9639817048059 790.2408779307254,973.061041043451 815.7803472801938,993.6691943559819 824.1157565074378,996.9107423887992 834.6461100556044,1012.81678003035 844.2830499323888,1018.307064306712 858.4186316858855,1011.414681873298 853.7071608979274,998.6426084193193 832.5236678912599,979.9908439447765 823.5018269557679,967.7859244575787 814.5606739042094,964.4426395276276 H 814.5595045145872 L 809.4282228522489,957.8414351101482 788.4575587568272,930.8671246942059 812.1049556975299,929.6837023965108 805.736459814874,907.1846460648364 Z" />
            <path id="path3" style="fill:#2b8a3e;fill-opacity:1;stroke-width:0.598447;stroke-dasharray:0.598447, 3.59067;-inkscape-stroke:none;paint-order:fill markers stroke" d="M 733.7149223714491,745.5761957099517 720.5733217968462,748.6329541349988 718.2953508127453,763.3520613099875 712.5127191308259,765.8054407374229 703.7516520810909,780.699956355746 701.5529142021856,788.2635263765157 704.6303672555059,787.3584608647145 705.3279892918548,795.0682466440664 713.7394088445437,794.1923738170172 V 787.3584608647145 L 716.5424357690251,792.7902756599653 729.6852057332499,781.7512376261291 735.8174849122158,785.0804898806136 742.3889743442266,800.3188060478719 H 750.0606505109576 L 751.1399971322746,808.5209048581817 755.3603242788966,802.7066996564622 761.128616474542,805.7765630595156 765.5527242262395,794.8647728497985 773.2975916942582,791.0572402398229 768.667978179856,790.9122359266666 774.8938085285999,784.5542645506108 776.3894578554302,777.7963619237527 773.4796071608063,779.3582436115111 768.9918991052131,778.2582708245331 777.0224942005188,773.3014511256495 772.0536941783716,763.3520613099875 770.7031881484713,770.3827695310615 762.7143319555805,757.4632467350403 750.3623530334925,749.3334185187136 733.7149223714491,750.3846997890968 731.2483612594022,748.9710212859231 Z" sodipodi:nodetypes="ccccccccccccccccccccccccccccccccc" />
            <path style="font-variation-settings:normal;vector-effect:none;fill:#2b8a3e;fill-opacity:1;stroke-width:0.534816;stroke-linecap:butt;stroke-linejoin:miter;stroke-miterlimit:4;stroke-dasharray:0.534816, 3.20889;stroke-dashoffset:0;stroke-opacity:1;-inkscape-stroke:none;paint-order:fill markers stroke" d="M 814.3275823250542,968.5753662598734 819.4723644222824,967.8766757948466 822.3060314478808,962.704929916838 813.3013611150705,964.4759641842972 812.7711602217136,967.3829332468802 Z" id="path12-2" sodipodi:nodetypes="cccccc" />
            <path style="font-variation-settings:normal;vector-effect:none;fill:#2f9e44;fill-opacity:1;stroke-width:0.534816;stroke-linecap:butt;stroke-linejoin:miter;stroke-miterlimit:4;stroke-dasharray:0.534816, 3.20889;stroke-dashoffset:0;stroke-opacity:1;-inkscape-stroke:none;paint-order:fill markers stroke" d="M 813.2969737042229,967.7857785636331 822.3060314478808,962.704929916838 816.5621230966378,961.1397071816246 810.5568983166863,965.6865046306954 Z" id="path12" sodipodi:nodetypes="ccccc" />
            <path style="fill:#fff5f5;fill-opacity:1;stroke-width:0.598447;stroke-dasharray:0.598447, 3.59067;-inkscape-stroke:none;paint-order:fill markers stroke" d="M 764.2738286913789,904.8161000746788 762.8622692953756,916.7983201399013 793.8743174268139,992.29687428468 815.0630436859188,992.2531671781595 807.6337935414278,929.8817191639428 812.105278688523,929.6838047504885 821.2685878771789,910.7179662465549 797.9646034005616,895.6822427260101 Z" id="path5" />
            <path style="font-variation-settings:normal;vector-effect:none;fill:#2f9e44;fill-opacity:1;stroke-width:0.598447;stroke-linecap:butt;stroke-linejoin:miter;stroke-miterlimit:4;stroke-dasharray:0.598447, 3.59067;stroke-dashoffset:0;stroke-opacity:1;-inkscape-stroke:none;paint-order:fill markers stroke;stop-color:#000000" d="M 840.9045411159928,913.8252669579852 824.6229532913894,926.8075363256783 812.105278688523,929.6838047504885 814.4949340042654,918.2232060045837 805.7360063853242,907.184696666241 786.3939634380202,900.9134668093911 764.2738286913789,904.8161000746788 784.5880484968732,896.5227361841689 786.9019906839183,893.1231982666099 821.0754602801697,889.7290523991417 838.457625237776,878.2590241203455 841.6057215881858,886.901551636565 841.073624115985,889.6666715449947 843.2819682197083,901.0107324990677 Z" id="path4" sodipodi:nodetypes="ccccccccccccccc" />
            <path style="font-variation-settings:normal;vector-effect:none;fill:#40c057;fill-opacity:1;stroke-width:0.598447;stroke-linecap:butt;stroke-linejoin:miter;stroke-miterlimit:4;stroke-dasharray:0.598447, 3.59067;stroke-dashoffset:0;stroke-opacity:1;-inkscape-stroke:none;paint-order:fill markers stroke;stop-color:#000000" d="M 780.4927561018088,971.4436082045091 784.0269090535367,968.3234465670203 786.4822600401256,974.3009766101752 804.4427556561975,978.4256037737716 812.6010420214245,971.583704467738 812.0333448149434,966.8176653503113 815.8040288233114,969.706526979489 816.9835761635107,1001.924672297643 825.8625841757481,1019.183587084314 789.4374480918268,1051.425387139479 768.5854143604967,1049.497888223138 764.7304165278142,1030.047671885511 779.2742719874811,1023.213812091209 790.8392654855298,1006.311821736322 783.6759526568862,981.3236423888938 Z" id="path10" sodipodi:nodetypes="cccccccccccccccc" />
            <path style="font-variation-settings:normal;vector-effect:none;fill:#37b24d;fill-opacity:1;stroke-width:0.598447;stroke-linecap:butt;stroke-linejoin:miter;stroke-miterlimit:4;stroke-dasharray:0.598447, 3.59067;stroke-dashoffset:0;stroke-opacity:1;-inkscape-stroke:none;paint-order:fill markers stroke;stop-color:#000000" d="M 790.8392654855298,1006.311821736322 776.4706372000756,977.4795196216534 797.1210220630373,978.3055980773787 803.0881290861078,1005.691094669923 789.5664016436719,1024.767867380113 779.2742719874811,1023.213812091209 Z" id="path11" />
            <path style="font-variation-settings:normal;vector-effect:none;fill:#2b8a3e;fill-opacity:1;stroke-width:0.598727;stroke-linecap:butt;stroke-linejoin:bevel;stroke-miterlimit:4;stroke-dasharray:none;stroke-dashoffset:0;stroke-opacity:1;-inkscape-stroke:none;paint-order:fill markers stroke;stop-color:#000000" d="M 765.6649614569494,1044.007436764468 786.5754042463504,1046.460617203448 824.3076557601857,1012.81699975458 827.3449267798748,1020.17654107152 789.0285846853299,1052.768795475111 766.6579154441556,1050.666069384556 Z" id="path13" />
            <path style="baseline-shift:baseline;display:inline;overflow:visible;vector-effect:none;fill:#2b8a3e;stroke-width:0.598727;stroke-linejoin:bevel;paint-order:fill markers stroke;enable-background:accumulate;stop-color:#000000" d="M 771.4195519609594,977.1772925136948 769.9016842313069,979.148883416772 772.2661900474528,987.0375858083248 774.2366115609077,988.0444302730635 788.0143600900025,983.2627961077714 797.6805347073426,988.6373108115333 799.1995718266173,988.6197699671997 805.2219283810934,985.0952296458034 804.8290134680247,982.2886945524553 789.7263464969449,978.4086597859013 788.3710239247823,978.7419358282364 788.2973523785818,978.5828988396134 786.9560624818858,977.6906545578532 Z M 773.4484429555257,980.3100873116449 785.9071199907471,980.7228818482915 785.917644497347,980.746269640736 774.7429572673323,984.6263044072899 Z M 792.614738863849,982.3144211241442 800.4613432290017,984.3304488328659 798.4055562731241,985.533750754139 Z M 782.0352709515489,985.7956940295182 781.2248839433444,988.7507416048894 790.1601900467917,991.20178225308 783.142682923799,991.5841726595489 782.7217026597968,994.5602692481201 795.8785052994885,999.1489541257443 787.2986936411989,1000.798962882709 786.9525543130191,1003.697879756213 801.1255565344273,1010.161096198269 802.3978524434119,1007.373271338877 792.5913510714045,1002.901525423475 802.05054372561,1001.081955171288 802.2657114161002,998.1304157647833 791.0547731077964,994.2211462576739 799.7421686113311,993.7475434606714 800.063750757444,990.7410427419222 Z" id="path15" />
            <path style="font-variation-settings:normal;vector-effect:none;fill:#2b8a3e;fill-opacity:1;stroke:none;stroke-width:0.598447;stroke-linecap:butt;stroke-linejoin:miter;stroke-miterlimit:4;stroke-dasharray:0.598447, 3.59067;stroke-dashoffset:0;stroke-opacity:1;-inkscape-stroke:none;paint-order:fill markers stroke;stop-color:#000000" d="M 721.19619857893,795.6360668476495 728.9695778102676,787.1503589497847 732.7750336775462,789.8550985640814 721.8150118320435,798.2351001925833 Z" id="path16" sodipodi:nodetypes="ccccc" />
            <path style="font-variation-settings:normal;vector-effect:none;fill:#2f9e44;fill-opacity:1;stroke:none;stroke-width:0.598727;stroke-linecap:butt;stroke-linejoin:bevel;stroke-miterlimit:4;stroke-dasharray:none;stroke-dashoffset:0;stroke-opacity:1;-inkscape-stroke:none;paint-order:fill markers stroke" d="M 694.3591146353522,907.48050163926 693.6724577516072,906.3092066580662 690.4211148708799,887.9254538082011 692.3465029987513,885.5578885928389 695.0419203538259,886.7832322281468 697.4995104658468,904.2705271262432 695.7133585479874,906.8670606952276 Z" id="path25" />
            <path id="path26" style="font-variation-settings:normal;vector-effect:none;fill:#8ce99a;fill-opacity:1;stroke:none;stroke-width:1;stroke-linecap:butt;stroke-linejoin:bevel;stroke-miterlimit:4;stroke-dasharray:none;stroke-dashoffset:0;stroke-opacity:1;-inkscape-stroke:none;paint-order:fill markers stroke" d="M 1584.125,143.37109375 1584.494140625,147.89453125 1578.220703125,152.56640625 1581.87109375,154.0078125 1577.564453125,160.376953125 1583.2578125,161.8984375 1583.865234375,167.53515625 1590.9765625,161.8125 1587.853515625,159.556640625 1591.58203125,152.70703125 1587.6796875,150.10546875 1587.130859375,144.41015625 Z" transform="matrix(0.5800065499704341,0.0461370483778609,-0.1652703140335676,0.6049061320625149,-134.8045317682801,661.6936764023996)" />
        </g>
        <g inkscape:label="floor" id="layer17" inkscape:groupmode="layer" style="display:inline" />
        <g inkscape:label="surface" id="layer15" inkscape:groupmode="layer" style="display:inline" />
        <g inkscape:groupmode="layer" id="layer18" inkscape:label="paper" />
    </g>
    <g inkscape:groupmode="layer" id="layer20" inkscape:label="new 1" />
    <g inkscape:groupmode="layer" id="layer6" inkscape:label="new" />
    <g inkscape:groupmode="layer" id="layer21" inkscape:label="new 2" />
</svg>
