<?xml version="1.0" encoding="UTF-8" standalone="no"?>
<svg version="1.1" id="svg3820" width="1080" height="540" viewBox="0 0 1080 540" sodipodi:docname="self-portrait-tablet.svg" inkscape:version="1.4.1 (93de688d07, 2025-03-30)" inkscape:export-filename="/home/elm/Documents/Self-Portrait/export/self-portrait.png" inkscape:export-xdpi="192" inkscape:export-ydpi="192" xmlns:inkscape="http://www.inkscape.org/namespaces/inkscape" xmlns:sodipodi="http://sodipodi.sourceforge.net/DTD/sodipodi-0.dtd" xmlns="http://www.w3.org/2000/svg" xmlns:svg="http://www.w3.org/2000/svg" xmlns:rdf="http://www.w3.org/1999/02/22-rdf-syntax-ns#" xmlns:cc="http://creativecommons.org/ns#" xmlns:dc="http://purl.org/dc/elements/1.1/">
    <sodipodi:namedview pagecolor="#ffffff" bordercolor="#666666" borderopacity="1" objecttolerance="10" gridtolerance="10" guidetolerance="10" inkscape:pageopacity="0" inkscape:pageshadow="2" inkscape:window-width="1849" inkscape:window-height="1024" id="namedview3822" showgrid="false" units="px" inkscape:snap-others="true" inkscape:snap-global="true" inkscape:zoom="0.67493617" inkscape:cx="1891.3196" inkscape:cy="92.781858" inkscape:window-x="71" inkscape:window-y="30" inkscape:window-maximized="1" inkscape:current-layer="layer16" inkscape:snap-bbox="true" inkscape:snap-grids="false" inkscape:bbox-paths="true" inkscape:bbox-nodes="true" inkscape:object-paths="true" inkscape:snap-intersection-paths="true" showguides="true" inkscape:guide-bbox="true" inkscape:snap-bbox-edge-midpoints="true" inkscape:snap-bbox-midpoints="true" inkscape:snap-smooth-nodes="true" inkscape:snap-midpoints="true" inkscape:snap-object-midpoints="true" inkscape:snap-center="true" inkscape:snap-page="true" inkscape:snap-nodes="true" inkscape:snap-to-guides="true" inkscape:showpageshadow="0" inkscape:pagecheckerboard="0" inkscape:deskcolor="#d1d1d1">
        <inkscape:grid spacingy="24" spacingx="24" units="in" id="grid3830" type="xygrid" originx="0" originy="0" />
        <sodipodi:guide position="1080.000190019608,232.8265722967822" orientation="70.50338107965126,0" id="guide1" inkscape:locked="false" />
        <sodipodi:guide position="1080.000190019608,162.3231912171309" orientation="162.3231912171309,0" id="guide2" inkscape:locked="false" />
        <sodipodi:guide position="1080.000190019608,0" orientation="0,-960" id="guide3" inkscape:locked="false" />
        <sodipodi:guide position="120.000190019608,0" orientation="-133.5648422967931,0" id="guide4" inkscape:locked="false" />
        <sodipodi:guide position="120.000190019608,133.5648422967931" orientation="-99.26172999998903,960" id="guide5" inkscape:locked="false" />
    </sodipodi:namedview>
    <metadata id="metadata3826">
        <rdf:RDF>
            <cc:Work rdf:about="">
                <dc:format>image/svg+xml</dc:format>
                <dc:type rdf:resource="http://purl.org/dc/dcmitype/StillImage" />
            </cc:Work>
        </rdf:RDF>
    </metadata>
    <defs id="defs3824">
        <inkscape:path-effect effect="powerstroke" message="" id="path-effect45" is_visible="true" lpeversion="1.3" scale_width="1" interpolator_type="CubicBezierJohan" interpolator_beta="0.2" start_linecap_type="zerowidth" end_linecap_type="zerowidth" offset_points="0,0.89010672165522" linejoin_type="extrp_arc" miter_limit="4" not_jump="false" sort_points="true" />
        <inkscape:path-effect effect="powerstroke" message="" id="path-effect43" is_visible="true" lpeversion="1.3" scale_width="1" interpolator_type="CubicBezierJohan" interpolator_beta="0.2" start_linecap_type="zerowidth" end_linecap_type="zerowidth" offset_points="0,0.89010672165522" linejoin_type="extrp_arc" miter_limit="4" not_jump="false" sort_points="true" />
        <inkscape:path-effect effect="powerstroke" message="" id="path-effect41" is_visible="true" lpeversion="1.3" scale_width="1" interpolator_type="CubicBezierJohan" interpolator_beta="0.2" start_linecap_type="zerowidth" end_linecap_type="zerowidth" offset_points="8.40197570706689e-16,0.89010672165522" linejoin_type="extrp_arc" miter_limit="4" not_jump="false" sort_points="true" />
        <inkscape:path-effect effect="powerstroke" message="" id="path-effect39" is_visible="true" lpeversion="1.3" scale_width="1" interpolator_type="CubicBezierJohan" interpolator_beta="0.2" start_linecap_type="zerowidth" end_linecap_type="zerowidth" offset_points="0,0.89010672165522" linejoin_type="extrp_arc" miter_limit="4" not_jump="false" sort_points="true" />
        <inkscape:path-effect effect="powerstroke" message="" id="path-effect37" is_visible="true" lpeversion="1.3" scale_width="1" interpolator_type="CubicBezierJohan" interpolator_beta="0.2" start_linecap_type="zerowidth" end_linecap_type="zerowidth" offset_points="0,0.89010672165522" linejoin_type="extrp_arc" miter_limit="4" not_jump="false" sort_points="true" />
        <inkscape:path-effect effect="powerstroke" message="" id="path-effect36" is_visible="true" lpeversion="1.3" scale_width="1" interpolator_type="CubicBezierJohan" interpolator_beta="0.2" start_linecap_type="zerowidth" end_linecap_type="zerowidth" offset_points="0.01037313402978376,0.8901067216552203" linejoin_type="extrp_arc" miter_limit="4" not_jump="false" sort_points="true" />
        <inkscape:path-effect effect="powerstroke" message="" id="path-effect35" is_visible="true" lpeversion="1.3" scale_width="1" interpolator_type="CubicBezierJohan" interpolator_beta="0.2" start_linecap_type="zerowidth" end_linecap_type="zerowidth" offset_points="0.02606882829488448,2.461925459614312" linejoin_type="extrp_arc" miter_limit="4" not_jump="false" sort_points="true" />
        <inkscape:path-effect effect="powerstroke" message="" id="path-effect34" is_visible="true" lpeversion="1.3" scale_width="1" interpolator_type="CubicBezierJohan" interpolator_beta="0.2" start_linecap_type="zerowidth" end_linecap_type="zerowidth" offset_points="0.001186129318461862,2.922934053488965" linejoin_type="extrp_arc" miter_limit="4" not_jump="false" sort_points="true" />
        <inkscape:path-effect effect="powerstroke" message="" id="path-effect33" is_visible="true" lpeversion="1.3" scale_width="1" interpolator_type="CubicBezierJohan" interpolator_beta="0.2" start_linecap_type="zerowidth" end_linecap_type="zerowidth" offset_points="0,4.44441018384093" linejoin_type="extrp_arc" miter_limit="4" not_jump="false" sort_points="true" />
        <inkscape:path-effect effect="powerstroke" message="" id="path-effect32" is_visible="true" lpeversion="1.3" scale_width="1" interpolator_type="CubicBezierJohan" interpolator_beta="0.2" start_linecap_type="zerowidth" end_linecap_type="zerowidth" offset_points="0,4.44441018384093" linejoin_type="extrp_arc" miter_limit="4" not_jump="false" sort_points="true" />
        <inkscape:path-effect effect="powerstroke" message="" id="path-effect30" is_visible="true" lpeversion="1.3" scale_width="1" interpolator_type="CubicBezierJohan" interpolator_beta="0.2" start_linecap_type="zerowidth" end_linecap_type="zerowidth" offset_points="0,4.44441018384093" linejoin_type="extrp_arc" miter_limit="4" not_jump="false" sort_points="true" />
        <inkscape:path-effect effect="powerstroke" message="" id="path-effect28" is_visible="true" lpeversion="1.3" scale_width="1" interpolator_type="CubicBezierJohan" interpolator_beta="0.2" start_linecap_type="zerowidth" end_linecap_type="zerowidth" offset_points="0,4.44441018384093" linejoin_type="extrp_arc" miter_limit="4" not_jump="false" sort_points="true" />
        <inkscape:path-effect effect="powerstroke" message="" id="path-effect26" is_visible="true" lpeversion="1.3" scale_width="1" interpolator_type="CubicBezierJohan" interpolator_beta="0.2" start_linecap_type="zerowidth" end_linecap_type="zerowidth" offset_points="0,4.44441018384093" linejoin_type="extrp_arc" miter_limit="4" not_jump="false" sort_points="true" />
        <inkscape:path-effect effect="powerstroke" message="" id="path-effect23" is_visible="true" lpeversion="1.3" scale_width="1" interpolator_type="CubicBezierJohan" interpolator_beta="0.2" start_linecap_type="zerowidth" end_linecap_type="zerowidth" offset_points="0,4.44441018384093" linejoin_type="extrp_arc" miter_limit="4" not_jump="false" sort_points="true" />
        <inkscape:path-effect effect="powerstroke" message="" id="path-effect20" is_visible="true" lpeversion="1.3" scale_width="1" interpolator_type="CubicBezierJohan" interpolator_beta="0.2" start_linecap_type="zerowidth" end_linecap_type="zerowidth" offset_points="0,4.44441018384093" linejoin_type="extrp_arc" miter_limit="4" not_jump="false" sort_points="true" />
        <inkscape:path-effect effect="powerstroke" message="" id="path-effect18" is_visible="true" lpeversion="1.3" scale_width="1" interpolator_type="CubicBezierJohan" interpolator_beta="0.2" start_linecap_type="zerowidth" end_linecap_type="zerowidth" offset_points="0,4.44441018384093" linejoin_type="extrp_arc" miter_limit="4" not_jump="false" sort_points="true" />
        <clipPath id="clipPath3842" clipPathUnits="userSpaceOnUse">
            <rect style="stroke-width:3.7746" y="0" x="0" height="1056" width="816" id="rect3844" />
        </clipPath>
        <clipPath id="clipPath3842-3" clipPathUnits="userSpaceOnUse">
            <rect style="stroke-width:3.7746" y="0" x="0" height="1056" width="816" id="rect3844-5" />
        </clipPath>
        <clipPath id="clipPath3842-3-9" clipPathUnits="userSpaceOnUse">
            <rect style="stroke-width:3.7746" y="0" x="0" height="1056" width="816" id="rect3844-5-1" />
        </clipPath>
        <clipPath id="clipPath3842-3-9-2" clipPathUnits="userSpaceOnUse">
            <rect style="stroke-width:3.7746" y="0" x="0" height="1056" width="816" id="rect3844-5-1-7" />
        </clipPath>
        <clipPath id="clipPath3842-3-9-2-3" clipPathUnits="userSpaceOnUse">
            <rect style="stroke-width:3.7746" y="0" x="0" height="1056" width="816" id="rect3844-5-1-7-6" />
        </clipPath>
        <inkscape:path-effect effect="fill_between_many" method="bsplinespiro" autoreverse="false" close="false" join="false" linkedpaths="#path18,0,1" id="path-effect19" is_visible="true" lpeversion="0" />
        <inkscape:path-effect effect="fill_between_many" method="bsplinespiro" autoreverse="false" close="false" join="false" linkedpaths="#path20,0,1" id="path-effect21" is_visible="true" lpeversion="0" />
        <inkscape:path-effect effect="fill_between_many" method="bsplinespiro" autoreverse="false" close="false" join="false" linkedpaths="#path23,0,1" id="path-effect24" is_visible="true" lpeversion="0" />
        <inkscape:path-effect effect="fill_between_many" method="bsplinespiro" autoreverse="false" close="false" join="false" linkedpaths="#path26,0,1" id="path-effect27" is_visible="true" lpeversion="0" />
        <inkscape:path-effect effect="fill_between_many" method="bsplinespiro" autoreverse="false" close="false" join="false" linkedpaths="#path28,0,1" id="path-effect29" is_visible="true" lpeversion="0" />
        <inkscape:path-effect effect="fill_between_many" method="bsplinespiro" autoreverse="false" close="false" join="false" linkedpaths="#path30,0,1" id="path-effect31" is_visible="true" lpeversion="0" />
        <inkscape:path-effect effect="fill_between_many" method="bsplinespiro" autoreverse="false" close="false" join="false" linkedpaths="#path37,0,1" id="path-effect38" is_visible="true" lpeversion="0" />
        <inkscape:path-effect effect="fill_between_many" method="bsplinespiro" autoreverse="false" close="false" join="false" linkedpaths="#path39,0,1" id="path-effect40" is_visible="true" lpeversion="0" />
        <inkscape:path-effect effect="fill_between_many" method="bsplinespiro" autoreverse="false" close="false" join="false" linkedpaths="#path40,0,1" id="path-effect42" is_visible="true" lpeversion="0" />
        <inkscape:path-effect effect="fill_between_many" method="bsplinespiro" autoreverse="false" close="false" join="false" linkedpaths="#path42,0,1" id="path-effect44" is_visible="true" lpeversion="0" />
        <inkscape:path-effect effect="fill_between_many" method="bsplinespiro" autoreverse="false" close="false" join="false" linkedpaths="#path44,0,1" id="path-effect46" is_visible="true" lpeversion="0" />
    </defs>
    <g style="display:inline" inkscape:label="bottom" id="layer8" inkscape:groupmode="layer" transform="translate(0,-516)" sodipodi:insensitive="true" />
    <g style="display:inline" inkscape:label="bg" id="layer13" inkscape:groupmode="layer" transform="translate(0,-516)">
        <g style="display:inline;opacity:1" inkscape:label="walls" id="layer16" inkscape:groupmode="layer">
            <path inkscape:connector-curvature="0" id="path1056" d="M 0,934.8428935840471 V 516 H 1080.000190019608 V 823.1734277032178 Z" style="display:inline;fill:#e64980;stroke:none;stroke-width:0.482913px;stroke-linecap:butt;stroke-linejoin:miter;stroke-opacity:1" sodipodi:nodetypes="ccccc" />
            <path sodipodi:nodetypes="cccccc" inkscape:connector-curvature="0" id="path1022" d="M 1080.000190019608,823.1734277032178 V 893.6768087828691 1056 H 0 V 934.8428935840472 Z" style="font-variation-settings:normal;display:inline;vector-effect:none;fill:#f06595;fill-opacity:1;stroke:none;stroke-width:0.482913px;stroke-linecap:butt;stroke-linejoin:miter;stroke-miterlimit:4;stroke-dasharray:none;stroke-dashoffset:0;stroke-opacity:1;-inkscape-stroke:none;stop-color:#000000" />
            <path style="font-variation-settings:normal;display:inline;vector-effect:none;fill:#c2255c;fill-opacity:1;stroke-width:0.999531;stroke-linecap:butt;stroke-linejoin:miter;stroke-miterlimit:4;stroke-dasharray:0.999531, 5.99717;stroke-dashoffset:0;stroke-opacity:1;-inkscape-stroke:none;paint-order:fill markers stroke" d="M 1920,473.4604096792679 1581.534998651888,287.7979708106936 1559.982907552414,0 H 1920 Z" id="path18" transform="matrix(0.8106816859766491,0,0,0.8106816859766491,-476.5086470555584,618.2318895726091)" />
            <path style="font-variation-settings:normal;display:inline;vector-effect:none;fill:#c2255c;fill-opacity:1;stroke-width:0.810301;stroke-linecap:butt;stroke-linejoin:miter;stroke-miterlimit:4;stroke-dasharray:0.810301, 4.8618;stroke-dashoffset:0;stroke-opacity:1;-inkscape-stroke:none;paint-order:fill markers stroke" d="M 1080.000190019608,1002.057572734593 805.6128120826315,851.544433770081 780.4851707073726,516 H 1080 Z" id="path18-9" sodipodi:nodetypes="ccccc" />
            <path id="path880" style="display:inline;fill:#f06595;stroke:none;stroke-width:0.482913px;stroke-linecap:butt;stroke-linejoin:miter;stroke-opacity:1" d="M 840.7857581497795,816.894820154258 834.8829821237618,817.3128278985899 834.9067325637806,817.3223280745968 312.5978438021897,852.485569792213 380.1221758581792,935.2464234003898 973.7470548259575,873.3701997937398 979.82875083345,872.9743591267598 Z" sodipodi:nodetypes="cccccccc" />
            <path id="path14" style="font-variation-settings:normal;display:inline;vector-effect:none;fill:#a61e4d;fill-opacity:1;stroke-width:0.810301;stroke-linecap:butt;stroke-linejoin:miter;stroke-miterlimit:4;stroke-dasharray:0.810301, 4.8618;stroke-dashoffset:0;stroke-opacity:1;-inkscape-stroke:none;paint-order:fill markers stroke" d="M 970.1781553724588,712.5417201621153 979.82875083345,872.9743591267598 380.1222235442206,935.2464294935089 362.9427385972544,1033.332580046012 1026.123108518187,978.2283924769509 1005.944734678175,712.5417201621153 Z" sodipodi:nodetypes="ccccccc" />
            <path style="font-variation-settings:normal;display:inline;vector-effect:none;fill:#d6336c;fill-opacity:1;stroke-width:0.810301;stroke-linecap:butt;stroke-linejoin:miter;stroke-miterlimit:4;stroke-dasharray:0.810301, 4.8618;stroke-dashoffset:0;stroke-opacity:1;-inkscape-stroke:none;paint-order:fill markers stroke" d="M 312.5978438021897,852.485569792213 295.4133805553305,914.509016352722 362.943212154761,1033.332130823526 380.1221758581792,935.2464234003898 Z" id="path19" sodipodi:nodetypes="ccccc" />
            <path style="font-variation-settings:normal;display:inline;vector-effect:none;fill:#d6336c;fill-opacity:1;stroke-width:0.810301;stroke-linecap:butt;stroke-linejoin:miter;stroke-miterlimit:4;stroke-dasharray:0.810301, 4.8618;stroke-dashoffset:0;stroke-opacity:1;-inkscape-stroke:none;paint-order:fill markers stroke;stop-color:#000000" d="M 970.1778638887756,712.5420273920633 839.0478856287553,726.5801481481853 856.9903670639985,807.2086515188425 921.360250878532,849.392541311998 979.82875083345,872.9743591267598 Z" id="path21" />
            <path style="font-variation-settings:normal;display:inline;vector-effect:none;fill:#f783ac;fill-opacity:1;stroke:none;stroke-width:0.810301;stroke-linecap:butt;stroke-linejoin:miter;stroke-miterlimit:4;stroke-dasharray:0.810301, 4.8618;stroke-dashoffset:0;stroke-opacity:1;-inkscape-stroke:none;paint-order:fill markers stroke;stop-color:#000000" d="M 759.1316490965324,875.185775643823 669.3288717414809,878.9574235469281 653.7714037785774,856.569962379672 740.5080208609283,853.4026047121099 Z" id="path1190" inkscape:connector-curvature="0" sodipodi:nodetypes="ccccc" />
            <path style="display:inline;fill:#d6336c;stroke:none;stroke-width:0.482913px;stroke-linecap:butt;stroke-linejoin:miter;stroke-opacity:1" d="M 669.3288717414809,878.9574154401109 668.8230063694318,884.649162916452 653.7140885833789,861.6983671524268 653.7724576647691,856.5699542728549 Z" id="path1192" inkscape:connector-curvature="0" sodipodi:nodetypes="ccccc" />
            <path style="display:inline;fill:#e64980;stroke:none;stroke-width:0.482913px;stroke-linecap:butt;stroke-linejoin:miter;stroke-opacity:1" d="M 759.1316490965324,875.185775643823 758.1151353304868,879.6825458877658 668.8230063694318,884.649162916452 669.3288717414809,878.9574235469281 Z" id="path1194" inkscape:connector-curvature="0" sodipodi:nodetypes="ccccc" />
            <path style="display:inline;fill:#a61e4d;fill-rule:nonzero;stroke:none;stroke-width:0.482913" d="M 681.2448386391463,856.0685557568948 C 681.2934795403048,856.0585843721569 681.3450388955327,856.0620703034069 681.3919773651509,856.0820130728819 681.6097264660038,856.2078714046299 681.8582004027559,856.2726935122408 682.0870558427069,856.3762743112579 681.6955776565489,857.0440490296299 681.3041805385596,857.7118480684539 680.9127834205702,858.379630893643 680.8258783438335,858.4277043176221 680.777804919855,858.5719408031908 680.8617104743533,858.6446184163387 L 678.7715298834001,864.3763649270648 C 678.451553821945,864.7238312044919 678.1314156241528,865.0712002001157 677.8114395626978,865.4186502639089 677.2744440139066,865.3186364643097 676.7374484651161,865.2187037328799 676.2005339844937,865.1186899332808 675.832079158217,864.8783633474729 675.4320888143563,864.5917468373959 675.3147831743956,864.1424994742949 675.3147831743956,864.1360140208067 675.3148642425642,864.1338251802549 675.3147831743956,864.129042158308 675.2539820479471,864.0867245742997 675.2110159185906,864.0507303074421 675.2175013720783,864.0394131911058 675.2434431860292,864.0024461062257 675.2677636366089,863.966127566694 675.2945161322461,863.9299954839499 675.2847879520145,863.6241090701969 675.4144159536019,863.321627519525 675.5776061769893,863.066935654243 676.4429278086006,861.6480238197278 677.3237334604142,860.23888069953 678.1949730683331,858.8235196508001 678.4843053620584,858.3554401521338 678.7734755194461,857.887255264849 679.062726745003,857.419119018464 679.2480485784168,857.1680509003177 679.5520542106578,856.9883957318877 679.8709763859211,857.0126107938477 680.3728694177095,856.8594243824659 680.6807663220438,856.3998002937847 681.1102654792739,856.1297703310031 681.1499888818865,856.1000993812961 681.1961977379876,856.0778867031009 681.2460546616747,856.0682395910367 Z M 691.9236242158419,856.614622833752 691.9641583001407,856.6626962577297 C 691.9738864803725,856.7550329017626 691.8377730252973,856.592329087387 691.9236242158419,856.614622833752 Z M 690.8180976006757,856.6390243524997 C 691.1651504304422,856.745637101023 691.5122843283777,856.852168781377 691.8594992944814,856.9587734230818 L 693.4554072614948,857.129446238431 C 694.3193507342399,857.3860188852247 695.183375275154,857.642550997936 696.0471566115624,857.8990993242798 695.9283917445668,858.1330620588529 695.8095458094023,858.3669356184408 695.6906998742382,858.6008253916619 694.748768823302,858.2666299734351 693.8067567041972,857.9324426620249 692.8649067214297,857.598247243797 692.7535190577764,857.6523197122528 692.604596832062,857.6190006949589 692.5347160707315,857.5143173688491 692.4731042625968,857.5580941798907 692.5833569718895,857.6472205244468 692.510395620152,857.684114647976 692.4244633614384,858.0374178335407 692.3362611940043,858.3907939804588 692.249112912762,858.7442511955448 L 691.4794517200955,858.6055678795249 C 691.4194612753333,858.813369916091 691.3606868530996,859.0211719526569 691.3012638855176,859.2290550573918 690.8032621258222,859.1372048223709 690.3051792979581,859.0454032282519 689.8072586064314,858.9536097409478 689.7359186180656,859.1947551152577 689.663930084351,859.4358842759359 689.5922658233105,859.67704586388 689.7472681616693,859.832688640771 689.9021894318591,859.9883314176609 690.0571917702174,860.1439093400167 690.0401674548127,860.2482927139028 690.0247645027791,860.3526679809729 690.0101722324309,860.4570675684929 690.576676594591,860.6271485862107 691.1431809567525,860.7972458175628 691.7097663870813,860.9673511557308 691.7851597838772,860.9399501147447 691.6878779815599,860.8233173405826 691.7705675135298,860.8032691824887 691.934325214097,860.4192735882927 692.0980018464955,860.0354563440669 692.2618406152314,859.6515499248558 692.5859511532851,859.3535109098238 692.9101427595071,859.0554800016077 693.2343343657289,858.7574328797591 693.7536570537655,858.8706526840228 694.2731418781396,858.983840061019 694.7923834980075,859.0969706902958 695.2552827407005,859.294760808041 695.7180198470556,859.492502284884 696.1807569534114,859.6902275480938 696.1803516125685,859.6256972858899 696.2657163941014,859.5620587735409 696.3214102259282,859.6147530831299 L 697.8295213663507,858.9262249135947 C 697.9277759866906,858.8914466692668 698.039001514007,858.8751519673788 698.1152866606573,858.797018466485 L 699.4819338468769,859.2581909571856 699.4057297683948,859.292969201515 C 699.4665308948433,859.2780526584929 699.5651097878583,859.299454655003 699.5952671465762,859.2211428041366 699.6268837323292,859.2328976885837 699.6773081331972,859.3159925613956 699.7197067853737,859.265568160529 699.3117717609892,859.6968751379189 698.9035935321012,860.1282631834781 698.4955774395491,860.5595782676848 698.27409920294,861.0142247708139 698.052945239006,861.4687983125918 697.8315480705656,861.923444815721 697.4472038832441,862.2038596109008 697.0631839685969,862.4843392606137 696.6790019176122,862.7648108035119 L 695.2594172172988,862.250749439617 C 695.0432084116489,862.250749439617 694.8903138456737,862.5057493639418 694.9700038554051,862.699696850495 L 694.8530224881186,863.6315916621579 C 693.9392220916861,863.9969010434929 693.0255838315899,864.3622023180107 692.1120266396628,864.7275846606978 691.6473438972611,864.470079729964 691.1826611548591,864.2125585855967 690.717897344289,863.9550536548629 690.5020938794821,863.856742286805 690.286047210169,863.7582849960429 690.0700816090253,863.6599006666327 689.8571965982878,864.1927779524587 689.6443926557185,864.7256552382848 689.4315887131491,865.2586135922797 688.6460381594373,865.0466689722978 687.8607308102332,864.8347811000337 687.075342392858,864.6229094414038 687.5374309538646,863.2674658760848 687.9996005830405,861.9121114857507 688.461851280384,860.556781415868 688.2726381748766,860.3046675183469 688.0833440012014,860.0524887662886 687.894049827526,859.800301907416 688.0695624125396,859.3004680071101 688.2449128612164,858.8005449318191 688.4203443780627,858.3007110315138 688.6194478001375,857.84073024289 688.818470154045,857.3807413474501 689.0174114397839,856.9207605588269 689.2157852483419,856.9615378476319 689.4142401250693,857.0025664477589 689.6125328654592,857.0433680570139 689.5865910515077,857.1588658768148 689.8143926052672,857.1383150960748 689.7720750212588,857.0299107410269 690.1212356234093,856.8994558441188 690.4704772937279,856.7689766267618 690.8198000322155,856.6385298366709 Z M 676.0987123647347,857.5265343418558 C 676.5244823862096,857.7524956481889 676.6648924542206,858.3192351080379 676.504377480398,858.7526903918959 676.3280542136975,859.2481790383649 675.9626799778279,859.6431755830399 675.6498379152096,860.0562016884121 674.3491802182287,861.709797764199 673.0484414530792,863.3637910740128 671.7477837560983,865.017411470252 671.2036542084706,865.6137813457229 670.6593625245061,866.2102241825471 670.1151519087102,866.806602164836 669.6435783719773,867.0667742383169 669.1790577659128,867.421633932719 668.6155529259903,867.420677328329 668.1420337532115,867.445889528763 667.6079566584896,867.4783978643707 667.2065070875944,867.181080356039 666.8447809193113,866.8986064293768 666.7003985110385,866.3831344793491 666.8498882139332,865.9511627429759 667.0067551201698,865.4931762313009 667.3176515467414,865.1099426778888 667.578934254132,864.7080391252486 668.3108176802318,863.64635417566 669.0428632426685,862.5845800510859 669.774584532431,861.5228951014978 670.1377699277486,861.0892209335841 670.5613511086711,860.7056144665967 671.0357620313047,860.3966798897048 672.1645552108591,859.6191064437838 673.3241542944798,858.8877580675958 674.4755654930722,858.1443143206547 674.8907966526287,857.9059171572599 675.3194040600053,857.6825662459571 675.7818168936869,857.5510655696739 675.886151626672,857.5339601861001 675.9925130638721,857.5096397355207 676.0987123647347,857.526664050926 Z M 681.9191636655416,859.344998752121 681.9353772992609,859.3657522032818 C 681.9256491190292,859.4390378276948 682.0618436422735,859.4398485093798 682.0645188918372,859.37223765677 682.1253200182851,859.3551322731957 682.2002270060695,859.4203110807477 682.2447334306298,859.351484205609 682.3241802358553,859.4449801244528 682.4560781461639,859.313706439043 682.541686132203,859.392261494414 L 684.014208346611,859.4122853320568 683.5340415840071,860.9798680809626 C 682.8936841202538,862.2418886887899 682.2532455883324,863.5038930829838 681.6128070564109,864.7659136908107 681.9909900629188,865.14440475636 682.3690920012586,865.52296878326 682.747356075935,865.9014517419921 683.3960635610535,866.3010529586439 684.0446089098352,866.7006703889287 684.693235326785,867.1002797123981 686.7832537814015,868.0324744762859 688.8735154405236,868.9646530265389 690.9634528269714,869.8968396836099 690.7544590883269,870.5432286191069 690.5453032133448,871.1896013409699 690.3363094746996,871.8360470241839 689.8779500494488,871.6740403960577 689.4191852833541,871.4878673468739 688.9630957668241,871.3106523303198 687.9001299401713,870.8737840765641 686.8270305924437,870.4598013668029 685.7891958980568,869.9647180611771 685.2564969622012,869.723791570922 684.7642510424766,869.4049991047278 684.2686813278387,869.096972491325 683.6890439223659,868.6800307934098 683.1102982667472,868.2608597208586 682.5494686763884,867.818957133833 681.8471751318269,867.2278404756857 681.132234952964,866.6484219542678 680.4790687185725,866.0023572914459 680.1322590933117,865.6727584383778 679.8843526337401,865.1960208593059 679.9479911460889,864.707382473083 680.0217631795135,864.174205235033 680.2515914374878,863.680427126922 680.4338326804952,863.178525988317 680.9168368289999,861.8967409609861 681.4176759745962,860.6216845916479 681.9192447337103,859.3472362335738 Z M 686.3021952689424,860.3419994099861 686.3167875392905,860.3694004509718 C 685.9837595026913,861.4619156250779 685.6508125342603,862.5544956537199 685.3178655658299,863.6470027210089 685.1968307901138,864.1669901680278 685.075796014397,864.6870505763988 684.954761238681,865.2070461302348 686.4037736841955,865.6638409398317 687.852867197879,866.1207168175977 689.3018796433934,866.577511627195 L 689.9640444444994,868.1706065287587 684.9896205511779,866.3963729112811 C 684.5464208734547,866.1645746968098 684.0628492477693,865.8484574801799 683.954947515366,865.3230627863148 683.8352098303472,864.8233018473611 684.0238554586742,864.3242056673899 684.1190294886074,863.837537237664 684.2489817628694,863.3038411633349 684.3926345576245,862.7740120406479 684.5312611259266,862.2426101954907 684.7267164804159,861.8082550549609 684.9158485177539,861.3461989212219 685.2857625710653,861.0277874754209 685.6176556533041,860.7896740506157 685.9578176887398,860.5624724013039 686.3016277917629,860.342080478154 Z M 702.706177048343,860.956001612127 702.7159052285746,861.0027779454079 C 702.9570019619842,861.181987238911 703.198098695394,861.3612046392288 703.4392764969718,861.5403977190981 703.6323808745712,861.4011226054467 703.8253231158339,861.261855598613 704.0183464252652,861.1225723781449 704.5919037180932,861.4888302570518 705.1652988745845,861.8551043495939 705.7389372355819,862.2213703353179 705.8813740078079,862.2316659927298 705.8482171268516,862.4797832295398 705.7121847399446,862.4676392178837 703.2600347762022,864.3958131807119 700.8082090851346,866.323962823089 698.3561401895608,868.252209747269 699.796073000193,869.7596642355258 701.2360868789933,871.2671835783179 702.676019689625,872.774767775644 L 701.1885809321947,874.4791368454239 C 700.7418142550531,874.1996138000988 700.2951286460797,873.9201069684088 699.8482809007697,873.6406649912529 699.3707893877292,874.1822895324697 698.893135738352,874.724059996392 698.4155631571434,875.265749392144 L 696.8263027799541,874.4772155298287 C 696.3761312397316,874.1882804701299 695.92587863134,873.899361624065 695.47554495478,873.6104427779988 L 693.7599803709165,871.8664394805908 C 693.4568664885299,871.4297171495391 693.1538336743118,870.9930677798379 692.850719791925,870.556361662419 692.6136764669455,869.710018089077 692.3766331419659,868.8636258748329 692.1395898169862,868.017298515123 692.4791843752417,867.5783387026181 692.8131041616959,867.134214847772 693.1836667603555,866.7204672357011 694.9156881824444,865.5446058774589 696.6476285363653,864.368776946485 698.3797310266229,863.1929074814257 699.8175560648711,862.4385195317239 701.2534354670731,861.6801997758439 702.7071498663665,860.956569089308 Z M 697.0328644735416,861.2907888279847 C 697.0328644735416,861.2843033744968 697.0231362933094,861.2843033744968 697.0085440229621,861.2972742814729 L 696.9874662991269,861.3321335939698 C 697.0044906145318,861.3462394553057 697.0393499270289,861.3039218712979 697.0328644735416,861.293626213886 Z M 696.4010191674907,861.3493200457129 C 696.3912909872592,861.342834592225 696.3912909872592,861.3493200457129 696.3799414436557,861.3641555205661 L 696.3702132634241,861.4064731045739 C 696.394533714003,861.4129585580617 696.412368711095,861.3554001583578 696.4018298491771,861.3487525685327 Z M 707.4448547073825,863.0810334087608 C 707.466743112904,863.0745479552729 707.4894422001109,863.0810334087608 707.5072771972029,863.0928693613758 L 710.9641049743753,866.3317940081758 711.2488974506593,866.627011850941 C 710.3299897596047,867.2796916763209 709.4109199322131,867.9323715016997 708.4919311729897,868.585035113447 707.624826041669,869.0833935730839 706.7577209103485,869.5816790713688 705.8906968471966,870.0800375310069 707.2916358687327,870.49971933302 708.692574890269,870.9194740963851 710.093594979974,871.3391558983978 709.8524171783966,871.9390035983028 709.611239376818,872.5389404731928 709.37006157524,873.1387962799149 709.3303381726276,873.2207886256347 709.290614770015,873.3028944667897 709.2513777764129,873.384903026144 L 707.6016405454504,873.011438187048 705.3474590494238,872.2889748821387 C 704.856672356733,872.079251529977 704.3659667322117,871.8695119641809 703.875098971353,871.6598696801878 703.3912030729934,871.4048697558638 702.9073882428026,871.1498779383557 702.423492344443,870.8949509753847 702.2150660829786,870.3928228459078 702.0065587533454,869.8907595709647 701.7981324918805,869.3886881892059 701.6749899437809,868.8806339766049 701.5516852593437,868.3725716571857 701.4284616430752,867.8644282695991 702.8061341002239,866.7310304180689 704.1838065573729,865.5976244597219 705.5614790145216,864.4642995695428 L 707.3838103764285,863.1070319704308 C 707.4008346918337,863.09438533613 707.4211017339832,863.0840086105489 707.4446115028764,863.0803605429617 Z M 693.4686213729765,863.5176746716448 C 693.4515970575712,863.5176746716448 693.4297086520498,863.5241601251328 693.4288979703635,863.5263489656847 L 693.4799709165801,863.5426436675727 C 693.4986165953578,863.5248086704807 693.4896990968118,863.518242148825 693.4686213729765,863.5174314671387 Z M 689.654445108625,863.5241601251328 C 689.6447169283928,863.5241601251328 689.643095565021,863.530645578621 689.6366101115331,863.5406169633588 H 689.716056916759 C 689.6949791929239,863.5471024168457 689.6706587423442,863.5190528305111 689.6536344269386,863.5228630344347 Z M 674.5709016593433,865.3908438820799 C 674.6587795541031,865.3973293355677 674.7477113350546,865.4137861737929 674.8349406844661,865.4560226896319 L 674.9199811933249,865.4790460495138 674.9645686860535,865.4909630702978 C 675.4540582880463,865.6598685995709 675.9444396398937,865.8311494261838 676.4152835631089,866.04747172727 676.8948828485323,866.2589137246069 677.365645703579,866.4907849004298 677.8310580594984,866.7312655157578 678.2389930838819,866.9720298696759 678.5740478246959,867.3284460729148 678.7950396522934,867.747098309188 678.9091025655102,867.9419294387779 678.9848202349802,868.1558926561579 679.0278674325056,868.3770952609941 678.6532514254158,868.3882826682597 678.2809053270467,868.4326269564829 677.9083970923409,868.4695291868289 679.1565226160703,869.0071327468839 680.4046481397997,869.5447606273899 681.6528547316977,870.0823885078957 682.2294115467649,870.3643435982788 682.8059683618314,870.6463797568299 683.3826873132353,870.9284159153818 684.4943751092148,871.6905134479169 685.6059818370257,872.4526839418049 686.7176696330059,873.21470851299 687.1001492524494,873.5024437637929 687.476062350237,873.9994078509308 687.2676360887721,874.49745014471 687.0591287591391,874.9884800419058 686.5429677296776,875.257691216186 686.0453713108255,875.3661604257689 685.3917997355913,875.5272185563228 684.7186907317244,875.591602895822 684.0475273639043,875.6207712228839 683.5556867850225,875.6272566763719 683.0519291853562,875.6294455169238 682.5798692396125,875.4736406036959 681.9674802940254,875.2671761919118 681.417108497416,874.922539193569 680.8595216338012,874.6031062888439 679.2547772364107,873.640535282183 677.6621119961406,872.657810728808 676.065312279273,871.6820499311147 675.2952457457636,871.203780163657 674.5190990996095,870.7342333311401 673.7525995655181,870.250256364611 673.3657422649704,869.9854066578028 672.9708592157312,869.7204839896428 672.6546933582003,869.3702046467659 672.3821421753749,869.0244732281469 672.1948747059143,868.615743735711 672.0897292912434,868.1893981302398 671.9109739794854,867.6871889325939 672.1456663275755,867.1299344484699 672.5273352653334,866.7887185268421 672.9592664676217,866.4187396189969 673.4040875087173,866.0640339541148 673.8403153239413,865.6993893317618 674.043715358953,865.5296731208028 674.3052412708486,865.3827532788537 674.5704152503318,865.390981697966 Z" id="path1225" inkscape:connector-curvature="0" sodipodi:nodetypes="ccccccccccccccccccccccccccccccccccccccccccccccccccccccccccccccccccccccccccccccccccccccccccccccccccccccccccccccccccccccccccccccccccccccccccscccsccccccccccccccccccccccccccccccccccccccccccccccccccccccccccc" />
            <path style="font-variation-settings:normal;display:inline;vector-effect:none;fill:#d6336c;fill-opacity:1;stroke-width:0.810301;stroke-linecap:butt;stroke-linejoin:miter;stroke-miterlimit:4;stroke-dasharray:0.810301, 4.8618;stroke-dashoffset:0;stroke-opacity:1;-inkscape-stroke:none;paint-order:fill markers stroke;stop-color:#000000" d="M 786.9744033118961,727.5291839897236 776.6733119883806,752.7801190200732 775.9023184939544,781.307881676871 748.3802790893555,851.0620160299058 764.1975431149868,852.485569792213 798.3628334103516,796.1761098609647 804.2152210998344,726.5801481481853 Z" id="path2" sodipodi:nodetypes="cccccccc" />
            <path style="font-variation-settings:normal;display:inline;vector-effect:none;fill:#faa2c1;fill-opacity:1;stroke-width:0.810301;stroke-linecap:butt;stroke-linejoin:miter;stroke-miterlimit:4;stroke-dasharray:0.810301, 4.8618;stroke-dashoffset:0;stroke-opacity:1;-inkscape-stroke:none;paint-order:fill markers stroke;stop-color:#000000" d="M 831.0295202751716,845.3443227725017 832.194837908187,835.8232184986418 888.8588507795661,826.1835534770889 914.3645414402101,810.0096284644394 916.4971920587652,820.665036645414 892.6861430442346,837.8274364641309 847.073612843268,839.3928250438948 Z" id="path7" sodipodi:nodetypes="cccccccc" />
            <path style="font-variation-settings:normal;display:inline;vector-effect:none;fill:#a61e4d;fill-opacity:1;stroke-width:0.810301;stroke-linecap:butt;stroke-linejoin:miter;stroke-miterlimit:4;stroke-dasharray:0.810301, 4.8618;stroke-dashoffset:0;stroke-opacity:1;-inkscape-stroke:none;paint-order:fill markers stroke;stop-color:#000000" d="M 914.3645414402101,810.0096284644394 917.0134703631016,804.6879687901164 909.1307657205552,798.1241042267602 911.7726164741268,792.8544844155817 906.2443961313808,789.8065973176599 907.3564048219134,783.6804712807154 901.1704773796964,782.7000592788199 883.617886508503,733.6979169597198 862.9153372548936,712.5420273920633 860.875500284897,714.416495162995 862.9153372548936,718.5180718452478 877.6856262325836,748.2172457263559 806.4172880798397,793.9423949200437 821.2978662475137,833.3466803211988 843.9440155953019,833.8244518839378 888.8588507795661,826.1835534770889 Z" id="path8" sodipodi:nodetypes="ccccccccccccccccc" />
            <path id="path1" style="font-variation-settings:normal;display:inline;vector-effect:none;fill:#faa2c1;fill-opacity:1;stroke-width:0.810301;stroke-linecap:butt;stroke-linejoin:miter;stroke-miterlimit:4;stroke-dasharray:0.810301, 4.8618;stroke-dashoffset:0;stroke-opacity:1;-inkscape-stroke:none;paint-order:fill markers stroke;stop-color:#000000" d="M 795.4366679777929,649.6141376508459 761.524206356215,653.2400381603896 738.0461047162507,687.123999253945 747.8455362680266,703.0589611439236 756.3291934427588,706.1275179943586 V 721.981728388273 L 763.183570432198,722.0925637750275 765.6235323034677,719.6146011997276 766.1270416318675,726.5813969385899 772.5808278663223,732.0376646922527 778.3806853189246,738.627620116149 783.8311291355166,738.3536819482756 791.6413476627808,729.4361998288551 798.5479756202619,732.4018381058754 799.5407440130494,748.1547132890424 787.955279371856,784.0067941788263 806.4172880798397,793.9423949200437 822.7085065701007,792.5268686949208 824.8808801504915,781.1709916405758 820.6073843097666,818.340430270072 816.9149825681702,823.079434735166 779.568207319867,840.4552566529538 753.1070504135351,847.9318951708869 726.9894832061431,847.0420453515148 722.1554769809738,854.0721755970929 720.3203596488508,854.903440997753 719.3906208734008,853.3174984589319 711.2492749243192,857.5302396638378 715.3628511355833,870.1116394231551 724.7252745910129,875.290818709931 748.2065429563133,869.4497938279629 839.3575650233126,844.6701680749661 845.6245144629524,835.4629141609918 877.6860251257285,748.2180477957597 860.8754636803885,714.4164215609364 825.5189753056647,705.2978359563668 811.3336291637408,696.5275901387407 812.4926506366607,671.6687962523474 Z" sodipodi:nodetypes="ccccccccccccccccccccccccccccccccccccccc" />
            <path style="font-variation-settings:normal;display:inline;vector-effect:none;fill:#a61e4d;fill-opacity:1;stroke-width:0.810301;stroke-linecap:butt;stroke-linejoin:miter;stroke-miterlimit:4;stroke-dasharray:0.810301, 4.8618;stroke-dashoffset:0;stroke-opacity:1;-inkscape-stroke:none;paint-order:fill markers stroke;stop-color:#000000" d="M 806.4172880798397,793.9423949200437 787.955279371856,784.0067941788263 796.8707108585025,756.4173292133839 797.8653030033857,763.3330512981788 814.9854277070761,762.4524781803885 826.2041562427981,719.1451548520284 837.3216065455476,708.3417837087397 862.9153372548936,712.5420273920633 860.875500284897,714.416495162995 833.1113499479771,721.9931415807523 825.5854721640084,761.1533394399789 824.8808801504915,781.1709916405758 823.4507127922081,793.6101093640619 Z" id="path9" sodipodi:nodetypes="cccccccccccccc" />
            <path id="path6" style="display:inline;fill:#d6336c;fill-opacity:1;stroke-width:0.810301;stroke-dasharray:0.810301, 4.8618;-inkscape-stroke:none;paint-order:fill markers stroke" d="M 839.3575650233126,844.6701680749661 814.9848634759716,851.2965408402238 788.6662092097534,863.0355916602059 782.9154359998565,892.4481365795459 841.9257792706838,937.4330533379109 843.448974157226,943.5685836761127 850.1450148798733,943.7000027775509 884.7256555473145,971.6036030743598 896.0118646442706,975.9926843898429 910.2700454689188,997.529583398934 923.3185372152731,1004.963471124833 942.4582251451281,995.6311315600941 936.0788569560659,978.3376445010368 907.3962422266381,953.0830099476628 895.1805992436111,936.5574537825499 883.0742082846709,932.030619914957 H 883.0726249220025 L 876.1248295351563,923.092537654531 847.7303868112901,886.5691109935479 879.7491466820322,884.966747973609 871.1261535925226,854.502850242769 Z" />
            <path id="path3" style="display:inline;fill:#a61e4d;fill-opacity:1;stroke-width:0.810301;stroke-dasharray:0.810301, 4.8618;-inkscape-stroke:none;paint-order:fill markers stroke" d="M 773.6084302378044,635.6837481669191 755.8146005756841,639.8226229124092 752.7302100985698,659.7524088135577 744.90048170569,663.0743036908602 733.0379285976098,683.2415939921975 730.0608203628255,693.4827267844383 734.2277157963834,692.2572610233519 735.1723014739701,702.6963710929692 746.5614291443413,701.5104324546946 V 692.2572610233519 L 750.3567494593529,699.6119806158549 768.1521624841409,684.6650370306605 776.4553163147302,689.1728705462376 785.3531642531013,709.805669471944 H 795.740673610034 L 797.2021173525272,720.9113752247567 802.9164732210615,713.0388960398429 810.7267858377006,717.1955150277522 816.7170622346798,702.4208659887506 827.2036731843345,697.2654371419928 820.935140382027,697.0691001711701 829.3649632260495,688.460357345672 831.3900840783237,679.3101044877444 827.4501235454795,681.4249044732248 821.3737318410419,679.9355327415736 832.2472202262755,673.2239602137781 825.519426247352,659.7524088135577 823.6908305510144,669.2720425735143 812.8738569651485,651.778907955456 796.149181178358,640.771057150495 773.6084302378044,642.194500188958 770.2686872567405,640.28036847116 Z" sodipodi:nodetypes="ccccccccccccccccccccccccccccccccc" />
            <path style="font-variation-settings:normal;display:inline;vector-effect:none;fill:#c2255c;fill-opacity:1;stroke-width:0.724145;stroke-linecap:butt;stroke-linejoin:miter;stroke-miterlimit:4;stroke-dasharray:0.724145, 4.34486;stroke-dashoffset:0;stroke-opacity:1;-inkscape-stroke:none;paint-order:fill markers stroke" d="M 882.7586004687416,937.6263641392788 889.7246755497117,936.6803318009299 893.5614828005816,929.677747550508 881.3690889474894,932.0757417599678 880.6511928031394,936.011800540557 Z" id="path12-2" sodipodi:nodetypes="cccccc" />
            <path style="font-variation-settings:normal;display:inline;vector-effect:none;fill:#d6336c;fill-opacity:1;stroke-width:0.724145;stroke-linecap:butt;stroke-linejoin:miter;stroke-miterlimit:4;stroke-dasharray:0.724145, 4.34486;stroke-dashoffset:0;stroke-opacity:1;-inkscape-stroke:none;paint-order:fill markers stroke" d="M 881.3631483589872,936.5572562410089 893.5614828005816,929.677747550508 885.7841860994192,927.5584237607179 877.6530649159227,933.71482296473 Z" id="path12" sodipodi:nodetypes="ccccc" />
            <path style="display:inline;fill:#faa2c1;fill-opacity:1;stroke-width:0.810301;stroke-dasharray:0.810301, 4.8618;-inkscape-stroke:none;paint-order:fill markers stroke" d="M 814.9854277070761,851.2958205011087 813.074165276913,867.5198399121577 855.0647202927714,969.7454709958481 883.7544208868107,969.6862912327718 873.6951582545377,885.2348642209368 879.7495840143559,884.9668865616938 892.1567761153994,859.2869933232339 860.6029993991138,838.928506421086 Z" id="path5" />
            <path style="font-variation-settings:normal;display:inline;vector-effect:none;fill:#a61e4d;fill-opacity:1;stroke-width:0.810301;stroke-linecap:butt;stroke-linejoin:miter;stroke-miterlimit:4;stroke-dasharray:0.810301, 4.8618;stroke-dashoffset:0;stroke-opacity:1;-inkscape-stroke:none;paint-order:fill markers stroke;stop-color:#000000" d="M 918.7440099307427,863.4943027186387 896.69861304509,881.0723966840669 879.7495840143559,884.9668865616938 882.9851959474774,869.4491464848389 871.1255396453764,854.5029187574649 844.9362626567822,846.0116246254209 814.9854277070761,851.2958205011087 842.4910397431325,840.0665411179791 845.6241355095528,835.4635402664797 891.8952798429533,830.8678402928527 915.4308667494874,815.337332554927 919.6934137582127,827.039382210202 918.9729496313175,830.7833761298638 921.9630647694191,846.1433231277649 Z" id="path4" sodipodi:nodetypes="ccccccccccccccc" />
            <path style="font-variation-settings:normal;display:inline;vector-effect:none;fill:#d6336c;fill-opacity:1;stroke-width:0.810301;stroke-linecap:butt;stroke-linejoin:miter;stroke-miterlimit:4;stroke-dasharray:0.810301, 4.8618;stroke-dashoffset:0;stroke-opacity:1;-inkscape-stroke:none;paint-order:fill markers stroke;stop-color:#000000" d="M 836.9459819032845,941.5099861001549 841.7312525608374,937.285262910573 845.0558169446094,945.3788852044698 869.3744680727879,950.9636625496757 880.4208514332892,941.6996775331009 879.6521849885566,935.2464234003898 884.7577205413754,939.1579645749377 886.3548368386457,982.7815845872978 898.3770829297102,1006.150289801224 849.0571646124974,1049.805938511967 820.8233483267448,1047.196089947738 815.6036511982863,1020.860345345061 835.2961449101976,1011.607245890068 850.9552362955729,988.7218191402319 841.2560548628564,954.8876294347599 Z" id="path10" sodipodi:nodetypes="cccccccccccccccc" />
            <path style="font-variation-settings:normal;display:inline;vector-effect:none;fill:#c2255c;fill-opacity:1;stroke-width:0.810301;stroke-linecap:butt;stroke-linejoin:miter;stroke-miterlimit:4;stroke-dasharray:0.810301, 4.8618;stroke-dashoffset:0;stroke-opacity:1;-inkscape-stroke:none;paint-order:fill markers stroke;stop-color:#000000" d="M 850.9552362955729,988.7218191402319 831.5000015440466,949.6826572297189 859.4607836894798,950.8011739009018 867.5402931329,987.881349851619 849.2317687273332,1013.711448870465 835.2961449101976,1011.607245890068 Z" id="path11" />
            <path style="font-variation-settings:normal;display:inline;vector-effect:none;fill:#a61e4d;fill-opacity:1;stroke-width:0.810682;stroke-linecap:butt;stroke-linejoin:bevel;stroke-miterlimit:4;stroke-dasharray:none;stroke-dashoffset:0;stroke-opacity:1;-inkscape-stroke:none;paint-order:fill markers stroke;stop-color:#000000" d="M 816.869032320337,1039.761975855691 845.1819349262176,1043.083601301073 896.2716977290083,997.5298809072551 900.3841863756722,1007.494757243403 848.5035603715997,1051.624923874915 818.2134997625156,1048.777816350301 Z" id="path13" />
            <path style="baseline-shift:baseline;display:inline;overflow:visible;vector-effect:none;fill:#a61e4d;stroke-width:0.810682;stroke-linejoin:bevel;paint-order:fill markers stroke;enable-background:accumulate;stop-color:#000000" d="M 824.6607927396503,949.2734393686398 822.6055879966861,951.9429888267587 825.8071473112263,962.6243533845679 828.4751134066768,963.9876286416498 847.1302923601474,957.5132586925118 860.2183681732002,964.7903935142868 862.2751562788323,964.7666430742679 870.4294740186361,959.9943879931479 869.8974641622144,956.1943175901318 849.448335305987,950.9407202579628 847.6132179738641,951.3919786183208 847.513466125785,951.1766412954839 845.6973491456767,949.968535579859 Z M 827.4079269684965,953.515267956006 844.2770728325499,954.074194977783 844.2913230965614,954.1058622311419 829.1607094418875,959.3594595633101 Z M 853.3592410957569,956.2291515688269 863.9836045975215,958.9588688083258 861.2000530273123,960.5881489936189 Z M 839.0345590390563,960.942822231234 837.9372887101858,964.943979693076 850.0357628557865,968.2627078450418 840.5340034855795,968.7804674374527 839.9639929251273,972.8101254273179 857.7784063019305,979.0232405362479 846.1612744073786,981.2573652606878 845.692599057673,985.1825213144691 864.8829545929013,993.9337667800799 866.6056531756022,990.1590301797521 853.3275738423985,984.1042513376129 866.1353944632287,981.6405390263248 866.4267331941266,977.6441316524867 851.2470352967477,972.3509502536201 863.0098365567487,971.709688373111 863.4452612904276,967.638862953881 Z" id="path15" />
            <path style="font-variation-settings:normal;display:inline;vector-effect:none;fill:#c2255c;fill-opacity:1;stroke:none;stroke-width:0.810301;stroke-linecap:butt;stroke-linejoin:miter;stroke-miterlimit:4;stroke-dasharray:0.810301, 4.8618;stroke-dashoffset:0;stroke-opacity:1;-inkscape-stroke:none;paint-order:fill markers stroke;stop-color:#000000" d="M 756.6579805960983,703.4652040767382 767.1831966956344,691.9754894076644 772.3358136165851,695.6377279381979 757.4958585665979,706.9843154942085 Z" id="path16" sodipodi:nodetypes="ccccc" />
            <path style="font-variation-settings:normal;display:inline;vector-effect:none;fill:#c2255c;fill-opacity:1;stroke:none;stroke-width:0.810682;stroke-linecap:butt;stroke-linejoin:bevel;stroke-miterlimit:4;stroke-dasharray:none;stroke-dashoffset:0;stroke-opacity:1;-inkscape-stroke:none;paint-order:fill markers stroke" d="M 720.3203596488508,854.903440997753 719.3906208734008,853.3174984589319 714.9882772574627,828.4257537354468 717.5952677976431,825.2200519705079 721.2448839164901,826.879176808496 724.5724800935586,850.5571104743038 722.1540164675616,854.0728371756448 Z" id="path25" />
            <path id="path26" style="font-variation-settings:normal;display:inline;vector-effect:none;fill:#f06595;fill-opacity:1;stroke:none;stroke-width:1;stroke-linecap:butt;stroke-linejoin:bevel;stroke-miterlimit:4;stroke-dasharray:none;stroke-dashoffset:0;stroke-opacity:1;-inkscape-stroke:none;paint-order:fill markers stroke" d="M 1584.125,143.37109375 1584.494140625,147.89453125 1578.220703125,152.56640625 1581.87109375,154.0078125 1577.564453125,160.376953125 1583.2578125,161.8984375 1583.865234375,167.53515625 1590.9765625,161.8125 1587.853515625,159.556640625 1591.58203125,152.70703125 1587.6796875,150.10546875 1587.130859375,144.41015625 Z" transform="matrix(0.7853333918117452,0.0624699233010646,-0.2237772940536449,0.8190476201425557,-402.3736837724736,522.1061628709045)" />
        </g>
        <g inkscape:label="floor" id="layer17" inkscape:groupmode="layer" style="display:inline" />
        <g inkscape:label="surface" id="layer15" inkscape:groupmode="layer" style="display:inline" />
        <g inkscape:groupmode="layer" id="layer18" inkscape:label="paper" />
    </g>
    <g inkscape:groupmode="layer" id="layer20" inkscape:label="new 1" />
    <g inkscape:groupmode="layer" id="layer6" inkscape:label="new" />
    <g inkscape:groupmode="layer" id="layer21" inkscape:label="new 2" />
</svg>
