<?xml version="1.0" encoding="UTF-8" standalone="no"?>
<!-- Created with Inkscape (http://www.inkscape.org/) -->

<svg
   xmlns:dc="http://purl.org/dc/elements/1.1/"
   xmlns:cc="http://creativecommons.org/ns#"
   xmlns:rdf="http://www.w3.org/1999/02/22-rdf-syntax-ns#"
   xmlns:svg="http://www.w3.org/2000/svg"
   xmlns="http://www.w3.org/2000/svg"
   xmlns:sodipodi="http://sodipodi.sourceforge.net/DTD/sodipodi-0.dtd"
   xmlns:inkscape="http://www.inkscape.org/namespaces/inkscape"
   width="5in"
   height="5in"
   viewBox="0 0 127 127"
   version="1.1"
   id="svg8"
   inkscape:version="0.92.2 (5c3e80d, 2017-08-06)"
   sodipodi:docname="queer-trans-symbol.svg">
  <sodipodi:namedview
     id="base"
     pagecolor="#bbbbbb"
     bordercolor="#666666"
     borderopacity="1.0"
     inkscape:pageopacity="0.7254902"
     inkscape:pageshadow="2"
     inkscape:zoom="1"
     inkscape:cx="12.646868"
     inkscape:cy="53.431982"
     inkscape:document-units="in"
     inkscape:current-layer="layer5"
     showgrid="true"
     units="in"
     borderlayer="false"
     inkscape:window-width="1920"
     inkscape:window-height="1152"
     inkscape:window-x="0"
     inkscape:window-y="23"
     inkscape:window-maximized="1"
     inkscape:pagecheckerboard="false"
     inkscape:showpageshadow="true"
     showborder="true"
     showguides="true"
     inkscape:guide-bbox="true"
     inkscape:snap-object-midpoints="true"
     inkscape:snap-center="true"
     inkscape:snap-grids="false"
     inkscape:snap-bbox="true"
     inkscape:bbox-paths="true"
     inkscape:bbox-nodes="true"
     inkscape:snap-bbox-edge-midpoints="true"
     inkscape:snap-bbox-midpoints="true"
     inkscape:object-paths="true"
     inkscape:snap-intersection-paths="true"
     inkscape:snap-smooth-nodes="true"
     inkscape:snap-midpoints="true"
     inkscape:snap-global="false"
     inkscape:snap-nodes="true"
     inkscape:snap-others="true"
     inkscape:object-nodes="true"
     inkscape:snap-page="true">
    <inkscape:grid
       visible="true"
       empopacity="0.25098039"
       empcolor="#8c8cb2"
       opacity="0.1254902"
       color="#8c8cb2"
       spacingy="12.7"
       spacingx="12.7"
       units="in"
       id="grid815"
       type="xygrid" />
    <inkscape:grid
       gridanglez="45"
       gridanglex="45"
       spacingy="12.7"
       empspacing="5"
       units="in"
       id="grid817"
       type="axonomgrid"
       enabled="true" />
    <sodipodi:guide
       inkscape:color="rgb(255,0,42)"
       inkscape:label=""
       inkscape:locked="false"
       id="guide827"
       orientation="0,1"
       position="63.5,63.5" />
    <sodipodi:guide
       inkscape:color="rgb(255,0,42)"
       inkscape:label=""
       inkscape:locked="false"
       id="guide829"
       orientation="1,0"
       position="63.5,63.5" />
    <sodipodi:guide
       inkscape:color="rgb(255,0,42)"
       inkscape:label=""
       inkscape:locked="false"
       id="guide831"
       orientation="0,1"
       position="12.7,12.7" />
    <sodipodi:guide
       inkscape:color="rgb(255,0,42)"
       inkscape:label=""
       inkscape:locked="false"
       id="guide833"
       orientation="1,0"
       position="12.7,12.7" />
    <sodipodi:guide
       inkscape:color="rgb(255,0,42)"
       inkscape:label=""
       inkscape:locked="false"
       id="guide837"
       orientation="1,0"
       position="114.3,114.3" />
    <sodipodi:guide
       inkscape:color="rgb(255,0,42)"
       inkscape:label=""
       inkscape:locked="false"
       id="guide839"
       orientation="0,1"
       position="12.7,114.3" />
    <inkscape:grid
       type="axonomgrid"
       id="grid1007"
       units="in"
       empspacing="5"
       spacingy="6.35"
       gridanglex="30"
       gridanglez="30"
       enabled="false" />
    <sodipodi:guide
       position="2.6458333e-07,116.0018"
       orientation="0.5,0.8660254"
       id="guide1833"
       inkscape:locked="false"
       inkscape:label=""
       inkscape:color="rgb(0,0,255)" />
    <sodipodi:guide
       position="127,116.0018"
       orientation="-0.5,0.8660254"
       id="guide1835"
       inkscape:locked="false"
       inkscape:label=""
       inkscape:color="rgb(0,0,255)" />
    <sodipodi:guide
       position="63.5,6.01617"
       orientation="0,1"
       id="guide1837"
       inkscape:locked="false" />
  </sodipodi:namedview>
  <defs
     id="defs2" />
  <metadata
     id="metadata5">
    <rdf:RDF>
      <cc:Work
         rdf:about="">
        <dc:format>image/svg+xml</dc:format>
        <dc:type
           rdf:resource="http://purl.org/dc/dcmitype/StillImage" />
        <dc:title></dc:title>
      </cc:Work>
    </rdf:RDF>
  </metadata>
  <g
     inkscape:groupmode="layer"
     id="layer5"
     inkscape:label="top"
     transform="translate(0,-170)"
     style="display:inline">
    <path
       style="display:inline;fill:#ffffff;stroke:none;stroke-width:0.24256724px;stroke-linecap:butt;stroke-linejoin:miter;stroke-opacity:1"
       d="m 5.2838092,183.91933 a 1.6551202,1.6551202 0 0 0 -1.4325155,2.48193 l 1.5741183,2.72537 c 0.4410244,0.76387 0.9672783,1.67765 1.5721786,2.72536 0.4783064,0.82846 1.0042829,1.73922 1.5736332,2.72537 0.4931692,0.8542 1.0192086,1.76423 1.5741182,2.72537 0.501153,0.86802 1.027315,1.77779 1.574118,2.72488 0.505649,0.87582 1.029426,1.7853 1.572179,2.72537 0.510055,0.88345 1.035208,1.79278 1.573633,2.72537 0.512682,0.88799 1.038299,1.7973 1.574119,2.72537 0.513931,0.89016 1.037556,1.79937 1.572178,2.72537 0.516375,0.89439 1.041475,1.80364 1.573633,2.72536 0.518195,0.89755 1.04381,1.8049 1.574119,2.72343 0.518128,0.89742 1.041664,1.80649 1.572178,2.72537 0.519627,0.90002 1.044817,1.81004 1.574119,2.72682 0.521261,0.90286 1.046399,1.81024 1.573633,2.72343 0.521354,0.90302 1.046541,1.81352 1.574118,2.72731 0.521619,0.90347 1.045164,1.81256 1.572178,2.72537 0.523305,0.9064 1.048515,1.81498 1.57412,2.72537 0.523983,0.90756 1.048726,1.8162 1.573633,2.72536 0.524547,0.90856 1.050015,1.81712 1.574117,2.72489 0.524363,0.90822 1.048011,1.81747 1.572178,2.72536 0.525933,0.91094 1.050914,1.81999 1.573634,2.72537 0.526786,0.91243 1.051991,1.82101 1.574119,2.72537 0.526581,0.91207 1.050149,1.82118 1.572179,2.72537 0.528234,0.91493 1.053699,1.82397 1.574117,2.72537 0.529168,0.91655 1.054099,1.8255 1.573633,2.72537 0.529761,0.91756 1.053372,1.82482 1.572178,2.72342 0.530938,0.91961 1.056205,1.82978 1.57412,2.72683 0.532679,0.92263 1.057643,1.83164 1.573634,2.72536 0.534225,0.92531 1.059849,1.83463 1.574117,2.72537 0.535804,0.92804 1.059706,1.8358 1.572178,2.72343 0.538709,0.93307 1.064664,1.84297 1.57412,2.72537 0.542528,0.93969 1.067487,1.8487 1.573633,2.72537 0.546533,0.94663 1.070568,1.85655 1.572178,2.72536 0.555295,0.96181 1.081466,1.87207 1.574118,2.72537 0.569596,0.98658 1.096435,1.898 1.57412,2.72537 l 1.571691,2.72343 c 1.012327,1.75341 1.572181,2.72682 1.572181,2.72682 a 1.6551202,1.6551202 0 0 0 2.866969,0 l 1.57412,-2.72537 c 0.442438,-0.76631 0.968308,-1.67895 1.572178,-2.72488 0.478328,-0.82849 1.004298,-1.74119 1.573634,-2.72731 0.492681,-0.85335 1.018777,-1.76348 1.574117,-2.72536 0.5002,-0.86637 1.025956,-1.77483 1.573633,-2.72343 0.506871,-0.87794 1.030574,-1.78728 1.572178,-2.72537 0.509593,-0.88264 1.035252,-1.79201 1.57412,-2.72537 0.512234,-0.8872 1.037869,-1.79657 1.574118,-2.72537 0.515136,-0.89223 1.03872,-1.80139 1.572178,-2.72536 0.515921,-0.89361 1.041037,-1.8024 1.573633,-2.72489 0.517252,-0.89591 1.042894,-1.80525 1.57412,-2.72537 0.519325,-0.89949 1.042837,-1.80852 1.572178,-2.72537 0.519648,-0.90005 1.044352,-1.80862 1.573633,-2.72536 0.520329,-0.90124 1.045961,-1.81057 1.574118,-2.72537 0.521376,-0.90305 1.046558,-1.8116 1.574117,-2.72537 0.522816,-0.90554 1.046353,-1.81461 1.572181,-2.72537 0.522843,-0.9056 1.047574,-1.81371 1.573633,-2.72488 0.523541,-0.9068 1.048766,-1.81543 1.574117,-2.72537 0.524098,-0.90778 1.049571,-1.81683 1.574118,-2.72537 0.525535,-0.91026 1.04919,-1.81951 1.57218,-2.72536 0.525478,-0.91017 1.050457,-1.8192 1.573634,-2.72537 0.526327,-0.91165 1.051536,-1.82022 1.574117,-2.72537 0.527771,-0.9141 1.051331,-1.82323 1.572181,-2.72537 0.52779,-0.91417 1.05277,-1.82271 1.57363,-2.72488 0.52872,-0.91577 1.05412,-1.82472 1.57412,-2.72537 0.53048,-0.91881 1.0541,-1.82802 1.57218,-2.72537 0.53097,-0.91966 1.05623,-1.82836 1.57412,-2.72537 0.53224,-0.92186 1.05718,-1.83085 1.57363,-2.72536 0.53377,-0.92454 1.05939,-1.83384 1.57412,-2.72537 0.53604,-0.92843 1.05994,-1.8362 1.57218,-2.72343 0.53827,-0.93232 1.06373,-1.84217 1.57363,-2.72537 0.54211,-0.93894 1.06752,-1.84789 1.57412,-2.72537 0.54767,-0.94859 1.0718,-1.85821 1.57218,-2.72488 0.55487,-0.96108 1.08099,-1.87123 1.57412,-2.72537 0.56992,-0.98714 1.09488,-1.89867 1.57217,-2.72537 0.60393,-1.04603 1.13176,-1.96001 1.57364,-2.72536 1.01232,-1.75343 1.57411,-2.72537 1.57411,-2.72537 a 1.6551202,1.6551202 0 0 0 -1.43251,-2.48193 h -3.1463 -3.14775 -3.14775 -3.1463 -3.14581 -3.14824 H 99.688232 96.541934 93.394183 90.247888 87.102074 83.954323 80.808025 77.66173 74.513979 71.366226 68.21993 65.072177 61.925882 58.780068 55.632317 52.48408 49.338269 46.191973 43.04422 39.897925 36.750172 33.603876 30.458065 27.311766 24.165955 21.017718 17.871906 14.724154 11.577858 8.4315608 Z m 10.7719928,4.30676 h 3.271897 3.272381 3.272382 3.270441 3.271896 3.272382 3.272382 3.271896 3.274321 3.269959 3.274321 3.27044 3.271898 3.27238 3.272382 3.271895 3.272382 3.272382 3.269957 3.274321 3.270443 3.271895 3.272382 3.270441 3.272382 3.2719 3.27432 3.27044 3.27189 3.27239 a 1.263544,1.263544 0 0 1 1.09354,1.89418 c 0,0 -0.58631,1.01673 -1.63522,2.83351 -0.46053,0.79763 -1.01004,1.74816 -1.63668,2.83351 -0.49757,0.86181 -1.04401,1.80998 -1.63522,2.83399 -0.51381,0.88993 -1.06132,1.83613 -1.63716,2.83351 -0.52157,0.90338 -1.06714,1.84958 -1.63522,2.83351 -0.52771,0.91402 -1.07483,1.85953 -1.63716,2.83351 -0.53073,0.91927 -1.07612,1.86512 -1.63522,2.83351 -0.53375,0.92447 -1.07815,1.86949 -1.63474,2.83352 -0.53657,0.92935 -1.08335,1.87429 -1.63716,2.83351 l -1.637157,2.83544 c -0.539107,0.93377 -1.084274,1.87973 -1.635222,2.834 -0.541344,0.93762 -1.087834,1.88204 -1.637161,2.83351 -0.541671,0.93819 -1.086235,1.88348 -1.634734,2.83351 l -1.635222,2.83351 -1.63716,2.83351 c -0.544947,0.94386 -1.089752,1.88871 -1.635222,2.83351 l -1.637161,2.83399 c -0.547054,0.94754 -1.091752,1.8922 -1.635221,2.83351 l -1.636674,2.83351 c -0.549105,0.95107 -1.094265,1.89654 -1.635221,2.83351 -0.551306,0.95488 -1.097881,1.89945 -1.637161,2.83351 -0.551971,0.95604 -1.097053,1.90139 -1.635222,2.83351 -0.553745,0.95913 -1.098861,1.90499 -1.635221,2.834 -0.556514,0.9639 -1.103628,1.9094 -1.637161,2.83351 -0.558547,0.96743 -1.10398,1.91338 -1.635219,2.83351 -0.562418,0.97414 -1.107116,1.91965 -1.634737,2.83351 -0.56837,0.98445 -1.115509,1.92998 -1.637161,2.83351 -0.576548,0.9986 -1.124067,1.9448 -1.63716,2.83351 -0.590714,1.02314 -1.137083,1.97122 -1.635222,2.83399 l -1.635219,2.83351 -1.636676,2.83351 a 1.263544,1.263544 0 0 1 -2.188054,0.002 c 0,0 -0.587716,-1.0186 -1.636676,-2.83545 l -1.635219,-2.83351 c -0.498154,-0.86281 -1.044493,-1.81083 -1.635221,-2.83399 -0.513057,-0.88864 -1.06066,-1.83497 -1.637161,-2.83351 -0.522116,-0.90435 -1.067654,-1.85047 -1.635222,-2.83351 l -1.636676,-2.83351 c -0.531276,-0.9202 -1.076627,-1.86601 -1.635219,-2.83351 -0.533664,-0.92433 -1.080502,-1.86934 -1.637161,-2.83351 -0.536482,-0.92922 -1.081346,-1.87465 -1.635221,-2.834 l -1.637161,-2.83496 c -0.539275,-0.93407 -1.084445,-1.87808 -1.635221,-2.83206 -0.540996,-0.93703 -1.087005,-1.88339 -1.636677,-2.83545 -0.542202,-0.93912 -1.087246,-1.8844 -1.635219,-2.83351 -0.542682,-0.93994 -1.089674,-1.88524 -1.63716,-2.83351 l -1.635222,-2.83157 c -0.545827,-0.9454 -1.090627,-1.89218 -1.635221,-2.83545 l -1.637161,-2.83399 c -0.547576,-0.94843 -1.092281,-1.89312 -1.635221,-2.83351 l -1.636674,-2.83351 c -0.549624,-0.95198 -1.094794,-1.89747 -1.635222,-2.83351 -0.550614,-0.95369 -1.097171,-1.89823 -1.63716,-2.83351 -0.552498,-0.95694 -1.097595,-1.90232 -1.635221,-2.83351 -0.553656,-0.95897 -1.100709,-1.90484 -1.637161,-2.83399 -0.556429,-0.96377 -1.101111,-1.90925 -1.634736,-2.83352 -0.558716,-0.96773 -1.104157,-1.91173 -1.63522,-2.83157 -0.56268,-0.97458 -1.109813,-1.92205 -1.637161,-2.83545 -0.568282,-0.9843 -1.113479,-1.92983 -1.635221,-2.83351 -0.575887,-0.99746 -1.123323,-1.94352 -1.637161,-2.83351 -0.5912,-1.02399 -1.137671,-1.97221 -1.63522,-2.83399 l -1.636676,-2.83351 -1.635221,-2.83351 a 1.263544,1.263544 0 0 1 1.093542,-1.89369 z"
       id="path1795"
       inkscape:connector-curvature="0" />
    <path
       style="display:inline;opacity:1;vector-effect:none;fill:#ffffff;fill-opacity:1;stroke:none;stroke-width:1.36793113;stroke-linecap:butt;stroke-linejoin:miter;stroke-miterlimit:4;stroke-dasharray:none;stroke-dashoffset:0;stroke-opacity:1"
       d="m 30.337683,192.78931 c -0.279892,-4e-5 -0.506981,0.22705 -0.506947,0.50694 v 2.60501 2.60449 2.60708 2.60294 2.60656 2.60501 c -3.4e-5,0.2799 0.227055,0.50698 0.506947,0.50695 h 2.606558 2.605011 c 0.279887,3e-5 0.506979,-0.22705 0.506944,-0.50695 v -2.24586 -2.24379 -0.6041 c 0,0 -0.05048,-0.14861 0.07442,-0.20825 0.11752,-0.0561 0.328145,0.19585 0.328146,0.19585 l 0.680062,0.68006 c 0.62624,0.62646 1.320644,1.31837 1.946651,1.94459 v 0.002 l 1.135848,1.13534 c 0,0 0.289972,0.22837 0.289903,0.44235 -5.5e-5,0.17771 -0.213423,0.3886 -0.213423,0.3886 l -1.105875,1.10381 c -7.94e-4,10e-4 -7.68e-4,10e-4 -0.0016,0.002 l -1.840195,1.84226 c -0.197629,0.19784 -0.197629,0.51789 0,0.71572 0,0 0.920907,0.92138 1.841746,1.8402 L 41.03368,215.76 c 0.198578,0.19835 0.520789,0.19738 0.718303,-0.002 l 1.840198,-1.8402 1.138433,-1.13843 c 0,0 0.222573,-0.19061 0.374653,-0.18965 0.141899,0.001 0.243065,0.13363 0.342098,0.21807 0.282147,0.24058 0.630455,0.63049 1.15135,1.15135 0.604901,0.60485 1.273824,1.27543 1.879473,1.88103 0.58778,0.58773 1.01114,1.00965 1.28881,1.28622 0.13662,0.13609 0.226475,0.20632 0.212907,0.33435 -0.01357,0.12803 -0.08603,0.23747 -0.174149,0.37155 -0.116715,0.17759 -0.230512,0.35689 -0.336415,0.54002 l -0.0021,0.002 c -0.02661,0.0458 -0.045,0.0848 -0.05943,0.11007 h -0.0021 c -0.252249,0.44428 -0.484542,0.90053 -0.694016,1.36736 -7.94e-4,0.001 -7.67e-4,0.003 -0.0016,0.004 -0.01103,0.0252 -0.02135,0.0472 -0.02997,0.0672 l -0.0021,0.004 c -0.203062,0.45876 -0.382873,0.9264 -0.542086,1.40043 l -0.0026,0.006 c -0.0078,0.0221 -0.01723,0.0504 -0.02998,0.0878 -7.94e-4,0.001 -0.0013,0.003 -0.0021,0.004 -0.15974,0.48596 -0.296177,0.98017 -0.409276,1.47898 v 0.002 c -0.01093,0.0488 -0.01845,0.0823 -0.02274,0.10284 v 0.002 c -0.109773,0.49971 -0.199009,1.00672 -0.261482,1.52032 0.0041,-0.033 0.0024,-0.0278 -0.0036,0.0207 -5e-6,0.001 -5e-6,0.003 0,0.004 -0.06149,0.51195 -0.09609,1.0258 -0.108521,1.54047 v 0.006 c -0.0037,0.11576 -0.0065,0.23196 -0.0078,0.34779 -1e-5,0.002 -1e-5,0.004 0,0.006 4.8e-5,0.53666 0.02978,1.06527 0.08062,1.58543 5.29e-4,0.003 7.67e-4,0.005 0.0016,0.008 0.0034,0.0303 0.0069,0.0577 0.0098,0.0842 0.05285,0.51033 0.128612,1.0131 0.227894,1.50896 v 0.002 c 0.0027,0.0131 0.0085,0.0356 0.01499,0.0672 0.10442,0.51017 0.231209,1.014 0.383439,1.50895 l 0.0026,0.01 c 0.0049,0.0158 0.01277,0.0379 0.0072,0.0186 5.3e-4,0.003 0.0013,0.007 0.0021,0.01 0.317984,1.02457 0.735888,2.00788 1.241784,2.93729 0.01397,0.0256 0.02881,0.0515 0.04289,0.077 0.242403,0.43965 0.504767,0.86551 0.785482,1.27899 h -0.0021 c 0.01995,0.0296 0.0417,0.062 0.06718,0.0992 7.93e-4,0.001 0.0013,7.9e-4 0.0021,0.002 0.289431,0.41953 0.598004,0.82832 0.927593,1.22113 l 0.0057,0.006 c 0.01098,0.0132 0.01809,0.0231 0.02222,0.0279 l 0.0036,0.004 c 0.334932,0.39665 0.689787,0.7767 1.060402,1.13895 7.94e-4,0.001 0.0013,0.002 0.0021,0.003 0.02653,0.0255 0.05553,0.0529 0.08423,0.0801 l 0.0036,0.004 c 0.357328,0.3439 0.731489,0.67039 1.118278,0.97978 l 0.0015,0.002 c 0.02426,0.0195 0.04954,0.0397 0.077,0.0615 7.94e-4,0.001 0.0013,0.001 0.0021,0.002 0.819933,0.64733 1.706887,1.21481 2.64945,1.69757 0.01037,0.007 0.02122,0.0134 0.03204,0.0191 l 0.0016,0.002 c 0.0031,0.002 0.0067,0.004 0.0098,0.006 0.465356,0.23651 0.94291,0.44982 1.434024,0.64182 h 0.0021 c 0.02402,0.009 0.05018,0.0206 0.07855,0.0315 0.466754,0.17966 0.94482,0.33776 1.43247,0.47491 l 0.0036,0.002 c 0.03834,0.0109 0.07205,0.0202 0.09922,0.0279 h 0.0036 c 0.383937,0.10508 1.15824,0.15806 1.161685,0.56327 l 0.01654,1.95027 v 2.65307 c 0,0 0.01426,1.74465 -0.198438,1.99988 -0.191894,0.2303 -1.901692,0.14934 -1.901692,0.14934 h -2.60501 c -0.279898,-4e-5 -0.506987,0.22654 -0.506944,0.50643 v 2.60501 2.60501 c -4.3e-5,0.27989 0.227046,0.50646 0.506944,0.50643 h 2.60501 c 0,0 1.791758,-0.0901 2.017963,0.19895 0.237168,0.30303 0.08216,1.90118 0.08216,1.90118 v 2.60294 2.60707 2.6045 c -5.3e-4,0.28026 0.226173,0.50801 0.506431,0.50798 h 2.605008 2.605008 c 0.279897,3e-5 0.506471,-0.22705 0.506431,-0.50695 v -2.60501 -2.60449 -2.60501 c 0,0 -0.08511,-1.5653 0.117303,-1.91306 0.257204,-0.44188 1.982827,-0.18707 1.982827,-0.18707 h 2.605008 c 0.279898,4e-5 0.506471,-0.22705 0.506429,-0.50695 v -2.60449 -2.60501 c 4.2e-5,-0.27989 -0.226531,-0.50698 -0.506429,-0.50694 h -2.605008 c 0,0 -1.705671,0.10316 -1.924431,-0.19844 -0.295312,-0.40714 -0.175699,-1.95544 -0.175699,-1.95544 v -2.66133 c 0,0 -0.02641,-1.89541 0.132291,-2.10427 0.215731,-0.28391 0.631196,-0.29778 0.999422,-0.39739 0.0019,-10e-4 0.0033,-10e-4 0.0052,-0.002 -2.9e-5,0 0.02593,-0.007 0.06925,-0.0186 0.496078,-0.13674 0.977919,-0.29761 1.449525,-0.47697 0.02524,-0.01 0.0549,-0.0193 0.08785,-0.032 0.479245,-0.18544 0.947684,-0.39205 1.404048,-0.62064 0.0209,-0.0102 0.03856,-0.0197 0.05271,-0.0264 0.955513,-0.48302 1.853742,-1.05673 2.685105,-1.70894 0.0019,-0.001 0.0038,-0.003 0.0057,-0.004 0.02066,-0.0166 0.039,-0.0329 0.05633,-0.047 0.394843,-0.3129 0.773827,-0.64191 1.13688,-0.98909 0.0282,-0.0266 0.0575,-0.0529 0.08423,-0.0785 7.94e-4,-0.001 7.94e-4,-0.003 0.0016,-0.004 0.367747,-0.35672 0.719344,-0.72878 1.053169,-1.12035 0.01392,-0.0157 0.02183,-0.0238 0.02222,-0.0243 0.0019,-0.003 0.0039,-0.005 0.0057,-0.008 0.336954,-0.39728 0.651563,-0.80928 0.948261,-1.2361 7.94e-4,-0.001 7.94e-4,-0.003 0.0016,-0.004 0.02719,-0.0396 0.04915,-0.0711 0.06563,-0.0956 0.280483,-0.40981 0.541272,-0.83308 0.783416,-1.26763 0.01111,-0.0197 0.02986,-0.0502 0.05271,-0.0915 7.94e-4,-0.001 7.94e-4,-0.001 0.0016,-0.002 0.508621,-0.9271 0.926285,-1.90636 1.247468,-2.9285 0.0019,-0.005 0.0039,-0.008 0.0057,-0.0129 0.0011,-0.004 -7.94e-4,8e-4 0,-0.002 0.0011,-0.004 0.0024,-0.008 0.0036,-0.0114 -7.94e-4,0.003 0.0016,-0.009 0,-0.004 0.153527,-0.49174 0.283959,-0.99184 0.390673,-1.50172 v -0.002 c 0.0072,-0.0349 0.01249,-0.0635 0.01704,-0.0858 0.100164,-0.49205 0.179139,-0.99144 0.233577,-1.4981 0.0043,-0.0352 0.0066,-0.0628 0.0093,-0.0858 7.94e-4,-0.003 0.0013,-0.005 0.0021,-0.008 0.05129,-0.50492 0.0806,-1.01695 0.08423,-1.53531 7.94e-4,-0.0302 0.0016,-0.0583 0.0021,-0.0837 4.3e-5,-0.004 4.3e-5,-0.008 0,-0.0119 -7.93e-4,-0.52533 -0.03012,-1.04473 -0.08061,-1.5596 -0.0024,-0.0256 -0.0046,-0.0628 -0.0093,-0.10852 h -0.0021 c -0.05372,-0.5127 -0.130188,-1.02256 -0.232026,-1.526 -7.94e-4,-0.002 -7.94e-4,-0.004 -0.0016,-0.006 -0.0042,-0.0197 -0.0087,-0.0437 -0.015,-0.0729 v 0.006 c -0.102661,-0.49555 -0.228039,-0.98541 -0.376206,-1.46812 -0.0089,-0.0299 -0.01847,-0.0578 -0.02585,-0.0822 1.1e-5,-0.002 1.1e-5,-0.004 0,-0.006 -0.152805,-0.48805 -0.329644,-0.96729 -0.527616,-1.43816 -7.94e-4,-0.001 -7.94e-4,-7.9e-4 -0.0016,-0.002 -0.01537,-0.036 -0.03111,-0.074 -0.04703,-0.11059 -0.198803,-0.46312 -0.417984,-0.91937 -0.661975,-1.36684 0.003,0.006 -0.0021,-0.005 -0.015,-0.03 -0.0013,-0.003 -0.0024,-0.006 -0.0036,-0.009 -0.237215,-0.43217 -0.500176,-0.84737 -0.774112,-1.25315 0.19455,-0.19454 0.741211,-0.74118 1.87172,-1.87173 0.632344,-0.63236 1.370743,-1.37071 2.167311,-2.16731 0.688536,-0.68856 1.419442,-1.42096 2.165757,-2.1673 0.71795,-0.71798 1.449338,-1.44932 2.167311,-2.16731 0.746056,-0.74607 1.478928,-1.47735 2.16731,-2.16576 0.796716,-0.79675 1.533224,-1.53527 2.165242,-2.16731 l 1.063501,-1.06299 c 0,0 0.135548,-0.11721 0.191203,-0.10955 0.05567,0.007 0.04702,0.19999 0.04702,0.19999 v 0.69246 2.24586 2.24379 c -3.4e-5,0.2799 0.226542,0.50698 0.506429,0.50695 h 2.605011 2.606558 c 0.279892,3e-5 0.506982,-0.22705 0.506947,-0.50695 v -2.60541 -2.60501 -2.60449 -2.60708 -2.60449 -2.60501 c 1.38e-4,-0.27989 -0.226951,-0.50698 -0.506844,-0.50694 H 94.05582 91.450809 88.845801 86.241309 83.636301 81.029223 c -0.279892,-4e-5 -0.506462,0.22705 -0.506428,0.50694 v 2.60501 2.60449 c -4e-5,0.2799 0.226534,0.50699 0.506428,0.50695 h 2.245858 2.244309 c 0,0 0.59789,-0.0148 0.771012,0.0305 0.127307,0.0333 0.07451,0.14462 -0.0052,0.22427 -0.232696,0.23271 -0.461259,0.46127 -1.046446,1.04645 -0.632542,0.63254 -1.368454,1.36897 -2.165244,2.16576 -0.68843,0.68843 -1.422556,1.42205 -2.169377,2.16886 -0.718169,0.71817 -1.449136,1.44914 -2.167308,2.16731 -0.746585,0.74659 -1.479063,1.47906 -2.167313,2.16731 -0.796679,0.79668 -1.534766,1.53477 -2.167308,2.16731 -0.27877,0.27878 -0.522515,0.52252 -0.734319,0.73432 -0.650478,0.65048 -0.926502,0.91636 -1.128615,0.94671 -0.177964,0.0267 -0.314716,-0.002 -0.465087,-0.10077 -0.163745,-0.10701 -0.329263,-0.21123 -0.497644,-0.3085 -0.02924,-0.017 -0.06059,-0.0353 -0.09353,-0.0543 -7.94e-4,-0.001 -7.94e-4,-0.001 -0.0016,-0.002 -0.448022,-0.2547 -0.907672,-0.48819 -1.378212,-0.69918 -0.0024,-0.001 -0.0053,-0.003 -0.0078,-0.004 -0.01402,-0.006 -0.03261,-0.0147 -0.05426,-0.0243 -0.464621,-0.20603 -0.938892,-0.38884 -1.419034,-0.54983 -0.0273,-0.01 -0.05427,-0.0185 -0.08423,-0.0284 -0.487003,-0.16024 -0.982279,-0.29609 -1.481048,-0.40927 -0.0013,-0.001 -0.0024,-0.001 -0.0036,-0.002 -0.04245,-0.009 -0.07911,-0.0155 -0.108522,-0.0222 -0.490294,-0.10766 -0.986986,-0.19418 -1.490347,-0.25632 -0.01511,-0.003 -0.02694,-0.005 -0.03566,-0.006 -0.0068,-0.001 -0.01379,-0.003 -0.02066,-0.004 -0.511747,-0.0614 -1.026041,-0.0962 -1.540992,-0.10852 -0.116678,-0.004 -0.234619,-0.007 -0.352951,-0.008 h -0.0041 c -0.523849,8e-4 -1.042567,0.0304 -1.555462,0.0806 -0.03823,0.004 -0.07714,0.007 -0.116271,0.0108 -7.94e-4,0.001 -7.94e-4,0.001 -0.0016,0.002 -0.509804,0.0537 -1.019548,0.1282 -1.522386,0.22996 -0.0024,0.001 -0.0047,0.001 -0.0072,0.002 -0.03234,0.007 -0.05314,0.0131 -0.06408,0.015 -0.494808,0.10249 -0.986095,0.22726 -1.469676,0.37568 l -0.0057,0.002 c -0.03438,0.0103 -0.06018,0.0193 -0.0708,0.0222 -0.0031,0.001 -0.0061,0.002 -0.0093,0.003 -0.489286,0.1532 -0.97014,0.33075 -1.441773,0.52916 -7.94e-4,0.001 -0.0013,0.001 -0.0021,0.002 -0.02246,0.01 -0.05752,0.0212 -0.102839,0.0408 -0.463261,0.19869 -0.916376,0.4198 -1.361156,0.66198 0.02434,-0.0112 0.01958,-0.01 -0.01344,0.006 l -0.01654,0.01 c -0.0044,0.002 -0.0091,0.004 -0.01344,0.006 -0.308374,0.16911 -0.609319,0.35114 -0.904853,0.54156 -0.119338,0.0769 -0.201338,0.12043 -0.343133,0.12713 -0.09981,0.005 -0.186952,-0.0676 -0.327628,-0.20826 -0.275789,-0.27575 -0.691785,-0.69164 -1.270207,-1.2702 -0.604406,-0.60457 -1.275239,-1.27302 -1.87947,-1.87741 l -1.100709,-1.10174 c 0,0 -0.269404,-0.2189 -0.272852,-0.43873 -0.0034,-0.21984 0.345715,-0.51057 0.345715,-0.51057 l 0.988571,-0.95394 c 7.94e-4,-0.001 0.0013,-0.001 0.0021,-0.002 l 1.839683,-1.84175 c 0.197625,-0.19783 0.197625,-0.5184 0,-0.71623 0,0 -0.920771,-0.92117 -1.841749,-1.84227 -0.921041,-0.92117 -1.841749,-1.84175 -1.841749,-1.84175 -0.198046,-0.19887 -0.520255,-0.19887 -0.718301,0 l -1.840198,1.8402 -1.030947,1.03095 c 0,0 -0.259709,0.19377 -0.534334,0.18707 -0.185795,-0.004 -0.245199,-0.0633 -0.534849,-0.35296 -0.249119,-0.24914 -0.567233,-0.56684 -0.972035,-0.97151 -0.626496,-0.62629 -1.319942,-1.32015 -1.94665,-1.94665 h -0.0021 l -0.671795,-0.67076 c 0,0 -0.215371,-0.16505 -0.182933,-0.28733 0.03244,-0.12228 0.251664,-0.12298 0.251664,-0.12298 h 0.543118 2.244309 2.245858 c 0.279894,3e-5 0.506986,-0.22706 0.506944,-0.50695 v -2.6045 -2.60501 c 3.5e-5,-0.2799 -0.227054,-0.50698 -0.506946,-0.50695 H 43.365761 40.760753 38.156262 35.549187 32.944175 Z M 63.5,215.28354 c 0.368189,0 0.735901,0.0181 1.102259,0.0548 h 0.0016 5.29e-4 c 0.920022,0.0924 1.821063,0.29959 2.683039,0.61391 0.861978,0.31431 1.684864,0.73581 2.44843,1.25729 0.0077,0.005 0.01556,0.0115 0.02326,0.0165 0.289838,0.1995 0.570235,0.41251 0.839743,0.63872 0.02188,0.0183 0.04339,0.0373 0.06511,0.0558 0.255442,0.21711 0.500687,0.44582 0.735359,0.68523 0.0263,0.0268 0.05145,0.0546 0.07752,0.0816 0.229057,0.23808 0.447386,0.48652 0.654222,0.74414 0.02191,0.0273 0.04294,0.0552 0.06459,0.0827 0.208629,0.26511 0.405069,0.53962 0.588597,0.82269 0.01347,0.0207 0.02648,0.0417 0.03979,0.0625 0.187833,0.2942 0.36172,0.59732 0.520899,0.90795 0.0059,0.0116 0.0122,0.023 0.0181,0.0346 0.162338,0.32009 0.308798,0.64799 0.439251,0.98236 0.0024,0.006 0.0053,0.0126 0.0078,0.0186 0.130667,0.33705 0.245055,0.68066 0.342099,1.02887 0.0021,0.007 0.0036,0.0142 0.0057,0.0212 0.09453,0.34256 0.172448,0.68967 0.233577,1.03974 0.003,0.0174 0.0059,0.0346 0.0088,0.0522 0.05614,0.33345 0.09711,0.6695 0.122473,1.00667 0.0035,0.0475 0.0079,0.0946 0.01085,0.14211 0.01577,0.23558 0.02416,0.47186 0.02479,0.70796 -2.4e-5,1.1126 -0.167772,2.21218 -0.492477,3.26338 -0.324702,1.05119 -0.806058,2.05417 -1.433505,2.97294 -0.0053,0.008 -0.01114,0.0147 -0.01654,0.0227 -0.199144,0.29 -0.411816,0.57056 -0.637685,0.84026 -0.01897,0.0226 -0.03925,0.0437 -0.05839,0.0661 -0.216482,0.25468 -0.444516,0.49978 -0.683165,0.73381 -0.0268,0.0263 -0.05406,0.0515 -0.08113,0.0775 -0.237138,0.22775 -0.484558,0.4449 -0.74104,0.65061 -0.03025,0.0243 -0.06096,0.0479 -0.09147,0.0718 -0.264962,0.20824 -0.539308,0.40435 -0.822174,0.58756 -0.01818,0.0118 -0.036,0.0234 -0.05426,0.0351 -0.296839,0.18967 -0.602645,0.36506 -0.916223,0.52555 -0.0089,0.006 -0.01797,0.009 -0.02687,0.0129 -0.324276,0.16487 -0.656352,0.31386 -0.995289,0.44597 h -5.29e-4 c -0.342281,0.13296 -0.691094,0.24845 -1.044895,0.34675 -0.0013,0.001 -0.0027,0.001 -0.0041,0.002 -0.0011,2.6e-4 -0.0019,2.4e-4 -0.0031,5.3e-4 -0.344776,0.0953 -0.694063,0.17414 -1.046448,0.23565 -0.01749,0.003 -0.03519,0.006 -0.05271,0.009 -0.3336,0.0563 -0.669293,0.0975 -1.006655,0.12299 -0.04758,0.004 -0.0954,0.007 -0.143145,0.0103 -0.235228,0.0162 -0.470652,0.0245 -0.706417,0.0253 -0.36785,-1e-4 -0.735726,-0.0186 -1.10174,-0.0553 -0.0013,-1.2e-4 -0.0024,1.2e-4 -0.0036,0 -0.920893,-0.0925 -1.822934,-0.3001 -2.685624,-0.61495 -0.862695,-0.31484 -1.685959,-0.73698 -2.449981,-1.25936 -0.0031,-0.002 -0.0062,-0.005 -0.0093,-0.007 -0.29319,-0.2013 -0.576601,-0.41632 -0.849043,-0.64492 -0.02178,-0.0183 -0.04295,-0.0374 -0.0646,-0.0558 -0.255442,-0.2171 -0.500687,-0.44582 -0.735356,-0.68523 -0.02614,-0.0267 -0.05167,-0.0542 -0.07752,-0.0811 -0.230625,-0.23989 -0.450292,-0.49015 -0.658358,-0.74983 -0.01924,-0.0241 -0.03782,-0.048 -0.05684,-0.0724 -0.20923,-0.26593 -0.406172,-0.54128 -0.590145,-0.82527 -0.0145,-0.0223 -0.02908,-0.0449 -0.04341,-0.0672 -0.186592,-0.29221 -0.358952,-0.59333 -0.517281,-0.90175 -0.0075,-0.0146 -0.01482,-0.0293 -0.02222,-0.0439 -0.161239,-0.31793 -0.306869,-0.64364 -0.436665,-0.97565 -0.0028,-0.007 -0.0059,-0.0142 -0.0088,-0.0212 -0.130218,-0.33603 -0.243748,-0.67864 -0.340548,-1.02578 -0.0024,-0.008 -0.0048,-0.0168 -0.0072,-0.0248 -0.09433,-0.34222 -0.172082,-0.68898 -0.233061,-1.03869 -0.003,-0.0174 -0.0059,-0.0351 -0.0088,-0.0527 -0.05634,-0.3336 -0.09747,-0.6693 -0.122989,-1.00666 -0.0036,-0.047 -0.0074,-0.0938 -0.01033,-0.14108 -0.01588,-0.23575 -0.02417,-0.4722 -0.02481,-0.70848 0,-1.11247 0.16786,-2.21175 0.492477,-3.26285 0.324612,-1.0511 0.805685,-2.0542 1.432986,-2.97295 0.0058,-0.008 0.01227,-0.0168 0.01809,-0.0248 0.198874,-0.28907 0.411209,-0.5688 0.636652,-0.83767 0.01913,-0.0229 0.03907,-0.0449 0.05839,-0.0677 0.215228,-0.25298 0.441921,-0.49605 0.67903,-0.72864 0.03042,-0.0299 0.06121,-0.0589 0.09199,-0.0884 0.23553,-0.22601 0.48128,-0.44167 0.735873,-0.64596 0.02869,-0.0229 0.05791,-0.0454 0.08682,-0.0682 0.26479,-0.20824 0.538967,-0.40384 0.821653,-0.58705 0.02058,-0.0134 0.0408,-0.0271 0.0615,-0.0403 0.295521,-0.18864 0.59999,-0.36321 0.91209,-0.52296 0.009,-0.006 0.01839,-0.009 0.02739,-0.0134 0.321273,-0.16315 0.650336,-0.31029 0.985989,-0.44131 0.0064,-0.002 0.0122,-0.005 0.0186,-0.008 0.339426,-0.13144 0.685387,-0.24584 1.036111,-0.34314 0.0024,-10e-4 0.0048,-10e-4 0.0072,-0.002 0.343228,-0.095 0.691007,-0.17322 1.041794,-0.23461 0.01998,-0.004 0.03993,-0.008 0.05994,-0.0109 0.334481,-0.0562 0.67101,-0.0967 1.00924,-0.12195 0.04251,-0.003 0.08499,-0.007 0.127643,-0.009 0.238538,-0.0167 0.477655,-0.0245 0.716751,-0.0253 z"
       id="path964"
       inkscape:connector-curvature="0" />
  </g>
</svg>
