<?xml version="1.0" encoding="UTF-8" standalone="no"?>
<svg version="1.1" id="svg3820" width="960" height="540" viewBox="0 0 960 540" sodipodi:docname="self-portrait-mobile.svg" inkscape:version="1.4.1 (93de688d07, 2025-03-30)" inkscape:export-filename="/home/elm/Documents/Self-Portrait/export/self-portrait.png" inkscape:export-xdpi="192" inkscape:export-ydpi="192" xmlns:inkscape="http://www.inkscape.org/namespaces/inkscape" xmlns:sodipodi="http://sodipodi.sourceforge.net/DTD/sodipodi-0.dtd" xmlns="http://www.w3.org/2000/svg" xmlns:svg="http://www.w3.org/2000/svg" xmlns:rdf="http://www.w3.org/1999/02/22-rdf-syntax-ns#" xmlns:cc="http://creativecommons.org/ns#" xmlns:dc="http://purl.org/dc/elements/1.1/">
    <sodipodi:namedview pagecolor="#ffffff" bordercolor="#666666" borderopacity="1" objecttolerance="10" gridtolerance="10" guidetolerance="10" inkscape:pageopacity="0" inkscape:pageshadow="2" inkscape:window-width="1849" inkscape:window-height="1024" id="namedview3822" showgrid="false" units="px" inkscape:snap-others="true" inkscape:snap-global="true" inkscape:zoom="0.67493617" inkscape:cx="1891.3196" inkscape:cy="92.781858" inkscape:window-x="71" inkscape:window-y="30" inkscape:window-maximized="1" inkscape:current-layer="layer16" inkscape:snap-bbox="true" inkscape:snap-grids="false" inkscape:bbox-paths="true" inkscape:bbox-nodes="true" inkscape:object-paths="true" inkscape:snap-intersection-paths="true" showguides="true" inkscape:guide-bbox="true" inkscape:snap-bbox-edge-midpoints="true" inkscape:snap-bbox-midpoints="true" inkscape:snap-smooth-nodes="true" inkscape:snap-midpoints="true" inkscape:snap-object-midpoints="true" inkscape:snap-center="true" inkscape:snap-page="true" inkscape:snap-nodes="true" inkscape:snap-to-guides="true" inkscape:showpageshadow="0" inkscape:pagecheckerboard="0" inkscape:deskcolor="#d1d1d1">
        <inkscape:grid spacingy="24" spacingx="24" units="in" id="grid3830" type="xygrid" originx="0" originy="0" />
        <sodipodi:guide id="guide1071" position="408,0" orientation="1056.0,0" inkscape:locked="false" />
        <sodipodi:guide id="guide1073" position="0,352" orientation="0,816.0" inkscape:locked="false" />
        <sodipodi:guide id="guide1075" position="0,704" orientation="0,816.0" inkscape:locked="false" />
        <sodipodi:guide position="0,1056" orientation="0,816" id="guide1181" inkscape:locked="false" />
        <sodipodi:guide position="816,1056" orientation="1056,0" id="guide1183" inkscape:locked="false" />
        <sodipodi:guide position="816,0" orientation="0,-816" id="guide1185" inkscape:locked="false" />
        <sodipodi:guide position="0,0" orientation="-1056,0" id="guide1187" inkscape:locked="false" />
        <sodipodi:guide position="-423.74378,161.74066" orientation="161.74066,0" id="guide926" inkscape:locked="false" />
        <sodipodi:guide position="-423.74378,0" orientation="0,1920" id="guide928" inkscape:locked="false" />
        <sodipodi:guide position="1496.2562,0" orientation="-327.47229,-0.5084" id="guide930" inkscape:locked="false" />
        <sodipodi:guide position="1920,168.0665" orientation="168.0665,0" inkscape:locked="false" id="guide1008" />
        <sodipodi:guide position="1920,0" orientation="0,-960.00019" inkscape:locked="false" id="guide1010" />
        <sodipodi:guide position="959.99981,0" orientation="-141.8027,0" inkscape:locked="false" id="guide1012" />
        <sodipodi:guide position="1920,287.19851" orientation="86.96802,0" inkscape:locked="false" id="guide1088" />
        <sodipodi:guide position="1920,200.23049" orientation="200.23049,0" inkscape:locked="false" id="guide1090" />
        <sodipodi:guide position="1920,0" orientation="0,-2287.4422" inkscape:locked="false" id="guide1092" />
        <sodipodi:guide position="-367.4422,0" orientation="-50.6824,0" inkscape:locked="false" id="guide1094" />
        <sodipodi:guide position="-367.4422,50.68240000000003" orientation="-236.51611,2287.4422" inkscape:locked="false" id="guide1096" />
        <sodipodi:guide position="960,53.94242726540699" orientation="-150.5131389645125,-274.3873779369765" id="guide1" inkscape:locked="false" />
        <sodipodi:guide position="685.6126220630235,204.4555662299194" orientation="-233.3125441974713,-17.47188554884383" id="guide2" inkscape:locked="false" />
        <sodipodi:guide position="668.1407365141797,437.7681104273908" orientation="0,291.8592634858203" id="guide3" inkscape:locked="false" />
        <sodipodi:guide position="960,437.7681104273908" orientation="383.8256831619838,0" id="guide4" inkscape:locked="false" />
        <sodipodi:guide position="-596.5088370751664,71.88723903806385" orientation="-468.1127609619361,596.5088370751664" id="guide5" inkscape:locked="false" />
        <sodipodi:guide position="0,540" orientation="0,960" id="guide6" inkscape:locked="false" />
        <sodipodi:guide position="960,540" orientation="307.173427703218,0" id="guide7" inkscape:locked="false" />
        <sodipodi:guide position="960,232.826572296782" orientation="160.9393332587182,-1556.508837075166" id="guide8" inkscape:locked="false" />
    </sodipodi:namedview>
    <metadata id="metadata3826">
        <rdf:RDF>
            <cc:Work rdf:about="">
                <dc:format>image/svg+xml</dc:format>
                <dc:type rdf:resource="http://purl.org/dc/dcmitype/StillImage" />
            </cc:Work>
        </rdf:RDF>
    </metadata>
    <defs id="defs3824">
        <inkscape:path-effect effect="powerstroke" message="" id="path-effect45" is_visible="true" lpeversion="1.3" scale_width="1" interpolator_type="CubicBezierJohan" interpolator_beta="0.2" start_linecap_type="zerowidth" end_linecap_type="zerowidth" offset_points="0,0.89010672165522" linejoin_type="extrp_arc" miter_limit="4" not_jump="false" sort_points="true" />
        <inkscape:path-effect effect="powerstroke" message="" id="path-effect43" is_visible="true" lpeversion="1.3" scale_width="1" interpolator_type="CubicBezierJohan" interpolator_beta="0.2" start_linecap_type="zerowidth" end_linecap_type="zerowidth" offset_points="0,0.89010672165522" linejoin_type="extrp_arc" miter_limit="4" not_jump="false" sort_points="true" />
        <inkscape:path-effect effect="powerstroke" message="" id="path-effect41" is_visible="true" lpeversion="1.3" scale_width="1" interpolator_type="CubicBezierJohan" interpolator_beta="0.2" start_linecap_type="zerowidth" end_linecap_type="zerowidth" offset_points="8.40197570706689e-16,0.89010672165522" linejoin_type="extrp_arc" miter_limit="4" not_jump="false" sort_points="true" />
        <inkscape:path-effect effect="powerstroke" message="" id="path-effect39" is_visible="true" lpeversion="1.3" scale_width="1" interpolator_type="CubicBezierJohan" interpolator_beta="0.2" start_linecap_type="zerowidth" end_linecap_type="zerowidth" offset_points="0,0.89010672165522" linejoin_type="extrp_arc" miter_limit="4" not_jump="false" sort_points="true" />
        <inkscape:path-effect effect="powerstroke" message="" id="path-effect37" is_visible="true" lpeversion="1.3" scale_width="1" interpolator_type="CubicBezierJohan" interpolator_beta="0.2" start_linecap_type="zerowidth" end_linecap_type="zerowidth" offset_points="0,0.89010672165522" linejoin_type="extrp_arc" miter_limit="4" not_jump="false" sort_points="true" />
        <inkscape:path-effect effect="powerstroke" message="" id="path-effect36" is_visible="true" lpeversion="1.3" scale_width="1" interpolator_type="CubicBezierJohan" interpolator_beta="0.2" start_linecap_type="zerowidth" end_linecap_type="zerowidth" offset_points="0.01037313402978376,0.8901067216552203" linejoin_type="extrp_arc" miter_limit="4" not_jump="false" sort_points="true" />
        <inkscape:path-effect effect="powerstroke" message="" id="path-effect35" is_visible="true" lpeversion="1.3" scale_width="1" interpolator_type="CubicBezierJohan" interpolator_beta="0.2" start_linecap_type="zerowidth" end_linecap_type="zerowidth" offset_points="0.02606882829488448,2.461925459614312" linejoin_type="extrp_arc" miter_limit="4" not_jump="false" sort_points="true" />
        <inkscape:path-effect effect="powerstroke" message="" id="path-effect34" is_visible="true" lpeversion="1.3" scale_width="1" interpolator_type="CubicBezierJohan" interpolator_beta="0.2" start_linecap_type="zerowidth" end_linecap_type="zerowidth" offset_points="0.001186129318461862,2.922934053488965" linejoin_type="extrp_arc" miter_limit="4" not_jump="false" sort_points="true" />
        <inkscape:path-effect effect="powerstroke" message="" id="path-effect33" is_visible="true" lpeversion="1.3" scale_width="1" interpolator_type="CubicBezierJohan" interpolator_beta="0.2" start_linecap_type="zerowidth" end_linecap_type="zerowidth" offset_points="0,4.44441018384093" linejoin_type="extrp_arc" miter_limit="4" not_jump="false" sort_points="true" />
        <inkscape:path-effect effect="powerstroke" message="" id="path-effect32" is_visible="true" lpeversion="1.3" scale_width="1" interpolator_type="CubicBezierJohan" interpolator_beta="0.2" start_linecap_type="zerowidth" end_linecap_type="zerowidth" offset_points="0,4.44441018384093" linejoin_type="extrp_arc" miter_limit="4" not_jump="false" sort_points="true" />
        <inkscape:path-effect effect="powerstroke" message="" id="path-effect30" is_visible="true" lpeversion="1.3" scale_width="1" interpolator_type="CubicBezierJohan" interpolator_beta="0.2" start_linecap_type="zerowidth" end_linecap_type="zerowidth" offset_points="0,4.44441018384093" linejoin_type="extrp_arc" miter_limit="4" not_jump="false" sort_points="true" />
        <inkscape:path-effect effect="powerstroke" message="" id="path-effect28" is_visible="true" lpeversion="1.3" scale_width="1" interpolator_type="CubicBezierJohan" interpolator_beta="0.2" start_linecap_type="zerowidth" end_linecap_type="zerowidth" offset_points="0,4.44441018384093" linejoin_type="extrp_arc" miter_limit="4" not_jump="false" sort_points="true" />
        <inkscape:path-effect effect="powerstroke" message="" id="path-effect26" is_visible="true" lpeversion="1.3" scale_width="1" interpolator_type="CubicBezierJohan" interpolator_beta="0.2" start_linecap_type="zerowidth" end_linecap_type="zerowidth" offset_points="0,4.44441018384093" linejoin_type="extrp_arc" miter_limit="4" not_jump="false" sort_points="true" />
        <inkscape:path-effect effect="powerstroke" message="" id="path-effect23" is_visible="true" lpeversion="1.3" scale_width="1" interpolator_type="CubicBezierJohan" interpolator_beta="0.2" start_linecap_type="zerowidth" end_linecap_type="zerowidth" offset_points="0,4.44441018384093" linejoin_type="extrp_arc" miter_limit="4" not_jump="false" sort_points="true" />
        <inkscape:path-effect effect="powerstroke" message="" id="path-effect20" is_visible="true" lpeversion="1.3" scale_width="1" interpolator_type="CubicBezierJohan" interpolator_beta="0.2" start_linecap_type="zerowidth" end_linecap_type="zerowidth" offset_points="0,4.44441018384093" linejoin_type="extrp_arc" miter_limit="4" not_jump="false" sort_points="true" />
        <inkscape:path-effect effect="powerstroke" message="" id="path-effect18" is_visible="true" lpeversion="1.3" scale_width="1" interpolator_type="CubicBezierJohan" interpolator_beta="0.2" start_linecap_type="zerowidth" end_linecap_type="zerowidth" offset_points="0,4.44441018384093" linejoin_type="extrp_arc" miter_limit="4" not_jump="false" sort_points="true" />
        <clipPath id="clipPath3842" clipPathUnits="userSpaceOnUse">
            <rect style="stroke-width:3.7746" y="0" x="0" height="1056" width="816" id="rect3844" />
        </clipPath>
        <clipPath id="clipPath3842-3" clipPathUnits="userSpaceOnUse">
            <rect style="stroke-width:3.7746" y="0" x="0" height="1056" width="816" id="rect3844-5" />
        </clipPath>
        <clipPath id="clipPath3842-3-9" clipPathUnits="userSpaceOnUse">
            <rect style="stroke-width:3.7746" y="0" x="0" height="1056" width="816" id="rect3844-5-1" />
        </clipPath>
        <clipPath id="clipPath3842-3-9-2" clipPathUnits="userSpaceOnUse">
            <rect style="stroke-width:3.7746" y="0" x="0" height="1056" width="816" id="rect3844-5-1-7" />
        </clipPath>
        <clipPath id="clipPath3842-3-9-2-3" clipPathUnits="userSpaceOnUse">
            <rect style="stroke-width:3.7746" y="0" x="0" height="1056" width="816" id="rect3844-5-1-7-6" />
        </clipPath>
        <inkscape:path-effect effect="fill_between_many" method="bsplinespiro" autoreverse="false" close="false" join="false" linkedpaths="#path18,0,1" id="path-effect19" is_visible="true" lpeversion="0" />
        <inkscape:path-effect effect="fill_between_many" method="bsplinespiro" autoreverse="false" close="false" join="false" linkedpaths="#path20,0,1" id="path-effect21" is_visible="true" lpeversion="0" />
        <inkscape:path-effect effect="fill_between_many" method="bsplinespiro" autoreverse="false" close="false" join="false" linkedpaths="#path23,0,1" id="path-effect24" is_visible="true" lpeversion="0" />
        <inkscape:path-effect effect="fill_between_many" method="bsplinespiro" autoreverse="false" close="false" join="false" linkedpaths="#path26,0,1" id="path-effect27" is_visible="true" lpeversion="0" />
        <inkscape:path-effect effect="fill_between_many" method="bsplinespiro" autoreverse="false" close="false" join="false" linkedpaths="#path28,0,1" id="path-effect29" is_visible="true" lpeversion="0" />
        <inkscape:path-effect effect="fill_between_many" method="bsplinespiro" autoreverse="false" close="false" join="false" linkedpaths="#path30,0,1" id="path-effect31" is_visible="true" lpeversion="0" />
        <inkscape:path-effect effect="fill_between_many" method="bsplinespiro" autoreverse="false" close="false" join="false" linkedpaths="#path37,0,1" id="path-effect38" is_visible="true" lpeversion="0" />
        <inkscape:path-effect effect="fill_between_many" method="bsplinespiro" autoreverse="false" close="false" join="false" linkedpaths="#path39,0,1" id="path-effect40" is_visible="true" lpeversion="0" />
        <inkscape:path-effect effect="fill_between_many" method="bsplinespiro" autoreverse="false" close="false" join="false" linkedpaths="#path40,0,1" id="path-effect42" is_visible="true" lpeversion="0" />
        <inkscape:path-effect effect="fill_between_many" method="bsplinespiro" autoreverse="false" close="false" join="false" linkedpaths="#path42,0,1" id="path-effect44" is_visible="true" lpeversion="0" />
        <inkscape:path-effect effect="fill_between_many" method="bsplinespiro" autoreverse="false" close="false" join="false" linkedpaths="#path44,0,1" id="path-effect46" is_visible="true" lpeversion="0" />
    </defs>
    <g style="display:inline" inkscape:label="bottom" id="layer8" inkscape:groupmode="layer" transform="translate(0,-516)" sodipodi:insensitive="true" />
    <g style="display:inline" inkscape:label="bg" id="layer13" inkscape:groupmode="layer" transform="translate(0,-516)">
        <g style="display:inline;opacity:1" inkscape:label="walls" id="layer16" inkscape:groupmode="layer">
            <path inkscape:connector-curvature="0" id="path1056" d="M 0,922.435157700951 V 516 H 960 V 823.1734277032179 Z" style="display:inline;fill:#e64980;stroke:none;stroke-width:0.482913px;stroke-linecap:butt;stroke-linejoin:miter;stroke-opacity:1" sodipodi:nodetypes="ccccc" />
            <path sodipodi:nodetypes="cccccc" inkscape:connector-curvature="0" id="path1022" d="M 960,823.1734277032179 V 893.6768087828691 1056 H 0 V 922.4351577032066 Z" style="font-variation-settings:normal;display:inline;vector-effect:none;fill:#f06595;fill-opacity:1;stroke:none;stroke-width:0.482913px;stroke-linecap:butt;stroke-linejoin:miter;stroke-miterlimit:4;stroke-dasharray:none;stroke-dashoffset:0;stroke-opacity:1;-inkscape-stroke:none;stop-color:#000000" />
            <path style="font-variation-settings:normal;display:inline;vector-effect:none;fill:#c2255c;fill-opacity:1;stroke-width:0.999531;stroke-linecap:butt;stroke-linejoin:miter;stroke-miterlimit:4;stroke-dasharray:0.999531, 5.99717;stroke-dashoffset:0;stroke-opacity:1;-inkscape-stroke:none;paint-order:fill markers stroke" d="M 1920,473.4604096792679 1581.534998651888,287.7979708106936 1559.982907552414,0 H 1920 Z" id="path18" transform="matrix(0.8106816859766491,0,0,0.8106816859766491,-596.5088370751664,618.2318895726092)" />
            <path style="font-variation-settings:normal;display:inline;vector-effect:none;fill:#c2255c;fill-opacity:1;stroke-width:0.810301;stroke-linecap:butt;stroke-linejoin:miter;stroke-miterlimit:4;stroke-dasharray:0.810301, 4.8618;stroke-dashoffset:0;stroke-opacity:1;-inkscape-stroke:none;paint-order:fill markers stroke" d="M 960,1002.057572734593 685.6126220630235,851.5444337700805 660.4849806877645,516 H 959.9998099803924 Z" id="path18-9" sodipodi:nodetypes="ccccc" />
            <path id="path880" style="display:inline;fill:#f06595;stroke:none;stroke-width:0.482913px;stroke-linecap:butt;stroke-linejoin:miter;stroke-opacity:1" d="M 720.7855681301715,816.894820154258 714.8827921041539,817.3128278985898 714.9065425441729,817.322328074597 192.5976537825816,852.4855697922133 260.1219858385711,935.2464234003897 853.7468648063495,873.3701997937406 859.8285608138422,872.9743591267598 Z" sodipodi:nodetypes="cccccccc" />
            <path id="path14" style="font-variation-settings:normal;display:inline;vector-effect:none;fill:#a61e4d;fill-opacity:1;stroke-width:0.810301;stroke-linecap:butt;stroke-linejoin:miter;stroke-miterlimit:4;stroke-dasharray:0.810301, 4.8618;stroke-dashoffset:0;stroke-opacity:1;-inkscape-stroke:none;paint-order:fill markers stroke" d="M 850.1779653528508,712.5417201621153 859.8285608138422,872.9743591267598 260.1220335246125,935.2464294935091 242.9425485776464,1033.332580046012 906.1229184985792,978.2283924769508 885.9445446585666,712.5417201621153 Z" sodipodi:nodetypes="ccccccc" />
            <path style="font-variation-settings:normal;display:inline;vector-effect:none;fill:#d6336c;fill-opacity:1;stroke-width:0.810301;stroke-linecap:butt;stroke-linejoin:miter;stroke-miterlimit:4;stroke-dasharray:0.810301, 4.8618;stroke-dashoffset:0;stroke-opacity:1;-inkscape-stroke:none;paint-order:fill markers stroke" d="M 192.5976537825816,852.4855697922133 175.4131905357225,914.5090163527222 242.9430221351529,1033.332130823526 260.1219858385711,935.2464234003897 Z" id="path19" sodipodi:nodetypes="ccccc" />
            <path style="font-variation-settings:normal;display:inline;vector-effect:none;fill:#d6336c;fill-opacity:1;stroke-width:0.810301;stroke-linecap:butt;stroke-linejoin:miter;stroke-miterlimit:4;stroke-dasharray:0.810301, 4.8618;stroke-dashoffset:0;stroke-opacity:1;-inkscape-stroke:none;paint-order:fill markers stroke;stop-color:#000000" d="M 850.1776738691675,712.5420273920634 719.0476956091475,726.5801481481856 736.9901770443905,807.2086515188428 801.3600608589241,849.3925413119983 859.8285608138422,872.9743591267598 Z" id="path21" />
            <path style="font-variation-settings:normal;display:inline;vector-effect:none;fill:#f783ac;fill-opacity:1;stroke:none;stroke-width:0.810301;stroke-linecap:butt;stroke-linejoin:miter;stroke-miterlimit:4;stroke-dasharray:0.810301, 4.8618;stroke-dashoffset:0;stroke-opacity:1;-inkscape-stroke:none;paint-order:fill markers stroke;stop-color:#000000" d="M 639.1314590769247,875.185775643823 549.3286817218731,878.9574235469281 533.7712137589695,856.5699623796715 620.5078308413204,853.4026047121101 Z" id="path1190" inkscape:connector-curvature="0" sodipodi:nodetypes="ccccc" />
            <path style="display:inline;fill:#d6336c;stroke:none;stroke-width:0.482913px;stroke-linecap:butt;stroke-linejoin:miter;stroke-opacity:1" d="M 549.3286817218731,878.9574154401112 548.8228163498238,884.6491629164521 533.713898563771,861.6983671524274 533.7722676451613,856.5699542728548 Z" id="path1192" inkscape:connector-curvature="0" sodipodi:nodetypes="ccccc" />
            <path style="display:inline;fill:#e64980;stroke:none;stroke-width:0.482913px;stroke-linecap:butt;stroke-linejoin:miter;stroke-opacity:1" d="M 639.1314590769247,875.185775643823 638.1149453108788,879.6825458877666 548.8228163498238,884.6491629164523 549.3286817218731,878.9574235469283 Z" id="path1194" inkscape:connector-curvature="0" sodipodi:nodetypes="ccccc" />
            <path style="display:inline;fill:#a61e4d;fill-rule:nonzero;stroke:none;stroke-width:0.482913" d="M 561.2446486195382,856.0685557568947 C 561.2932895206968,856.0585843721571 561.3448488759248,856.0620703034071 561.3917873455432,856.0820130728823 561.609536446396,856.20787140463 561.8580103831482,856.2726935122407 562.0868658230991,856.376274311258 561.6953876369411,857.0440490296305 561.3039905189516,857.7118480684539 560.9125934009622,858.3796308936433 560.8256883242255,858.4277043176216 560.777614900247,858.5719408031909 560.8615204547455,858.6446184163387 L 558.7713398637921,864.3763649270654 C 558.451363802337,864.723831204492 558.1312256045448,865.0712002001162 557.8112495430899,865.4186502639089 557.2742539942988,865.3186364643097 556.737258445508,865.2187037328797 556.2003439648857,865.1186899332808 555.8318891386093,864.8783633474727 555.4318987947483,864.5917468373959 555.3145931547876,864.142499474295 555.3145931547876,864.1360140208073 555.3146742229562,864.1338251802549 555.3145931547876,864.129042158308 555.2537920283392,864.0867245742998 555.2108258989826,864.0507303074424 555.2173113524703,864.0394131911064 555.2432531664214,864.0024461062256 555.2675736170009,863.9661275666936 555.2943261126381,863.9299954839498 555.2845979324065,863.6241090701972 555.4142259339942,863.3216275195255 555.5774161573813,863.0669356542424 556.4427377889926,861.6480238197282 557.3235434408062,860.23888069953 558.1947830487254,858.8235196507997 558.4841153424504,858.3554401521339 558.7732854998383,857.8872552648488 559.062536725395,857.4191190184645 559.247858558809,857.1680509003177 559.5518641910501,856.9883957318884 559.8707863663133,857.0126107938484 560.3726793981018,856.8594243824662 560.6805763024357,856.3998002937847 561.1100754596659,856.1297703310031 561.1497988622788,856.1000993812963 561.1960077183796,856.0778867031006 561.2458646420669,856.0682395910374 Z M 571.9234341962342,856.6146228337518 571.9639682805328,856.6626962577302 C 571.9736964607648,856.7550329017631 571.8375830056893,856.5923290873873 571.9234341962342,856.6146228337518 Z M 570.8179075810677,856.6390243524998 C 571.1649604108345,856.7456371010224 571.5120943087697,856.8521687813768 571.8593092748734,856.9587734230824 L 573.4552172418871,857.1294462384312 C 574.3191607146321,857.3860188852257 575.1831852555461,857.6425509979363 576.0469665919544,857.8990993242806 575.9282017249588,858.1330620588535 575.8093557897946,858.366935618441 575.6905098546304,858.600825391662 574.7485788036941,858.2666299734351 573.8065666845892,857.9324426620246 572.8647167018217,857.5982472437975 572.7533290381684,857.6523197122526 572.6044068124543,857.6190006949589 572.5345260511234,857.5143173688486 572.472914242989,857.5580941798912 572.5831669522818,857.6472205244475 572.510205600544,857.6841146479763 572.4242733418307,858.0374178335417 572.3360711743963,858.390793980459 572.2489228931539,858.7442511955448 L 571.4792617004875,858.6055678795249 C 571.4192712557253,858.8133699160913 571.3604968334917,859.0211719526574 571.3010738659098,859.2290550573926 570.8030721062144,859.1372048223714 570.3049892783502,859.0454032282516 569.8070685868234,858.9536097409484 569.7357285984576,859.1947551152587 569.6637400647429,859.4358842759361 569.5920758037025,859.6770458638801 569.7470781420613,859.832688640771 569.9019994122512,859.9883314176614 570.0570017506095,860.1439093400174 570.0399774352047,860.2482927139035 570.0245744831711,860.3526679809731 570.0099822128229,860.4570675684932 570.5764865749831,860.6271485862112 571.1429909371445,860.7972458175627 571.7095763674734,860.967351155731 571.7849697642692,860.9399501147454 571.687687961952,860.8233173405836 571.7703774939217,860.8032691824894 571.934135194489,860.4192735882932 572.0978118268876,860.0354563440672 572.2616505956234,859.6515499248564 572.5857611336771,859.3535109098238 572.9099527398991,859.0554800016084 573.234144346121,858.7574328797587 573.7534670341577,858.8706526840226 574.2729518585316,858.9838400610185 574.7921934783997,859.0969706902965 575.2550927210924,859.2947608080412 575.7178298274478,859.4925022848843 576.1805669338034,859.6902275480941 576.1801615929605,859.6256972858905 576.2655263744935,859.5620587735412 576.3212202063205,859.6147530831299 L 577.8293313467427,858.9262249135957 C 577.9275859670829,858.8914466692675 578.038811494399,858.8751519673794 578.1150966410496,858.7970184664851 L 579.4817438272689,859.2581909571864 579.405539748787,859.292969201515 C 579.4663408752353,859.2780526584929 579.5649197682502,859.2994546550028 579.5950771269682,859.2211428041373 579.6266937127214,859.2328976885838 579.6771181135892,859.3159925613966 579.719516765766,859.265568160529 579.3115817413814,859.6968751379191 578.9034035124932,860.1282631834777 578.4953874199411,860.5595782676848 578.2739091833323,861.0142247708141 578.052755219398,861.4687983125918 577.8313580509576,861.9234448157213 577.4470138636361,862.2038596109007 577.0629939489889,862.4843392606145 576.6788118980044,862.7648108035123 L 575.2592271976908,862.2507494396173 C 575.0430183920409,862.2507494396173 574.8901238260657,862.5057493639417 574.9698138357971,862.6996968504946 L 574.8528324685107,863.6315916621582 C 573.9390320720781,863.9969010434932 573.0253938119822,864.3622023180114 572.1118366200551,864.7275846606979 571.6471538776534,864.4700797299643 571.1824711352513,864.2125585855967 570.7177073246812,863.9550536548631 570.5019038598741,863.856742286805 570.2858571905612,863.7582849960432 570.0698915894173,863.6599006666331 569.8570065786798,864.1927779524588 569.6442026361106,864.7256552382855 569.4313986935411,865.25861359228 568.6458481398295,865.0466689722984 567.8605407906251,864.8347811000345 567.07515237325,864.6229094414045 567.5372409342567,863.2674658760852 567.9994105634326,861.9121114857514 568.461661260776,860.5567814158683 568.2724481552687,860.3046675183466 568.0831539815934,860.0524887662896 567.8938598079179,859.8003019074161 568.0693723929317,859.3004680071103 568.2447228416086,858.8005449318191 568.4201543584547,858.3007110315136 568.6192577805296,857.8407302428903 568.818280134437,857.3807413474503 569.0172214201759,856.920760558827 569.2155952287341,856.9615378476319 569.4140501054613,857.0025664477591 569.6123428458512,857.0433680570141 569.5864010318998,857.1588658768155 569.8142025856592,857.1383150960756 569.7718850016511,857.0299107410271 570.1210456038014,856.8994558441196 570.4702872741202,856.7689766267617 570.8196100126075,856.6385298366711 Z M 556.0985223451268,857.5265343418564 C 556.5242923666019,857.7524956481887 556.6647024346128,858.3192351080381 556.5041874607899,858.7526903918961 556.3278641940897,859.2481790383651 555.9624899582202,859.6431755830401 555.6496478956019,860.0562016884117 554.3489901986208,861.7097977641993 553.0482514334712,863.3637910740135 551.7475937364903,865.0174114702515 551.2034641888627,865.6137813457235 550.6591725048981,866.2102241825471 550.1149618891021,866.806602164836 549.6433883523693,867.0667742383166 549.1788677463048,867.421633932719 548.6153629063824,867.4206773283293 548.1418437336035,867.4458895287632 547.6077666388819,867.4783978643711 547.2063170679864,867.1810803560388 546.8445908997034,866.8986064293774 546.7002084914308,866.3831344793493 546.8496981943252,865.9511627429765 547.0065651005618,865.4931762313008 547.3174615271336,865.109942677889 547.578744234524,864.7080391252491 548.3106276606238,863.6463541756605 549.0426732230605,862.5845800510865 549.7743945128231,861.5228951014976 550.1375799081406,861.0892209335843 550.5611610890633,860.7056144665971 551.035572011697,860.396679889705 552.164365191251,859.6191064437839 553.3239642748718,858.8877580675964 554.4753754734645,858.1443143206548 554.8906066330209,857.9059171572597 555.3192140403974,857.6825662459566 555.7816268740789,857.551065569674 555.885961607064,857.5339601861001 555.9923230442641,857.5096397355207 556.0985223451268,857.5266640509264 Z M 561.9189736459336,859.3449987521212 561.9351872796531,859.3657522032822 C 561.9254590994212,859.4390378276946 562.0616536226655,859.4398485093804 562.0643288722292,859.3722376567701 562.1251299986773,859.3551322731958 562.2000369864615,859.4203110807485 562.2445434110218,859.3514842056091 562.3239902162474,859.4449801244527 562.4558881265559,859.3137064390424 562.541496112595,859.3922614944136 L 564.0140183270032,859.4122853320569 563.5338515643991,860.9798680809631 C 562.893494100646,862.2418886887902 562.2530555687244,863.5038930829839 561.6126170368029,864.7659136908112 561.9908000433108,865.1444047563596 562.3689019816506,865.5229687832603 562.7471660563271,865.9014517419923 563.3958735414457,866.301052958644 564.0444188902272,866.7006703889294 564.693045307177,867.1002797123977 566.7830637617935,868.0324744762856 568.8733254209156,868.9646530265395 570.9632628073634,869.8968396836099 570.7542690687188,870.5432286191069 570.5451131937368,871.1896013409698 570.3361194550917,871.8360470241842 569.8777600298407,871.6740403960587 569.4189952637464,871.4878673468741 568.9629057472161,871.3106523303197 567.8999399205636,870.8737840765637 566.8268405728359,870.4598013668028 565.7890058784488,869.9647180611771 565.2563069425934,869.7237915709216 564.7640610228686,869.4049991047284 564.2684913082308,869.0969724913245 563.6888539027579,868.6800307934098 563.1101082471392,868.2608597208587 562.5492786567804,867.8189571338326 561.8469851122189,867.2278404756858 561.132044933356,866.6484219542679 560.4788786989645,866.0023572914459 560.1320690737037,865.6727584383784 559.8841626141321,865.1960208593061 559.9478011264811,864.7073824730833 560.0215731599054,864.1742052350333 560.2514014178798,863.6804271269221 560.4336426608872,863.178525988317 560.9166468093922,861.8967409609857 561.4174859549884,860.6216845916479 561.9190547141023,859.3472362335745 Z M 566.3020052493346,860.3419994099857 566.3165975196825,860.3694004509719 C 565.9835694830833,861.4619156250781 565.6506225146524,862.5544956537197 565.3176755462219,863.6470027210089 565.1966407705057,864.1669901680284 565.0756059947892,864.6870505763989 564.954571219073,865.2070461302349 566.4035836645878,865.6638409398324 567.852677178271,866.1207168175983 569.3016896237857,866.5775116271953 L 569.9638544248914,868.1706065287588 564.98943053157,866.3963729112811 C 564.5462308538466,866.1645746968097 564.0626592281615,865.8484574801798 563.954757495758,865.3230627863154 563.8350198107393,864.8233018473613 564.0236654390662,864.3242056673898 564.1188394689995,863.8375372376641 564.2487917432616,863.303841163335 564.3924445380167,862.7740120406481 564.5310711063189,862.2426101954905 564.7265264608079,861.8082550549609 564.9156584981461,861.3461989212219 565.2855725514573,861.0277874754209 565.6174656336961,860.7896740506158 565.9576276691318,860.5624724013041 566.3014377721549,860.3420804781543 Z M 582.7059870287353,860.9560016121273 582.7157152089669,861.0027779454085 C 582.9568119423762,861.1819872389105 583.1979086757859,861.3612046392291 583.4390864773638,861.5403977190976 583.6321908549633,861.4011226054468 583.8251330962259,861.2618555986132 584.0181564056572,861.1225723781451 584.5917136984854,861.4888302570526 585.1651088549767,861.8551043495938 585.7387472159739,862.221370335318 585.8811839881999,862.2316659927299 585.8480271072436,862.4797832295399 585.7119947203366,862.4676392178838 583.2598447565943,864.3958131807119 580.8080190655266,866.3239628230893 578.355950169953,868.252209747269 579.795882980585,869.7596642355259 581.2358968593853,871.2671835783178 582.675829670017,872.774767775644 L 581.188390912587,874.4791368454244 C 580.7416242354452,874.1996138000996 580.294938626472,873.9201069684088 579.8480908811617,873.6406649912526 579.3705993681213,874.1822895324703 578.892945718744,874.7240599963918 578.4153731375354,875.2657493921445 L 576.8261127603464,874.4772155298287 C 576.3759412201236,874.1882804701297 575.9256886117323,873.8993616240644 575.4753549351722,873.6104427779994 L 573.7597903513085,871.8664394805914 C 573.4566764689219,871.4297171495391 573.1536436547038,870.9930677798382 572.850529772317,870.5563616624193 572.6134864473375,869.710018089077 572.3764431223579,868.8636258748329 572.1393997973782,868.0172985151233 572.4789943556337,867.5783387026177 572.8129141420879,867.1342148477725 573.1834767407475,866.7204672357006 574.9154981628365,865.5446058774589 576.6474385167573,864.3687769464844 578.379541007015,863.1929074814261 579.8173660452631,862.4385195317238 581.2532454474651,861.6801997758441 582.7069598467584,860.9565690893076 Z M 577.0326744539336,861.2907888279854 C 577.0326744539336,861.2843033744976 577.0229462737015,861.2843033744976 577.0083540033541,861.2972742814729 L 576.9872762795188,861.3321335939704 C 577.004300594924,861.3462394553062 577.0391599074212,861.3039218712981 577.0326744539336,861.2936262138862 Z M 576.4008291478829,861.3493200457129 C 576.3911009676513,861.342834592225 576.3911009676513,861.3493200457129 576.3797514240477,861.3641555205663 L 576.3700232438161,861.406473104574 C 576.3943436943951,861.4129585580618 576.412178691487,861.3554001583577 576.4016398295691,861.3487525685327 Z M 587.4446646877745,863.0810334087614 C 587.466553093296,863.0745479552732 587.4892521805032,863.0810334087614 587.5070871775948,863.0928693613764 L 590.9639149547675,866.3317940081759 591.2487074310513,866.6270118509412 C 590.3297997399968,867.2796916763211 589.4107299126051,867.9323715017006 588.491741153382,868.585035113447 587.6246360220612,869.0833935730843 586.7575308907406,869.5816790713695 585.8905068275886,870.0800375310069 587.291445849125,870.49971933302 588.6923848706611,870.9194740963853 590.0934049603661,871.3391558983985 589.8522271587886,871.9390035983029 589.61104935721,872.5389404731934 589.369871555632,873.1387962799149 589.3301481530196,873.2207886256347 589.290424750407,873.3028944667904 589.2511877568049,873.3849030261436 L 587.6014505258423,873.0114381870481 585.3472690298158,872.2889748821394 C 584.8564823371253,872.0792515299774 584.3657767126037,871.8695119641813 583.874908951745,871.6598696801877 583.3910130533854,871.4048697558639 582.9071982231946,871.1498779383567 582.4233023248351,870.8949509753847 582.2148760633706,870.3928228459076 582.0063687337374,869.8907595709654 581.7979424722727,869.388688189206 581.6747999241728,868.8806339766047 581.5514952397358,868.372571657186 581.4282716234674,867.8644282695991 582.8059440806162,866.7310304180689 584.1836165377649,865.597624459722 585.5612889949136,864.4642995695433 L 587.3836203568205,863.1070319704308 C 587.400644672226,863.0943853361294 587.4209117143755,863.0840086105488 587.4444214832686,863.0803605429621 Z M 573.4684313533686,863.517674671645 C 573.4514070379632,863.517674671645 573.4295186324417,863.5241601251332 573.4287079507556,863.5263489656854 L 573.4797808969722,863.5426436675734 C 573.4984265757498,863.5248086704817 573.4895090772038,863.5182421488253 573.4684313533686,863.5174314671395 Z M 569.654255089017,863.5241601251332 C 569.6445269087851,863.5241601251332 569.6429055454132,863.530645578621 569.6364200919254,863.5406169633586 H 569.7158668971511 C 569.6947891733159,863.5471024168462 569.6704687227364,863.5190528305113 569.6534444073308,863.5228630344355 Z M 554.5707116397353,865.3908438820797 C 554.6585895344952,865.3973293355677 554.7475213154467,865.4137861737929 554.834750664858,865.4560226896322 L 554.9197911737169,865.479046049514 554.9643786664456,865.4909630702978 C 555.4538682684383,865.6598685995709 555.9442496202857,865.8311494261839 556.4150935435009,866.04747172727 556.8946928289245,866.2589137246068 557.3654556839711,866.4907849004296 557.8308680398904,866.7312655157577 558.2388030642739,866.9720298696761 558.5738578050882,867.3284460729156 558.7948496326854,867.7470983091875 558.9089125459022,867.9419294387785 558.9846302153724,868.1558926561582 559.0276774128979,868.3770952609937 558.6530614058081,868.3882826682604 558.2807153074387,868.4326269564833 557.9082070727329,868.469529186829 559.1563325964622,869.0071327468845 560.4044581201919,869.5447606273902 561.65266471209,870.0823885078964 562.2292215271569,870.3643435982792 562.8057783422234,870.6463797568303 563.3824972936273,870.9284159153817 564.4941850896069,871.6905134479175 565.6057918174179,872.452683941805 566.7174796133979,873.2147085129895 567.0999592328416,873.5024437637935 567.4758723306291,873.9994078509308 567.2674460691644,874.4974501447105 567.0589387395314,874.9884800419065 566.5427777100699,875.2576912161855 566.0451812912175,875.3661604257695 565.3916097159833,875.5272185563226 564.7185007121166,875.5916028958225 564.0473373442965,875.6207712228841 563.5554967654145,875.6272566763719 563.0517391657485,875.6294455169243 562.5796792200045,875.4736406036962 561.9672902744175,875.2671761919117 561.4169184778082,874.9225391935693 560.8593316141934,874.6031062888439 559.2545872168027,873.6405352821826 557.6619219765328,872.657810728808 556.0651222596649,871.6820499311157 555.2950557261556,871.2037801636572 554.5189090800015,870.7342333311396 553.7524095459103,870.2502563646113 553.3655522453624,869.9854066578028 552.9706691961233,869.7204839896426 552.6545033385924,869.3702046467658 552.381952155767,869.0244732281472 552.1946846863064,868.6157437357113 552.0895392716354,868.1893981302396 551.9107839598774,867.6871889325939 552.1454763079676,867.1299344484705 552.5271452457257,866.7887185268426 552.959076448014,866.418739618997 553.4038974891093,866.0640339541148 553.8401253043333,865.6993893317624 554.043525339345,865.5296731208034 554.3050512512409,865.3827532788535 554.5702252307238,865.3909816979662 Z" id="path1225" inkscape:connector-curvature="0" sodipodi:nodetypes="ccccccccccccccccccccccccccccccccccccccccccccccccccccccccccccccccccccccccccccccccccccccccccccccccccccccccccccccccccccccccccccccccccccccccccscccsccccccccccccccccccccccccccccccccccccccccccccccccccccccccccc" />
            <path style="font-variation-settings:normal;vector-effect:none;fill:#d6336c;fill-opacity:1;stroke-width:0.810301;stroke-linecap:butt;stroke-linejoin:miter;stroke-miterlimit:4;stroke-dasharray:0.810301, 4.8618;stroke-dashoffset:0;stroke-opacity:1;-inkscape-stroke:none;paint-order:fill markers stroke;stop-color:#000000" d="M 666.974213292288,727.5291839897236 656.6731219687728,752.7801190200733 655.9021284743465,781.3078816768712 628.3800890697475,851.0620160299066 644.1973530953788,852.4855697922133 678.3626433907436,796.1761098609648 684.2150310802267,726.5801481481856 Z" id="path2" sodipodi:nodetypes="cccccccc" />
            <path style="font-variation-settings:normal;vector-effect:none;fill:#faa2c1;fill-opacity:1;stroke-width:0.810301;stroke-linecap:butt;stroke-linejoin:miter;stroke-miterlimit:4;stroke-dasharray:0.810301, 4.8618;stroke-dashoffset:0;stroke-opacity:1;-inkscape-stroke:none;paint-order:fill markers stroke;stop-color:#000000" d="M 711.0293302555637,845.3443227725022 712.1946478885793,835.8232184986425 768.8586607599584,826.1835534770892 794.364351420602,810.0096284644394 796.4970020391572,820.6650366454141 772.6859530246267,837.8274364641307 727.0734228236602,839.3928250438953 Z" id="path7" sodipodi:nodetypes="cccccccc" />
            <path style="font-variation-settings:normal;vector-effect:none;fill:#a61e4d;fill-opacity:1;stroke-width:0.810301;stroke-linecap:butt;stroke-linejoin:miter;stroke-miterlimit:4;stroke-dasharray:0.810301, 4.8618;stroke-dashoffset:0;stroke-opacity:1;-inkscape-stroke:none;paint-order:fill markers stroke;stop-color:#000000" d="M 794.364351420602,810.0096284644394 797.0132803434937,804.6879687901164 789.1305757009472,798.1241042267602 791.7724264545187,792.8544844155818 786.2442061117731,789.8065973176599 787.3562148023053,783.6804712807155 781.1702873600883,782.7000592788202 763.617696488895,733.6979169597198 742.9151472352857,712.5420273920634 740.8753102652892,714.4164951629951 742.9151472352857,718.5180718452478 757.6854362129759,748.2172457263562 686.4170980602317,793.9423949200439 701.2976762279058,833.3466803211988 723.9438255756939,833.8244518839379 768.8586607599584,826.1835534770892 Z" id="path8" sodipodi:nodetypes="ccccccccccccccccc" />
            <path id="path1" style="font-variation-settings:normal;vector-effect:none;fill:#faa2c1;fill-opacity:1;stroke-width:0.810301;stroke-linecap:butt;stroke-linejoin:miter;stroke-miterlimit:4;stroke-dasharray:0.810301, 4.8618;stroke-dashoffset:0;stroke-opacity:1;-inkscape-stroke:none;paint-order:fill markers stroke;stop-color:#000000" d="M 675.4364779581848,649.6141376508459 641.524016336607,653.2400381603897 618.0459146966427,687.123999253945 627.8453462484188,703.0589611439236 636.3290034231511,706.1275179943586 V 721.981728388273 L 643.1833804125902,722.0925637750276 645.6233422838598,719.6146011997278 646.1268516122595,726.5813969385899 652.5806378467142,732.0376646922528 658.3804952993166,738.627620116149 663.8309391159089,738.3536819482756 671.6411576431729,729.4361998288552 678.5477856006538,732.4018381058754 679.5405539934414,748.1547132890426 667.955089352248,784.0067941788263 686.4170980602317,793.9423949200439 702.708316550493,792.5268686949209 704.8806901308835,781.170991640576 700.6071942901588,818.3404302700719 696.9147925485622,823.0794347351657 659.568017300259,840.4552566529544 633.1068603939273,847.9318951708874 606.9892931865354,847.0420453515146 602.1552869613659,854.0721755970935 600.3201696292429,854.903440997753 599.390430853793,853.317498458932 591.2490849047113,857.5302396638376 595.3626611159755,870.1116394231547 604.7250845714052,875.2908187099315 628.2063529367053,869.449793827963 719.3573750037047,844.6701680749657 725.6243244433445,835.4629141609926 757.6858351061204,748.2180477957597 740.8752736607804,714.4164215609364 705.5187852860566,705.2978359563669 691.3334391441329,696.5275901387407 692.4924606170528,671.6687962523474 Z" sodipodi:nodetypes="ccccccccccccccccccccccccccccccccccccccc" />
            <path style="font-variation-settings:normal;vector-effect:none;fill:#a61e4d;fill-opacity:1;stroke-width:0.810301;stroke-linecap:butt;stroke-linejoin:miter;stroke-miterlimit:4;stroke-dasharray:0.810301, 4.8618;stroke-dashoffset:0;stroke-opacity:1;-inkscape-stroke:none;paint-order:fill markers stroke;stop-color:#000000" d="M 686.4170980602317,793.9423949200439 667.955089352248,784.0067941788263 676.8705208388945,756.417329213384 677.8651129837777,763.3330512981788 694.9852376874682,762.4524781803886 706.2039662231901,719.1451548520285 717.3214165259395,708.3417837087398 742.9151472352857,712.5420273920634 740.8753102652892,714.4164951629951 713.1111599283692,721.9931415807523 705.5852821444007,761.153339439979 704.8806901308835,781.170991640576 703.4505227726002,793.610109364062 Z" id="path9" sodipodi:nodetypes="cccccccccccccc" />
            <path id="path6" style="fill:#d6336c;fill-opacity:1;stroke-width:0.810301;stroke-dasharray:0.810301, 4.8618;-inkscape-stroke:none;paint-order:fill markers stroke" d="M 719.3573750037047,844.6701680749657 694.9846734563639,851.2965408402242 668.6660191901454,863.0355916602062 662.9152459802485,892.4481365795464 721.925589251076,937.4330533379111 723.4487841376183,943.5685836761131 730.1448248602652,943.7000027775509 764.7254655277065,971.6036030743603 776.0116746246627,975.9926843898432 790.2698554493107,997.5295833989339 803.3183471956654,1004.963471124833 822.4580351255201,995.6311315600938 816.0786669364579,978.3376445010374 787.3960522070301,953.0830099476634 775.1804092240031,936.5574537825496 763.0740182650628,932.0306199149572 H 763.0724349023947 L 756.1246395155482,923.092537654531 727.7301967916823,886.5691109935479 759.7489566624242,884.9667479736095 751.1259635729146,854.5028502427685 Z" />
            <path id="path3" style="fill:#a61e4d;fill-opacity:1;stroke-width:0.810301;stroke-dasharray:0.810301, 4.8618;-inkscape-stroke:none;paint-order:fill markers stroke" d="M 653.6082402181964,635.6837481669193 635.8144105560761,639.8226229124092 632.7300200789618,659.7524088135578 624.900291686082,663.0743036908603 613.0377385780018,683.2415939921975 610.0606303432176,693.4827267844384 614.2275257767756,692.2572610233519 615.1721114543621,702.6963710929692 626.5612391247333,701.5104324546947 V 692.2572610233519 L 630.3565594397449,699.6119806158549 648.151972464533,684.6650370306605 656.4551262951222,689.1728705462376 665.3529742334933,709.8056694719441 H 675.740483590426 L 677.2019273329191,720.911375224757 682.9162832014536,713.038896039843 690.7265958180926,717.1955150277522 696.7168722150718,702.4208659887506 707.2034831647266,697.2654371419928 700.934950362419,697.0691001711703 709.3647732064417,688.4603573456721 711.3898940587156,679.3101044877444 707.4499335258715,681.4249044732248 701.3735418214338,679.9355327415739 712.2470302066675,673.2239602137781 705.5192362277443,659.7524088135578 703.6906405314064,669.2720425735144 692.8736669455405,651.778907955456 676.1489911587501,640.7710571504951 653.6082402181964,642.194500188958 650.2684972371328,640.2803684711601 Z" sodipodi:nodetypes="ccccccccccccccccccccccccccccccccc" />
            <path style="font-variation-settings:normal;vector-effect:none;fill:#c2255c;fill-opacity:1;stroke-width:0.724145;stroke-linecap:butt;stroke-linejoin:miter;stroke-miterlimit:4;stroke-dasharray:0.724145, 4.34486;stroke-dashoffset:0;stroke-opacity:1;-inkscape-stroke:none;paint-order:fill markers stroke" d="M 762.7584104491336,937.6263641392786 769.7244855301037,936.68033180093 773.5612927809735,929.6777475505076 761.3688989278814,932.0757417599684 760.6510027835314,936.0118005405571 Z" id="path12-2" sodipodi:nodetypes="cccccc" />
            <path style="font-variation-settings:normal;vector-effect:none;fill:#d6336c;fill-opacity:1;stroke-width:0.724145;stroke-linecap:butt;stroke-linejoin:miter;stroke-miterlimit:4;stroke-dasharray:0.724145, 4.34486;stroke-dashoffset:0;stroke-opacity:1;-inkscape-stroke:none;paint-order:fill markers stroke" d="M 761.3629583393791,936.5572562410093 773.5612927809735,929.6777475505076 765.7839960798111,927.5584237607182 757.6528748963147,933.7148229647305 Z" id="path12" sodipodi:nodetypes="ccccc" />
            <path style="fill:#faa2c1;fill-opacity:1;stroke-width:0.810301;stroke-dasharray:0.810301, 4.8618;-inkscape-stroke:none;paint-order:fill markers stroke" d="M 694.9852376874682,851.2958205011091 693.0739752573051,867.5198399121582 735.0645302731634,969.7454709958484 763.7542308672026,969.686291232772 753.69496823493,885.2348642209367 759.7493939947479,884.9668865616939 772.1565860957914,859.2869933232344 740.602809379506,838.9285064210865 Z" id="path5" />
            <path style="font-variation-settings:normal;vector-effect:none;fill:#a61e4d;fill-opacity:1;stroke-width:0.810301;stroke-linecap:butt;stroke-linejoin:miter;stroke-miterlimit:4;stroke-dasharray:0.810301, 4.8618;stroke-dashoffset:0;stroke-opacity:1;-inkscape-stroke:none;paint-order:fill markers stroke;stop-color:#000000" d="M 798.743819911135,863.4943027186387 776.698423025482,881.0723966840671 759.7493939947479,884.9668865616939 762.9850059278694,869.4491464848388 751.1253496257683,854.5029187574651 724.9360726371741,846.0116246254211 694.9852376874682,851.2958205011091 722.4908497235246,840.0665411179793 725.6239454899448,835.4635402664797 771.8950898233453,830.8678402928529 795.4306767298794,815.3373325549265 799.6932237386046,827.0393822102023 798.9727596117095,830.7833761298641 801.962874749811,846.1433231277649 Z" id="path4" sodipodi:nodetypes="ccccccccccccccc" />
            <path style="font-variation-settings:normal;vector-effect:none;fill:#d6336c;fill-opacity:1;stroke-width:0.810301;stroke-linecap:butt;stroke-linejoin:miter;stroke-miterlimit:4;stroke-dasharray:0.810301, 4.8618;stroke-dashoffset:0;stroke-opacity:1;-inkscape-stroke:none;paint-order:fill markers stroke;stop-color:#000000" d="M 716.9457918836764,941.5099861001554 721.7310625412293,937.2852629105726 725.0556269250013,945.3788852044699 749.3742780531802,950.9636625496764 760.4206614136815,941.6996775331009 759.6519949689485,935.2464234003897 764.7575305217674,939.1579645749378 766.3546468190376,982.7815845872976 778.3768929101022,1006.150289801224 729.0569745928893,1049.805938511967 700.8231583071369,1047.196089947738 695.6034611786786,1020.860345345061 715.2959548905897,1011.607245890068 730.9550462759651,988.7218191402319 721.2558648432485,954.8876294347599 Z" id="path10" sodipodi:nodetypes="cccccccccccccccc" />
            <path style="font-variation-settings:normal;vector-effect:none;fill:#c2255c;fill-opacity:1;stroke-width:0.810301;stroke-linecap:butt;stroke-linejoin:miter;stroke-miterlimit:4;stroke-dasharray:0.810301, 4.8618;stroke-dashoffset:0;stroke-opacity:1;-inkscape-stroke:none;paint-order:fill markers stroke;stop-color:#000000" d="M 730.9550462759651,988.7218191402319 711.4998115244387,949.6826572297189 739.4605936698719,950.8011739009023 747.540103113292,987.8813498516193 729.2315787077252,1013.711448870465 715.2959548905897,1011.607245890068 Z" id="path11" />
            <path style="font-variation-settings:normal;vector-effect:none;fill:#a61e4d;fill-opacity:1;stroke-width:0.810682;stroke-linecap:butt;stroke-linejoin:bevel;stroke-miterlimit:4;stroke-dasharray:none;stroke-dashoffset:0;stroke-opacity:1;-inkscape-stroke:none;paint-order:fill markers stroke;stop-color:#000000" d="M 696.8688423007291,1039.761975855691 725.1817449066097,1043.083601301073 776.2715077094002,997.5298809072547 780.3839963560641,1007.494757243403 728.5033703519919,1051.624923874915 698.2133097429077,1048.777816350301 Z" id="path13" />
            <path style="baseline-shift:baseline;display:inline;overflow:visible;vector-effect:none;fill:#a61e4d;stroke-width:0.810682;stroke-linejoin:bevel;paint-order:fill markers stroke;enable-background:accumulate;stop-color:#000000" d="M 704.6606027200422,949.2734393686403 702.605397977078,951.9429888267585 705.8069572916184,962.624353384568 708.4749233870691,963.9876286416498 727.1301023405394,957.5132586925124 740.2181781535922,964.790393514287 742.2749662592243,964.7666430742682 750.4292839990284,959.9943879931479 749.8972741426064,956.1943175901324 729.448145286379,950.9407202579634 727.6130279542561,951.3919786183214 727.5132761061769,951.1766412954839 725.6971591260689,949.9685355798585 Z M 707.4077369488887,953.5152679560063 724.2768828129419,954.0741949777832 724.2911330769534,954.1058622311418 709.1605194222796,959.3594595633106 Z M 733.359051076149,956.2291515688266 743.9834145779135,958.9588688083259 741.1998630077046,960.5881489936191 Z M 719.0343690194486,960.9428222312336 717.9370986905778,964.9439796930754 730.0355728361785,968.2627078450425 720.5338134659716,968.7804674374533 719.9638029055194,972.8101254273177 737.7782162823225,979.0232405362481 726.1610843877706,981.2573652606877 725.6924090380653,985.1825213144693 744.8827645732936,993.9337667800805 746.6054631559942,990.1590301797516 733.3273838227908,984.1042513376135 746.1352044436209,981.6405390263249 746.4265431745187,977.6441316524872 731.2468452771397,972.3509502536201 743.0096465371407,971.7096883731112 743.4450712708196,967.6388629538806 Z" id="path15" />
            <path style="font-variation-settings:normal;vector-effect:none;fill:#c2255c;fill-opacity:1;stroke:none;stroke-width:0.810301;stroke-linecap:butt;stroke-linejoin:miter;stroke-miterlimit:4;stroke-dasharray:0.810301, 4.8618;stroke-dashoffset:0;stroke-opacity:1;-inkscape-stroke:none;paint-order:fill markers stroke;stop-color:#000000" d="M 636.6577905764905,703.4652040767382 647.1830066760267,691.9754894076646 652.3356235969773,695.6377279381979 637.4956685469899,706.9843154942085 Z" id="path16" sodipodi:nodetypes="ccccc" />
            <path style="font-variation-settings:normal;vector-effect:none;fill:#c2255c;fill-opacity:1;stroke:none;stroke-width:0.810682;stroke-linecap:butt;stroke-linejoin:bevel;stroke-miterlimit:4;stroke-dasharray:none;stroke-dashoffset:0;stroke-opacity:1;-inkscape-stroke:none;paint-order:fill markers stroke" d="M 600.3201696292429,854.903440997753 599.390430853793,853.317498458932 594.9880872378549,828.4257537354467 597.5950777780353,825.2200519705082 601.2446938968822,826.8791768084961 604.5722900739506,850.5571104743039 602.1538264479536,854.0728371756448 Z" id="path25" />
            <path id="path26" style="font-variation-settings:normal;vector-effect:none;fill:#f06595;fill-opacity:1;stroke:none;stroke-width:1;stroke-linecap:butt;stroke-linejoin:bevel;stroke-miterlimit:4;stroke-dasharray:none;stroke-dashoffset:0;stroke-opacity:1;-inkscape-stroke:none;paint-order:fill markers stroke" d="M 1584.125,143.37109375 1584.494140625,147.89453125 1578.220703125,152.56640625 1581.87109375,154.0078125 1577.564453125,160.376953125 1583.2578125,161.8984375 1583.865234375,167.53515625 1590.9765625,161.8125 1587.853515625,159.556640625 1591.58203125,152.70703125 1587.6796875,150.10546875 1587.130859375,144.41015625 Z" transform="matrix(0.7853333918117452,0.0624699233010646,-0.2237772940536449,0.8190476201425557,-522.3738737920815,522.1061628709047)" />
        </g>
        <g inkscape:label="floor" id="layer17" inkscape:groupmode="layer" style="display:inline" />
        <g inkscape:label="surface" id="layer15" inkscape:groupmode="layer" style="display:inline" />
        <g inkscape:groupmode="layer" id="layer18" inkscape:label="paper" />
    </g>
    <g inkscape:groupmode="layer" id="layer20" inkscape:label="new 1" />
    <g inkscape:groupmode="layer" id="layer6" inkscape:label="new" />
    <g inkscape:groupmode="layer" id="layer21" inkscape:label="new 2" />
</svg>
