<?xml version="1.0" encoding="UTF-8" standalone="no"?>
<svg version="1.1" id="svg3820" width="1080" height="540" viewBox="0 0 1080 540" sodipodi:docname="self-portrait-tablet.svg" inkscape:version="1.4.1 (93de688d07, 2025-03-30)" inkscape:export-filename="/home/elm/Documents/Self-Portrait/export/self-portrait.png" inkscape:export-xdpi="192" inkscape:export-ydpi="192" xmlns:inkscape="http://www.inkscape.org/namespaces/inkscape" xmlns:sodipodi="http://sodipodi.sourceforge.net/DTD/sodipodi-0.dtd" xmlns="http://www.w3.org/2000/svg" xmlns:svg="http://www.w3.org/2000/svg" xmlns:rdf="http://www.w3.org/1999/02/22-rdf-syntax-ns#" xmlns:cc="http://creativecommons.org/ns#" xmlns:dc="http://purl.org/dc/elements/1.1/">
    <sodipodi:namedview pagecolor="#ffffff" bordercolor="#666666" borderopacity="1" objecttolerance="10" gridtolerance="10" guidetolerance="10" inkscape:pageopacity="0" inkscape:pageshadow="2" inkscape:window-width="1849" inkscape:window-height="1024" id="namedview3822" showgrid="false" units="px" inkscape:snap-others="true" inkscape:snap-global="true" inkscape:zoom="0.67493617" inkscape:cx="1891.3196" inkscape:cy="92.781858" inkscape:window-x="71" inkscape:window-y="30" inkscape:window-maximized="1" inkscape:current-layer="layer16" inkscape:snap-bbox="true" inkscape:snap-grids="false" inkscape:bbox-paths="true" inkscape:bbox-nodes="true" inkscape:object-paths="true" inkscape:snap-intersection-paths="true" showguides="true" inkscape:guide-bbox="true" inkscape:snap-bbox-edge-midpoints="true" inkscape:snap-bbox-midpoints="true" inkscape:snap-smooth-nodes="true" inkscape:snap-midpoints="true" inkscape:snap-object-midpoints="true" inkscape:snap-center="true" inkscape:snap-page="true" inkscape:snap-nodes="true" inkscape:snap-to-guides="true" inkscape:showpageshadow="0" inkscape:pagecheckerboard="0" inkscape:deskcolor="#d1d1d1">
        <inkscape:grid spacingy="24" spacingx="24" units="in" id="grid3830" type="xygrid" originx="0" originy="0" />
        <sodipodi:guide id="guide1071" position="408,0" orientation="1056.0,0" inkscape:locked="false" />
        <sodipodi:guide id="guide1073" position="0,352" orientation="0,816.0" inkscape:locked="false" />
        <sodipodi:guide id="guide1075" position="0,704" orientation="0,816.0" inkscape:locked="false" />
        <sodipodi:guide position="0,1056" orientation="0,816" id="guide1181" inkscape:locked="false" />
        <sodipodi:guide position="816,1056" orientation="1056,0" id="guide1183" inkscape:locked="false" />
        <sodipodi:guide position="816,0" orientation="0,-816" id="guide1185" inkscape:locked="false" />
        <sodipodi:guide position="0,0" orientation="-1056,0" id="guide1187" inkscape:locked="false" />
        <sodipodi:guide position="-423.74378,161.74066" orientation="161.74066,0" id="guide926" inkscape:locked="false" />
        <sodipodi:guide position="-423.74378,0" orientation="0,1920" id="guide928" inkscape:locked="false" />
        <sodipodi:guide position="1496.2562,0" orientation="-327.47229,-0.5084" id="guide930" inkscape:locked="false" />
        <sodipodi:guide position="1920,168.0665" orientation="168.0665,0" inkscape:locked="false" id="guide1008" />
        <sodipodi:guide position="1920,0" orientation="0,-960.00019" inkscape:locked="false" id="guide1010" />
        <sodipodi:guide position="959.99981,0" orientation="-141.8027,0" inkscape:locked="false" id="guide1012" />
        <sodipodi:guide position="1920,287.19851" orientation="86.96802,0" inkscape:locked="false" id="guide1088" />
        <sodipodi:guide position="1920,200.23049" orientation="200.23049,0" inkscape:locked="false" id="guide1090" />
        <sodipodi:guide position="1920,0" orientation="0,-2287.4422" inkscape:locked="false" id="guide1092" />
        <sodipodi:guide position="-367.4422,0" orientation="-50.6824,0" inkscape:locked="false" id="guide1094" />
        <sodipodi:guide position="-367.4422,50.68240000000003" orientation="-236.51611,2287.4422" inkscape:locked="false" id="guide1096" />
        <sodipodi:guide position="1080,40.98012904905755" orientation="-114.3450187733761,-208.4524321081263" id="guide17" inkscape:locked="false" />
        <sodipodi:guide position="871.5475678918737,155.3251478224337" orientation="-177.2478298563299,-13.2734131706593" id="guide18" inkscape:locked="false" />
        <sodipodi:guide position="858.2741547212144,332.5729776787636" orientation="0,221.7258452787856" id="guide19" inkscape:locked="false" />
        <sodipodi:guide position="1080,332.5729776787636" orientation="291.592848629706,0" id="guide20" inkscape:locked="false" />
    </sodipodi:namedview>
    <metadata id="metadata3826">
        <rdf:RDF>
            <cc:Work rdf:about="">
                <dc:format>image/svg+xml</dc:format>
                <dc:type rdf:resource="http://purl.org/dc/dcmitype/StillImage" />
            </cc:Work>
        </rdf:RDF>
    </metadata>
    <defs id="defs3824">
        <inkscape:path-effect effect="powerstroke" message="" id="path-effect45" is_visible="true" lpeversion="1.3" scale_width="1" interpolator_type="CubicBezierJohan" interpolator_beta="0.2" start_linecap_type="zerowidth" end_linecap_type="zerowidth" offset_points="0,0.89010672165522" linejoin_type="extrp_arc" miter_limit="4" not_jump="false" sort_points="true" />
        <inkscape:path-effect effect="powerstroke" message="" id="path-effect43" is_visible="true" lpeversion="1.3" scale_width="1" interpolator_type="CubicBezierJohan" interpolator_beta="0.2" start_linecap_type="zerowidth" end_linecap_type="zerowidth" offset_points="0,0.89010672165522" linejoin_type="extrp_arc" miter_limit="4" not_jump="false" sort_points="true" />
        <inkscape:path-effect effect="powerstroke" message="" id="path-effect41" is_visible="true" lpeversion="1.3" scale_width="1" interpolator_type="CubicBezierJohan" interpolator_beta="0.2" start_linecap_type="zerowidth" end_linecap_type="zerowidth" offset_points="8.40197570706689e-16,0.89010672165522" linejoin_type="extrp_arc" miter_limit="4" not_jump="false" sort_points="true" />
        <inkscape:path-effect effect="powerstroke" message="" id="path-effect39" is_visible="true" lpeversion="1.3" scale_width="1" interpolator_type="CubicBezierJohan" interpolator_beta="0.2" start_linecap_type="zerowidth" end_linecap_type="zerowidth" offset_points="0,0.89010672165522" linejoin_type="extrp_arc" miter_limit="4" not_jump="false" sort_points="true" />
        <inkscape:path-effect effect="powerstroke" message="" id="path-effect37" is_visible="true" lpeversion="1.3" scale_width="1" interpolator_type="CubicBezierJohan" interpolator_beta="0.2" start_linecap_type="zerowidth" end_linecap_type="zerowidth" offset_points="0,0.89010672165522" linejoin_type="extrp_arc" miter_limit="4" not_jump="false" sort_points="true" />
        <inkscape:path-effect effect="powerstroke" message="" id="path-effect36" is_visible="true" lpeversion="1.3" scale_width="1" interpolator_type="CubicBezierJohan" interpolator_beta="0.2" start_linecap_type="zerowidth" end_linecap_type="zerowidth" offset_points="0.01037313402978376,0.8901067216552203" linejoin_type="extrp_arc" miter_limit="4" not_jump="false" sort_points="true" />
        <inkscape:path-effect effect="powerstroke" message="" id="path-effect35" is_visible="true" lpeversion="1.3" scale_width="1" interpolator_type="CubicBezierJohan" interpolator_beta="0.2" start_linecap_type="zerowidth" end_linecap_type="zerowidth" offset_points="0.02606882829488448,2.461925459614312" linejoin_type="extrp_arc" miter_limit="4" not_jump="false" sort_points="true" />
        <inkscape:path-effect effect="powerstroke" message="" id="path-effect34" is_visible="true" lpeversion="1.3" scale_width="1" interpolator_type="CubicBezierJohan" interpolator_beta="0.2" start_linecap_type="zerowidth" end_linecap_type="zerowidth" offset_points="0.001186129318461862,2.922934053488965" linejoin_type="extrp_arc" miter_limit="4" not_jump="false" sort_points="true" />
        <inkscape:path-effect effect="powerstroke" message="" id="path-effect33" is_visible="true" lpeversion="1.3" scale_width="1" interpolator_type="CubicBezierJohan" interpolator_beta="0.2" start_linecap_type="zerowidth" end_linecap_type="zerowidth" offset_points="0,4.44441018384093" linejoin_type="extrp_arc" miter_limit="4" not_jump="false" sort_points="true" />
        <inkscape:path-effect effect="powerstroke" message="" id="path-effect32" is_visible="true" lpeversion="1.3" scale_width="1" interpolator_type="CubicBezierJohan" interpolator_beta="0.2" start_linecap_type="zerowidth" end_linecap_type="zerowidth" offset_points="0,4.44441018384093" linejoin_type="extrp_arc" miter_limit="4" not_jump="false" sort_points="true" />
        <inkscape:path-effect effect="powerstroke" message="" id="path-effect30" is_visible="true" lpeversion="1.3" scale_width="1" interpolator_type="CubicBezierJohan" interpolator_beta="0.2" start_linecap_type="zerowidth" end_linecap_type="zerowidth" offset_points="0,4.44441018384093" linejoin_type="extrp_arc" miter_limit="4" not_jump="false" sort_points="true" />
        <inkscape:path-effect effect="powerstroke" message="" id="path-effect28" is_visible="true" lpeversion="1.3" scale_width="1" interpolator_type="CubicBezierJohan" interpolator_beta="0.2" start_linecap_type="zerowidth" end_linecap_type="zerowidth" offset_points="0,4.44441018384093" linejoin_type="extrp_arc" miter_limit="4" not_jump="false" sort_points="true" />
        <inkscape:path-effect effect="powerstroke" message="" id="path-effect26" is_visible="true" lpeversion="1.3" scale_width="1" interpolator_type="CubicBezierJohan" interpolator_beta="0.2" start_linecap_type="zerowidth" end_linecap_type="zerowidth" offset_points="0,4.44441018384093" linejoin_type="extrp_arc" miter_limit="4" not_jump="false" sort_points="true" />
        <inkscape:path-effect effect="powerstroke" message="" id="path-effect23" is_visible="true" lpeversion="1.3" scale_width="1" interpolator_type="CubicBezierJohan" interpolator_beta="0.2" start_linecap_type="zerowidth" end_linecap_type="zerowidth" offset_points="0,4.44441018384093" linejoin_type="extrp_arc" miter_limit="4" not_jump="false" sort_points="true" />
        <inkscape:path-effect effect="powerstroke" message="" id="path-effect20" is_visible="true" lpeversion="1.3" scale_width="1" interpolator_type="CubicBezierJohan" interpolator_beta="0.2" start_linecap_type="zerowidth" end_linecap_type="zerowidth" offset_points="0,4.44441018384093" linejoin_type="extrp_arc" miter_limit="4" not_jump="false" sort_points="true" />
        <inkscape:path-effect effect="powerstroke" message="" id="path-effect18" is_visible="true" lpeversion="1.3" scale_width="1" interpolator_type="CubicBezierJohan" interpolator_beta="0.2" start_linecap_type="zerowidth" end_linecap_type="zerowidth" offset_points="0,4.44441018384093" linejoin_type="extrp_arc" miter_limit="4" not_jump="false" sort_points="true" />
        <clipPath id="clipPath3842" clipPathUnits="userSpaceOnUse">
            <rect style="stroke-width:3.7746" y="0" x="0" height="1056" width="816" id="rect3844" />
        </clipPath>
        <clipPath id="clipPath3842-3" clipPathUnits="userSpaceOnUse">
            <rect style="stroke-width:3.7746" y="0" x="0" height="1056" width="816" id="rect3844-5" />
        </clipPath>
        <clipPath id="clipPath3842-3-9" clipPathUnits="userSpaceOnUse">
            <rect style="stroke-width:3.7746" y="0" x="0" height="1056" width="816" id="rect3844-5-1" />
        </clipPath>
        <clipPath id="clipPath3842-3-9-2" clipPathUnits="userSpaceOnUse">
            <rect style="stroke-width:3.7746" y="0" x="0" height="1056" width="816" id="rect3844-5-1-7" />
        </clipPath>
        <clipPath id="clipPath3842-3-9-2-3" clipPathUnits="userSpaceOnUse">
            <rect style="stroke-width:3.7746" y="0" x="0" height="1056" width="816" id="rect3844-5-1-7-6" />
        </clipPath>
        <inkscape:path-effect effect="fill_between_many" method="bsplinespiro" autoreverse="false" close="false" join="false" linkedpaths="#path18,0,1" id="path-effect19" is_visible="true" lpeversion="0" />
        <inkscape:path-effect effect="fill_between_many" method="bsplinespiro" autoreverse="false" close="false" join="false" linkedpaths="#path20,0,1" id="path-effect21" is_visible="true" lpeversion="0" />
        <inkscape:path-effect effect="fill_between_many" method="bsplinespiro" autoreverse="false" close="false" join="false" linkedpaths="#path23,0,1" id="path-effect24" is_visible="true" lpeversion="0" />
        <inkscape:path-effect effect="fill_between_many" method="bsplinespiro" autoreverse="false" close="false" join="false" linkedpaths="#path26,0,1" id="path-effect27" is_visible="true" lpeversion="0" />
        <inkscape:path-effect effect="fill_between_many" method="bsplinespiro" autoreverse="false" close="false" join="false" linkedpaths="#path28,0,1" id="path-effect29" is_visible="true" lpeversion="0" />
        <inkscape:path-effect effect="fill_between_many" method="bsplinespiro" autoreverse="false" close="false" join="false" linkedpaths="#path30,0,1" id="path-effect31" is_visible="true" lpeversion="0" />
        <inkscape:path-effect effect="fill_between_many" method="bsplinespiro" autoreverse="false" close="false" join="false" linkedpaths="#path37,0,1" id="path-effect38" is_visible="true" lpeversion="0" />
        <inkscape:path-effect effect="fill_between_many" method="bsplinespiro" autoreverse="false" close="false" join="false" linkedpaths="#path39,0,1" id="path-effect40" is_visible="true" lpeversion="0" />
        <inkscape:path-effect effect="fill_between_many" method="bsplinespiro" autoreverse="false" close="false" join="false" linkedpaths="#path40,0,1" id="path-effect42" is_visible="true" lpeversion="0" />
        <inkscape:path-effect effect="fill_between_many" method="bsplinespiro" autoreverse="false" close="false" join="false" linkedpaths="#path42,0,1" id="path-effect44" is_visible="true" lpeversion="0" />
        <inkscape:path-effect effect="fill_between_many" method="bsplinespiro" autoreverse="false" close="false" join="false" linkedpaths="#path44,0,1" id="path-effect46" is_visible="true" lpeversion="0" />
    </defs>
    <g style="display:inline" inkscape:label="bottom" id="layer8" inkscape:groupmode="layer" transform="translate(0,-516)" sodipodi:insensitive="true" />
    <g style="display:inline" inkscape:label="bg" id="layer13" inkscape:groupmode="layer" transform="translate(0,-516)">
        <g style="display:inline;opacity:1" inkscape:label="walls" id="layer16" inkscape:groupmode="layer">
            <path inkscape:connector-curvature="0" id="path1056" d="M 0,516 H 1080 V 879.121363600733 L 5.684341886080802e-14,990.7908098507333 Z" style="display:inline;fill:#51cf66;stroke:none;stroke-width:0.36687px;stroke-linecap:butt;stroke-linejoin:miter;stroke-opacity:1" sodipodi:nodetypes="ccccc" />
            <path sodipodi:nodetypes="cccccc" inkscape:connector-curvature="0" id="path1022" d="M 1080,879.121363600733 V 932.6828698493002 1056 H 5.684341886080802e-14 L 7.105427357601002e-14,990.7908098507333 Z" style="display:inline;fill:#69db7c;stroke:none;stroke-width:0.36687px;stroke-linecap:butt;stroke-linejoin:miter;stroke-opacity:1" />
            <path style="font-variation-settings:normal;display:inline;vector-effect:none;fill:#40c057;fill-opacity:1;stroke-width:0.999531;stroke-linecap:butt;stroke-linejoin:miter;stroke-miterlimit:4;stroke-dasharray:0.999531, 5.99717;stroke-dashoffset:0;stroke-opacity:1;-inkscape-stroke:none;paint-order:fill markers stroke" d="M 1920,473.4604096792679 1581.534998651888,287.7979708106936 1534.761238653152,-336.8000396041204 H 1920 Z" id="path18" transform="matrix(0.6158758845903022,0,0,0.6158758845903022,-102.4816984133802,723.4270223212364)" sodipodi:nodetypes="ccccc" />
            <path id="path880" style="display:inline;fill:#b2f2bb;stroke:none;stroke-width:0.36687px;stroke-linecap:butt;stroke-linejoin:miter;stroke-opacity:1" d="M 898.2684987423776,874.3514976408863 893.784152457704,874.6690586438783 893.8021956965104,874.6762759394008 497.0034836250891,901.3898343835019 548.3018026271415,964.2633577491849 999.2793611107097,917.2559137572277 1003.899633127724,916.9551931104554 Z" sodipodi:nodetypes="cccccccc" />
            <path id="path14" style="font-variation-settings:normal;display:inline;vector-effect:none;fill:#8ce99a;fill-opacity:1;stroke-width:0.615587;stroke-linecap:butt;stroke-linejoin:miter;stroke-miterlimit:4;stroke-dasharray:0.615587, 3.69351;stroke-dashoffset:0;stroke-opacity:1;-inkscape-stroke:none;paint-order:fill markers stroke" d="M 996.5680637594076,795.0743178561042 1003.899633127724,916.9551931104554 548.3018388542865,964.2633623781348 535.2505627843553,1038.779532883213 1039.069514209074,996.9168130872917 1023.739978519194,795.0743178561042 Z" sodipodi:nodetypes="ccccccc" />
            <path style="font-variation-settings:normal;display:inline;vector-effect:none;fill:#51cf66;fill-opacity:1;stroke-width:0.615587;stroke-linecap:butt;stroke-linejoin:miter;stroke-miterlimit:4;stroke-dasharray:0.615587, 3.69351;stroke-dashoffset:0;stroke-opacity:1;-inkscape-stroke:none;paint-order:fill markers stroke" d="M 497.0034836250891,901.3898343835019 483.9484255345408,948.5091238365173 535.2509225465814,1038.779191608332 548.3018026271415,964.2633577491849 Z" id="path19" sodipodi:nodetypes="ccccc" />
            <path style="font-variation-settings:normal;display:inline;vector-effect:none;fill:#51cf66;fill-opacity:1;stroke-width:0.615587;stroke-linecap:butt;stroke-linejoin:miter;stroke-miterlimit:4;stroke-dasharray:0.615587, 3.69351;stroke-dashoffset:0;stroke-opacity:1;-inkscape-stroke:none;paint-order:fill markers stroke;stop-color:#000000" d="M 996.5678423188908,795.0745512590779 896.9482348278157,805.7393290482126 910.5791602783676,866.9929032877397 959.4810410301097,899.0400568021558 1003.899633127724,916.9551931104554 Z" id="path21" />
            <path style="display:inline;fill:#d3f9d8;stroke:none;stroke-width:0.36687px;stroke-linecap:butt;stroke-linejoin:miter;stroke-opacity:1" d="M 836.2357705908624,918.6352089874676 768.0124890009021,921.5005345879709 756.1934612500833,904.4927525094791 822.087377069346,902.0865069521081 Z" id="path1190" inkscape:connector-curvature="0" sodipodi:nodetypes="ccccc" />
            <path style="display:inline;fill:#51cf66;stroke:none;stroke-width:0.36687px;stroke-linecap:butt;stroke-linejoin:miter;stroke-opacity:1" d="M 768.0124890009021,921.5005284292119 767.6281824489178,925.8245560623677 756.1499188250429,908.3888079904328 756.1942618887337,904.4927463507201 Z" id="path1192" inkscape:connector-curvature="0" sodipodi:nodetypes="ccccc" />
            <path style="display:inline;fill:#8ce99a;stroke:none;stroke-width:0.36687px;stroke-linecap:butt;stroke-linejoin:miter;stroke-opacity:1" d="M 836.2357705908624,918.6352089874676 835.4635238191743,922.0514109317016 767.6281824489178,925.8245560623678 768.0124890009021,921.5005345879709 Z" id="path1194" inkscape:connector-curvature="0" sodipodi:nodetypes="ccccc" />
            <path style="display:inline;fill:#2f9e44;fill-rule:nonzero;stroke:none;stroke-width:0.36687" d="M 777.0650638657299,904.1118332748599 C 777.1020164188049,904.1042580014792 777.1411861250653,904.1069062677833 777.1768453387828,904.1220568145439 777.342269601384,904.2176715456265 777.5310355600107,904.2669169813583 777.7048973222307,904.3456074431328 777.4074908575621,904.852916726787 777.1101459804816,905.3602444867185 776.8128011034017,905.8675599291323 776.7467792085734,905.9040813690885 776.7102577686174,906.0136580064746 776.7740009226722,906.0688712795282 L 775.186088129433,910.423286228829 C 774.9430019177851,910.6872567917238 774.6997925309608,910.9511534495118 774.4567063193129,911.2151116948881 774.0487501333601,911.1391310870061 773.6407939474074,911.063212066713 773.2328993490434,910.987231458831 772.9529837594974,910.804655052844 772.6491105980404,910.5869121338472 772.55999335754,910.2456183536429 772.55999335754,910.2406913465662 772.5600549451288,910.2390284816774 772.55999335754,910.2353948139583 772.513802666196,910.203246092783 772.4811612443123,910.1759012035073 772.4860882513894,910.1673035761582 772.5057962796962,910.1392196358209 772.5242725562338,910.1116283961912 772.5445964604252,910.084178808015 772.5372059498101,909.8517965192417 772.6356845037564,909.622000909183 772.7596603193245,909.4285111825214 773.4170462385361,908.3505620979997 774.0861953871435,907.280034317887 774.7480772003127,906.2047827697397 774.9678833035229,905.8491821927359 775.1875662315561,905.4935015518675 775.4073107471782,905.1378578635518 775.5480999743955,904.9471211020944 775.7790534311169,904.8106368473104 776.0213390041145,904.8290330599832 776.4026277642643,904.7126571528308 776.6365374252319,904.3634801613036 776.9628284688876,904.1583380629056 776.9930063872327,904.1357970055294 777.0281113126544,904.1189220062916 777.0659876795567,904.1115930832651 Z M 785.1777505430842,904.5266811119611 785.2085443373134,904.5632025519173 C 785.2159348479285,904.6333508151722 785.1125292869056,904.5097445251349 785.1777505430842,904.5266811119611 Z M 784.3378805992682,904.5452189760874 C 784.6015370654614,904.6262128136695 784.8652551192427,904.7071450636638 785.1290347606128,904.788132742487 L 786.3414480270174,904.9177930924702 C 786.9977869572253,905.1127116511837 787.6541874750215,905.3075994161039 788.3104032300526,905.502499498541 788.2201774129599,905.680241278834 788.129890008279,905.8579153127792 788.0396026035982,906.0356016642424 787.3240164132928,905.7817129895793 786.6083686353989,905.527830473674 785.8928440326818,905.2739417990104 785.808222686139,905.3150207205133 785.6950862861399,905.2897082216566 785.6419977848879,905.2101801686792 785.5951912176593,905.2434374664469 785.6789503379635,905.3111468611989 785.6235215083505,905.3391753727069 785.5582386645837,905.6075802419701 785.4912313683406,905.8760405400629 785.4250247107471,906.1445624257438 L 784.8403121459168,906.0392045381676 C 784.7947373304574,906.1970720036646 784.7500863288246,906.3549394691615 784.7049426264837,906.5128685222471 784.3266100705801,906.4430897845229 783.9482159270878,906.3733479993519 783.5699449587725,906.3036123729398 783.5157478809287,906.4868108135699 783.4610581023771,906.6699969366826 783.406614674179,906.8532076948304 783.524370143313,906.9714497059128 783.6420640248578,907.0896917169955 783.7598194939913,907.2078844580073 783.7468861004151,907.2871846369065 783.7351844586081,907.3664786570476 783.724098692685,907.4457911534656 784.1544727608363,907.5750019140524 784.584846828989,907.7042249921571 785.0152824847292,907.8334542290208 785.0725589419961,907.8126376241217 784.998653835845,907.7240315606059 785.0614731760732,907.7088009499798 785.1858801047603,907.4170790197257 785.3102254458592,907.1254925821665 785.4346939621351,906.8338383982602 785.6809211407944,906.6074177880492 785.9272099070419,906.3810033365972 786.1734986732898,906.1545765676277 786.568028764958,906.2405897936697 786.9626820318037,906.326578384676 787.3571505358837,906.4125238643706 787.7088156659849,906.5627852626929 788.060357620909,906.7130097084624 788.4118995758328,906.8632218367139 788.4115916378908,906.8141981163006 788.4764433685379,906.76585185936 788.5187540418096,906.8058837918586 L 789.664467949913,906.2828080855581 C 789.7391121071252,906.256387010109 789.823610278491,906.244007904829 789.8815641992308,906.1846497870723 L 790.9198077654733,906.5350031015391 790.8619154323216,906.5614241769881 C 790.9081061236662,906.5500920607114 790.9829966312322,906.5663511840648 791.0059072141391,906.506857573613 791.0299263736378,906.5157877739399 791.0682338536596,906.5789150521103 791.1004441624237,906.5406075720889 790.790535417297,906.8682720189674 790.4804419094066,907.1959980534344 790.170471576692,907.5236686590717 790.0022142850219,907.869064172668 789.8342033437057,908.2144042574341 789.6660076396243,908.55979977103 789.37402088274,908.7728312395098 789.0822804762094,908.9859119780602 788.790416894502,909.1989865578522 L 787.7119566329963,908.8084535006744 C 787.547702534576,908.8084535006744 787.431548342742,909.0021772601726 787.4920889421973,909.149519406802 L 787.4032180520508,909.8574810536561 C 786.7090027549406,910.1350070447703 786.0149106330077,910.4125268771256 785.3208800986627,910.6901082970689 784.9678600416158,910.4944814810877 784.6148399845685,910.2988423475889 784.2617583399329,910.1032155316072 784.0978121794547,910.0285282630834 783.9336812562114,909.9537301369 783.7696119205569,909.8789874395461 783.6078829132635,910.283814976005 783.4462154935582,910.6886425124638 783.2845480738527,911.0935316365114 782.6877643416846,910.9325170452441 782.0911653722829,910.7715455652886 781.494504815291,910.6105864028509 781.8455540695075,909.5808542413335 782.196664911313,908.5511898261635 782.5478373407057,907.5215438872703 782.4040919092426,907.3300126459215 782.2602848901908,907.1384321345019 782.1164778711389,906.9468454643238 782.2498150001524,906.5671210289206 782.3830289539897,906.1873288471698 782.5163044954152,905.8076044117674 782.6675636126701,905.4581564348509 782.8187611423371,905.1087022991755 782.9698970844158,904.759254322259 783.1206019133746,904.7902328792538 783.2713683299226,904.8214023577728 783.4220115712931,904.8523993910444 783.4023035429862,904.9401432283217 783.5753646665565,904.9245307746474 783.5432159453806,904.8421758513602 783.8084736888739,904.7430691040118 784.0737930199553,904.6439438803871 784.3391739386249,904.5448432917976 Z M 773.1555453379388,905.2194614182601 C 773.4790033525258,905.3911245035722 773.585673055737,905.8216771757304 773.4637296305878,906.1509736937032 773.3297766256896,906.5273970343647 773.0522013645048,906.8274764003723 772.8145348606411,907.1412528460537 771.8264235914049,908.3974918404054 770.8382507345795,909.6540326139405 769.8501394653428,910.910290084569 769.4367635716058,911.3633530203092 769.0232645026918,911.8164713848789 768.6098270213666,912.2695404793779 768.2515720193001,912.4671935270195 767.8986751374302,912.7367808779811 767.4705798100511,912.736054144437 767.110846705862,912.755207884448 766.705107673094,912.7799045074201 766.4001259350451,912.5540320267464 766.1253221153408,912.33943623352 766.0156346202952,911.9478315523033 766.1292021334137,911.6196620871993 766.2483741170817,911.2717291649588 766.4845625188222,910.9805861580364 766.6830593164256,910.6752595294916 767.2390720650339,909.8686961535147 767.7952079888185,909.0620650311904 768.35109756225,908.2555016552131 768.6270099585466,907.9260388507516 768.9488051082448,907.6346125409221 769.3092156759073,907.3999145588227 770.1667612576105,906.8091910453589 771.0477101229289,906.2535847748345 771.9224386418121,905.6887896361123 772.2378902698986,905.5076790147304 772.5635038500822,905.3379990497674 772.9147994546526,905.2380978225279 772.9940626809992,905.2251028413628 773.0748655970578,905.2066265648254 773.1555453379388,905.2195599584016 Z M 777.5773494265322,906.6009510912613 777.589666944224,906.6167175139064 C 777.5822764336088,906.6723926938739 777.6857435822199,906.673008569758 777.6877759726388,906.6216445209836 777.7339666639834,906.6086495398185 777.7908735957191,906.6581659609397 777.8246851817833,906.605878098338 777.8850410184734,906.6769070641078 777.9852440248963,906.577178282116 778.0502805183086,906.6368566553328 L 779.1689574750788,906.6520687896819 778.8041741886357,907.8429633526792 C 778.3176938273978,908.8017219772564 777.8311518785717,909.7604682843158 777.3446099297451,910.719226908893 777.6319160299068,911.00676704189 777.9191605424797,911.2943626037174 778.2065282302295,911.5818965779559 778.6993521130784,911.8854741189884 779.1920528207508,912.1890639775383 779.6848151160114,912.4926476773296 781.2726047340738,913.2008371982609 782.8605791149012,913.9090144016746 784.4483071453753,914.6171977638473 784.2895343423277,915.1082602416668 784.1306383641035,915.5993104019684 783.9718655610563,916.0904159910993 783.6236493359086,915.967339354323 783.2751251728193,915.8259034574266 782.9286334001486,915.6912729890555 782.1210969402741,915.3593836336084 781.3058620318415,915.0448804543832 780.5174177243893,914.6687650516644 780.1127256806248,914.4857328975225 779.7387658435014,914.2435458646665 779.3622809152517,914.0095376635573 778.9219296577697,913.6927865373537 778.4822558637606,913.3743417524675 778.0561929268011,913.0386278077776 777.5226596479802,912.5895557477696 776.97951870536,912.1493707767765 776.4833075051459,911.6585546493113 776.2198358017178,911.4081579909134 776.0315009562102,911.0459798594622 776.0798472131508,910.6747606700253 776.1358919186485,910.2697052594891 776.3104927319295,909.8945814169442 776.4489416307858,909.5132864980353 776.8158804828244,908.539512819392 777.1963686043245,907.5708509105907 777.5774110141204,906.6026509087029 Z M 780.9071439841578,907.358373730407 780.9182297500802,907.3791903353062 C 780.665227936691,908.2091754711741 780.4122877108893,909.0392098771128 780.1593474850884,909.8691888542221 780.0673972155192,910.2642239641163 779.9754469459496,910.6593145028398 779.8834966763804,911.0543557714925 780.9843132324972,911.4013833561828 782.0851913762022,911.7484725284612 783.186007932319,912.095500113151 L 783.6890553548522,913.305776290236 779.9099793394177,911.9578888054985 C 779.5732799933119,911.7817914138177 779.2059100281543,911.5416367713803 779.1239369479153,911.142493769336 779.032972079761,910.7628247627626 779.1762863981051,910.3836607744149 779.2485902269562,910.0139381633777 779.3473151312558,909.6084885922753 779.4564483380056,909.2059767491423 779.5617631142706,908.8022701067933 779.7102507900451,908.4722899665887 779.85393463392,908.1212653474076 780.1349588000583,907.8793677762173 780.3870983872096,907.6984727113954 780.6455199083836,907.5258673359801 780.9067128710389,907.3584353179951 Z M 793.3692693336656,907.8248319666364 793.3766598442807,907.8603680051776 C 793.559821332358,907.9965135282252 793.7429828204352,908.1326652100315 793.9262058961006,908.2687984155611 794.07290753181,908.1629909385884 794.2194859923425,908.0571896203748 794.3661260404637,907.9513759846435 794.8018582288111,908.2296225505424 795.2374672419822,908.5078814339592 795.6732610179179,908.7861341586174 795.7814704108404,908.7939557823516 795.7562810871611,908.9824507555889 795.6529371137264,908.9732249348378 793.7900357380177,910.4380610913002 791.9273807126629,911.9028787714868 790.0645409245424,913.3677703567789 791.1584596707518,914.5129854054157 792.2524400045499,915.6582497241236 793.3463587507592,916.8035633129018 L 792.2163496777128,918.0983746139055 C 791.8769404777152,917.8860206088991 791.5375928653056,917.6736789214096 791.1981220777197,917.4613865039915 790.8353711816956,917.8728593412447 790.4724971104951,918.2844430361581 790.1096846268833,918.6959651434824 L 788.9023215427324,918.0969149880592 C 788.5603256640191,917.8774106640322 788.2182681977178,917.657918657523 787.8761491438277,917.4384266510138 L 786.5728325968577,916.1135051780122 C 786.3425566036098,915.7817266802251 786.1123421979499,915.4500036112671 785.8820662047014,915.118237430997 785.7019840960474,914.4752691662436 785.5219019873928,913.8322639489371 785.3418198787387,913.1893080017008 785.5998102867938,912.8558296864721 785.8534895636564,912.5184282418581 786.1350064305025,912.2041036666397 787.4508252579298,911.3108003310768 788.7665824977684,910.4175216305493 790.082462912784,909.524212136228 791.1747803816938,908.9511026730632 792.26561974848,908.3750062118588 793.3700083847271,907.825263079756 Z M 789.0592467181261,908.079170230696 C 789.0592467181261,908.0742432236193 789.0518562075105,908.0742432236193 789.0407704415881,908.0840972377725 L 789.0247576685886,908.1105799008103 C 789.0376910621654,908.121296141202 789.0641737252027,908.089147420026 789.0592467181261,908.081325796292 Z M 788.5792330536762,908.1236364695635 C 788.5718425430611,908.1187094624865 788.5718425430611,908.1236364695635 788.5632202806766,908.1349069982511 L 788.5558297700615,908.167055719427 C 788.5743060465996,908.1719827265036 788.5878553160606,908.1282555386975 788.5798489295608,908.1232053564441 Z M 796.9692486418615,909.4392212641545 C 796.9858772907456,909.4342942570774 797.0031218155139,909.4392212641545 797.0166710849748,909.4482130520691 L 799.6428274444565,911.9088281325321 799.8591846427127,912.133105494664 C 799.1610893275296,912.6289471693479 798.46287083717,913.1247888440316 797.7647139343981,913.6206182011975 797.1059730882403,913.9992217424908 796.4472322420825,914.3777698549538 795.7885529835134,914.7563733962466 796.8528480996736,915.0752061829405 797.9171432158343,915.3940943984639 798.9814999195832,915.7129271851573 798.7982768439185,916.1686322284422 798.6150537682519,916.6244050180746 798.4318306925864,917.080116220118 798.4016527742421,917.1424059070858 798.371474855897,917.204781816677 798.3416664630825,917.2670838211621 L 797.0883590379413,916.9833621186492 795.3758545532492,916.4345058478196 C 795.0030032927186,916.2751787564766 794.6302136197757,916.1158393476149 794.2573007716565,915.9565738438601 793.8896844561446,915.7628500843619 793.5221297282213,915.5691324836234 793.1545134127089,915.3754641529551 792.9961717227811,914.9939967887986 792.8377684452642,914.6125786947128 792.679426755336,914.2311544418685 792.5858752084668,913.8451850249955 792.4922004864207,913.4592094493641 792.3985873519628,913.0731722861437 793.4452068302358,912.2121285294163 794.4918263085087,911.3510786139294 795.5384457867812,910.4900902860307 L 796.9228731877518,909.4589724037731 C 796.9358065813281,909.4493647399738 796.951203478443,909.4414815286509 796.9690638790959,909.4387100871703 Z M 786.3514868039362,909.7709381743535 C 786.3385534103599,909.7709381743535 786.3219247614757,909.77586518143 786.3213088855911,909.7775280463188 L 786.3601090663205,909.7899071515987 C 786.3742742116662,909.7763578821377 786.3674995769356,909.7713692874729 786.3514868039362,909.7707534115882 Z M 783.4538523545271,909.77586518143 C 783.446461843912,909.77586518143 783.4452300921427,909.7807921885071 783.4403030850662,909.7883674618874 H 783.5006589217558 C 783.4846461487569,909.7932944689639 783.4661698722189,909.771985163357 783.4532364786425,909.7748797800146 Z M 771.9948656458402,911.1939871520468 C 772.0616265917294,911.1989141591235 772.1291881762691,911.2114164395807 772.1954564214513,911.243503573168 L 772.2600618017447,911.2609944482901 772.293934975397,911.2700478237934 C 772.6658008345127,911.3983655643479 773.0383441571012,911.5284878212438 773.3960448708712,911.6928281422882 773.7603970441948,911.8534608905073 774.1180361703768,912.0296137110176 774.4716105157201,912.2123071334225 774.781519260846,912.3952161123869 775.0360607639471,912.665985945047 775.2039485300864,912.984036569367 775.2906022670482,913.1320500207109 775.3481250746691,913.2945981429309 775.3808280841408,913.4626460368001 775.0962318378716,913.4711451240075 774.8133600440793,913.5048335348947 774.5303650751097,913.5328682051612 775.4785675870251,913.9412862980273 776.4267700989405,914.3497228671699 777.3750341984441,914.7581594363125 777.8130451275644,914.9723610689726 778.2510560566854,915.1866242892217 778.6891901609827,915.4008875094707 779.5337407615214,915.9798539522975 780.3782297744718,916.5588758239539 781.2227803750105,917.1377868379511 781.51335061736,917.3563796656685 781.7989322650447,917.7339239004403 781.6405905751165,918.1122872501382 781.4821872976,918.4853232734348 781.0900591218812,918.6898433371892 780.7120345039197,918.7722475305478 780.2155153657631,918.894603592539 779.7041536187874,918.9435164552934 779.1942699739355,918.9656756696208 778.8206180747541,918.9706026766979 778.4379128000699,918.9722655415862 778.0792882724732,918.8539003553268 777.6140556292533,918.6970490850393 777.195937491205,918.435227928982 776.7723380577841,918.1925543541771 775.5532117442372,917.4612879638499 774.3432619813713,916.7147108990319 773.130171251494,915.973424208062 772.5451507487216,915.6100820711892 771.9555111768148,915.2533667588346 771.3732005279348,914.8856888557345 771.0793045558083,914.6844822042387 770.7793114124243,914.4832201239136 770.5391198174339,914.2171124716999 770.3320623450349,913.9544598831986 770.1897950156943,913.6439475797053 770.1099159134631,913.320052293241 769.974115280911,912.9385233414958 770.1524113494998,912.5151764171876 770.4423657159651,912.2559542573633 770.7705043872747,911.9748808211543 771.1084354851493,911.7054104866106 771.4398382986472,911.4283895137217 771.5943615580912,911.2994558972826 771.7930431184597,911.1878407107185 771.9944961203094,911.1940918509468 Z" id="path1225" inkscape:connector-curvature="0" sodipodi:nodetypes="ccccccccccccccccccccccccccccccccccccccccccccccccccccccccccccccccccccccccccccccccccccccccccccccccccccccccccccccccccccccccccccccccccccccccccscccsccccccccccccccccccccccccccccccccccccccccccccccccccccccccccc" />
            <path style="font-variation-settings:normal;vector-effect:none;fill:#2f9e44;fill-opacity:1;stroke-width:0.615587;stroke-linecap:butt;stroke-linejoin:miter;stroke-miterlimit:4;stroke-dasharray:0.615587, 3.69351;stroke-dashoffset:0;stroke-opacity:1;-inkscape-stroke:none;paint-order:fill markers stroke;stop-color:#000000" d="M 857.3879455794444,806.4603127567702 849.5621936957419,825.6434794886222 848.9764689796082,847.3160562416926 828.0679414314422,900.3083588206657 840.0843365740663,901.3898343835019 866.0397500821346,858.6114676757595 870.4858162849053,805.7393290482126 Z" id="path2" sodipodi:nodetypes="cccccccc" />
            <path style="font-variation-settings:normal;vector-effect:none;fill:#fff5f5;fill-opacity:1;stroke-width:0.615587;stroke-linecap:butt;stroke-linejoin:miter;stroke-miterlimit:4;stroke-dasharray:0.615587, 3.69351;stroke-dashoffset:0;stroke-opacity:1;-inkscape-stroke:none;paint-order:fill markers stroke;stop-color:#000000" d="M 890.8566727011135,895.9646201453831 891.741965955515,888.7314253929007 934.7896869726176,881.4081598930132 954.1663918734889,869.1208089551879 955.7865691994918,877.2157357959523 937.6972856637719,890.2540322727143 903.0453897694178,891.443259922687 Z" id="path7" sodipodi:nodetypes="cccccccc" />
            <path style="font-variation-settings:normal;vector-effect:none;fill:#40c057;fill-opacity:1;stroke-width:0.615587;stroke-linecap:butt;stroke-linejoin:miter;stroke-miterlimit:4;stroke-dasharray:0.615587, 3.69351;stroke-dashoffset:0;stroke-opacity:1;-inkscape-stroke:none;paint-order:fill markers stroke;stop-color:#000000" d="M 954.1663918734889,869.1208089551879 956.1787864690787,865.0779374852799 950.1902859531899,860.0913614169949 952.1973032547476,856.0880246958081 947.9975073882649,853.7725410787054 948.8423017727939,849.1185155130857 944.1428450052499,848.3736952965016 930.8081199008777,811.1467068623934 915.0803674976876,795.0745512590779 913.5307008158716,796.498586754795 915.0803674976876,799.6145596589492 926.3013743949018,822.1770589753032 872.158729306992,856.9145116584235 883.4635230389371,886.8499962609262 900.6678308497528,887.2129599110542 934.7896869726176,881.4081598930132 Z" id="path8" sodipodi:nodetypes="ccccccccccccccccc" />
            <path id="path1" style="font-variation-settings:normal;vector-effect:none;fill:#ebfbee;fill-opacity:1;stroke-width:0.615587;stroke-linecap:butt;stroke-linejoin:miter;stroke-miterlimit:4;stroke-dasharray:0.615587, 3.69351;stroke-dashoffset:0;stroke-opacity:1;-inkscape-stroke:none;paint-order:fill markers stroke;stop-color:#000000" d="M 863.8167385655201,747.2681551973688 838.0533993152173,750.0227563218062 820.2170563138404,775.7644436855415 827.6616966453427,787.8702540420197 834.1067415469734,790.2014404958008 V 802.2459038403374 L 839.3140202664877,802.3301056214337 841.1676623331943,800.4475943726372 841.5501789958891,805.7402777558352 846.4531284208695,809.8854111509488 850.859287337382,814.8918084784188 854.999996280263,814.6836973117542 860.9334290042645,807.9090750603592 866.1804028491528,810.1620741459795 866.9346102312583,822.1295530049424 858.1331183415179,849.3664234244311 872.158729306992,856.9145116584235 884.5351882455655,855.8391346255646 886.1855431550536,847.2120607109518 882.9389630524966,875.4497294428997 880.1338408594018,879.0499570260617 851.7614492776998,892.2503905367921 831.6588754822446,897.9304021130327 811.8173272081878,897.254382099088 808.1449266698008,902.5951807857694 806.7507857513628,903.2266941439919 806.0444620479007,902.0218516257737 799.8594714099218,905.222276355975 802.9845603711828,914.7803813929956 810.0972051086482,918.7150103353684 827.9359538751997,914.277576471592 897.1834986488215,895.4524639836264 901.9445079285256,888.4577017396959 926.3016774345197,822.1776683084259 913.5306730073807,796.4985308392192 886.6703048376514,789.5711300201653 875.893679739908,782.9083633702714 876.7741897936583,764.0231067529515 Z" sodipodi:nodetypes="ccccccccccccccccccccccccccccccccccccccc" />
            <path style="font-variation-settings:normal;vector-effect:none;fill:#40c057;fill-opacity:1;stroke-width:0.615587;stroke-linecap:butt;stroke-linejoin:miter;stroke-miterlimit:4;stroke-dasharray:0.615587, 3.69351;stroke-dashoffset:0;stroke-opacity:1;-inkscape-stroke:none;paint-order:fill markers stroke;stop-color:#000000" d="M 872.158729306992,856.9145116584235 858.1331183415179,849.3664234244311 864.9061827246458,828.4066725938755 865.6617756134854,833.6605552585895 878.6679556328101,832.9915827663686 887.1908376473363,800.0909553987238 895.6367784623747,791.8836209115575 915.0803674976876,795.0745512590779 913.5307008158716,796.498586754795 892.4382412914544,802.2545744568515 886.7208225835971,832.0046254503279 886.1855431550536,847.2120607109518 885.0990432351329,856.6620739084811 Z" id="path9" sodipodi:nodetypes="cccccccccccccc" />
            <path id="path6" style="fill:#37b24d;fill-opacity:1;stroke-width:0.615587;stroke-dasharray:0.615587, 3.69351;-inkscape-stroke:none;paint-order:fill markers stroke" d="M 897.1834986488215,895.4524639836264 878.6675269857388,900.4865276106003 858.6732126231214,909.4046991112885 854.3043430668087,931.7494460490803 899.1345742050826,965.924543230907 900.2917472538638,970.5857132558824 905.3787377146686,970.6855525106109 931.6496934167237,991.8839523429054 940.2238404975048,995.2183428743203 951.0557981942538,1011.579951823924 960.9687535944658,1017.227485570314 975.5091983072159,1010.137695602003 970.6627843638276,996.9998119858013 948.8725662986847,977.8138347217086 939.5923271392817,965.2593491602458 930.3950868783888,961.8203078437544 H 930.3938839958018 L 925.1156352036489,955.0300356396287 903.5443417693558,927.2831430032139 927.8690334454987,926.0658258250781 921.3181348762036,902.9223648494585 Z" />
            <path id="path3" style="fill:#2b8a3e;fill-opacity:1;stroke-width:0.615587;stroke-dasharray:0.615587, 3.69351;-inkscape-stroke:none;paint-order:fill markers stroke" d="M 847.2337992198914,736.6852209896411 833.7158047061692,739.8295292788019 831.3725894265171,754.9702124025092 825.4243350333549,757.4938600702248 816.412338690873,772.8149755819955 814.1506258640814,780.5951768949554 817.3162215047997,779.6641890328885 818.0338244182712,787.5947939295756 826.6861588672128,786.6938348718449 V 779.6641890328885 L 829.5694684284685,785.2515786499235 843.0886658247777,773.8963670277901 849.3965821114801,777.3209737532364 856.1562882511252,792.995736745612 H 864.0476920222415 L 865.1579526501261,801.4327552114641 869.4991559069353,795.4520229884506 875.4326601107518,798.6098116006345 879.9834805360154,787.3854923594218 887.9501719103153,783.4689066558554 883.1879597480244,783.3197492150566 889.5921066416941,776.7796765890459 891.1305934705826,769.8282181182503 888.137400556038,771.4348342961153 883.5211582246487,770.303356740151 891.781760867683,765.2045667476661 886.6706474186122,754.9702124025092 885.2814609949873,762.2022900037516 877.0637927152857,748.9127338887949 864.3580357297107,740.5500559484687 847.2337992198914,741.6314473942634 844.6965923255614,740.1772791488059 Z" sodipodi:nodetypes="ccccccccccccccccccccccccccccccccc" />
            <path style="font-variation-settings:normal;vector-effect:none;fill:#2b8a3e;fill-opacity:1;stroke-width:0.550134;stroke-linecap:butt;stroke-linejoin:miter;stroke-miterlimit:4;stroke-dasharray:0.550134, 3.30079;stroke-dashoffset:0;stroke-opacity:1;-inkscape-stroke:none;paint-order:fill markers stroke" d="M 930.1553192282966,966.0714016870092 935.4474551267986,965.3526997435584 938.3622823647979,960.0328277836398 929.0997055983077,961.8545869654999 928.5543190050326,964.844815714006 Z" id="path12-2" sodipodi:nodetypes="cccccc" />
            <path style="font-variation-settings:normal;vector-effect:none;fill:#2f9e44;fill-opacity:1;stroke-width:0.550134;stroke-linecap:butt;stroke-linejoin:miter;stroke-miterlimit:4;stroke-dasharray:0.550134, 3.30079;stroke-dashoffset:0;stroke-opacity:1;-inkscape-stroke:none;paint-order:fill markers stroke" d="M 929.0951925258376,965.2591990876924 938.3622823647979,960.0328277836398 932.4538603930109,958.4227748660172 926.2766375221577,963.0997989942901 Z" id="path12" sodipodi:nodetypes="ccccc" />
            <path style="fill:#fff5f5;fill-opacity:1;stroke-width:0.615587;stroke-dasharray:0.615587, 3.69351;-inkscape-stroke:none;paint-order:fill markers stroke" d="M 878.6679556328101,900.4859803680791 877.2159671887354,912.8113880826404 909.1162440325058,990.4723270930268 930.9118452378029,990.4273681534516 923.2698109114528,926.2695140714663 927.8693656874088,926.0659311106179 937.2951249498819,906.5568842948298 913.3236815541978,891.0905164877474 Z" id="path5" />
            <path style="font-variation-settings:normal;vector-effect:none;fill:#2f9e44;fill-opacity:1;stroke-width:0.615587;stroke-linecap:butt;stroke-linejoin:miter;stroke-miterlimit:4;stroke-dasharray:0.615587, 3.69351;stroke-dashoffset:0;stroke-opacity:1;-inkscape-stroke:none;paint-order:fill markers stroke;stop-color:#000000" d="M 957.4934795298397,909.7531824726011 940.7455641112999,923.1072823093666 927.8693656874088,926.0659311106179 930.3274640951717,914.2770846842156 921.3176684597938,902.9224169001587 901.4216421758156,896.4715701925648 878.6679556328101,900.4859803680791 899.5640032886736,891.9550828616612 901.9442200371568,888.4581773928125 937.0964659066397,884.9668184099598 954.9764805364898,873.1682723755701 958.2147427977666,882.0583340454352 957.6674053049598,884.90265088034 959.9389994923708,896.5716217085091 Z" id="path4" sodipodi:nodetypes="ccccccccccccccc" />
            <path style="font-variation-settings:normal;vector-effect:none;fill:#40c057;fill-opacity:1;stroke-width:0.615587;stroke-linecap:butt;stroke-linejoin:miter;stroke-miterlimit:4;stroke-dasharray:0.615587, 3.69351;stroke-dashoffset:0;stroke-opacity:1;-inkscape-stroke:none;paint-order:fill markers stroke;stop-color:#000000" d="M 895.3514159547106,969.0217941183962 898.9867920217967,965.8122666595404 901.5124677168956,971.9610015773505 919.9873772093518,976.203763868909 928.3793283800217,969.1659029358094 927.7953715264327,964.2633577491849 931.6740532325718,967.2349604419039 932.8873844689736,1000.37587879357 942.0206997691427,1018.129113194096 904.5522965142428,1051.294363787739 883.1030311846585,1049.311658589206 879.137620787593,1029.304360676736 894.0980327401598,1022.274769518301 905.9942639313578,1004.888682367706 898.6257837399258,979.1848063893684 Z" id="path10" sodipodi:nodetypes="cccccccccccccccc" />
            <path style="font-variation-settings:normal;vector-effect:none;fill:#37b24d;fill-opacity:1;stroke-width:0.615587;stroke-linecap:butt;stroke-linejoin:miter;stroke-miterlimit:4;stroke-dasharray:0.615587, 3.69351;stroke-dashoffset:0;stroke-opacity:1;-inkscape-stroke:none;paint-order:fill markers stroke;stop-color:#000000" d="M 905.9942639313578,1004.888682367706 891.2140979059305,975.2305825349269 912.4559388597068,976.0803210404468 918.5939522274658,1004.250176804365 904.6849434773326,1023.873335138233 894.0980327401598,1022.274769518301 Z" id="path11" />
            <path style="font-variation-settings:normal;vector-effect:none;fill:#2b8a3e;fill-opacity:1;stroke-width:0.615876;stroke-linecap:butt;stroke-linejoin:bevel;stroke-miterlimit:4;stroke-dasharray:none;stroke-dashoffset:0;stroke-opacity:1;-inkscape-stroke:none;paint-order:fill markers stroke;stop-color:#000000" d="M 880.0989323990029,1043.663952872172 901.6082797042996,1046.187395852123 940.4212360149766,1011.580177841366 943.5454987520588,1019.150506781219 904.1317226842506,1052.67624922914 881.1203259861258,1050.513298103468 Z" id="path13" />
            <path style="baseline-shift:baseline;display:inline;overflow:visible;vector-effect:none;fill:#2b8a3e;stroke-width:0.615876;stroke-linejoin:bevel;paint-order:fill markers stroke;enable-background:accumulate;stop-color:#000000" d="M 886.0183424754484,974.9196992171689 884.4570008774047,976.9477592590036 886.8892294685018,985.0624051915158 888.9160866277493,986.0980870990007 903.0884492688487,981.1795002003879 913.0314767337388,986.7079485706555 914.5940212143686,986.6899053318492 920.7888665378848,983.0644172143586 920.3846979886218,980.1774990053412 904.8494693763486,976.1863345813751 903.4553284579118,976.529156118696 903.3795468549246,976.365564086852 901.9998405275316,975.4477646729019 Z M 888.1053437640499,978.1422216679842 900.9208548469117,978.5668392212271 900.9316807901958,978.5908968729693 889.4369347879594,982.5820612969353 Z M 907.8205893664628,980.2039624222575 915.8919315258386,982.2777320024014 913.7772639377336,983.5154981845173 Z M 896.9381106010554,983.7849438840255 896.1045129682015,986.8246281816033 905.2957388161597,989.3458700841448 898.0772404110298,989.739212690123 897.6442026796778,992.8005488742685 911.1778346670316,997.5206601460114 902.3522851255497,999.2179274763957 901.9962318797706,1002.199873409793 916.5751688353068,1008.848205468642 917.8839050900606,1005.980533381018 907.7965317147206,1001.380710367985 917.5266489616948,999.5090250624715 917.7479793577198,996.4729494126554 906.2159439952838,992.4517129240123 915.1521587347788,991.9645454762403 915.4829514462287,988.8719343448309 Z" id="path15" />
            <path style="font-variation-settings:normal;vector-effect:none;fill:#2b8a3e;fill-opacity:1;stroke:none;stroke-width:0.615587;stroke-linecap:butt;stroke-linejoin:miter;stroke-miterlimit:4;stroke-dasharray:0.615587, 3.69351;stroke-dashoffset:0;stroke-opacity:1;-inkscape-stroke:none;paint-order:fill markers stroke;stop-color:#000000" d="M 834.3565215560789,788.1788773030771 842.3525413107332,779.4501267861825 846.2669907907686,782.2323339503366 834.9930584918288,790.8523506215168 Z" id="path16" sodipodi:nodetypes="ccccc" />
            <path style="font-variation-settings:normal;vector-effect:none;fill:#2f9e44;fill-opacity:1;stroke:none;stroke-width:0.615876;stroke-linecap:butt;stroke-linejoin:bevel;stroke-miterlimit:4;stroke-dasharray:none;stroke-dashoffset:0;stroke-opacity:1;-inkscape-stroke:none;paint-order:fill markers stroke" d="M 806.7507857513628,903.2266941439919 806.0444620479007,902.0218516257737 802.6999961303439,883.1115622165541 804.680530084454,880.6761866007407 807.4531479867596,881.9366258026085 809.981126938994,899.9247814424287 808.143817115946,902.5956833878176 Z" id="path25" />
            <path id="path26" style="font-variation-settings:normal;vector-effect:none;fill:#8ce99a;fill-opacity:1;stroke:none;stroke-width:1;stroke-linecap:butt;stroke-linejoin:bevel;stroke-miterlimit:4;stroke-dasharray:none;stroke-dashoffset:0;stroke-opacity:1;-inkscape-stroke:none;paint-order:fill markers stroke" d="M 1584.125,143.37109375 1584.494140625,147.89453125 1578.220703125,152.56640625 1581.87109375,154.0078125 1577.564453125,160.376953125 1583.2578125,161.8984375 1583.865234375,167.53515625 1590.9765625,161.8125 1587.853515625,159.556640625 1591.58203125,152.70703125 1587.6796875,150.10546875 1587.130859375,144.41015625 Z" transform="matrix(0.596618754002903,0.0474584783878289,-0.170003888468849,0.6222314951757872,-46.16127465046511,650.4001882526016)" />
        </g>
        <g inkscape:label="floor" id="layer17" inkscape:groupmode="layer" style="display:inline" />
        <g inkscape:label="surface" id="layer15" inkscape:groupmode="layer" style="display:inline" />
        <g inkscape:groupmode="layer" id="layer18" inkscape:label="paper" />
    </g>
    <g inkscape:groupmode="layer" id="layer20" inkscape:label="new 1" />
    <g inkscape:groupmode="layer" id="layer6" inkscape:label="new" />
    <g inkscape:groupmode="layer" id="layer21" inkscape:label="new 2" />
</svg>
