<?xml version="1.0" encoding="UTF-8" standalone="no"?>
<svg version="1.1" id="svg3820" width="1080" height="540" viewBox="0 0 1080 540" sodipodi:docname="self-portrait-tablet.svg" inkscape:version="1.4.1 (93de688d07, 2025-03-30)" inkscape:export-filename="/home/elm/Documents/Self-Portrait/export/self-portrait.png" inkscape:export-xdpi="192" inkscape:export-ydpi="192" xmlns:inkscape="http://www.inkscape.org/namespaces/inkscape" xmlns:sodipodi="http://sodipodi.sourceforge.net/DTD/sodipodi-0.dtd" xmlns="http://www.w3.org/2000/svg" xmlns:svg="http://www.w3.org/2000/svg" xmlns:rdf="http://www.w3.org/1999/02/22-rdf-syntax-ns#" xmlns:cc="http://creativecommons.org/ns#" xmlns:dc="http://purl.org/dc/elements/1.1/">
    <sodipodi:namedview pagecolor="#ffffff" bordercolor="#666666" borderopacity="1" objecttolerance="10" gridtolerance="10" guidetolerance="10" inkscape:pageopacity="0" inkscape:pageshadow="2" inkscape:window-width="1849" inkscape:window-height="1024" id="namedview3822" showgrid="false" units="px" inkscape:snap-others="true" inkscape:snap-global="true" inkscape:zoom="0.67493617" inkscape:cx="1891.3196" inkscape:cy="92.781858" inkscape:window-x="71" inkscape:window-y="30" inkscape:window-maximized="1" inkscape:current-layer="layer16" inkscape:snap-bbox="true" inkscape:snap-grids="false" inkscape:bbox-paths="true" inkscape:bbox-nodes="true" inkscape:object-paths="true" inkscape:snap-intersection-paths="true" showguides="false" inkscape:guide-bbox="true" inkscape:snap-bbox-edge-midpoints="true" inkscape:snap-bbox-midpoints="true" inkscape:snap-smooth-nodes="true" inkscape:snap-midpoints="true" inkscape:snap-object-midpoints="true" inkscape:snap-center="true" inkscape:snap-page="true" inkscape:snap-nodes="true" inkscape:snap-to-guides="true" inkscape:showpageshadow="0" inkscape:pagecheckerboard="0" inkscape:deskcolor="#d1d1d1">
        <inkscape:grid spacingy="24" spacingx="24" units="in" id="grid3830" type="xygrid" originx="0" originy="0" />
        <sodipodi:guide id="guide1071" position="408,0" orientation="1056.0,0" inkscape:locked="false" />
        <sodipodi:guide id="guide1073" position="0,352" orientation="0,816.0" inkscape:locked="false" />
        <sodipodi:guide id="guide1075" position="0,704" orientation="0,816.0" inkscape:locked="false" />
        <sodipodi:guide position="0,1056" orientation="0,816" id="guide1181" inkscape:locked="false" />
        <sodipodi:guide position="816,1056" orientation="1056,0" id="guide1183" inkscape:locked="false" />
        <sodipodi:guide position="816,0" orientation="0,-816" id="guide1185" inkscape:locked="false" />
        <sodipodi:guide position="0,0" orientation="-1056,0" id="guide1187" inkscape:locked="false" />
        <sodipodi:guide position="-423.74378,161.74066" orientation="161.74066,0" id="guide926" inkscape:locked="false" />
        <sodipodi:guide position="-423.74378,0" orientation="0,1920" id="guide928" inkscape:locked="false" />
        <sodipodi:guide position="1496.2562,0" orientation="-327.47229,-0.5084" id="guide930" inkscape:locked="false" />
        <sodipodi:guide position="1920,168.0665" orientation="168.0665,0" inkscape:locked="false" id="guide1008" />
        <sodipodi:guide position="1920,0" orientation="0,-960.00019" inkscape:locked="false" id="guide1010" />
        <sodipodi:guide position="959.99981,0" orientation="-141.8027,0" inkscape:locked="false" id="guide1012" />
        <sodipodi:guide position="1920,287.19851" orientation="86.96802,0" inkscape:locked="false" id="guide1088" />
        <sodipodi:guide position="1920,200.23049" orientation="200.23049,0" inkscape:locked="false" id="guide1090" />
        <sodipodi:guide position="1920,0" orientation="0,-2287.4422" inkscape:locked="false" id="guide1092" />
        <sodipodi:guide position="-367.4422,0" orientation="-50.6824,0" inkscape:locked="false" id="guide1094" />
        <sodipodi:guide position="-367.4422,50.68240000000003" orientation="-236.51611,2287.4422" inkscape:locked="false" id="guide1096" />
    </sodipodi:namedview>
    <metadata id="metadata3826">
        <rdf:RDF>
            <cc:Work rdf:about="">
                <dc:format>image/svg+xml</dc:format>
                <dc:type rdf:resource="http://purl.org/dc/dcmitype/StillImage" />
            </cc:Work>
        </rdf:RDF>
    </metadata>
    <defs id="defs3824">
        <inkscape:path-effect effect="powerstroke" message="" id="path-effect45" is_visible="true" lpeversion="1.3" scale_width="1" interpolator_type="CubicBezierJohan" interpolator_beta="0.2" start_linecap_type="zerowidth" end_linecap_type="zerowidth" offset_points="0,0.89010672165522" linejoin_type="extrp_arc" miter_limit="4" not_jump="false" sort_points="true" />
        <inkscape:path-effect effect="powerstroke" message="" id="path-effect43" is_visible="true" lpeversion="1.3" scale_width="1" interpolator_type="CubicBezierJohan" interpolator_beta="0.2" start_linecap_type="zerowidth" end_linecap_type="zerowidth" offset_points="0,0.89010672165522" linejoin_type="extrp_arc" miter_limit="4" not_jump="false" sort_points="true" />
        <inkscape:path-effect effect="powerstroke" message="" id="path-effect41" is_visible="true" lpeversion="1.3" scale_width="1" interpolator_type="CubicBezierJohan" interpolator_beta="0.2" start_linecap_type="zerowidth" end_linecap_type="zerowidth" offset_points="8.40197570706689e-16,0.89010672165522" linejoin_type="extrp_arc" miter_limit="4" not_jump="false" sort_points="true" />
        <inkscape:path-effect effect="powerstroke" message="" id="path-effect39" is_visible="true" lpeversion="1.3" scale_width="1" interpolator_type="CubicBezierJohan" interpolator_beta="0.2" start_linecap_type="zerowidth" end_linecap_type="zerowidth" offset_points="0,0.89010672165522" linejoin_type="extrp_arc" miter_limit="4" not_jump="false" sort_points="true" />
        <inkscape:path-effect effect="powerstroke" message="" id="path-effect37" is_visible="true" lpeversion="1.3" scale_width="1" interpolator_type="CubicBezierJohan" interpolator_beta="0.2" start_linecap_type="zerowidth" end_linecap_type="zerowidth" offset_points="0,0.89010672165522" linejoin_type="extrp_arc" miter_limit="4" not_jump="false" sort_points="true" />
        <inkscape:path-effect effect="powerstroke" message="" id="path-effect36" is_visible="true" lpeversion="1.3" scale_width="1" interpolator_type="CubicBezierJohan" interpolator_beta="0.2" start_linecap_type="zerowidth" end_linecap_type="zerowidth" offset_points="0.01037313402978376,0.8901067216552203" linejoin_type="extrp_arc" miter_limit="4" not_jump="false" sort_points="true" />
        <inkscape:path-effect effect="powerstroke" message="" id="path-effect35" is_visible="true" lpeversion="1.3" scale_width="1" interpolator_type="CubicBezierJohan" interpolator_beta="0.2" start_linecap_type="zerowidth" end_linecap_type="zerowidth" offset_points="0.02606882829488448,2.461925459614312" linejoin_type="extrp_arc" miter_limit="4" not_jump="false" sort_points="true" />
        <inkscape:path-effect effect="powerstroke" message="" id="path-effect34" is_visible="true" lpeversion="1.3" scale_width="1" interpolator_type="CubicBezierJohan" interpolator_beta="0.2" start_linecap_type="zerowidth" end_linecap_type="zerowidth" offset_points="0.001186129318461862,2.922934053488965" linejoin_type="extrp_arc" miter_limit="4" not_jump="false" sort_points="true" />
        <inkscape:path-effect effect="powerstroke" message="" id="path-effect33" is_visible="true" lpeversion="1.3" scale_width="1" interpolator_type="CubicBezierJohan" interpolator_beta="0.2" start_linecap_type="zerowidth" end_linecap_type="zerowidth" offset_points="0,4.44441018384093" linejoin_type="extrp_arc" miter_limit="4" not_jump="false" sort_points="true" />
        <inkscape:path-effect effect="powerstroke" message="" id="path-effect32" is_visible="true" lpeversion="1.3" scale_width="1" interpolator_type="CubicBezierJohan" interpolator_beta="0.2" start_linecap_type="zerowidth" end_linecap_type="zerowidth" offset_points="0,4.44441018384093" linejoin_type="extrp_arc" miter_limit="4" not_jump="false" sort_points="true" />
        <inkscape:path-effect effect="powerstroke" message="" id="path-effect30" is_visible="true" lpeversion="1.3" scale_width="1" interpolator_type="CubicBezierJohan" interpolator_beta="0.2" start_linecap_type="zerowidth" end_linecap_type="zerowidth" offset_points="0,4.44441018384093" linejoin_type="extrp_arc" miter_limit="4" not_jump="false" sort_points="true" />
        <inkscape:path-effect effect="powerstroke" message="" id="path-effect28" is_visible="true" lpeversion="1.3" scale_width="1" interpolator_type="CubicBezierJohan" interpolator_beta="0.2" start_linecap_type="zerowidth" end_linecap_type="zerowidth" offset_points="0,4.44441018384093" linejoin_type="extrp_arc" miter_limit="4" not_jump="false" sort_points="true" />
        <inkscape:path-effect effect="powerstroke" message="" id="path-effect26" is_visible="true" lpeversion="1.3" scale_width="1" interpolator_type="CubicBezierJohan" interpolator_beta="0.2" start_linecap_type="zerowidth" end_linecap_type="zerowidth" offset_points="0,4.44441018384093" linejoin_type="extrp_arc" miter_limit="4" not_jump="false" sort_points="true" />
        <inkscape:path-effect effect="powerstroke" message="" id="path-effect23" is_visible="true" lpeversion="1.3" scale_width="1" interpolator_type="CubicBezierJohan" interpolator_beta="0.2" start_linecap_type="zerowidth" end_linecap_type="zerowidth" offset_points="0,4.44441018384093" linejoin_type="extrp_arc" miter_limit="4" not_jump="false" sort_points="true" />
        <inkscape:path-effect effect="powerstroke" message="" id="path-effect20" is_visible="true" lpeversion="1.3" scale_width="1" interpolator_type="CubicBezierJohan" interpolator_beta="0.2" start_linecap_type="zerowidth" end_linecap_type="zerowidth" offset_points="0,4.44441018384093" linejoin_type="extrp_arc" miter_limit="4" not_jump="false" sort_points="true" />
        <inkscape:path-effect effect="powerstroke" message="" id="path-effect18" is_visible="true" lpeversion="1.3" scale_width="1" interpolator_type="CubicBezierJohan" interpolator_beta="0.2" start_linecap_type="zerowidth" end_linecap_type="zerowidth" offset_points="0,4.44441018384093" linejoin_type="extrp_arc" miter_limit="4" not_jump="false" sort_points="true" />
        <clipPath id="clipPath3842" clipPathUnits="userSpaceOnUse">
            <rect style="stroke-width:3.7746" y="0" x="0" height="1056" width="816" id="rect3844" />
        </clipPath>
        <clipPath id="clipPath3842-3" clipPathUnits="userSpaceOnUse">
            <rect style="stroke-width:3.7746" y="0" x="0" height="1056" width="816" id="rect3844-5" />
        </clipPath>
        <clipPath id="clipPath3842-3-9" clipPathUnits="userSpaceOnUse">
            <rect style="stroke-width:3.7746" y="0" x="0" height="1056" width="816" id="rect3844-5-1" />
        </clipPath>
        <clipPath id="clipPath3842-3-9-2" clipPathUnits="userSpaceOnUse">
            <rect style="stroke-width:3.7746" y="0" x="0" height="1056" width="816" id="rect3844-5-1-7" />
        </clipPath>
        <clipPath id="clipPath3842-3-9-2-3" clipPathUnits="userSpaceOnUse">
            <rect style="stroke-width:3.7746" y="0" x="0" height="1056" width="816" id="rect3844-5-1-7-6" />
        </clipPath>
        <inkscape:path-effect effect="fill_between_many" method="bsplinespiro" autoreverse="false" close="false" join="false" linkedpaths="#path18,0,1" id="path-effect19" is_visible="true" lpeversion="0" />
        <inkscape:path-effect effect="fill_between_many" method="bsplinespiro" autoreverse="false" close="false" join="false" linkedpaths="#path20,0,1" id="path-effect21" is_visible="true" lpeversion="0" />
        <inkscape:path-effect effect="fill_between_many" method="bsplinespiro" autoreverse="false" close="false" join="false" linkedpaths="#path23,0,1" id="path-effect24" is_visible="true" lpeversion="0" />
        <inkscape:path-effect effect="fill_between_many" method="bsplinespiro" autoreverse="false" close="false" join="false" linkedpaths="#path26,0,1" id="path-effect27" is_visible="true" lpeversion="0" />
        <inkscape:path-effect effect="fill_between_many" method="bsplinespiro" autoreverse="false" close="false" join="false" linkedpaths="#path28,0,1" id="path-effect29" is_visible="true" lpeversion="0" />
        <inkscape:path-effect effect="fill_between_many" method="bsplinespiro" autoreverse="false" close="false" join="false" linkedpaths="#path30,0,1" id="path-effect31" is_visible="true" lpeversion="0" />
        <inkscape:path-effect effect="fill_between_many" method="bsplinespiro" autoreverse="false" close="false" join="false" linkedpaths="#path37,0,1" id="path-effect38" is_visible="true" lpeversion="0" />
        <inkscape:path-effect effect="fill_between_many" method="bsplinespiro" autoreverse="false" close="false" join="false" linkedpaths="#path39,0,1" id="path-effect40" is_visible="true" lpeversion="0" />
        <inkscape:path-effect effect="fill_between_many" method="bsplinespiro" autoreverse="false" close="false" join="false" linkedpaths="#path40,0,1" id="path-effect42" is_visible="true" lpeversion="0" />
        <inkscape:path-effect effect="fill_between_many" method="bsplinespiro" autoreverse="false" close="false" join="false" linkedpaths="#path42,0,1" id="path-effect44" is_visible="true" lpeversion="0" />
        <inkscape:path-effect effect="fill_between_many" method="bsplinespiro" autoreverse="false" close="false" join="false" linkedpaths="#path44,0,1" id="path-effect46" is_visible="true" lpeversion="0" />
    </defs>
    <g style="display:inline" inkscape:label="bottom" id="layer8" inkscape:groupmode="layer" transform="translate(0,-516)" sodipodi:insensitive="true" />
    <g style="display:inline" inkscape:label="bg" id="layer13" inkscape:groupmode="layer" transform="translate(0,-516)">
        <g style="display:inline;opacity:1" inkscape:label="walls" id="layer16" inkscape:groupmode="layer">
            <path inkscape:connector-curvature="0" id="path1056" d="M 0,1011.662475 3.979039320256561e-13,516.0000000000002 1080,515.9999999999993 V 912.4007449999994 Z" style="fill:#2f9e44;stroke:none;stroke-width:0.297844px;stroke-linecap:butt;stroke-linejoin:miter;stroke-opacity:1" sodipodi:nodetypes="ccccc" />
        </g>
        <g inkscape:label="floor" id="layer17" inkscape:groupmode="layer" style="display:inline">
            <path sodipodi:nodetypes="cccccc" inkscape:connector-curvature="0" id="path1022" d="M 1080,912.4007449999994 V 955.8847549999992 1055.999999999999 L 0,1056 V 1011.662475 Z" style="display:inline;fill:#51cf66;stroke:none;stroke-width:0.297844px;stroke-linecap:butt;stroke-linejoin:miter;stroke-opacity:1" />
        </g>
        <g inkscape:label="surface" id="layer15" inkscape:groupmode="layer" style="display:inline">
            <path style="font-variation-settings:normal;opacity:1;vector-effect:none;fill:#2b8a3e;fill-opacity:1;stroke-width:0.999531;stroke-linecap:butt;stroke-linejoin:miter;stroke-miterlimit:4;stroke-dasharray:0.999531, 5.99717;stroke-dashoffset:0;stroke-opacity:1;-inkscape-stroke:none;paint-order:fill markers stroke" d="M 1920,473.4604096792679 1581.534998651888,287.7979708106936 1559.982907552415,-540.000000000001 H 1920.000000000001 Z" id="path18" transform="matrix(0.4999999999999999,0,0,0.4999999999999999,120.0000000000002,785.9999999999997)" sodipodi:nodetypes="ccccc" />
            <path style="font-variation-settings:normal;opacity:1;vector-effect:none;fill:#212529;fill-opacity:1;stroke-width:0.499766;stroke-linecap:butt;stroke-linejoin:miter;stroke-miterlimit:4;stroke-dasharray:0.499766, 2.99858;stroke-dashoffset:0;stroke-opacity:1;-inkscape-stroke:none;paint-order:fill markers stroke" d="M 587.6985479481229,969.7210769130948 596.0944036135063,918.969922745694 935.9960937499997,898.8312374999994 944.9970978089265,843.9845925511522 1042.062501604166,831.4824631607492 1062.074239060699,1019.937683492686 624.7390876483439,1055.999999999999 Z" id="path22" sodipodi:nodetypes="cccccccc" />
            <path id="path880" style="fill:#495057;stroke:none;stroke-width:0.297844px;stroke-linecap:butt;stroke-linejoin:miter;stroke-opacity:1" d="M 932.4609374999997,908.5283203124997 928.8203124999997,908.7861328124993 928.8349609375002,908.7919921874994 606.6931771790868,930.4794450594945 648.339814338924,981.5234337419776 1014.466796875,943.3603515624997 1018.2177734375,943.1162109374997 Z" sodipodi:nodetypes="cccccccc" />
            <path id="path14" style="font-variation-settings:normal;opacity:1;vector-effect:none;fill:#343a40;fill-opacity:1;stroke-width:0.499766;stroke-linecap:butt;stroke-linejoin:miter;stroke-miterlimit:4;stroke-dasharray:0.499766, 2.99858;stroke-dashoffset:0;stroke-opacity:1;-inkscape-stroke:none;paint-order:fill markers stroke" d="M 1012.265625,844.1669921874993 1018.2177734375,943.1162109374997 648.3398437500002,981.5234374999994 637.7441406249997,1042.019531249999 1046.7705078125,1008.033203124999 1034.3251953125,844.1669921874993 Z" sodipodi:nodetypes="ccccccc" />
            <path style="font-variation-settings:normal;opacity:1;vector-effect:none;fill:#2b8a3e;fill-opacity:1;stroke-width:0.499766;stroke-linecap:butt;stroke-linejoin:miter;stroke-miterlimit:4;stroke-dasharray:0.499766, 2.99858;stroke-dashoffset:0;stroke-opacity:1;-inkscape-stroke:none;paint-order:fill markers stroke" d="M 606.6931771790868,930.4794450594945 596.0944036135063,968.7333291877557 637.7444326986428,1042.019254185343 648.339814338924,981.5234337419776 Z" id="path19" sodipodi:nodetypes="ccccc" />
            <path style="font-variation-settings:normal;opacity:1;vector-effect:none;fill:#868e96;fill-opacity:1;stroke-width:0.499766;stroke-linecap:butt;stroke-linejoin:miter;stroke-miterlimit:4;stroke-dasharray:0.499766, 2.99858;stroke-dashoffset:0;stroke-opacity:1;-inkscape-stroke:none;paint-order:fill markers stroke" d="M 1012.265445223098,844.1671816761444 931.3890787476152,852.8254016649249 942.4553713169527,902.5542315900278 982.1564555575482,928.5717736924714 1018.2177734375,943.1162109374997 Z" id="path21" />
        </g>
        <g inkscape:groupmode="layer" id="layer18" inkscape:label="paper">
            <path style="fill:#cfd8dc;stroke:none;stroke-width:0.297844px;stroke-linecap:butt;stroke-linejoin:miter;stroke-opacity:1" d="M 882.0995500000003,944.4801349999992 826.7123499999996,946.8063549999991 817.1170499999998,932.9985549999993 870.6131500000001,931.045039999999 Z" id="path1190" inkscape:connector-curvature="0" sodipodi:nodetypes="ccccc" />
            <path style="fill:#b0bec5;stroke:none;stroke-width:0.297844px;stroke-linecap:butt;stroke-linejoin:miter;stroke-opacity:1" d="M 826.7123499999996,946.8063499999992 826.4003499999997,950.3168199999996 817.0816999999999,936.161574999999 817.1176999999996,932.9985499999995 Z" id="path1192" inkscape:connector-curvature="0" sodipodi:nodetypes="ccccc" />
            <path style="fill:#90a4ae;stroke:none;stroke-width:0.297844px;stroke-linecap:butt;stroke-linejoin:miter;stroke-opacity:1" d="M 882.0995500000003,944.4801349999992 881.4725999999998,947.2535849999991 826.4003499999997,950.3168199999996 826.7123499999996,946.8063549999998 Z" id="path1194" inkscape:connector-curvature="0" sodipodi:nodetypes="ccccc" />
            <path style="opacity:1;fill:#343a40;fill-rule:nonzero;stroke:none;stroke-width:0.297844" d="M 834.0616999999999,932.6893049999994 C 834.0917000000001,932.6831549999993 834.1235000000001,932.685304999999 834.1524500000002,932.6976049999992 834.2867499999999,932.7752299999996 834.44,932.8152099999995 834.5811499999997,932.8790949999993 834.3396999999998,933.2909549999993 834.0982999999998,933.7028299999992 833.8568999999998,934.1146949999995 833.8033,934.1443449999993 833.7736499999998,934.2333049999995 833.8253999999999,934.2781299999994 L 832.5362499999998,937.8132699999994 C 832.3388999999999,938.0275749999992 832.1414499999998,938.2418199999991 831.9441000000001,938.4561149999992 831.6129,938.3944299999993 831.2817000000002,938.3327949999992 830.9505499999995,938.2711099999995 830.7232999999998,938.1228849999994 830.4765999999999,937.9461099999995 830.4042500000002,937.6690299999993 830.4042500000002,937.6650299999993 830.4043000000001,937.6636799999988 830.4042500000002,937.6607299999992 830.3667499999996,937.6346299999996 830.3402499999997,937.6124299999992 830.3442499999998,937.6054499999993 830.3602499999999,937.5826499999992 830.37525,937.5602499999994 830.3917499999997,937.5379649999989 830.3857500000003,937.3493049999991 830.4656999999999,937.162744999999 830.56635,937.0056599999992 831.1000499999997,936.1305249999991 831.6432999999999,935.2614149999993 832.1806499999996,934.3884699999995 832.3590999999996,934.0997749999993 832.5374500000002,933.8110149999994 832.71585,933.5222849999993 832.8301499999997,933.3674349999993 833.0176499999997,933.2566299999995 833.2143499999999,933.2715649999996 833.5239000000001,933.1770849999994 833.7137999999998,932.8936049999995 833.9786999999996,932.7270599999998 834.0031999999996,932.708759999999 834.0317000000002,932.6950599999994 834.0624499999996,932.6891099999995 Z M 840.6480000000001,933.0260999999994 840.6730000000002,933.0557499999994 C 840.6789999999998,933.1126999999992 840.5950499999996,933.0123499999996 840.6480000000001,933.0260999999994 Z M 839.9661499999999,933.0411499999993 C 840.1802000000002,933.1069049999995 840.3943000000001,933.1726099999996 840.6084500000001,933.2383599999992 L 841.5927499999996,933.3436249999995 C 842.1255999999998,933.5018699999993 842.6584999999997,933.6600899999991 843.19125,933.818319999999 843.1180000000001,933.9626199999992 843.0447000000001,934.106864999999 842.9713999999996,934.2511199999992 842.3904499999998,934.0449999999996 841.8094499999999,933.8388849999993 841.2285500000002,933.632764999999 841.1598500000002,933.6661149999989 841.0679999999999,933.6455649999994 841.0248999999997,933.5809999999995 840.9869000000003,933.6079999999989 841.0548999999998,933.662969999999 841.0098999999996,933.6857249999991 840.9568999999996,933.9036299999992 840.9025000000001,934.1215799999994 840.8487499999998,934.3395799999992 L 840.3740499999996,934.2540449999992 C 840.3370499999998,934.3822099999994 840.3007999999999,934.5103749999992 840.2641499999997,934.6385899999992 839.9569999999998,934.5819399999992 839.6498000000003,934.5253199999996 839.3426999999995,934.4687049999988 839.2987,934.6174349999993 839.2542999999998,934.7661549999995 839.2100999999997,934.9148949999988 839.3056999999996,935.0108899999992 839.4012499999997,935.1068849999994 839.4968499999995,935.2028399999991 839.4863499999996,935.2672199999992 839.4768500000002,935.3315949999994 839.4678499999995,935.3959849999994 839.8172499999998,935.5008849999994 840.1666499999996,935.6057949999992 840.5161000000002,935.7107099999992 840.5625999999997,935.6938099999995 840.5025999999995,935.6218749999993 840.5535999999999,935.6095099999993 840.6546,935.3726749999991 840.7555499999998,935.135949999999 840.8565999999998,934.8991699999986 841.0565000000001,934.7153499999992 841.2564499999998,934.5315349999996 841.4564000000002,934.3477099999993 841.7766999999997,934.4175399999994 842.0970999999997,934.4873499999994 842.4173500000001,934.5571249999994 842.7028499999996,934.6791149999995 842.9882499999998,934.8010749999991 843.2736499999999,934.923024999999 843.2734,934.8832249999994 843.3260499999996,934.8439749999988 843.3604000000002,934.8764749999991 L 844.2905500000001,934.4518149999988 C 844.3511499999999,934.4303649999991 844.4197500000002,934.4203149999989 844.4668000000001,934.372124999999 L 845.3097000000002,934.6565599999987 845.2626999999998,934.678009999999 C 845.3001999999996,934.6688099999993 845.3609999999998,934.6820099999994 845.3795999999999,934.6337099999989 845.3990999999998,934.640959999999 845.4302000000002,934.6922099999991 845.4563500000003,934.6611099999993 845.2047499999996,934.9271249999993 844.9529999999999,935.1931899999991 844.7013499999994,935.4592099999989 844.5647499999997,935.739619999999 844.4283499999996,936.0199849999992 844.2917999999999,936.3003949999988 844.0547499999995,936.4733449999989 843.8178999999997,936.6463349999987 843.58095,936.8193199999992 L 842.7054,936.5022649999991 C 842.5720499999998,936.5022649999991 842.4777499999996,936.6595399999989 842.5269,936.7791599999993 L 842.4547499999998,937.3539199999992 C 841.8911500000003,937.579229999999 841.3276500000001,937.8045349999989 840.7642,938.0298899999992 840.4776000000001,937.8710699999994 840.191,937.7122399999992 839.9043499999996,937.5534199999988 839.7712499999997,937.4927849999992 839.6379999999995,937.432059999999 839.5048000000001,937.3713799999993 839.3734999999995,937.7000399999992 839.2422499999996,938.0286999999991 839.1109999999996,938.3574099999991 838.6264999999991,938.2266899999991 838.1421500000003,938.0960049999994 837.6577499999991,937.9653299999994 837.9427499999992,937.1293399999992 838.2278000000003,936.2934049999988 838.5128999999993,935.4574849999993 838.3961999999994,935.3019899999993 838.2794499999989,935.1464549999992 838.1626999999996,934.990914999999 838.2709499999996,934.6826349999993 838.3790999999989,934.3742999999992 838.4872999999997,934.0660199999995 838.610099999999,933.7823199999995 838.7328499999989,933.498614999999 838.8555499999997,933.2149149999992 838.9778999999996,933.2400649999991 839.1002999999993,933.2653699999996 839.2225999999993,933.2905349999995 839.2065999999997,933.3617699999995 839.3470999999997,933.3490949999994 839.3209999999994,933.2822349999996 839.5363499999996,933.2017749999994 839.7517499999996,933.1212999999992 839.9671999999993,933.0408449999995 Z M 830.8877499999998,933.588534999999 C 831.1503499999997,933.727899999999 831.2369499999999,934.0774449999994 831.1379500000002,934.3447849999993 831.0292000000001,934.6503849999995 830.8038499999997,934.8940049999994 830.6108999999996,935.1487449999991 829.8086999999994,936.1686249999993 829.0064499999998,937.1887499999995 828.2042499999997,938.2086449999993 827.8686500000003,938.5764649999989 827.53295,938.9443299999994 827.1973000000002,939.3121549999997 826.9064500000001,939.4726199999994 826.6199500000002,939.6914849999992 826.2723999999993,939.6908949999997 825.9803500000002,939.7064449999994 825.6509499999999,939.7264949999995 825.40335,939.5431199999993 825.1802500000003,939.3688999999991 825.0911999999998,939.0509749999994 825.1833999999997,938.7845499999996 825.2801500000002,938.5020799999995 825.4718999999997,938.2657149999997 825.6330500000001,938.0178349999994 826.0844499999998,937.3630249999994 826.5359499999999,936.7081599999992 826.9872500000001,936.0533499999995 827.21125,935.7858749999994 827.4725,935.5492799999992 827.7651,935.3587399999993 828.4613000000001,934.8791599999992 829.1765,934.4280899999989 829.8866500000001,933.9695599999993 830.1427499999997,933.8225249999994 830.4071000000001,933.6847699999991 830.6923000000001,933.6036649999995 830.7566499999995,933.5931149999996 830.8222499999999,933.5781149999995 830.8877499999998,933.5886149999994 Z M 834.4776000000001,934.7100999999993 834.4875999999994,934.7228999999995 C 834.4815999999992,934.7680999999994 834.5656000000001,934.7685999999994 834.56725,934.7268999999994 834.6047499999999,934.7163499999994 834.6509499999999,934.7565499999997 834.6784000000002,934.7140999999994 834.7273999999997,934.7717649999996 834.8087500000001,934.6907999999991 834.8615499999998,934.7392499999996 L 835.7697500000001,934.7515999999993 835.4735999999995,935.7184299999987 C 835.0786499999995,936.4967999999993 834.6836499999999,937.2751599999995 834.2886499999999,938.0535299999995 834.5218999999999,938.2869699999989 834.7551,938.5204549999996 834.9884000000001,938.7538899999997 835.3884999999996,939.0003499999995 835.7884999999997,939.2468199999991 836.1885499999998,939.4932849999996 837.4776000000001,940.068229999999 838.7667999999998,940.6431649999997 840.0557999999998,941.2181049999994 839.9269000000001,941.6167749999996 839.7979000000002,942.0154349999993 839.6689999999998,942.4141399999995 839.3862999999996,942.3142199999995 839.1033499999998,942.1993949999995 838.8220499999997,942.0900949999995 838.1664500000001,941.8206499999997 837.5045999999999,941.5653199999994 836.8645000000001,941.2599699999992 836.5359499999999,941.1113749999997 836.2323499999998,940.9147549999996 835.9266999999999,940.7247749999995 835.5691999999996,940.4676199999996 835.21225,940.2090899999992 834.8663500000002,939.9365399999994 834.4332000000001,939.5719599999994 833.9922500000002,939.2145949999994 833.5893999999998,938.8161249999993 833.3754999999998,938.6128399999994 833.2226000000002,938.3188049999995 833.2618499999999,938.0174299999994 833.30735,937.6885849999994 833.4491000000002,937.3840399999986 833.5614999999996,937.0744849999995 833.8593999999994,936.2839249999992 834.1683,935.4975149999995 834.4776500000002,934.7114799999993 Z M 837.1809,935.3250149999996 837.1899,935.341914999999 C 836.9845000000002,936.015739999999 836.77915,936.6896049999995 836.5738000000003,937.3634249999993 836.4991499999998,937.6841349999991 836.4244999999998,938.0048899999993 836.34985,938.3256049999994 837.2435500000001,938.6073399999992 838.1372999999998,938.8891249999994 839.0310000000001,939.1708599999989 L 839.4393999999999,940.1534249999991 836.3713499999997,939.0591399999992 C 836.0980000000001,938.9161749999992 835.7997500000001,938.7212049999993 835.7331999999997,938.3971599999989 835.6593500000003,938.0889249999995 835.7757000000003,937.7810999999992 835.8343999999999,937.4809399999991 835.9145499999997,937.1517749999993 836.0031500000002,936.824994999999 836.0886500000003,936.4972449999993 836.2092000000002,936.2293499999992 836.3258500000001,935.9443699999993 836.5539999999998,935.747984999999 836.7586999999998,935.6011249999992 836.9685000000001,935.4609949999992 837.18055,935.3250649999994 Z M 847.2982999999994,935.7037099999993 847.3042999999995,935.7325599999992 C 847.4529999999999,935.8430899999996 847.6017000000001,935.9536249999995 847.7504499999997,936.0641449999993 847.8695499999996,935.9782449999993 847.9885500000002,935.8923499999996 848.1076,935.8064449999993 848.4613500000002,936.0323399999995 848.815,936.2582449999994 849.1688000000001,936.4841449999987 849.25665,936.4904949999993 849.2362,936.6435249999997 849.1522999999999,936.6360349999989 847.6398999999997,937.8252649999992 846.1276999999997,939.0144799999991 844.61535,940.2037549999993 845.5034500000001,941.1334999999995 846.3916000000001,942.0632849999997 847.2797,942.9931099999993 L 846.3623000000002,944.0443049999996 C 846.0867500000001,943.8719049999996 845.8112499999999,943.6995149999993 845.5356499999995,943.5271649999991 845.2411499999998,943.8612199999993 844.9465499999997,944.1953649999994 844.6520000000002,944.529459999999 L 843.6718,944.0431199999991 C 843.39415,943.8649149999994 843.1164499999997,943.6867199999994 842.8386999999996,943.5085249999996 L 841.7806,942.4328849999993 C 841.5936499999996,942.1635299999992 841.4067499999998,941.8942199999995 841.2198,941.6248749999995 841.0735999999999,941.1028799999991 840.9274,940.5808549999994 840.7812000000003,940.0588699999989 840.9906499999999,939.7881349999993 841.1965999999997,939.5142149999994 841.42515,939.2590299999993 842.4934,938.533799999999 843.5615999999997,937.808589999999 844.6299000000003,937.083354999999 845.5167000000001,936.6180749999995 846.4022999999999,936.1503699999992 847.2988999999997,935.7040599999993 Z M 843.7992000000003,935.9101949999993 C 843.7992000000003,935.9061949999995 843.7932,935.9061949999995 843.7842,935.9141949999992 L 843.7712000000003,935.9356949999993 C 843.7816999999997,935.9443949999989 843.8032,935.918294999999 843.7992000000003,935.9119449999992 Z M 843.4094999999999,935.9462949999991 C 843.4034999999996,935.9422949999992 843.4034999999996,935.9462949999991 843.3965,935.9554449999993 L 843.3904999999999,935.9815449999995 C 843.4054999999992,935.9855449999993 843.4165,935.9500449999993 843.41,935.9459449999993 Z M 850.2209500000001,937.0143549999992 C 850.2344500000003,937.0103549999988 850.24845,937.0143549999992 850.2594499999995,937.0216549999993 L 852.3915000000001,939.0193099999992 852.5671499999998,939.201389999999 C 852.0003999999996,939.6039399999996 851.4335499999999,940.0064899999989 850.8667500000001,940.4090299999992 850.3319500000002,940.7163999999995 849.7971499999998,941.0237249999987 849.2623999999998,941.3310949999993 850.1264499999999,941.5899399999988 850.9904999999998,941.8488299999995 851.8545999999997,942.107674999999 851.7058500000007,942.4776399999992 851.5570999999997,942.8476599999993 851.4083499999999,943.2176299999989 851.3838500000002,943.2681999999995 851.3593500000006,943.3188399999992 851.3351499999997,943.3694199999994 L 850.3176499999999,943.1390799999994 848.9273500000001,942.6934899999989 C 848.6246499999999,942.564139999999 848.3220000000003,942.4347799999991 848.0192499999998,942.3054799999994 847.7207999999993,942.1482049999991 847.4224000000001,941.9909349999994 847.1239500000001,941.8337049999994 846.9953999999996,941.5240099999995 846.8667999999996,941.2143549999997 846.7382500000003,940.904694999999 846.6622999999999,940.5913449999993 846.58625,940.2779899999991 846.51025,939.9645849999989 847.3599499999995,939.2655449999995 848.2096499999997,938.5664999999993 849.0593499999997,937.8675049999993 L 850.1832999999995,937.0303899999994 C 850.1937999999997,937.0225899999994 850.2063000000002,937.0161899999993 850.2207999999993,937.013939999999 Z M 841.6008999999996,937.2836599999991 C 841.5904,937.2836599999991 841.5768999999996,937.2876599999996 841.5764000000001,937.2890099999991 L 841.6078999999999,937.2990599999993 C 841.6194000000002,937.2880599999995 841.6139,937.2840099999991 841.6008999999996,937.283509999999 Z M 839.24845,937.2876599999996 C 839.2424499999999,937.2876599999996 839.2414499999998,937.2916599999995 839.2374499999998,937.2978099999993 H 839.2864499999993 C 839.2734500000001,937.3018099999993 839.25845,937.2845099999989 839.2479499999993,937.2868599999991 Z M 829.9454500000001,938.4389649999993 C 829.9996499999999,938.4429649999991 830.0544999999999,938.4531149999993 830.1082999999998,938.4791649999996 L 830.1607499999997,938.4933649999994 830.1882500000001,938.5007149999993 C 830.4901499999998,938.6048899999992 830.7925999999998,938.7105299999992 831.0829999999998,938.8439499999992 831.3787999999999,938.9743599999993 831.6691500000001,939.1173699999991 831.9562,939.2656899999992 832.2078000000001,939.4141849999995 832.4144499999997,939.6340099999994 832.5507499999998,939.892219999999 832.6210999999998,940.0123849999994 832.6678000000001,940.1443499999992 832.6943499999998,940.2807799999993 832.4632999999996,940.2876799999993 832.2336499999997,940.3150299999995 832.0038999999994,940.3377899999985 832.7736999999999,940.669364999999 833.5434999999997,941.0009549999995 834.3133499999996,941.3325449999995 834.6689499999997,941.5064449999989 835.0245499999999,941.680394999999 835.3802500000001,941.8543449999991 836.0659,942.3243799999992 836.7514999999998,942.7944599999991 837.4371499999999,943.2644499999994 837.6730500000003,943.4419149999989 837.9048999999998,943.7484249999989 837.7763499999998,944.0555999999986 837.6477499999998,944.3584499999992 837.3294,944.5244899999992 837.0225,944.5913899999993 836.6194,944.6907249999994 836.2042499999997,944.730434999999 835.7902999999996,944.7484249999994 835.4869499999999,944.7524249999992 835.1762499999999,944.7537749999992 834.8850999999999,944.6576799999992 834.5073999999997,944.5303399999993 834.1679499999996,944.317779999999 833.8240500000001,944.1207649999993 832.8342999999998,943.5270849999989 831.8519999999998,942.9209749999994 830.8671499999995,942.3191599999993 830.3922000000002,942.0241799999993 829.9134999999997,941.7345799999991 829.4407499999999,941.4360799999992 829.20215,941.2727299999993 828.9586000000001,941.1093349999994 828.7635999999998,940.8932949999991 828.5955000000001,940.6800599999993 828.4799999999996,940.4279699999991 828.41515,940.1650149999994 828.3048999999998,939.8552699999993 828.4496500000002,939.5115749999994 828.6850500000002,939.3011249999988 828.9514499999996,939.0729349999991 829.2258000000001,938.8541649999991 829.49485,938.6292649999992 829.6203000000002,938.5245899999989 829.7815999999995,938.4339749999992 829.9451499999995,938.4390499999989 Z" id="path1225" inkscape:connector-curvature="0" sodipodi:nodetypes="ccccccccccccccccccccccccccccccccccccccccccccccccccccccccccccccccccccccccccccccccccccccccccccccccccccccccccccccccccccccccccccccccccccccccccscccsccccccccccccccccccccccccccccccccccccccccccccccccccccccccccc" />
        </g>
    </g>
    <g inkscape:groupmode="layer" id="layer20" inkscape:label="new 1">
        <path style="baseline-shift:baseline;display:inline;overflow:visible;opacity:1;vector-effect:none;fill:#212529;stroke-width:0.5;stroke-linejoin:bevel;paint-order:fill markers stroke;enable-background:accumulate;stop-color:#000000;stop-opacity:1" d="M 889.4931640624997,274.1630859374998 878.5185546874997,276.7158203124998 873.3564453125002,282.2802734374998 871.3535156249997,291.1313476562498 867.4814453124997,294.2216796874998 860.1650390624997,306.6601562499998 859.4990234374997,308.2041015624998 857.6621093750002,314.5205078124998 860.0478515624997,316.8984374999998 860.6853341606208,325.5766188473672 873.0200195312497,328.6704101562498 873.5947265624997,333.9892578124998 881.1503906250002,341.3828124999998 H 884.7615277879692 L 888.9271808367038,346.8691539057279 885.7011718749997,369.2031249999998 871.7099609375002,404.6630859375 862.5058593750002,404.349609375 856.2984135724162,410.2091100799841 849.4531249999997,411.5722656249998 847.0693468136746,419.0896032162056 854.7114257812502,432.8774414062498 862.6201171874997,435.0937499999998 892.1894531249997,427.2333984375 890.1181640624997,437.826171875 892.6601562499997,444.515625 922.7031249999997,467.4189453124998 915.9511718749997,473.9038085937498 919.2578124999997,486.8193359374998 926.3779296874997,489.6025390624998 930.4755859374997,498.572265625 924.5234374999997,507.2714843749998 914.0478515625002,512.1933593749997 908.5638391387651,519.0709119475469 912.292172273356,539.9999999999997 939.0991210937497,543.2563476562497 973.6103515625002,515.2451171874997 974.5624999999997,511.3076171874998 981.307371844598,513.91790646005 1001.10073883292,505.6156900277268 996.6523437499997,488.3852539062498 978.5644531250002,471.916015625 971.4589843750002,462.3037109375 968.8154296874997,460.3105468749998 966.7929687500002,455.5507812499998 961.8974609374997,454.26220703125 960.2490234374997,440.6025390624998 969.8173828124997,438.0625 985.9868164062502,424.5366210937498 989.1855468750002,410.5380859375 987.5415039062497,398.7763671875 984.9921874999997,389.47900390625 985.8021397365607,385.8082770829853 981.307371844598,379.8749153951589 V 371.4228950671972 L 974.5800781250002,365.3496093749998 V 366.2185264094465 L 964.4897460937502,337.7026367187498 949.1757812499997,322.4711914062498 930.2016601562497,318.1137695312498 933.2822265625002,309.1357421874998 931.3300781249997,307.6582031249998 933.2568359374997,300.8896484374998 929.1074218750002,292.5810546874998 924.7519531249997,293.1796874999998 919.9907226562502,286.0786132812498 906.5800781249997,277.6899414062498 892.6015624999997,278.3457031249998 Z" id="path32" sodipodi:nodetypes="ccccccccccccccccccccccccccccccccccccccccccccccccccccccccccccccccccccc" />
        <path style="font-variation-settings:normal;opacity:1;vector-effect:none;fill:none;fill-opacity:1;stroke:#000000;stroke-width:13.5534;stroke-linecap:butt;stroke-linejoin:bevel;stroke-miterlimit:4;stroke-dasharray:none;stroke-dashoffset:0;stroke-opacity:1;-inkscape-stroke:none;paint-order:fill markers stroke" d="M 888.6959503190853,408.7571822184 905.7768001956121,380.6054111256056 906.6218802879229,375.8740220956123 911.2636718749997,378.3720703125 917.9483072969496,396.0732159938805 894.7041015624997,407.0595703125 Z" id="path33" />
    </g>
    <g inkscape:groupmode="layer" id="layer6" inkscape:label="new">
        <path style="fill:#495057;fill-opacity:1;stroke-width:0.499766;stroke-dasharray:0.499766, 2.99858;-inkscape-stroke:none;paint-order:fill markers stroke" d="M 899.271983210835,337.4107336503111 892.9186317649441,352.984623789404 892.4431100479973,370.5795461555295 875.4684824717969,413.6014470814158 885.224015561567,414.479445059495 906.2959670354699,379.7497472599134 909.9055142786846,336.825401664925 Z" id="path2" sodipodi:nodetypes="cccccccc" />
        <path style="font-variation-settings:normal;opacity:1;vector-effect:none;fill:#fff5f5;fill-opacity:1;stroke-width:0.499766;stroke-linecap:butt;stroke-linejoin:miter;stroke-miterlimit:4;stroke-dasharray:0.499766, 2.99858;stroke-dashoffset:0;stroke-opacity:1;-inkscape-stroke:none;paint-order:fill markers stroke;stop-color:#000000;stop-opacity:1" d="M 926.4436325310009,410.07497463464 927.1623595314831,404.2026918147874 962.1107331358002,398.2572848885535 977.8417476029122,388.2817758247434 979.1570916247685,394.853657467868 964.471272624278,405.4388230856413 936.3390655015675,406.4042997991546 Z" id="path7" sodipodi:nodetypes="cccccccc" />
        <path style="fill:#37b24d;fill-opacity:1;stroke-width:0.499766;stroke-dasharray:0.499766, 2.99858;-inkscape-stroke:none;paint-order:fill markers stroke" d="M 977.8417476029122,388.2817758247434 979.4755139557937,384.9995629868453 974.6137385025531,380.9512017885477 976.2431392891198,377.7010853110615 972.833527083507,375.8212555636742 973.519375,372.0428761189948 969.7041121482404,371.438192419551 958.8782903893295,341.2153915553215 946.1096848985887,328.1671816761448 944.851585076376,329.3232875826655 946.1096848985887,331.8529960694876 955.2194805392143,350.1704037492534 911.2636718749997,378.3720703125 920.4414900156352,402.675250020873 934.4088398025646,402.9699227456944 962.1107331358002,398.2572848885535 Z" id="path8" sodipodi:nodetypes="ccccccccccccccccc" />
        <path id="path1" style="font-variation-settings:normal;opacity:1;vector-effect:none;fill:#fff5f5;fill-opacity:1;stroke-width:0.499766;stroke-linecap:butt;stroke-linejoin:miter;stroke-miterlimit:4;stroke-dasharray:0.499766, 2.99858;stroke-dashoffset:0;stroke-opacity:1;-inkscape-stroke:none;paint-order:fill markers stroke;stop-color:#000000;stop-opacity:1" d="M 904.4912109374997,289.3554687499998 883.5751953125002,291.5917968749998 869.0947265624997,312.4902343749998 875.1386718750002,322.3183593749998 880.3710937500002,324.2109374999998 V 333.9892578124998 L 884.5986328125002,334.0576171874998 886.1035156249997,332.5292968749998 886.4140624999997,336.8261718749998 890.3945312499997,340.1914062499998 893.9716796874997,344.2558593749998 897.3333220625995,344.0869039313205 902.1503906250002,338.5869140624998 906.4101562500002,340.4160156249998 907.0224609374997,350.1318359374998 899.8769531249997,372.2441406249998 911.2636718749997,378.3720703125 921.3115234374997,377.4990234374998 922.6513671875002,370.4951171874998 920.0156249999997,393.4199218749998 917.7382812499997,396.3427734374998 894.7041015624997,407.0595703125 878.3837890625002,411.6708984374998 862.2753906249997,411.1220703124998 859.2939453124997,415.4580078124998 858.1621093749997,415.9707031249998 857.5886791424363,414.9925494512121 852.5673828124997,417.5908203124998 855.1044921874997,425.3505859375 860.8789062500002,428.5449218749998 875.3613281250002,424.9423828125 931.5800781249997,409.6591796874998 935.4453125000002,403.98046875 955.2197265624997,350.1708984374998 944.8515625000002,329.3232421874998 923.0449218749997,323.6992187499998 914.2958984374997,318.2900390624998 915.0107421874997,302.9580078124998 Z" sodipodi:nodetypes="ccccccccccccccccccccccccccccccccccccccc" />
        <path style="font-variation-settings:normal;opacity:1;vector-effect:none;fill:#37b24d;fill-opacity:1;stroke-width:0.499766;stroke-linecap:butt;stroke-linejoin:miter;stroke-miterlimit:4;stroke-dasharray:0.499766, 2.99858;stroke-dashoffset:0;stroke-opacity:1;-inkscape-stroke:none;paint-order:fill markers stroke;stop-color:#000000;stop-opacity:1" d="M 911.2636718749997,378.3720703125 899.8769531249997,372.2441406249998 905.3756782355255,355.227927330256 905.9891077492843,359.4933018936786 916.5481995604343,358.9501953124998 923.4675174195808,332.2397588505076 930.3243704206172,325.5766188473672 946.1096848985887,328.1671816761448 944.851585076376,329.3232875826655 927.7276319778968,333.9962970688915 923.08593480245,358.1489321515809 922.6513671875002,370.4951171874998 921.7692901756329,378.1671282484751 Z" id="path9" sodipodi:nodetypes="cccccccccccccc" />
        <path style="fill:#495057;fill-opacity:1;stroke-width:0.499766;stroke-dasharray:0.499766, 2.99858;-inkscape-stroke:none;paint-order:fill markers stroke" d="M 916.5481995604343,413.7456494701257 900.3159138630056,420.986292784806 896.7684626298257,439.1266006647223 960.0293499999996,487.3528349999999 966.0096948654049,477.5018599499403 960.3633674298598,465.8821184736571 936.7444500000001,435.5009799999998 956.4924572312215,434.5127807887643 951.1734494639565,415.7236750699591 931.5803941281644,409.6592794980412 Z" id="path6" sodipodi:nodetypes="ccccccccccc" />
        <path style="font-variation-settings:normal;opacity:1;vector-effect:none;fill:#495057;fill-opacity:1;stroke:none;stroke-width:0.499766;stroke-linecap:butt;stroke-linejoin:miter;stroke-miterlimit:4;stroke-dasharray:0.499766, 2.99858;stroke-dashoffset:0;stroke-opacity:1;-inkscape-stroke:none;paint-order:fill markers stroke" d="M 959.5611777056128,487.9472656249998 966.5225950934661,490.6546939445682 975.316363645591,503.9376834926863 983.3646784446518,508.5227840448782 995.1688734832737,502.7670195219139 991.2341418037328,492.1009700104319 973.5441084676169,476.5246355104324 966.0096948654049,466.3319094133138 958.5424745970203,463.539894387203 954.2565906689437,458.0269392110144 940.7329988423564,442.9656016816233 938.3132023912635,465.0670656298239 934.7284967779306,468.0650107677836 933.1636254094189,466.8720484737071 934.1038705210473,470.6566247742216 938.233604614337,470.7370907672276 Z" id="path17" sodipodi:nodetypes="ccccccccccccccccc" />
        <path id="path3" style="fill:#495057;fill-opacity:1;stroke-width:0.499766;stroke-dasharray:0.499766, 2.99858;-inkscape-stroke:none;paint-order:fill markers stroke" d="M 891.0283203125002,280.7636936273484 880.0537109374997,283.3164062499998 878.1513671874997,295.6083984374998 873.3222656249997,297.6572265624998 866.0058593749997,310.0957031249998 864.1696835452739,316.4120742540103 866.7396783444887,315.6562499999998 867.3222656250002,322.0947265624998 874.3466796875002,321.3632812499998 V 315.6562499999998 L 876.6874999999997,320.1923828124998 887.6630859375002,310.9736328124998 892.7841796874997,313.7539062499998 898.272059882827,326.4794921874998 H 904.6787109375002 L 905.5800781250002,333.3291015624998 909.1044921875002,328.4736328124998 913.9216187809233,331.0372894608557 917.6162109374997,321.9248046874998 924.0839843749997,318.7451171874998 920.2177734374997,318.6240234374998 925.4169921874997,313.3144531249998 926.6660156249997,307.6708984374998 924.2359863046153,308.9752328156304 920.4882812499997,308.0566406249998 927.1946671060802,303.9171783404224 923.0452000000002,295.6083984374998 921.9173863784703,301.4797742960084 915.2458568663449,290.6906230664576 904.9306640624997,283.9013671874998 891.0283203125002,284.7792968749998 888.9684841037667,283.598727638696 Z" sodipodi:nodetypes="ccccccccccccccccccccccccccccccccc" />
        <path style="font-variation-settings:normal;vector-effect:none;fill:#ad8305;fill-opacity:1;stroke-width:0.446626;stroke-linecap:butt;stroke-linejoin:miter;stroke-miterlimit:4;stroke-dasharray:0.446626, 2.67975;stroke-dashoffset:0;stroke-opacity:1;-inkscape-stroke:none;paint-order:fill markers stroke" d="M 958.3483129304663,466.9912976274322 962.644743453982,466.4078180973568 965.0111514518682,462.0888699999997 957.49131101141,463.567868632226 957.0485378756843,465.9954914888143 Z" id="path12-2" sodipodi:nodetypes="cccccc" />
        <path style="font-variation-settings:normal;opacity:1;vector-effect:none;fill:#ffcb2f;fill-opacity:1;stroke-width:0.446626;stroke-linecap:butt;stroke-linejoin:miter;stroke-miterlimit:4;stroke-dasharray:0.446626, 2.67975;stroke-dashoffset:0;stroke-opacity:1;-inkscape-stroke:none;paint-order:fill markers stroke" d="M 957.4876470650019,466.3319094133138 965.0111514518682,462.0888699999997 960.2143879158861,460.7817454982069 955.1993978623602,464.5787963694101 Z" id="path12" sodipodi:nodetypes="ccccc" />
        <path style="fill:#fff5f5;fill-opacity:1;stroke-width:0.499766;stroke-dasharray:0.499766, 2.99858;-inkscape-stroke:none;paint-order:fill markers stroke" d="M 916.5481995604343,413.7456494701257 915.3694000000002,423.7520549999999 941.2676999999998,486.8012349999999 958.9624999999998,486.7647349999998 952.7582999999999,434.6780599999997 956.4924572312215,434.5127807887643 964.1447776892176,418.6743242880959 944.6835160978255,406.1179243753348 Z" id="path5" />
        <path style="font-variation-settings:normal;opacity:1;vector-effect:none;fill:#343a40;fill-opacity:1;stroke-width:0.499766;stroke-linecap:butt;stroke-linejoin:miter;stroke-miterlimit:4;stroke-dasharray:0.499766, 2.99858;stroke-dashoffset:0;stroke-opacity:1;-inkscape-stroke:none;paint-order:fill markers stroke;stop-color:#000000;stop-opacity:1" d="M 980.5428500000002,421.2692449999998 966.9460232386463,432.1107961719938 956.4924572312215,434.5127807887643 958.4880690657382,424.9419835539899 951.1734494639565,415.7236750699591 935.0208229512188,410.486542987831 916.5481995604343,413.7456494701257 933.5126953124997,406.8198242187498 935.445078774848,403.980854909881 963.9834959697898,401.1463885261424 978.4994196138404,391.5677166463056 981.1284089461885,398.7851300020655 980.6840519689935,401.0942939960388 982.52825,410.5677699999998 Z" id="path4" sodipodi:nodetypes="ccccccccccccccc" />
        <path style="font-variation-settings:normal;opacity:1;vector-effect:none;fill:#37b24d;fill-opacity:1;stroke-width:0.499766;stroke-linecap:butt;stroke-linejoin:miter;stroke-miterlimit:4;stroke-dasharray:0.499766, 2.99858;stroke-dashoffset:0;stroke-opacity:1;-inkscape-stroke:none;paint-order:fill markers stroke" d="M 930.092698329857,469.3865792947355 933.0440852554097,466.7809183659992 935.0945598382704,471.7727804210466 950.09345,475.2172749999998 956.9064714062958,469.503574310305 956.4323849318941,465.5234337419779 959.5813000000002,467.9359349999998 960.566345255676,494.8414521511645 967.9812445305883,509.254449026611 937.5624505881813,536.1797203543761 920.1488240229418,534.5700573945641 916.9294981033176,518.3270948000971 929.0751368000817,512.6201079425816 938.7331145589539,498.5051802553572 932.7509999999999,477.6374399999998 Z" id="path10" sodipodi:nodetypes="cccccccccccccccc" />
        <path style="font-variation-settings:normal;opacity:1;vector-effect:none;fill:#2b8a3e;fill-opacity:1;stroke-width:0.499766;stroke-linecap:butt;stroke-linejoin:miter;stroke-miterlimit:4;stroke-dasharray:0.499766, 2.99858;stroke-dashoffset:0;stroke-opacity:1;-inkscape-stroke:none;paint-order:fill markers stroke" d="M 938.7331145589539,498.5051802553572 926.733808858537,474.4271958961318 943.9790375525511,475.1170577065881 948.9621952969416,497.9868083079266 937.6701402756732,513.91790646005 929.0751368000817,512.6201079425816 Z" id="path11" />
        <path style="font-variation-settings:normal;opacity:1;vector-effect:none;fill:#343a40;fill-opacity:1;stroke-width:0.499766;stroke-linecap:butt;stroke-linejoin:miter;stroke-miterlimit:4;stroke-dasharray:0.499766, 2.99858;stroke-dashoffset:0;stroke-opacity:1;-inkscape-stroke:none;paint-order:fill markers stroke" d="M 917.709940750499,529.984956842372 935.1723449811879,532.0336187912239 966.6827168611455,503.9376834926863 969.2191554644855,510.0836693392416 937.2210069300392,537.3016066596999 918.5391610631297,535.5456107035414 Z" id="path13" />
        <path style="baseline-shift:baseline;display:inline;overflow:visible;opacity:1;vector-effect:none;fill:#343a40;stroke-width:0.5;stroke-linejoin:bevel;paint-order:fill markers stroke;enable-background:accumulate;stop-color:#000000;stop-opacity:1" d="M 922.5156249999997,474.1748046874998 921.2480468750002,475.8212890625 923.2226562499997,482.4091796874998 924.8681640625002,483.2499999999998 936.3740234375002,479.2568359375 944.4462890624997,483.7451171874998 945.7148437500002,483.7304687499998 950.7441406250002,480.7871093749998 950.4160156250002,478.443359375 937.8037109374997,475.203125 936.6718749999997,475.4814453124998 936.6103515624997,475.3486328124998 935.4902343750002,474.603515625 Z M 924.2099609374997,476.7910156249998 934.6142578124997,477.1357421874998 934.6230468749997,477.1552734374998 925.2910156249997,480.3955078124998 Z M 940.2158203125002,478.4648437499998 946.7685546874997,480.1484375 945.0517578124997,481.1533203124998 Z M 931.3808593749997,481.3720703125 930.7041015625002,483.8398437499998 938.1660156249997,485.88671875 932.3056640624997,486.2060546874998 931.9541015625002,488.6914062499998 942.9414062499997,492.5234375 935.7763671874997,493.9013671875 935.4873046874997,496.322265625 947.3232421874997,501.7197265624998 948.3857421874997,499.3916015625 940.1962890625002,495.6572265625 948.0957031249997,494.1376953125 948.2753906250002,491.6728515624998 938.9130859374997,488.408203125 946.1679687499997,488.0126953125 946.4365234374997,485.501953125 Z" id="path15" />
        <path style="font-variation-settings:normal;opacity:1;vector-effect:none;fill:#495057;fill-opacity:1;stroke:none;stroke-width:0.499766;stroke-linecap:butt;stroke-linejoin:miter;stroke-miterlimit:4;stroke-dasharray:0.499766, 2.99858;stroke-dashoffset:0;stroke-opacity:1;-inkscape-stroke:none;paint-order:fill markers stroke;stop-color:#000000;stop-opacity:1" d="M 880.5738781221075,322.5689157523312 887.0654618605856,315.48246316075 890.2434150634776,317.7412033012289 881.0906518355096,324.7393801148208 Z" id="path16" sodipodi:nodetypes="ccccc" />
    </g>
    <g inkscape:groupmode="layer" id="layer21" inkscape:label="new 2" />
</svg>
