<?xml version="1.0" encoding="UTF-8" standalone="no"?>
<svg version="1.1" id="svg3820" width="960" height="540" viewBox="0 0 960 540" sodipodi:docname="self-portrait-mobile.svg" inkscape:version="1.4.1 (93de688d07, 2025-03-30)" inkscape:export-filename="/home/elm/Documents/Self-Portrait/export/self-portrait.png" inkscape:export-xdpi="192" inkscape:export-ydpi="192" xmlns:inkscape="http://www.inkscape.org/namespaces/inkscape" xmlns:sodipodi="http://sodipodi.sourceforge.net/DTD/sodipodi-0.dtd" xmlns="http://www.w3.org/2000/svg" xmlns:svg="http://www.w3.org/2000/svg" xmlns:rdf="http://www.w3.org/1999/02/22-rdf-syntax-ns#" xmlns:cc="http://creativecommons.org/ns#" xmlns:dc="http://purl.org/dc/elements/1.1/">
    <sodipodi:namedview pagecolor="#ffffff" bordercolor="#666666" borderopacity="1" objecttolerance="10" gridtolerance="10" guidetolerance="10" inkscape:pageopacity="0" inkscape:pageshadow="2" inkscape:window-width="1849" inkscape:window-height="1024" id="namedview3822" showgrid="false" units="px" inkscape:snap-others="true" inkscape:snap-global="true" inkscape:zoom="0.67493617" inkscape:cx="1891.3196" inkscape:cy="92.781858" inkscape:window-x="71" inkscape:window-y="30" inkscape:window-maximized="1" inkscape:current-layer="layer16" inkscape:snap-bbox="true" inkscape:snap-grids="false" inkscape:bbox-paths="true" inkscape:bbox-nodes="true" inkscape:object-paths="true" inkscape:snap-intersection-paths="true" showguides="false" inkscape:guide-bbox="true" inkscape:snap-bbox-edge-midpoints="true" inkscape:snap-bbox-midpoints="true" inkscape:snap-smooth-nodes="true" inkscape:snap-midpoints="true" inkscape:snap-object-midpoints="true" inkscape:snap-center="true" inkscape:snap-page="true" inkscape:snap-nodes="true" inkscape:snap-to-guides="true" inkscape:showpageshadow="0" inkscape:pagecheckerboard="0" inkscape:deskcolor="#d1d1d1">
        <inkscape:grid spacingy="24" spacingx="24" units="in" id="grid3830" type="xygrid" originx="0" originy="0" />
        <sodipodi:guide id="guide1071" position="408,0" orientation="1056.0,0" inkscape:locked="false" />
        <sodipodi:guide id="guide1073" position="0,352" orientation="0,816.0" inkscape:locked="false" />
        <sodipodi:guide id="guide1075" position="0,704" orientation="0,816.0" inkscape:locked="false" />
        <sodipodi:guide position="0,1056" orientation="0,816" id="guide1181" inkscape:locked="false" />
        <sodipodi:guide position="816,1056" orientation="1056,0" id="guide1183" inkscape:locked="false" />
        <sodipodi:guide position="816,0" orientation="0,-816" id="guide1185" inkscape:locked="false" />
        <sodipodi:guide position="0,0" orientation="-1056,0" id="guide1187" inkscape:locked="false" />
        <sodipodi:guide position="-423.74378,161.74066" orientation="161.74066,0" id="guide926" inkscape:locked="false" />
        <sodipodi:guide position="-423.74378,0" orientation="0,1920" id="guide928" inkscape:locked="false" />
        <sodipodi:guide position="1496.2562,0" orientation="-327.47229,-0.5084" id="guide930" inkscape:locked="false" />
        <sodipodi:guide position="1920,168.0665" orientation="168.0665,0" inkscape:locked="false" id="guide1008" />
        <sodipodi:guide position="1920,0" orientation="0,-960.00019" inkscape:locked="false" id="guide1010" />
        <sodipodi:guide position="959.99981,0" orientation="-141.8027,0" inkscape:locked="false" id="guide1012" />
        <sodipodi:guide position="1920,287.19851" orientation="86.96802,0" inkscape:locked="false" id="guide1088" />
        <sodipodi:guide position="1920,200.23049" orientation="200.23049,0" inkscape:locked="false" id="guide1090" />
        <sodipodi:guide position="1920,0" orientation="0,-2287.4422" inkscape:locked="false" id="guide1092" />
        <sodipodi:guide position="-367.4422,0" orientation="-50.6824,0" inkscape:locked="false" id="guide1094" />
        <sodipodi:guide position="-367.4422,50.68240000000003" orientation="-236.51611,2287.4422" inkscape:locked="false" id="guide1096" />
    </sodipodi:namedview>
    <metadata id="metadata3826">
        <rdf:RDF>
            <cc:Work rdf:about="">
                <dc:format>image/svg+xml</dc:format>
                <dc:type rdf:resource="http://purl.org/dc/dcmitype/StillImage" />
            </cc:Work>
        </rdf:RDF>
    </metadata>
    <defs id="defs3824">
        <inkscape:path-effect effect="powerstroke" message="" id="path-effect45" is_visible="true" lpeversion="1.3" scale_width="1" interpolator_type="CubicBezierJohan" interpolator_beta="0.2" start_linecap_type="zerowidth" end_linecap_type="zerowidth" offset_points="0,0.89010672165522" linejoin_type="extrp_arc" miter_limit="4" not_jump="false" sort_points="true" />
        <inkscape:path-effect effect="powerstroke" message="" id="path-effect43" is_visible="true" lpeversion="1.3" scale_width="1" interpolator_type="CubicBezierJohan" interpolator_beta="0.2" start_linecap_type="zerowidth" end_linecap_type="zerowidth" offset_points="0,0.89010672165522" linejoin_type="extrp_arc" miter_limit="4" not_jump="false" sort_points="true" />
        <inkscape:path-effect effect="powerstroke" message="" id="path-effect41" is_visible="true" lpeversion="1.3" scale_width="1" interpolator_type="CubicBezierJohan" interpolator_beta="0.2" start_linecap_type="zerowidth" end_linecap_type="zerowidth" offset_points="8.40197570706689e-16,0.89010672165522" linejoin_type="extrp_arc" miter_limit="4" not_jump="false" sort_points="true" />
        <inkscape:path-effect effect="powerstroke" message="" id="path-effect39" is_visible="true" lpeversion="1.3" scale_width="1" interpolator_type="CubicBezierJohan" interpolator_beta="0.2" start_linecap_type="zerowidth" end_linecap_type="zerowidth" offset_points="0,0.89010672165522" linejoin_type="extrp_arc" miter_limit="4" not_jump="false" sort_points="true" />
        <inkscape:path-effect effect="powerstroke" message="" id="path-effect37" is_visible="true" lpeversion="1.3" scale_width="1" interpolator_type="CubicBezierJohan" interpolator_beta="0.2" start_linecap_type="zerowidth" end_linecap_type="zerowidth" offset_points="0,0.89010672165522" linejoin_type="extrp_arc" miter_limit="4" not_jump="false" sort_points="true" />
        <inkscape:path-effect effect="powerstroke" message="" id="path-effect36" is_visible="true" lpeversion="1.3" scale_width="1" interpolator_type="CubicBezierJohan" interpolator_beta="0.2" start_linecap_type="zerowidth" end_linecap_type="zerowidth" offset_points="0.01037313402978376,0.8901067216552203" linejoin_type="extrp_arc" miter_limit="4" not_jump="false" sort_points="true" />
        <inkscape:path-effect effect="powerstroke" message="" id="path-effect35" is_visible="true" lpeversion="1.3" scale_width="1" interpolator_type="CubicBezierJohan" interpolator_beta="0.2" start_linecap_type="zerowidth" end_linecap_type="zerowidth" offset_points="0.02606882829488448,2.461925459614312" linejoin_type="extrp_arc" miter_limit="4" not_jump="false" sort_points="true" />
        <inkscape:path-effect effect="powerstroke" message="" id="path-effect34" is_visible="true" lpeversion="1.3" scale_width="1" interpolator_type="CubicBezierJohan" interpolator_beta="0.2" start_linecap_type="zerowidth" end_linecap_type="zerowidth" offset_points="0.001186129318461862,2.922934053488965" linejoin_type="extrp_arc" miter_limit="4" not_jump="false" sort_points="true" />
        <inkscape:path-effect effect="powerstroke" message="" id="path-effect33" is_visible="true" lpeversion="1.3" scale_width="1" interpolator_type="CubicBezierJohan" interpolator_beta="0.2" start_linecap_type="zerowidth" end_linecap_type="zerowidth" offset_points="0,4.44441018384093" linejoin_type="extrp_arc" miter_limit="4" not_jump="false" sort_points="true" />
        <inkscape:path-effect effect="powerstroke" message="" id="path-effect32" is_visible="true" lpeversion="1.3" scale_width="1" interpolator_type="CubicBezierJohan" interpolator_beta="0.2" start_linecap_type="zerowidth" end_linecap_type="zerowidth" offset_points="0,4.44441018384093" linejoin_type="extrp_arc" miter_limit="4" not_jump="false" sort_points="true" />
        <inkscape:path-effect effect="powerstroke" message="" id="path-effect30" is_visible="true" lpeversion="1.3" scale_width="1" interpolator_type="CubicBezierJohan" interpolator_beta="0.2" start_linecap_type="zerowidth" end_linecap_type="zerowidth" offset_points="0,4.44441018384093" linejoin_type="extrp_arc" miter_limit="4" not_jump="false" sort_points="true" />
        <inkscape:path-effect effect="powerstroke" message="" id="path-effect28" is_visible="true" lpeversion="1.3" scale_width="1" interpolator_type="CubicBezierJohan" interpolator_beta="0.2" start_linecap_type="zerowidth" end_linecap_type="zerowidth" offset_points="0,4.44441018384093" linejoin_type="extrp_arc" miter_limit="4" not_jump="false" sort_points="true" />
        <inkscape:path-effect effect="powerstroke" message="" id="path-effect26" is_visible="true" lpeversion="1.3" scale_width="1" interpolator_type="CubicBezierJohan" interpolator_beta="0.2" start_linecap_type="zerowidth" end_linecap_type="zerowidth" offset_points="0,4.44441018384093" linejoin_type="extrp_arc" miter_limit="4" not_jump="false" sort_points="true" />
        <inkscape:path-effect effect="powerstroke" message="" id="path-effect23" is_visible="true" lpeversion="1.3" scale_width="1" interpolator_type="CubicBezierJohan" interpolator_beta="0.2" start_linecap_type="zerowidth" end_linecap_type="zerowidth" offset_points="0,4.44441018384093" linejoin_type="extrp_arc" miter_limit="4" not_jump="false" sort_points="true" />
        <inkscape:path-effect effect="powerstroke" message="" id="path-effect20" is_visible="true" lpeversion="1.3" scale_width="1" interpolator_type="CubicBezierJohan" interpolator_beta="0.2" start_linecap_type="zerowidth" end_linecap_type="zerowidth" offset_points="0,4.44441018384093" linejoin_type="extrp_arc" miter_limit="4" not_jump="false" sort_points="true" />
        <inkscape:path-effect effect="powerstroke" message="" id="path-effect18" is_visible="true" lpeversion="1.3" scale_width="1" interpolator_type="CubicBezierJohan" interpolator_beta="0.2" start_linecap_type="zerowidth" end_linecap_type="zerowidth" offset_points="0,4.44441018384093" linejoin_type="extrp_arc" miter_limit="4" not_jump="false" sort_points="true" />
        <clipPath id="clipPath3842" clipPathUnits="userSpaceOnUse">
            <rect style="stroke-width:3.7746" y="0" x="0" height="1056" width="816" id="rect3844" />
        </clipPath>
        <clipPath id="clipPath3842-3" clipPathUnits="userSpaceOnUse">
            <rect style="stroke-width:3.7746" y="0" x="0" height="1056" width="816" id="rect3844-5" />
        </clipPath>
        <clipPath id="clipPath3842-3-9" clipPathUnits="userSpaceOnUse">
            <rect style="stroke-width:3.7746" y="0" x="0" height="1056" width="816" id="rect3844-5-1" />
        </clipPath>
        <clipPath id="clipPath3842-3-9-2" clipPathUnits="userSpaceOnUse">
            <rect style="stroke-width:3.7746" y="0" x="0" height="1056" width="816" id="rect3844-5-1-7" />
        </clipPath>
        <clipPath id="clipPath3842-3-9-2-3" clipPathUnits="userSpaceOnUse">
            <rect style="stroke-width:3.7746" y="0" x="0" height="1056" width="816" id="rect3844-5-1-7-6" />
        </clipPath>
        <inkscape:path-effect effect="fill_between_many" method="bsplinespiro" autoreverse="false" close="false" join="false" linkedpaths="#path18,0,1" id="path-effect19" is_visible="true" lpeversion="0" />
        <inkscape:path-effect effect="fill_between_many" method="bsplinespiro" autoreverse="false" close="false" join="false" linkedpaths="#path20,0,1" id="path-effect21" is_visible="true" lpeversion="0" />
        <inkscape:path-effect effect="fill_between_many" method="bsplinespiro" autoreverse="false" close="false" join="false" linkedpaths="#path23,0,1" id="path-effect24" is_visible="true" lpeversion="0" />
        <inkscape:path-effect effect="fill_between_many" method="bsplinespiro" autoreverse="false" close="false" join="false" linkedpaths="#path26,0,1" id="path-effect27" is_visible="true" lpeversion="0" />
        <inkscape:path-effect effect="fill_between_many" method="bsplinespiro" autoreverse="false" close="false" join="false" linkedpaths="#path28,0,1" id="path-effect29" is_visible="true" lpeversion="0" />
        <inkscape:path-effect effect="fill_between_many" method="bsplinespiro" autoreverse="false" close="false" join="false" linkedpaths="#path30,0,1" id="path-effect31" is_visible="true" lpeversion="0" />
        <inkscape:path-effect effect="fill_between_many" method="bsplinespiro" autoreverse="false" close="false" join="false" linkedpaths="#path37,0,1" id="path-effect38" is_visible="true" lpeversion="0" />
        <inkscape:path-effect effect="fill_between_many" method="bsplinespiro" autoreverse="false" close="false" join="false" linkedpaths="#path39,0,1" id="path-effect40" is_visible="true" lpeversion="0" />
        <inkscape:path-effect effect="fill_between_many" method="bsplinespiro" autoreverse="false" close="false" join="false" linkedpaths="#path40,0,1" id="path-effect42" is_visible="true" lpeversion="0" />
        <inkscape:path-effect effect="fill_between_many" method="bsplinespiro" autoreverse="false" close="false" join="false" linkedpaths="#path42,0,1" id="path-effect44" is_visible="true" lpeversion="0" />
        <inkscape:path-effect effect="fill_between_many" method="bsplinespiro" autoreverse="false" close="false" join="false" linkedpaths="#path44,0,1" id="path-effect46" is_visible="true" lpeversion="0" />
    </defs>
    <g style="display:inline" inkscape:label="bottom" id="layer8" inkscape:groupmode="layer" transform="translate(0,-516)" sodipodi:insensitive="true" />
    <g style="display:inline" inkscape:label="bg" id="layer13" inkscape:groupmode="layer" transform="translate(0,-516)">
        <g style="display:inline;opacity:1" inkscape:label="walls" id="layer16" inkscape:groupmode="layer">
            <path inkscape:connector-curvature="0" id="path1056" d="M -5.684341886080802e-14,1011.662475 3.979039320256561e-13,516 H 960 L 959.9999999999995,912.4007450000002 Z" style="fill:#2f9e44;stroke:none;stroke-width:0.297844px;stroke-linecap:butt;stroke-linejoin:miter;stroke-opacity:1" sodipodi:nodetypes="ccccc" />
        </g>
        <g inkscape:label="floor" id="layer17" inkscape:groupmode="layer" style="display:inline">
            <path sodipodi:nodetypes="cccccc" inkscape:connector-curvature="0" id="path1022" d="M 959.9999999999995,912.4007450000002 V 955.8847549999999 1056 H -5.684341886080802e-14 V 1011.662475 Z" style="display:inline;fill:#51cf66;stroke:none;stroke-width:0.297844px;stroke-linecap:butt;stroke-linejoin:miter;stroke-opacity:1" />
        </g>
        <g inkscape:label="surface" id="layer15" inkscape:groupmode="layer" style="display:inline">
            <path style="font-variation-settings:normal;opacity:1;vector-effect:none;fill:#2b8a3e;fill-opacity:1;stroke-width:0.999531;stroke-linecap:butt;stroke-linejoin:miter;stroke-miterlimit:4;stroke-dasharray:0.999531, 5.99717;stroke-dashoffset:0;stroke-opacity:1;-inkscape-stroke:none;paint-order:fill markers stroke" d="M 1920,473.4604096792679 1581.534998651888,287.7979708106936 1559.982907552415,-540.000000000001 H 1920.000000000001 Z" id="path18" transform="matrix(0.4999999999999999,0,0,0.4999999999999999,-5.684341886080802e-14,786.0000000000004)" sodipodi:nodetypes="ccccc" />
            <path style="font-variation-settings:normal;opacity:1;vector-effect:none;fill:#212529;fill-opacity:1;stroke-width:0.499766;stroke-linecap:butt;stroke-linejoin:miter;stroke-miterlimit:4;stroke-dasharray:0.499766, 2.99858;stroke-dashoffset:0;stroke-opacity:1;-inkscape-stroke:none;paint-order:fill markers stroke" d="M 467.6985479481227,969.7210769130959 476.094403613506,918.9699227456947 815.9960937499995,898.8312375000002 824.9970978089263,843.9845925511529 922.0625016041658,831.4824631607503 942.0742390606992,1019.937683492687 504.7390876483436,1056 Z" id="path22" sodipodi:nodetypes="cccccccc" />
            <path id="path880" style="fill:#495057;stroke:none;stroke-width:0.297844px;stroke-linecap:butt;stroke-linejoin:miter;stroke-opacity:1" d="M 812.4609374999995,908.5283203125004 808.8203124999995,908.7861328125 808.8349609375,908.7919921875001 486.6931771790866,930.4794450594952 528.3398143389238,981.5234337419784 894.466796875,943.3603515625005 898.2177734375,943.1162109375004 Z" sodipodi:nodetypes="cccccccc" />
            <path id="path14" style="font-variation-settings:normal;opacity:1;vector-effect:none;fill:#343a40;fill-opacity:1;stroke-width:0.499766;stroke-linecap:butt;stroke-linejoin:miter;stroke-miterlimit:4;stroke-dasharray:0.499766, 2.99858;stroke-dashoffset:0;stroke-opacity:1;-inkscape-stroke:none;paint-order:fill markers stroke" d="M 892.2656249999995,844.1669921875 898.2177734375,943.1162109375004 528.33984375,981.5234375000001 517.7441406249995,1042.01953125 926.7705078125,1008.033203125 914.3251953124995,844.1669921875 Z" sodipodi:nodetypes="ccccccc" />
            <path style="font-variation-settings:normal;opacity:1;vector-effect:none;fill:#2b8a3e;fill-opacity:1;stroke-width:0.499766;stroke-linecap:butt;stroke-linejoin:miter;stroke-miterlimit:4;stroke-dasharray:0.499766, 2.99858;stroke-dashoffset:0;stroke-opacity:1;-inkscape-stroke:none;paint-order:fill markers stroke" d="M 486.6931771790866,930.4794450594952 476.094403613506,968.7333291877567 517.7444326986426,1042.019254185344 528.3398143389238,981.5234337419784 Z" id="path19" sodipodi:nodetypes="ccccc" />
            <path style="font-variation-settings:normal;opacity:1;vector-effect:none;fill:#868e96;fill-opacity:1;stroke-width:0.499766;stroke-linecap:butt;stroke-linejoin:miter;stroke-miterlimit:4;stroke-dasharray:0.499766, 2.99858;stroke-dashoffset:0;stroke-opacity:1;-inkscape-stroke:none;paint-order:fill markers stroke" d="M 892.2654452230981,844.1671816761451 811.389078747615,852.8254016649256 822.4553713169525,902.5542315900285 862.156455557548,928.5717736924721 898.2177734375,943.1162109375004 Z" id="path21" />
        </g>
        <g inkscape:groupmode="layer" id="layer18" inkscape:label="paper">
            <path style="fill:#cfd8dc;stroke:none;stroke-width:0.297844px;stroke-linecap:butt;stroke-linejoin:miter;stroke-opacity:1" d="M 762.0995500000001,944.4801349999999 706.7123499999995,946.8063549999998 697.1170499999996,932.998555 750.6131499999999,931.0450399999999 Z" id="path1190" inkscape:connector-curvature="0" sodipodi:nodetypes="ccccc" />
            <path style="fill:#b0bec5;stroke:none;stroke-width:0.297844px;stroke-linecap:butt;stroke-linejoin:miter;stroke-opacity:1" d="M 706.7123499999995,946.8063500000001 706.4003499999996,950.3168200000004 697.0816999999997,936.1615750000001 697.1176999999995,932.9985500000003 Z" id="path1192" inkscape:connector-curvature="0" sodipodi:nodetypes="ccccc" />
            <path style="fill:#90a4ae;stroke:none;stroke-width:0.297844px;stroke-linecap:butt;stroke-linejoin:miter;stroke-opacity:1" d="M 762.0995500000001,944.4801349999999 761.4725999999996,947.2535849999998 706.4003499999996,950.3168200000005 706.7123499999995,946.8063550000005 Z" id="path1194" inkscape:connector-curvature="0" sodipodi:nodetypes="ccccc" />
            <path style="opacity:1;fill:#343a40;fill-rule:nonzero;stroke:none;stroke-width:0.297844" d="M 714.0616999999997,932.6893050000001 C 714.0916999999999,932.683155 714.1234999999999,932.6853050000001 714.15245,932.6976050000002 714.2867499999997,932.7752300000003 714.4399999999998,932.8152100000002 714.5811499999995,932.879095 714.3396999999997,933.2909550000002 714.0982999999996,933.7028300000002 713.8568999999999,934.1146950000002 713.8032999999998,934.1443450000001 713.7736499999996,934.2333050000002 713.8253999999997,934.2781300000002 L 712.5362499999996,937.8132700000001 C 712.3388999999997,938.0275750000001 712.1414499999996,938.24182 711.9440999999999,938.4561150000002 711.6128999999998,938.39443 711.2817,938.3327949999999 710.9505499999993,938.2711100000003 710.7232999999996,938.1228850000001 710.4765999999997,937.9461100000002 710.40425,937.66903 710.40425,937.66503 710.4042999999999,937.6636799999998 710.40425,937.6607300000001 710.3667499999994,937.6346300000004 710.3402499999995,937.6124299999999 710.3442499999996,937.60545 710.3602499999997,937.5826500000002 710.3752499999998,937.5602500000001 710.3917499999995,937.537965 710.3857500000001,937.3493050000002 710.4656999999997,937.1627450000001 710.5663499999998,937.0056599999999 711.1000499999995,936.1305249999998 711.6432999999997,935.2614150000002 712.1806499999995,934.3884700000002 712.3590999999994,934.099775 712.53745,933.8110150000001 712.7158499999998,933.522285 712.8301499999995,933.367435 713.0176499999995,933.2566300000002 713.2143499999997,933.2715650000005 713.5238999999999,933.1770850000003 713.7137999999997,932.8936050000002 713.9786999999994,932.7270600000005 714.0031999999994,932.7087599999999 714.0317,932.6950600000001 714.0624499999996,932.6891100000003 Z M 720.6479999999999,933.0261000000002 720.673,933.0557500000001 C 720.6789999999996,933.1126999999999 720.5950499999994,933.0123500000003 720.6479999999999,933.0261000000002 Z M 719.9661499999997,933.04115 C 720.1802,933.1069050000002 720.3942999999999,933.1726100000003 720.6084499999999,933.2383600000002 L 721.5927499999995,933.3436250000002 C 722.1255999999996,933.5018700000001 722.6584999999995,933.6600899999999 723.1912499999998,933.8183200000001 723.1179999999999,933.9626199999999 723.0446999999999,934.1068650000001 722.9713999999994,934.2511199999999 722.3904499999996,934.0450000000003 721.8094499999997,933.838885 721.22855,933.6327649999997 721.15985,933.6661149999999 721.0679999999997,933.6455650000003 721.0248999999996,933.5810000000003 720.9869000000001,933.6079999999996 721.0548999999996,933.66297 721.0098999999995,933.6857249999998 720.9568999999994,933.9036299999999 720.9024999999999,934.1215800000001 720.8487499999996,934.3395799999999 L 720.3740499999994,934.2540449999999 C 720.3370499999996,934.3822100000001 720.3007999999997,934.5103750000001 720.2641499999995,934.6385899999999 719.9569999999996,934.5819399999999 719.6498000000001,934.5253200000003 719.3426999999994,934.4687049999999 719.2986999999998,934.617435 719.2542999999996,934.7661550000003 719.2100999999995,934.9148949999997 719.3056999999994,935.0108899999999 719.4012499999998,935.1068850000003 719.4968499999993,935.2028399999998 719.4863499999994,935.2672200000002 719.47685,935.3315950000001 719.4678499999993,935.3959850000001 719.8172499999996,935.5008850000003 720.1666499999994,935.605795 720.5161,935.7107100000001 720.5625999999995,935.6938100000002 720.5025999999993,935.6218750000001 720.5535999999997,935.60951 720.6545999999998,935.3726750000002 720.7555499999996,935.13595 720.8565999999996,934.8991699999997 721.0564999999999,934.7153500000001 721.2564499999996,934.5315350000003 721.4564,934.34771 721.7766999999998,934.4175400000002 722.0970999999995,934.4873500000001 722.4173499999999,934.5571250000001 722.7028499999994,934.6791150000003 722.9882499999996,934.801075 723.2736499999998,934.9230249999997 723.2733999999998,934.8832250000002 723.3260499999994,934.8439749999998 723.3604,934.8764749999998 L 724.2905499999999,934.4518149999998 C 724.3511499999997,934.4303649999998 724.41975,934.4203149999996 724.4667999999999,934.372125 L 725.3097,934.6565599999998 725.2626999999999,934.6780100000001 C 725.3001999999994,934.66881 725.3609999999996,934.6820100000001 725.3795999999997,934.6337099999996 725.3990999999996,934.6409599999997 725.4302,934.6922099999998 725.4563500000001,934.66111 725.2047499999994,934.9271250000003 724.9529999999997,935.1931899999999 724.7013499999993,935.4592099999998 724.5647499999995,935.7396199999997 724.4283499999994,936.0199849999999 724.2917999999997,936.3003949999995 724.0547499999993,936.4733449999998 723.8178999999995,936.6463349999995 723.5809499999998,936.81932 L 722.7053999999998,936.502265 C 722.5720499999999,936.502265 722.4777499999995,936.6595399999999 722.5268999999998,936.7791600000002 L 722.4547499999996,937.3539199999999 C 721.8911500000001,937.5792299999997 721.3276499999999,937.8045349999997 720.7641999999998,938.0298899999999 720.4775999999999,937.8710700000003 720.1909999999998,937.7122400000002 719.9043499999997,937.5534199999995 719.7712499999995,937.4927849999999 719.6379999999996,937.43206 719.5047999999999,937.3713800000003 719.3734999999996,937.70004 719.2422499999995,938.0287000000002 719.1109999999994,938.3574100000002 718.6264999999989,938.22669 718.1421500000001,938.0960050000001 717.6577499999989,937.9653300000001 717.942749999999,937.1293399999999 718.2278000000001,936.2934049999998 718.5128999999994,935.457485 718.3961999999992,935.3019900000003 718.279449999999,935.1464550000002 718.1626999999994,934.9909149999999 718.2709499999994,934.682635 718.3790999999991,934.3743000000002 718.4872999999995,934.0660200000002 718.6100999999991,933.7823200000003 718.7328499999987,933.498615 718.8555499999995,933.2149149999999 718.9778999999994,933.2400650000001 719.1002999999991,933.2653700000003 719.2225999999991,933.2905350000002 719.2065999999995,933.3617700000002 719.3470999999995,933.3490950000003 719.3209999999992,933.2822350000003 719.5363499999994,933.2017750000001 719.7517499999994,933.1212999999999 719.9671999999991,933.0408450000002 Z M 710.8877499999996,933.588535 C 711.1503499999996,933.7278999999999 711.2369499999997,934.0774450000001 711.13795,934.344785 711.0291999999999,934.6503850000002 710.8038499999995,934.8940050000001 710.6108999999994,935.1487449999999 709.8086999999995,936.168625 709.0064499999996,937.1887500000004 708.2042499999995,938.2086450000001 707.8686500000001,938.5764649999999 707.5329499999998,938.9443300000002 707.1973,939.3121550000004 706.9064499999999,939.4726200000001 706.61995,939.6914850000003 706.2723999999991,939.6908950000004 705.98035,939.7064450000004 705.6509499999997,939.7264950000002 705.4033499999998,939.5431200000001 705.1802500000001,939.3688999999998 705.0911999999996,939.0509750000001 705.1833999999998,938.7845500000003 705.28015,938.5020800000002 705.4718999999995,938.2657150000004 705.6330499999999,938.0178350000001 706.0844499999996,937.3630250000001 706.5359499999997,936.7081599999999 706.9872499999999,936.0533500000003 707.2112499999998,935.7858750000002 707.4724999999998,935.5492800000001 707.7650999999998,935.35874 708.4612999999999,934.8791599999999 709.1764999999998,934.4280899999999 709.8866499999999,933.96956 710.1427499999995,933.8225250000001 710.4070999999999,933.6847700000002 710.6922999999999,933.6036650000002 710.7566499999993,933.5931150000004 710.8222499999997,933.5781150000003 710.8877499999996,933.5886150000001 Z M 714.4775999999999,934.7101 714.4875999999992,934.7229000000002 C 714.4815999999993,934.7681000000001 714.5655999999999,934.7686000000001 714.5672499999998,934.7269000000001 714.6047499999997,934.7163500000004 714.6509499999997,934.7565500000004 714.6784,934.7141000000003 714.7273999999995,934.7717650000003 714.8087499999999,934.6908000000001 714.8615499999996,934.7392500000003 L 715.7697499999999,934.7516000000001 715.4735999999993,935.7184299999998 C 715.0786499999996,936.4968 714.6836499999997,937.2751600000004 714.2886499999997,938.0535300000004 714.5218999999997,938.2869699999999 714.7550999999998,938.5204550000003 714.9883999999999,938.7538900000004 715.3884999999997,939.0003500000003 715.7884999999996,939.2468200000002 716.1885499999996,939.4932850000005 717.4775999999999,940.0682300000001 718.7667999999996,940.6431650000004 720.0557999999996,941.2181050000002 719.9268999999999,941.6167750000003 719.7979,942.015435 719.6689999999996,942.4141400000002 719.3862999999994,942.3142200000002 719.1033499999996,942.1993950000002 718.8220499999995,942.0900950000003 718.1664499999999,941.8206500000004 717.5045999999997,941.5653200000001 716.8644999999999,941.2599700000002 716.5359499999997,941.1113750000004 716.2323499999999,940.9147550000003 715.9266999999997,940.7247750000004 715.5691999999994,940.4676200000004 715.2122499999998,940.2090900000002 714.86635,939.9365400000003 714.4331999999999,939.5719600000001 713.99225,939.2145950000004 713.5893999999996,938.8161250000003 713.3754999999996,938.6128400000001 713.2226,938.3188050000002 713.2618499999998,938.0174300000001 713.3073499999998,937.6885850000001 713.4491,937.3840399999997 713.5614999999995,937.0744850000002 713.8593999999995,936.2839250000001 714.1682999999998,935.4975150000003 714.47765,934.7114800000003 Z M 717.1808999999998,935.3250150000004 717.1898999999998,935.3419150000001 C 716.9845,936.0157399999997 716.7791499999998,936.6896050000002 716.5738000000001,937.363425 716.4991499999996,937.684135 716.4244999999996,938.0048900000001 716.3498499999998,938.3256050000001 717.2435499999999,938.6073399999999 718.1372999999996,938.8891250000003 719.0309999999999,939.1708599999996 L 719.4393999999997,940.1534250000001 716.3713499999998,939.0591400000001 C 716.0979999999999,938.9161750000001 715.7997499999999,938.7212050000003 715.7331999999998,938.39716 715.6593500000001,938.0889250000003 715.7757000000001,937.7810999999999 715.8343999999997,937.4809399999998 715.9145499999995,937.1517750000003 716.00315,936.8249949999997 716.0886500000001,936.497245 716.2092,936.22935 716.3258499999999,935.9443700000001 716.5539999999996,935.7479849999999 716.7586999999996,935.6011249999999 716.9684999999999,935.4609949999999 717.1805499999998,935.3250650000001 Z M 727.2982999999996,935.70371 727.3042999999993,935.7325599999999 C 727.4529999999997,935.8430900000003 727.6016999999999,935.9536250000002 727.7504499999995,936.0641450000002 727.8695499999994,935.978245 727.98855,935.8923500000003 728.1075999999998,935.8064450000001 728.46135,936.0323400000002 728.8149999999998,936.2582450000001 729.1687999999999,936.4841449999998 729.2566499999998,936.490495 729.2361999999998,936.6435250000004 729.1522999999997,936.6360349999999 727.6398999999998,937.8252650000002 726.1276999999995,939.0144799999998 724.6153499999998,940.203755 725.5034499999999,941.1335000000004 726.3915999999999,942.0632850000004 727.2796999999998,942.99311 L 726.3623,944.0443050000004 C 726.0867499999999,943.8719050000003 725.8112499999997,943.699515 725.5356499999993,943.5271650000001 725.2411499999996,943.86122 724.9465499999998,944.1953650000002 724.652,944.5294599999999 L 723.6717999999998,944.0431199999998 C 723.3941499999998,943.8649150000001 723.1164499999995,943.6867200000002 722.8386999999995,943.5085250000003 L 721.7805999999998,942.4328850000001 C 721.5936499999997,942.1635299999999 721.4067499999996,941.8942200000003 721.2197999999998,941.6248750000002 721.0735999999997,941.1028799999998 720.9273999999998,940.5808550000001 720.7812000000001,940.0588699999996 720.9906499999997,939.788135 721.1965999999995,939.5142150000002 721.4251499999998,939.2590300000002 722.4933999999998,938.5337999999997 723.5615999999995,937.8085899999998 724.6299000000001,937.083355 725.5166999999999,936.6180750000002 726.4022999999997,936.1503700000002 727.2988999999995,935.70406 Z M 723.7992000000001,935.9101950000002 C 723.7992000000001,935.9061950000003 723.7931999999998,935.9061950000003 723.7841999999998,935.914195 L 723.7712000000001,935.935695 C 723.7816999999995,935.944395 723.8031999999998,935.9182949999997 723.7992000000001,935.9119450000002 Z M 723.4094999999997,935.946295 C 723.4034999999994,935.9422950000003 723.4034999999994,935.946295 723.3964999999998,935.9554450000002 L 723.3904999999997,935.9815450000002 C 723.4054999999993,935.985545 723.4164999999998,935.9500450000002 723.4099999999998,935.9459450000001 Z M 730.2209499999999,937.0143549999999 C 730.2344500000001,937.0103549999998 730.2484499999998,937.0143549999999 730.2594499999993,937.021655 L 732.3914999999999,939.0193099999999 732.5671499999996,939.2013899999997 C 732.0003999999998,939.6039400000003 731.4335499999997,940.00649 730.8667499999999,940.4090299999999 730.33195,940.7164000000003 729.7971499999996,941.0237249999998 729.2623999999996,941.331095 730.1264499999997,941.5899399999995 730.9904999999996,941.8488300000004 731.8545999999996,942.107675 731.7058500000005,942.4776400000001 731.5570999999995,942.84766 731.4083499999997,943.21763 731.3838500000001,943.2682000000002 731.3593500000004,943.3188399999999 731.3351499999996,943.3694200000001 L 730.3176499999997,943.1390800000003 728.9273499999999,942.6934899999998 C 728.6246499999997,942.5641399999997 728.3220000000001,942.4347799999998 728.0192499999996,942.3054800000001 727.7207999999993,942.1482049999999 727.4223999999999,941.9909350000003 727.1239499999999,941.8337050000001 726.9953999999995,941.5240100000002 726.8667999999995,941.2143550000004 726.7382500000001,940.9046949999997 726.6622999999997,940.5913450000003 726.5862499999998,940.2779899999998 726.5102499999998,939.9645849999996 727.3599499999995,939.2655450000002 728.2096499999995,938.5665 729.0593499999995,937.8675050000002 L 730.1832999999996,937.0303900000001 C 730.1937999999995,937.0225900000002 730.2063,937.0161900000001 730.2207999999995,937.0139399999997 Z M 721.6008999999994,937.2836599999998 C 721.5903999999998,937.2836599999998 721.5768999999997,937.2876600000003 721.5763999999999,937.28901 L 721.6078999999997,937.2990600000003 C 721.6194,937.2880600000002 721.6138999999998,937.28401 721.6008999999994,937.28351 Z M 719.2484499999998,937.2876600000003 C 719.2424499999997,937.2876600000003 719.2414499999997,937.2916600000002 719.2374499999996,937.29781 H 719.2864499999991 C 719.2734499999999,937.3018100000003 719.2584499999998,937.2845099999996 719.2479499999992,937.2868599999998 Z M 709.9454499999999,938.4389650000001 C 709.9996499999997,938.4429650000002 710.0544999999997,938.453115 710.1082999999996,938.4791650000003 L 710.1607499999995,938.4933650000002 710.1882499999999,938.500715 C 710.4901499999996,938.6048900000001 710.7925999999999,938.7105300000001 711.0829999999996,938.8439500000002 711.3787999999997,938.9743600000001 711.6691499999999,939.1173699999998 711.9561999999998,939.26569 712.2077999999999,939.4141850000002 712.4144499999995,939.6340100000001 712.5507499999996,939.8922199999997 712.6210999999996,940.0123850000001 712.6677999999999,940.1443499999999 712.6943499999997,940.2807800000001 712.4632999999994,940.28768 712.2336499999998,940.3150300000002 712.0038999999992,940.3377899999996 712.7736999999997,940.6693650000001 713.5434999999995,941.0009550000002 714.3133499999994,941.3325450000002 714.6689499999995,941.506445 715.0245499999998,941.6803949999998 715.3802499999999,941.854345 716.0658999999998,942.3243799999999 716.7514999999996,942.7944600000001 717.4371499999997,943.2644500000001 717.6730500000001,943.4419149999999 717.9048999999997,943.7484249999998 717.7763499999996,944.0555999999997 717.6477499999996,944.35845 717.3293999999998,944.5244899999999 717.0224999999998,944.5913900000002 716.6193999999998,944.6907250000002 716.2042499999995,944.7304349999997 715.7902999999994,944.7484250000001 715.4869499999997,944.7524249999999 715.1762499999997,944.7537749999999 714.8850999999997,944.6576799999999 714.5073999999995,944.53034 714.1679499999997,944.3177800000001 713.8240499999999,944.120765 712.8342999999997,943.5270849999996 711.8519999999996,942.9209750000001 710.8671499999993,942.31916 710.3922,942.02418 709.9134999999996,941.7345799999998 709.4407499999997,941.4360800000002 709.2021499999998,941.27273 708.9585999999999,941.1093350000001 708.7635999999997,940.893295 708.5954999999999,940.68006 708.4799999999995,940.4279700000001 708.4151499999998,940.1650150000002 708.3048999999996,939.85527 708.44965,939.5115750000001 708.68505,939.3011249999995 708.9514499999995,939.0729349999998 709.2257999999999,938.8541650000001 709.4948499999998,938.6292649999999 709.6203,938.5245899999999 709.7815999999993,938.4339749999999 709.9451499999993,938.4390499999996 Z" id="path1225" inkscape:connector-curvature="0" sodipodi:nodetypes="ccccccccccccccccccccccccccccccccccccccccccccccccccccccccccccccccccccccccccccccccccccccccccccccccccccccccccccccccccccccccccccccccccccccccccscccsccccccccccccccccccccccccccccccccccccccccccccccccccccccccccc" />
        </g>
    </g>
    <g inkscape:groupmode="layer" id="layer20" inkscape:label="new 1">
        <path style="baseline-shift:baseline;display:inline;overflow:visible;opacity:1;vector-effect:none;fill:#212529;stroke-width:0.5;stroke-linejoin:bevel;paint-order:fill markers stroke;enable-background:accumulate;stop-color:#000000;stop-opacity:1" d="M 769.4931640624995,274.1630859375005 758.5185546874995,276.7158203125005 753.3564453125,282.2802734375005 751.3535156249995,291.1313476562505 747.4814453124995,294.2216796875005 740.1650390624995,306.6601562500005 739.4990234374995,308.2041015625005 737.662109375,314.5205078125005 740.0478515624995,316.8984375000005 740.6853341606206,325.5766188473679 753.0200195312495,328.6704101562505 753.5947265624995,333.9892578125005 761.150390625,341.3828125000005 H 764.7615277879692 L 768.9271808367036,346.8691539057286 765.7011718749995,369.2031250000005 751.7099609375,404.6630859375006 742.505859375,404.3496093750006 736.2984135724163,410.2091100799847 729.4531249999995,411.5722656250005 727.0693468136744,419.0896032162062 734.71142578125,432.8774414062505 742.6201171874995,435.0937500000005 772.1894531249995,427.2333984375006 770.1181640624995,437.8261718750006 772.6601562499995,444.5156250000006 802.7031249999995,467.4189453125005 795.9511718749995,473.9038085937505 799.2578124999995,486.8193359375005 806.3779296874995,489.6025390625005 810.4755859374995,498.5722656250006 804.5234374999995,507.2714843750005 794.0478515625,512.1933593750004 788.5638391387649,519.0709119475476 792.2921722733558,540.0000000000005 819.0991210937495,543.2563476562504 853.6103515625,515.2451171875004 854.5624999999995,511.3076171875005 861.3073718445978,513.9179064600507 881.1007388329194,505.6156900277275 876.6523437499995,488.3852539062505 858.564453125,471.9160156250006 851.458984375,462.3037109375006 848.8154296874995,460.3105468750005 846.79296875,455.5507812500005 841.8974609374995,454.2622070312506 840.2490234374995,440.6025390625005 849.8173828124995,438.0625000000006 865.98681640625,424.5366210937505 869.185546875,410.5380859375006 867.5415039062495,398.7763671875006 864.9921874999995,389.4790039062506 865.8021397365605,385.808277082986 861.3073718445978,379.8749153951596 V 371.4228950671978 L 854.580078125,365.3496093750005 V 366.2185264094472 L 844.48974609375,337.7026367187505 829.1757812499995,322.4711914062505 810.2016601562495,318.1137695312505 813.2822265625,309.1357421875005 811.3300781249995,307.6582031250005 813.2568359374995,300.8896484375005 809.107421875,292.5810546875005 804.7519531249995,293.1796875000005 799.99072265625,286.0786132812505 786.5800781249995,277.6899414062505 772.6015624999995,278.3457031250005 Z" id="path32" sodipodi:nodetypes="ccccccccccccccccccccccccccccccccccccccccccccccccccccccccccccccccccccc" />
        <path style="font-variation-settings:normal;opacity:1;vector-effect:none;fill:none;fill-opacity:1;stroke:#000000;stroke-width:13.5534;stroke-linecap:butt;stroke-linejoin:bevel;stroke-miterlimit:4;stroke-dasharray:none;stroke-dashoffset:0;stroke-opacity:1;-inkscape-stroke:none;paint-order:fill markers stroke" d="M 768.6959503190851,408.7571822184007 785.7768001956119,380.6054111256063 786.6218802879227,375.874022095613 791.2636718749995,378.3720703125006 797.9483072969494,396.0732159938812 774.7041015624995,407.0595703125006 Z" id="path33" />
    </g>
    <g inkscape:groupmode="layer" id="layer6" inkscape:label="new">
        <path style="fill:#495057;fill-opacity:1;stroke-width:0.499766;stroke-dasharray:0.499766, 2.99858;-inkscape-stroke:none;paint-order:fill markers stroke" d="M 779.2719832108348,337.4107336503118 772.9186317649439,352.9846237894047 772.4431100479971,370.5795461555302 755.4684824717967,413.6014470814165 765.2240155615668,414.4794450594957 786.2959670354698,379.7497472599141 789.9055142786844,336.8254016649257 Z" id="path2" sodipodi:nodetypes="cccccccc" />
        <path style="font-variation-settings:normal;opacity:1;vector-effect:none;fill:#fff5f5;fill-opacity:1;stroke-width:0.499766;stroke-linecap:butt;stroke-linejoin:miter;stroke-miterlimit:4;stroke-dasharray:0.499766, 2.99858;stroke-dashoffset:0;stroke-opacity:1;-inkscape-stroke:none;paint-order:fill markers stroke;stop-color:#000000;stop-opacity:1" d="M 806.4436325310007,410.0749746346407 807.1623595314829,404.2026918147881 842.1107331358,398.2572848885542 857.8417476029121,388.2817758247441 859.1570916247683,394.8536574678687 844.4712726242782,405.438823085642 816.3390655015673,406.4042997991553 Z" id="path7" sodipodi:nodetypes="cccccccc" />
        <path style="fill:#37b24d;fill-opacity:1;stroke-width:0.499766;stroke-dasharray:0.499766, 2.99858;-inkscape-stroke:none;paint-order:fill markers stroke" d="M 857.8417476029121,388.2817758247441 859.4755139557935,384.999562986846 854.6137385025529,380.9512017885484 856.2431392891196,377.7010853110622 852.8335270835068,375.8212555636749 853.5193749999998,372.0428761189955 849.7041121482402,371.4381924195517 838.8782903893293,341.2153915553221 826.1096848985885,328.1671816761455 824.8515850763758,329.3232875826662 826.1096848985885,331.8529960694883 835.2194805392141,350.1704037492541 791.2636718749995,378.3720703125006 800.441490015635,402.6752500208737 814.4088398025648,402.9699227456951 842.1107331358,398.2572848885542 Z" id="path8" sodipodi:nodetypes="ccccccccccccccccc" />
        <path id="path1" style="font-variation-settings:normal;opacity:1;vector-effect:none;fill:#fff5f5;fill-opacity:1;stroke-width:0.499766;stroke-linecap:butt;stroke-linejoin:miter;stroke-miterlimit:4;stroke-dasharray:0.499766, 2.99858;stroke-dashoffset:0;stroke-opacity:1;-inkscape-stroke:none;paint-order:fill markers stroke;stop-color:#000000;stop-opacity:1" d="M 784.4912109374995,289.3554687500005 763.5751953125,291.5917968750005 749.0947265624995,312.4902343750005 755.138671875,322.3183593750005 760.37109375,324.2109375000005 V 333.9892578125005 L 764.5986328125,334.0576171875005 766.1035156249995,332.5292968750005 766.4140624999995,336.8261718750005 770.3945312499995,340.1914062500005 773.9716796874995,344.2558593750005 777.3333220625993,344.0869039313212 782.150390625,338.5869140625005 786.41015625,340.4160156250005 787.0224609374995,350.1318359375005 779.8769531249995,372.2441406250005 791.2636718749995,378.3720703125006 801.3115234374995,377.4990234375005 802.6513671875,370.4951171875005 800.0156249999995,393.4199218750005 797.7382812499995,396.3427734375005 774.7041015624995,407.0595703125006 758.3837890625,411.6708984375005 742.2753906249995,411.1220703125005 739.2939453124995,415.4580078125005 738.1621093749995,415.9707031250005 737.5886791424361,414.9925494512128 732.5673828124995,417.5908203125005 735.1044921874995,425.3505859375006 740.87890625,428.5449218750005 755.361328125,424.9423828125006 811.5800781249995,409.6591796875005 815.4453125,403.9804687500006 835.2197265624995,350.1708984375005 824.8515625,329.3232421875005 803.0449218749995,323.6992187500005 794.2958984374995,318.2900390625005 795.0107421874995,302.9580078125005 Z" sodipodi:nodetypes="ccccccccccccccccccccccccccccccccccccccc" />
        <path style="font-variation-settings:normal;opacity:1;vector-effect:none;fill:#37b24d;fill-opacity:1;stroke-width:0.499766;stroke-linecap:butt;stroke-linejoin:miter;stroke-miterlimit:4;stroke-dasharray:0.499766, 2.99858;stroke-dashoffset:0;stroke-opacity:1;-inkscape-stroke:none;paint-order:fill markers stroke;stop-color:#000000;stop-opacity:1" d="M 791.2636718749995,378.3720703125006 779.8769531249995,372.2441406250005 785.3756782355253,355.2279273302567 785.9891077492841,359.4933018936793 796.5481995604341,358.9501953125005 803.4675174195806,332.2397588505083 810.324370420617,325.5766188473679 826.1096848985885,328.1671816761455 824.8515850763758,329.3232875826662 807.7276319778966,333.9962970688922 803.0859348024498,358.1489321515816 802.6513671875,370.4951171875005 801.7692901756327,378.1671282484758 Z" id="path9" sodipodi:nodetypes="cccccccccccccc" />
        <path style="fill:#495057;fill-opacity:1;stroke-width:0.499766;stroke-dasharray:0.499766, 2.99858;-inkscape-stroke:none;paint-order:fill markers stroke" d="M 796.5481995604341,413.7456494701264 780.3159138630055,420.9862927848067 776.7684626298255,439.126600664723 840.0293499999995,487.3528350000006 846.0096948654047,477.501859949941 840.3633674298596,465.8821184736577 816.7444499999999,435.5009800000005 836.4924572312213,434.5127807887649 831.1734494639563,415.7236750699598 811.5803941281642,409.6592794980418 Z" id="path6" sodipodi:nodetypes="ccccccccccc" />
        <path style="font-variation-settings:normal;opacity:1;vector-effect:none;fill:#495057;fill-opacity:1;stroke:none;stroke-width:0.499766;stroke-linecap:butt;stroke-linejoin:miter;stroke-miterlimit:4;stroke-dasharray:0.499766, 2.99858;stroke-dashoffset:0;stroke-opacity:1;-inkscape-stroke:none;paint-order:fill markers stroke" d="M 839.5611777056126,487.9472656250005 846.5225950934659,490.6546939445689 855.3163636455908,503.937683492687 863.3646784446516,508.5227840448789 875.1688734832735,502.7670195219146 871.2341418037326,492.1009700104326 853.5441084676167,476.5246355104331 846.0096948654047,466.3319094133145 838.5424745970201,463.5398943872037 834.2565906689435,458.0269392110151 820.7329988423562,442.965601681624 818.3132023912633,465.0670656298246 814.7284967779305,468.0650107677843 813.1636254094187,466.8720484737078 814.1038705210471,470.6566247742223 818.2336046143368,470.7370907672283 Z" id="path17" sodipodi:nodetypes="ccccccccccccccccc" />
        <path id="path3" style="fill:#495057;fill-opacity:1;stroke-width:0.499766;stroke-dasharray:0.499766, 2.99858;-inkscape-stroke:none;paint-order:fill markers stroke" d="M 771.0283203125,280.7636936273491 760.0537109374995,283.3164062500005 758.1513671874995,295.6083984375005 753.3222656249995,297.6572265625005 746.0058593749995,310.0957031250005 744.1696835452737,316.412074254011 746.7396783444885,315.6562500000005 747.322265625,322.0947265625005 754.3466796875,321.3632812500005 V 315.6562500000005 L 756.6874999999995,320.1923828125005 767.6630859375,310.9736328125005 772.7841796874995,313.7539062500005 778.2720598828268,326.4794921875005 H 784.6787109375 L 785.580078125,333.3291015625005 789.1044921875,328.4736328125005 793.9216187809231,331.0372894608564 797.6162109374995,321.9248046875005 804.0839843749995,318.7451171875005 800.2177734374995,318.6240234375005 805.4169921874995,313.3144531250005 806.6660156249995,307.6708984375005 804.2359863046151,308.9752328156311 800.4882812499995,308.0566406250005 807.19466710608,303.9171783404231 803.0452,295.6083984375005 801.9173863784701,301.4797742960091 795.2458568663448,290.6906230664583 784.9306640624995,283.9013671875005 771.0283203125,284.7792968750005 768.9684841037665,283.5987276386967 Z" sodipodi:nodetypes="ccccccccccccccccccccccccccccccccc" />
        <path style="font-variation-settings:normal;vector-effect:none;fill:#ad8305;fill-opacity:1;stroke-width:0.446626;stroke-linecap:butt;stroke-linejoin:miter;stroke-miterlimit:4;stroke-dasharray:0.446626, 2.67975;stroke-dashoffset:0;stroke-opacity:1;-inkscape-stroke:none;paint-order:fill markers stroke" d="M 838.3483129304661,466.9912976274329 842.6447434539818,466.4078180973575 845.011151451868,462.0888700000004 837.4913110114098,463.5678686322267 837.0485378756841,465.995491488815 Z" id="path12-2" sodipodi:nodetypes="cccccc" />
        <path style="font-variation-settings:normal;opacity:1;vector-effect:none;fill:#ffcb2f;fill-opacity:1;stroke-width:0.446626;stroke-linecap:butt;stroke-linejoin:miter;stroke-miterlimit:4;stroke-dasharray:0.446626, 2.67975;stroke-dashoffset:0;stroke-opacity:1;-inkscape-stroke:none;paint-order:fill markers stroke" d="M 837.4876470650017,466.3319094133145 845.011151451868,462.0888700000004 840.2143879158859,460.7817454982076 835.19939786236,464.5787963694108 Z" id="path12" sodipodi:nodetypes="ccccc" />
        <path style="fill:#fff5f5;fill-opacity:1;stroke-width:0.499766;stroke-dasharray:0.499766, 2.99858;-inkscape-stroke:none;paint-order:fill markers stroke" d="M 796.5481995604341,413.7456494701264 795.3694,423.7520550000006 821.2676999999996,486.8012350000006 838.9624999999996,486.7647350000004 832.7582999999997,434.6780600000004 836.4924572312213,434.5127807887649 844.1447776892175,418.6743242880966 824.6835160978253,406.1179243753355 Z" id="path5" />
        <path style="font-variation-settings:normal;opacity:1;vector-effect:none;fill:#343a40;fill-opacity:1;stroke-width:0.499766;stroke-linecap:butt;stroke-linejoin:miter;stroke-miterlimit:4;stroke-dasharray:0.499766, 2.99858;stroke-dashoffset:0;stroke-opacity:1;-inkscape-stroke:none;paint-order:fill markers stroke;stop-color:#000000;stop-opacity:1" d="M 860.54285,421.2692450000005 846.9460232386461,432.1107961719945 836.4924572312213,434.5127807887649 838.488069065738,424.9419835539906 831.1734494639563,415.7236750699598 815.0208229512186,410.4865429878317 796.5481995604341,413.7456494701264 813.5126953124995,406.8198242187505 815.4450787748478,403.9808549098817 843.9834959697896,401.146388526143 858.4994196138402,391.5677166463063 861.1284089461883,398.7851300020661 860.6840519689935,401.0942939960395 862.5282499999998,410.5677700000005 Z" id="path4" sodipodi:nodetypes="ccccccccccccccc" />
        <path style="font-variation-settings:normal;opacity:1;vector-effect:none;fill:#37b24d;fill-opacity:1;stroke-width:0.499766;stroke-linecap:butt;stroke-linejoin:miter;stroke-miterlimit:4;stroke-dasharray:0.499766, 2.99858;stroke-dashoffset:0;stroke-opacity:1;-inkscape-stroke:none;paint-order:fill markers stroke" d="M 810.0926983298568,469.3865792947362 813.0440852554095,466.7809183659999 815.0945598382702,471.7727804210473 830.0934499999998,475.2172750000005 836.9064714062956,469.5035743103057 836.4323849318939,465.5234337419786 839.5813,467.9359350000004 840.5663452556761,494.8414521511652 847.9812445305881,509.2544490266117 817.5624505881812,536.1797203543771 800.1488240229416,534.5700573945649 796.9294981033174,518.3270948000978 809.0751368000815,512.6201079425823 818.7331145589537,498.5051802553579 812.7509999999997,477.6374400000005 Z" id="path10" sodipodi:nodetypes="cccccccccccccccc" />
        <path style="font-variation-settings:normal;opacity:1;vector-effect:none;fill:#2b8a3e;fill-opacity:1;stroke-width:0.499766;stroke-linecap:butt;stroke-linejoin:miter;stroke-miterlimit:4;stroke-dasharray:0.499766, 2.99858;stroke-dashoffset:0;stroke-opacity:1;-inkscape-stroke:none;paint-order:fill markers stroke" d="M 818.7331145589537,498.5051802553579 806.7338088585368,474.4271958961325 823.9790375525512,475.1170577065888 828.9621952969416,497.9868083079273 817.670140275673,513.9179064600507 809.0751368000815,512.6201079425823 Z" id="path11" />
        <path style="font-variation-settings:normal;opacity:1;vector-effect:none;fill:#343a40;fill-opacity:1;stroke-width:0.499766;stroke-linecap:butt;stroke-linejoin:miter;stroke-miterlimit:4;stroke-dasharray:0.499766, 2.99858;stroke-dashoffset:0;stroke-opacity:1;-inkscape-stroke:none;paint-order:fill markers stroke" d="M 797.709940750499,529.984956842373 815.1723449811877,532.0336187912246 846.6827168611453,503.937683492687 849.2191554644853,510.0836693392423 817.221006930039,537.3016066597006 798.5391610631295,535.5456107035421 Z" id="path13" />
        <path style="baseline-shift:baseline;display:inline;overflow:visible;opacity:1;vector-effect:none;fill:#343a40;stroke-width:0.5;stroke-linejoin:bevel;paint-order:fill markers stroke;enable-background:accumulate;stop-color:#000000;stop-opacity:1" d="M 802.5156249999995,474.1748046875005 801.248046875,475.8212890625006 803.2226562499995,482.4091796875005 804.8681640625,483.2500000000005 816.3740234375,479.2568359375006 824.4462890624995,483.7451171875005 825.71484375,483.7304687500005 830.744140625,480.7871093750005 830.416015625,478.4433593750006 817.8037109374995,475.2031250000006 816.6718749999995,475.4814453125005 816.6103515624995,475.3486328125005 815.490234375,474.6035156250006 Z M 804.2099609374995,476.7910156250005 814.6142578124995,477.1357421875005 814.6230468749995,477.1552734375005 805.2910156249995,480.3955078125005 Z M 820.2158203125,478.4648437500005 826.7685546874995,480.1484375000006 825.0517578124995,481.1533203125005 Z M 811.3808593749995,481.3720703125006 810.7041015625,483.8398437500005 818.1660156249995,485.8867187500006 812.3056640624995,486.2060546875005 811.9541015625,488.6914062500005 822.9414062499995,492.5234375000006 815.7763671874995,493.9013671875006 815.4873046874995,496.3222656250006 827.3232421874995,501.7197265625005 828.3857421874995,499.3916015625006 820.1962890625,495.6572265625006 828.0957031249995,494.1376953125006 828.275390625,491.6728515625005 818.9130859374995,488.4082031250006 826.1679687499995,488.0126953125006 826.4365234374995,485.5019531250006 Z" id="path15" />
        <path style="font-variation-settings:normal;opacity:1;vector-effect:none;fill:#495057;fill-opacity:1;stroke:none;stroke-width:0.499766;stroke-linecap:butt;stroke-linejoin:miter;stroke-miterlimit:4;stroke-dasharray:0.499766, 2.99858;stroke-dashoffset:0;stroke-opacity:1;-inkscape-stroke:none;paint-order:fill markers stroke;stop-color:#000000;stop-opacity:1" d="M 760.5738781221073,322.5689157523319 767.0654618605854,315.4824631607507 770.2434150634774,317.7412033012296 761.0906518355095,324.7393801148215 Z" id="path16" sodipodi:nodetypes="ccccc" />
    </g>
    <g inkscape:groupmode="layer" id="layer21" inkscape:label="new 2" />
</svg>
