<?xml version="1.0" encoding="UTF-8" standalone="no"?>
<!-- Created with Inkscape (http://www.inkscape.org/) -->

<svg
   xmlns:dc="http://purl.org/dc/elements/1.1/"
   xmlns:cc="http://creativecommons.org/ns#"
   xmlns:rdf="http://www.w3.org/1999/02/22-rdf-syntax-ns#"
   xmlns:svg="http://www.w3.org/2000/svg"
   xmlns="http://www.w3.org/2000/svg"
   xmlns:sodipodi="http://sodipodi.sourceforge.net/DTD/sodipodi-0.dtd"
   xmlns:inkscape="http://www.inkscape.org/namespaces/inkscape"
   version="1.1"
   id="svg3820"
   width="1920"
   height="540"
   viewBox="0 0 1920 540"
   sodipodi:docname="self-portrait-wider.svg"
   inkscape:version="0.92.2 (5c3e80d, 2017-08-06)"
   inkscape:export-filename="/home/elm/Documents/Self-Portrait/export/self-portrait.png"
   inkscape:export-xdpi="192"
   inkscape:export-ydpi="192">
  <sodipodi:namedview
     pagecolor="#ffffff"
     bordercolor="#666666"
     borderopacity="1"
     objecttolerance="10"
     gridtolerance="10"
     guidetolerance="10"
     inkscape:pageopacity="0"
     inkscape:pageshadow="2"
     inkscape:window-width="1849"
     inkscape:window-height="1024"
     id="namedview3822"
     showgrid="false"
     units="px"
     inkscape:snap-others="true"
     inkscape:snap-global="true"
     inkscape:zoom="0.67493617"
     inkscape:cx="1891.3196"
     inkscape:cy="92.781858"
     inkscape:window-x="71"
     inkscape:window-y="30"
     inkscape:window-maximized="1"
     inkscape:current-layer="layer7"
     inkscape:snap-bbox="true"
     inkscape:snap-grids="false"
     inkscape:bbox-paths="true"
     inkscape:bbox-nodes="true"
     inkscape:object-paths="true"
     inkscape:snap-intersection-paths="true"
     showguides="false"
     inkscape:guide-bbox="true"
     inkscape:snap-bbox-edge-midpoints="true"
     inkscape:snap-bbox-midpoints="true"
     inkscape:snap-smooth-nodes="true"
     inkscape:snap-midpoints="true"
     inkscape:snap-object-midpoints="true"
     inkscape:snap-center="true"
     inkscape:snap-page="true"
     inkscape:snap-nodes="true"
     inkscape:snap-to-guides="true">
    <inkscape:grid
       spacingy="24"
       spacingx="24"
       units="in"
       id="grid3830"
       type="xygrid" />
    <sodipodi:guide
       id="guide1071"
       position="408.0,0"
       orientation="1056.0,0"
       inkscape:locked="false" />
    <sodipodi:guide
       id="guide1073"
       position="0,352.0"
       orientation="0,816.0"
       inkscape:locked="false" />
    <sodipodi:guide
       id="guide1075"
       position="0,704.0"
       orientation="0,816.0"
       inkscape:locked="false" />
    <sodipodi:guide
       position="0,1056"
       orientation="0,816"
       id="guide1181"
       inkscape:locked="false" />
    <sodipodi:guide
       position="816,1056"
       orientation="1056,0"
       id="guide1183"
       inkscape:locked="false" />
    <sodipodi:guide
       position="816,0"
       orientation="0,-816"
       id="guide1185"
       inkscape:locked="false" />
    <sodipodi:guide
       position="0,0"
       orientation="-1056,0"
       id="guide1187"
       inkscape:locked="false" />
    <sodipodi:guide
       position="-423.74378,161.74066"
       orientation="161.74066,0"
       id="guide926"
       inkscape:locked="false" />
    <sodipodi:guide
       position="-423.74378,0"
       orientation="0,1920"
       id="guide928"
       inkscape:locked="false" />
    <sodipodi:guide
       position="1496.2562,0"
       orientation="-327.47229,-0.5084"
       id="guide930"
       inkscape:locked="false" />
    <sodipodi:guide
       position="1920,168.0665"
       orientation="168.0665,0"
       inkscape:locked="false"
       id="guide1008" />
    <sodipodi:guide
       position="1920,0"
       orientation="0,-960.00019"
       inkscape:locked="false"
       id="guide1010" />
    <sodipodi:guide
       position="959.99981,0"
       orientation="-141.8027,0"
       inkscape:locked="false"
       id="guide1012" />
    <sodipodi:guide
       position="1920,287.19851"
       orientation="86.96802,0"
       inkscape:locked="false"
       id="guide1088" />
    <sodipodi:guide
       position="1920,200.23049"
       orientation="200.23049,0"
       inkscape:locked="false"
       id="guide1090" />
    <sodipodi:guide
       position="1920,0"
       orientation="0,-2287.4422"
       inkscape:locked="false"
       id="guide1092" />
    <sodipodi:guide
       position="-367.4422,0"
       orientation="-50.6824,0"
       inkscape:locked="false"
       id="guide1094" />
    <sodipodi:guide
       position="-367.4422,50.6824"
       orientation="-236.51611,2287.4422"
       inkscape:locked="false"
       id="guide1096" />
  </sodipodi:namedview>
  <metadata
     id="metadata3826">
    <rdf:RDF>
      <cc:Work
         rdf:about="">
        <dc:format>image/svg+xml</dc:format>
        <dc:type
           rdf:resource="http://purl.org/dc/dcmitype/StillImage" />
        <dc:title></dc:title>
      </cc:Work>
    </rdf:RDF>
  </metadata>
  <defs
     id="defs3824">
    <clipPath
       id="clipPath3842"
       clipPathUnits="userSpaceOnUse">
      <rect
         style="stroke-width:3.77460217"
         y="0"
         x="0"
         height="1056"
         width="816"
         id="rect3844" />
    </clipPath>
    <clipPath
       id="clipPath3842-3"
       clipPathUnits="userSpaceOnUse">
      <rect
         style="stroke-width:3.77460217"
         y="0"
         x="0"
         height="1056"
         width="816"
         id="rect3844-5" />
    </clipPath>
    <clipPath
       id="clipPath3842-3-9"
       clipPathUnits="userSpaceOnUse">
      <rect
         style="stroke-width:3.77460217"
         y="0"
         x="0"
         height="1056"
         width="816"
         id="rect3844-5-1" />
    </clipPath>
    <clipPath
       id="clipPath3842-3-9-2"
       clipPathUnits="userSpaceOnUse">
      <rect
         style="stroke-width:3.77460217"
         y="0"
         x="0"
         height="1056"
         width="816"
         id="rect3844-5-1-7" />
    </clipPath>
    <clipPath
       id="clipPath3842-3-9-2-3"
       clipPathUnits="userSpaceOnUse">
      <rect
         style="stroke-width:3.77460217"
         y="0"
         x="0"
         height="1056"
         width="816"
         id="rect3844-5-1-7-6" />
    </clipPath>
  </defs>
  <g
     style="display:inline"
     inkscape:label="bottom"
     id="layer8"
     inkscape:groupmode="layer"
     transform="translate(0,-516)" />
  <g
     style="display:inline"
     inkscape:label="bg"
     id="layer13"
     inkscape:groupmode="layer"
     transform="translate(0,-516)">
    <g
       style="display:inline;opacity:1"
       inkscape:label="walls"
       id="layer16"
       inkscape:groupmode="layer">
      <path
         inkscape:connector-curvature="0"
         id="path1056"
         d="M 0,967.32495 V 516 h 1920 v 252.80149 z"
         style="fill:#26a69a;stroke:none;stroke-width:0.5956881px;stroke-linecap:butt;stroke-linejoin:miter;stroke-opacity:1"
         sodipodi:nodetypes="ccccc" />
    </g>
    <g
       inkscape:label="floor"
       id="layer17"
       inkscape:groupmode="layer"
       style="display:inline">
      <path
         sodipodi:nodetypes="cccccc"
         inkscape:connector-curvature="0"
         id="path1022"
         d="M 1920,768.80149 V 855.76951 1056 H 0 v -88.67505 z"
         style="display:inline;fill:#b2dfdb;stroke:none;stroke-width:0.5956881px;stroke-linecap:butt;stroke-linejoin:miter;stroke-opacity:1" />
    </g>
    <g
       inkscape:label="surface"
       id="layer15"
       inkscape:groupmode="layer"
       style="display:inline">
      <path
         sodipodi:nodetypes="ccccc"
         inkscape:connector-curvature="0"
         id="path880-3-6"
         d="m 1171.2013,804.87055 28.7306,-1.67041 v 132.88219 l -28.5342,2.27525 z"
         style="display:inline;fill:#37474f;stroke:none;stroke-width:0.5956881px;stroke-linecap:butt;stroke-linejoin:miter;stroke-opacity:1" />
      <path
         inkscape:connector-curvature="0"
         id="path880"
         d="m 1788.9335,830.72009 7.5025,-0.48726 -14.011,90.13402 -10.4807,2.09606 z"
         style="fill:#37474f;stroke:none;stroke-width:0.5956881px;stroke-linecap:butt;stroke-linejoin:miter;stroke-opacity:1"
         sodipodi:nodetypes="ccccc" />
      <path
         sodipodi:nodetypes="ccccc"
         inkscape:connector-curvature="0"
         id="path882"
         d="m 1788.9335,830.72009 -9.5424,-3.85203 -14.2317,89.96845 6.7849,5.6264 z"
         style="display:inline;fill:#455a64;stroke:none;stroke-width:0.5956881px;stroke-linecap:butt;stroke-linejoin:miter;stroke-opacity:1" />
      <path
         sodipodi:nodetypes="ccccc"
         inkscape:connector-curvature="0"
         id="path874"
         d="m 1222.5702,887.34067 566.3633,-56.62058 -170.8264,-69.16755 -421.3125,29.98701 z"
         style="display:inline;fill:#37474f;stroke:none;stroke-width:0.5956881px;stroke-linecap:butt;stroke-linejoin:miter;stroke-opacity:1" />
      <path
         sodipodi:nodetypes="ccccc"
         inkscape:connector-curvature="0"
         id="path876"
         d="m 1788.9335,830.72009 -6.6187,35.67354 -559.7446,81.28304 v -60.336 z"
         style="display:inline;fill:#263238;stroke:none;stroke-width:0.5956881px;stroke-linecap:butt;stroke-linejoin:miter;stroke-opacity:1" />
      <path
         sodipodi:nodetypes="ccccc"
         inkscape:connector-curvature="0"
         id="path880-3"
         d="m 1193.9772,890.19916 28.593,-2.85848 v 132.88212 l -28.593,3.4325 z"
         style="display:inline;fill:#37474f;stroke:none;stroke-width:0.5956881px;stroke-linecap:butt;stroke-linejoin:miter;stroke-opacity:1" />
      <path
         sodipodi:nodetypes="ccccc"
         inkscape:connector-curvature="0"
         id="path973"
         d="m 1193.9772,890.19916 -26.0052,-97.41523 28.8226,-1.24439 25.7756,95.80113 z"
         style="fill:#455a64;stroke:none;stroke-width:0.5956881px;stroke-linecap:butt;stroke-linejoin:miter;stroke-opacity:1" />
      <path
         sodipodi:nodetypes="ccccc"
         inkscape:connector-curvature="0"
         id="path977"
         d="m 1193.9772,1023.6553 -5.7154,-8.5381 0.6091,-144.04607 5.1063,19.12803 z"
         style="fill:#546e7a;stroke:none;stroke-width:0.5956881px;stroke-linecap:butt;stroke-linejoin:miter;stroke-opacity:1" />
      <path
         inkscape:connector-curvature="0"
         id="path996"
         d="m 1171.3977,938.35758 -3.4257,-7.43535 v -138.1383 l 3.2293,12.08662 z"
         style="fill:#546e7a;stroke:none;stroke-width:0.5956881px;stroke-linecap:butt;stroke-linejoin:miter;stroke-opacity:1"
         sodipodi:nodetypes="ccccc" />
      <path
         sodipodi:nodetypes="ccccc"
         inkscape:connector-curvature="0"
         id="path884"
         d="m 1796.436,830.23281 -171.5145,-69.17667 -7.28,0.51651 171.292,69.14742 z"
         style="display:inline;fill:#455a64;stroke:none;stroke-width:0.5956881px;stroke-linecap:butt;stroke-linejoin:miter;stroke-opacity:1" />
    </g>
    <g
       inkscape:groupmode="layer"
       id="layer18"
       inkscape:label="paper">
      <path
         style="fill:#cfd8dc;stroke:none;stroke-width:0.5956881px;stroke-linecap:butt;stroke-linejoin:miter;stroke-opacity:1"
         d="m 1524.1991,832.96027 -110.7744,4.65244 -19.1906,-27.6156 106.9922,-3.90703 z"
         id="path1190"
         inkscape:connector-curvature="0"
         sodipodi:nodetypes="ccccc" />
      <path
         style="fill:#b0bec5;stroke:none;stroke-width:0.5956881px;stroke-linecap:butt;stroke-linejoin:miter;stroke-opacity:1"
         d="m 1413.4247,837.6127 -0.624,7.02094 -18.6373,-28.31049 0.072,-6.32605 z"
         id="path1192"
         inkscape:connector-curvature="0"
         sodipodi:nodetypes="ccccc" />
      <path
         style="fill:#90a4ae;stroke:none;stroke-width:0.5956881px;stroke-linecap:butt;stroke-linejoin:miter;stroke-opacity:1"
         d="m 1524.1991,832.96027 -1.2539,5.5469 -110.1445,6.12647 0.624,-7.02093 z"
         id="path1194"
         inkscape:connector-curvature="0"
         sodipodi:nodetypes="ccccc" />
      <path
         style="opacity:1;fill:#263238;fill-rule:nonzero;stroke:none;stroke-width:0.5956881"
         d="m 1428.1234,809.37861 c 0.06,-0.0123 0.1236,-0.008 0.1815,0.0166 0.2686,0.15525 0.5751,0.23521 0.8574,0.36298 -0.4829,0.82372 -0.9657,1.64747 -1.4485,2.4712 -0.1072,0.0593 -0.1665,0.23722 -0.063,0.32687 l -2.5783,7.07028 c -0.3947,0.42861 -0.7896,0.8571 -1.1843,1.28569 -0.6624,-0.12337 -1.3248,-0.24664 -1.9871,-0.37001 -0.4545,-0.29645 -0.9479,-0.65 -1.0926,-1.20416 0,-0.008 10e-5,-0.0107 0,-0.0166 -0.075,-0.0522 -0.128,-0.0966 -0.12,-0.11056 0.032,-0.0456 0.062,-0.0904 0.095,-0.13497 -0.012,-0.37732 0.1479,-0.75044 0.3492,-1.06461 1.0674,-1.75027 2.1539,-3.48849 3.2286,-5.23438 0.3569,-0.57739 0.7136,-1.15491 1.0704,-1.73237 0.2286,-0.3097 0.6036,-0.53131 0.997,-0.50144 0.6191,-0.18896 0.9989,-0.75592 1.5287,-1.08901 0.049,-0.0366 0.106,-0.064 0.1675,-0.0759 z m 13.1726,0.67359 0.05,0.0593 c 0.012,0.1139 -0.1559,-0.0868 -0.05,-0.0593 z m -1.3637,0.0301 c 0.4281,0.13151 0.8563,0.26292 1.2846,0.39442 l 1.9686,0.21053 c 1.0657,0.31649 2.1315,0.63293 3.197,0.94939 -0.1465,0.2886 -0.2931,0.57709 -0.4397,0.8656 -1.1619,-0.41224 -2.3239,-0.82447 -3.4857,-1.23671 -0.1374,0.0667 -0.3211,0.0256 -0.4073,-0.10353 -0.076,0.054 0.06,0.16394 -0.03,0.20945 -0.106,0.43581 -0.2148,0.87171 -0.3223,1.30771 l -0.9494,-0.17107 c -0.074,0.25633 -0.1465,0.51266 -0.2198,0.76909 -0.6143,-0.1133 -1.2287,-0.22654 -1.8429,-0.33977 -0.088,0.29746 -0.1768,0.5949 -0.2652,0.89238 0.1912,0.19199 0.3823,0.38398 0.5735,0.57589 -0.021,0.12876 -0.04,0.25751 -0.058,0.38629 0.6988,0.2098 1.3976,0.41962 2.0965,0.62945 0.093,-0.0338 -0.027,-0.17767 0.075,-0.2024 0.202,-0.47367 0.4039,-0.94712 0.606,-1.42068 0.3998,-0.36764 0.7997,-0.73527 1.1996,-1.10292 0.6406,0.13966 1.2814,0.27928 1.9219,0.41883 0.571,0.24398 1.1418,0.4879 1.7126,0.7318 -5e-4,-0.0796 0.1048,-0.1581 0.1735,-0.0931 l 1.8603,-0.84932 c 0.1212,-0.0429 0.2584,-0.063 0.3525,-0.15938 l 1.6858,0.56887 -0.094,0.0429 c 0.075,-0.0184 0.1966,0.008 0.2338,-0.0886 0.039,0.0145 0.1012,0.117 0.1535,0.0548 -0.5032,0.53203 -1.0067,1.06416 -1.51,1.5962 -0.2732,0.56082 -0.546,1.12155 -0.8191,1.68237 -0.4741,0.3459 -0.9478,0.69188 -1.4217,1.03785 l -1.7511,-0.63411 c -0.2667,0 -0.4553,0.31455 -0.357,0.55379 l -0.1443,1.14952 c -1.1272,0.45062 -2.2542,0.90123 -3.3811,1.35194 -0.5732,-0.31764 -1.1464,-0.6353 -1.7197,-0.95294 -0.2662,-0.12127 -0.5327,-0.24272 -0.7991,-0.36408 -0.2626,0.65732 -0.5251,1.31464 -0.7876,1.97206 -0.969,-0.26144 -1.9377,-0.52281 -2.9065,-0.78416 0.57,-1.67198 1.1401,-3.34385 1.7103,-5.01569 -0.2334,-0.31099 -0.4669,-0.62206 -0.7004,-0.93314 0.2165,-0.61656 0.4328,-1.23323 0.6492,-1.84979 0.2456,-0.5674 0.4911,-1.13481 0.7365,-1.70221 0.2447,0.0503 0.4895,0.10091 0.7341,0.15124 -0.032,0.14247 0.249,0.11712 0.1968,-0.0166 0.4307,-0.16092 0.8615,-0.32187 1.2924,-0.48278 z m -18.1568,1.09477 c 0.5252,0.27873 0.6984,0.97782 0.5004,1.5125 -0.2175,0.6112 -0.6682,1.09844 -1.0541,1.60792 -1.6044,2.03976 -3.2089,4.08001 -4.8133,6.1198 -0.6712,0.73564 -1.3426,1.47137 -2.0139,2.20702 -0.5817,0.32093 -1.1547,0.75866 -1.8498,0.75748 -0.5841,0.0311 -1.2429,0.0712 -1.7381,-0.29555 -0.4462,-0.34844 -0.6243,-0.98429 -0.4399,-1.51714 0.1935,-0.56494 0.577,-1.03767 0.8993,-1.53343 0.9028,-1.30962 1.8058,-2.61935 2.7084,-3.92897 0.448,-0.53495 0.9705,-1.00814 1.5557,-1.38922 1.3924,-0.95916 2.8228,-1.8613 4.2431,-2.77836 0.5122,-0.29407 1.0409,-0.56958 1.6113,-0.73179 0.1287,-0.0211 0.2599,-0.0511 0.3909,-0.0301 z m 7.1797,2.24313 0.02,0.0256 c -0.012,0.0904 0.156,0.0914 0.1593,0.008 0.075,-0.0211 0.1674,0.0593 0.2223,-0.0256 0.098,0.11533 0.2607,-0.0466 0.3663,0.0503 l 1.8164,0.0247 -0.5923,1.93366 c -0.7899,1.55674 -1.5799,3.11346 -2.3699,4.6702 0.4665,0.46688 0.9329,0.93385 1.3995,1.40072 0.8002,0.49292 1.6002,0.98586 2.4003,1.47879 2.5781,1.14989 5.1565,2.29976 7.7345,3.44964 -0.2578,0.79734 -0.5158,1.59466 -0.7736,2.39207 -0.5654,-0.19984 -1.1313,-0.42949 -1.6939,-0.64809 -1.3112,-0.53889 -2.6349,-1.04955 -3.9151,-1.66025 -0.6571,-0.29719 -1.2643,-0.69043 -1.8756,-1.07039 -0.715,-0.51431 -1.4289,-1.03137 -2.1207,-1.57647 -0.8663,-0.72916 -1.7482,-1.44389 -2.5539,-2.24083 -0.4278,-0.40657 -0.7336,-0.99464 -0.6551,-1.59739 0.091,-0.65769 0.3745,-1.26678 0.5993,-1.88589 0.5958,-1.58112 1.2136,-3.15394 1.8323,-4.72601 z m 5.4066,1.22983 0.018,0.0338 c -0.4108,1.34765 -0.8215,2.69538 -1.2322,4.04302 -0.1493,0.64142 -0.2986,1.28293 -0.4479,1.92436 1.7874,0.56347 3.5749,1.12704 5.3623,1.69051 l 0.8168,1.96513 -6.1361,-2.18857 c -0.5467,-0.28593 -1.1432,-0.67587 -1.2763,-1.32396 -0.1477,-0.61647 0.085,-1.23212 0.2024,-1.83244 0.1603,-0.65833 0.3375,-1.31189 0.5085,-1.96739 0.2411,-0.53579 0.4744,-1.10575 0.9307,-1.49852 0.4094,-0.29372 0.829,-0.57398 1.2531,-0.84584 z m 20.2348,0.75739 0.012,0.0577 c 0.2974,0.22106 0.5948,0.44213 0.8923,0.66317 0.2382,-0.1718 0.4762,-0.34359 0.7143,-0.5154 0.7075,0.45179 1.4148,0.9036 2.1224,1.3554 0.1757,0.0127 0.1348,0.31876 -0.033,0.30378 -3.0248,2.37846 -6.0492,4.75689 -9.0739,7.13544 1.7762,1.85949 3.5525,3.71906 5.3287,5.57871 l -1.8348,2.10239 c -0.5511,-0.3448 -1.1021,-0.68958 -1.6533,-1.03428 -0.589,0.66811 -1.1782,1.3364 -1.7673,2.00459 l -1.9604,-0.97268 c -0.5553,-0.35641 -1.1107,-0.7128 -1.6662,-1.06919 l -2.1162,-2.15128 c -0.3739,-0.53871 -0.7477,-1.07733 -1.1216,-1.61602 -0.2924,-1.04399 -0.5848,-2.08804 -0.8772,-3.13201 0.4189,-0.54147 0.8308,-1.08931 1.2879,-1.59968 2.1365,-1.45046 4.2729,-2.90088 6.4095,-4.35135 1.7736,-0.93056 3.5448,-1.86597 5.338,-2.75859 z m -6.9982,0.41297 c 0,-0.008 -0.012,-0.008 -0.03,0.008 l -0.026,0.043 c 0.021,0.0174 0.064,-0.0348 0.056,-0.0475 z m -0.7794,0.0722 c -0.012,-0.008 -0.012,0 -0.026,0.0183 l -0.012,0.0522 c 0.03,0.008 0.052,-0.063 0.039,-0.0712 z m 13.6229,2.13612 c 0.027,-0.008 0.055,0 0.077,0.0146 l 4.2641,3.99531 0.3513,0.36416 c -1.1335,0.8051 -2.2672,1.6102 -3.4008,2.41528 -1.0696,0.61474 -2.1392,1.22939 -3.2087,1.84413 1.7281,0.51769 3.4562,1.03547 5.1844,1.55316 -0.2975,0.73993 -0.595,1.47997 -0.8925,2.21991 -0.049,0.10114 -0.098,0.20242 -0.1464,0.30358 l -2.035,-0.46068 -2.7806,-0.89118 c -0.6054,-0.2587 -1.2107,-0.51742 -1.8162,-0.77602 -0.5969,-0.31455 -1.1937,-0.62909 -1.7906,-0.94355 -0.2571,-0.61939 -0.5143,-1.2387 -0.7714,-1.85802 -0.1519,-0.6267 -0.304,-1.25341 -0.456,-1.88022 1.6994,-1.39808 3.3988,-2.79617 5.0982,-4.19416 l 2.2479,-1.67423 c 0.021,-0.0156 0.046,-0.0284 0.075,-0.0329 z m -17.2401,0.53861 c -0.021,0 -0.048,0.008 -0.049,0.0107 l 0.063,0.0201 c 0.023,-0.022 0.012,-0.0301 -0.014,-0.0311 z m -4.7049,0.008 c -0.012,0 -0.014,0.008 -0.022,0.0203 h 0.098 c -0.026,0.008 -0.056,-0.0266 -0.077,-0.0219 z m -18.606,2.30261 c 0.1084,0.008 0.2181,0.0283 0.3257,0.0804 l 0.1049,0.0284 0.055,0.0147 c 0.6038,0.20835 1.2087,0.41963 1.7895,0.68647 0.5916,0.26082 1.1723,0.54684 1.7464,0.84348 0.5032,0.29699 0.9165,0.73664 1.1891,1.25306 0.1407,0.24033 0.2341,0.50426 0.2872,0.77712 -0.4621,0.0138 -0.9214,0.0685 -1.3809,0.11402 1.5396,0.66315 3.0792,1.32633 4.6189,1.98951 0.7112,0.3478 1.4224,0.6957 2.1338,1.0436 1.3713,0.94007 2.7425,1.88023 4.1138,2.82021 0.4718,0.35493 0.9355,0.96795 0.6784,1.5823 -0.2572,0.6057 -0.8939,0.93778 -1.5077,1.07158 -0.8062,0.19867 -1.6365,0.27809 -2.4644,0.31407 -0.6067,0.008 -1.2281,0.0107 -1.8104,-0.18149 -0.7554,-0.25468 -1.4343,-0.6798 -2.1221,-1.07383 -1.9795,-1.18736 -3.9441,-2.39958 -5.9138,-3.60321 -0.9499,-0.58996 -1.9073,-1.16916 -2.8528,-1.76616 -0.4772,-0.3267 -0.9643,-0.65349 -1.3543,-1.08557 -0.3362,-0.42647 -0.5672,-0.93065 -0.6969,-1.45656 -0.2205,-0.61949 0.069,-1.30688 0.5398,-1.72778 0.5328,-0.45638 1.0815,-0.89392 1.6196,-1.34372 0.2509,-0.20935 0.5735,-0.39058 0.9006,-0.38043 z"
         id="path1225"
         inkscape:connector-curvature="0"
         sodipodi:nodetypes="ccccccccccccccccccccccccccccccccccccccccccccccccccccccccccccccccccccccccccccccccccccccccccccccccccccccccccccccccccccccccccccccccccccccccccscccsccccccccccccccccccccccccccccccccccccccccccccccccccccccccccc" />
    </g>
  </g>
  <g
     inkscape:label="evan"
     id="layer14"
     inkscape:groupmode="layer"
     transform="translate(0,-516)">
    <g
       style="display:inline"
       inkscape:label="arm-under"
       id="layer2"
       inkscape:groupmode="layer">
      <path
         sodipodi:nodetypes="cccsssscc"
         inkscape:connector-curvature="0"
         id="path825"
         d="m 1553.7326,663.07618 c -7.2784,17.76922 -3.3635,37.60228 -10.0387,55.97806 -16.4844,25.24538 -22.44,50.93925 -30.2144,78.51145 -1.8723,6.55286 -4.3687,11.54554 4.6806,9.36128 9.0492,-2.18427 8.7371,-3.1204 20.5946,-21.21881 11.8576,-18.09833 24.0274,-35.57259 26.5236,-42.12547 2.4962,-6.55286 5.4717,-4.31496 6.408,-15.23645 0.936,-10.92139 6.6977,-9.41475 8.8819,-37.4984 8.0938,-31.03455 -12.6125,-57.92937 -26.8356,-27.77166 z"
         style="display:inline;opacity:1;fill:#ffcdd2;fill-rule:nonzero;stroke:none;stroke-width:0.5956881px;stroke-linecap:butt;stroke-linejoin:miter;stroke-opacity:1" />
    </g>
    <g
       inkscape:label="foot bottom"
       id="layer12"
       inkscape:groupmode="layer">
      <path
         sodipodi:nodetypes="cccczscscc"
         inkscape:connector-curvature="0"
         id="path893"
         d="m 1676.1838,907.78993 c 19.647,-1.58678 13.5746,14.79755 23.2783,23.05758 9.0972,12.79722 36.5096,26.50156 39.6445,35.62176 5.0718,9.8815 -3.7567,14.7931 -11.9752,11.6408 -18.4796,-8.3607 -34.525,-23.3722 -47.0727,-27.4044 -12.5477,-4.03229 -18.5477,-5.62649 -27.3735,-12.90778 -8.826,-7.28129 -13.2389,-18.20334 -13.2389,-18.20334 0,0 1.7652,-11.47352 12.5769,-15.44525 10.8117,-3.97156 15.4452,-3.97156 15.4452,-3.97156 0,0 3.4362,8.2793 8.7154,7.61219 z"
         style="fill:#263238;stroke:none;stroke-width:0.5956881px;stroke-linecap:butt;stroke-linejoin:miter;stroke-opacity:1" />
    </g>
    <g
       inkscape:label="pants bottom"
       id="layer9"
       inkscape:groupmode="layer">
      <path
         sodipodi:nodetypes="ccccsssccsczczzcsccc"
         inkscape:connector-curvature="0"
         id="path41"
         d="m 1665.5166,845.35612 c -10.2375,1.02432 -20.4438,1.54191 -32.0277,1.64584 -7.2813,0 -9.9616,-0.97399 -7.5345,0.34989 11.7515,5.67531 15.5664,9.68415 23.6417,23.25924 12.5767,5.95751 20.7406,30.44924 25.1536,32.435 4.4129,1.98588 8.3846,4.19225 4.4129,8.82578 -3.9717,4.63362 -6.3988,14.56268 -18.9757,14.56268 -12.5766,0 -30.6697,-0.44129 -34.8619,-4.41284 -5.6295,-5.43159 -7.1135,-14.71393 -12.7975,-14.78337 -5.0749,0 -14.342,-0.44128 -16.9896,-6.17801 -2.6479,-5.73691 -1.7653,-9.26717 -5.9576,-11.03234 -4.1922,-1.76516 -11.4693,0.0704 -11.0323,-4.85422 0.437,-4.92478 -6.0091,-12.35604 -13.9006,-17.65163 -1.7652,-1.54459 -9.4427,-1.01776 -8.6053,-6.61941 0.8375,-5.60174 -5.202,-4.06749 -3.7399,-18.27578 1.4623,-14.20829 5.1406,-26.47549 19.1852,-32.69354 9.267,-3.97163 14.5626,-5.73681 22.7265,-7.72257 8.1638,-1.98587 18.3381,-6.16705 25.3987,-6.82895 10.6498,0.24382 15.9437,1.89787 22.7021,1.9747 60.19,1.36556 72.3023,7.42092 23.2019,47.99953 z"
         style="opacity:1;fill:#00695c;stroke:none;stroke-width:0.5956881px;stroke-linecap:butt;stroke-linejoin:miter;stroke-opacity:1" />
    </g>
    <g
       inkscape:label="foot top"
       id="layer11"
       inkscape:groupmode="layer">
      <path
         sodipodi:nodetypes="cccczsscsc"
         inkscape:connector-curvature="0"
         id="path890"
         d="m 1676.9562,939.89395 c 0,0 -0.8826,6.50909 2.6478,19.52722 3.6458,19.143 16.2424,31.945 2.2063,46.00473 -12.8826,12.4492 -35.8689,32.8676 -48.9833,32.526 -19.9351,1.3582 -19.378,-14.4029 -12.1355,-22.5968 7.2425,-8.1939 22.2933,-14.0571 24.7124,-22.61633 2.8683,-10.1497 5.516,-13.7905 3.7509,-21.7337 -1.7653,-7.9433 -5.7368,-16.9897 -6.6194,-21.4026 -0.8827,-4.41292 -6.6193,-7.94326 3.3098,-9.92912 9.929,-1.98578 31.111,0.2206 31.111,0.2206 z"
         style="fill:#37474f;stroke:none;stroke-width:0.5956881px;stroke-linecap:butt;stroke-linejoin:miter;stroke-opacity:1" />
    </g>
    <g
       inkscape:label="pants top"
       id="layer10"
       inkscape:groupmode="layer">
      <path
         sodipodi:nodetypes="cccsscscccscsccccccssscscczcccscc"
         inkscape:connector-curvature="0"
         id="path41-3"
         d="m 1718.2166,764.92186 c 0,0 0.6622,6.17729 1.986,7.05987 1.3238,0.88258 2.4276,1.10392 2.2071,2.86911 -0.2207,1.76515 -1.9858,3.31 -0.6621,7.06096 1.3237,3.75103 3.3094,10.14974 2.4268,11.25293 -0.8824,1.10318 0.8821,3.97081 0.8821,3.97081 0,0 0.2214,1.32433 -0.2199,4.63407 -0.4415,3.30976 -1.9859,14.34172 -3.7509,16.76888 -14.4794,20.15904 -34.0146,26.38174 -55.5795,26.92354 1.3677,4.58037 2.7031,9.35105 3.3694,12.01617 1.4043,5.61675 4.9275,30.98612 4.3687,35.57259 -0.3292,2.70424 4.2115,0.96429 5.4614,7.64509 0.312,1.71619 -1.4051,7.17684 2.8073,14.04171 4.2126,6.86484 5.9288,14.82201 6.2408,16.85028 0.3122,2.02826 -2.8077,3.58838 -5.4599,7.801 -2.6525,4.21252 -1.7167,7.64427 -4.3689,10.1406 -2.6525,2.4963 -17.0064,3.1205 -22.9352,4.5247 -5.9288,1.4042 -13.1051,-0.4684 -17.6299,-1.0925 -4.5246,-0.6241 -4.8365,-6.23979 -6.2408,-9.0482 -1.4041,-2.80832 -5.6171,-11.23435 -5.6171,-12.63859 0,-1.40421 4.0566,-8.73712 4.8364,-12.3256 0.7803,-3.58846 -0.7794,-2.49597 -3.7437,-5.14829 -2.9644,-2.65234 -12.4824,-26.05586 -13.1065,-30.26838 -0.624,-4.21254 -8.1127,-18.64362 -9.8288,-21.21791 -1.5561,-2.33431 -1.0023,-11.46064 -1.0007,-14.31868 -6.9001,-0.68556 -5.7255,-11.94142 -8.0033,-16.76996 -0.8824,-1.65488 -4.0102,-4.29724 -3.9166,-7.72195 0.093,-3.4248 0.5989,-20.56615 3.4745,-21.29348 8.1638,-1.98576 18.3387,-6.16631 25.3994,-6.82828 25.9014,-0.47128 34.8929,-0.47128 52.7103,-3.5415 11.0323,-4.19235 17.6512,-5.07483 26.6977,-11.25294 9.0465,-6.1781 16.1069,-11.47362 19.1959,-15.66587 z"
         style="opacity:1;fill:#00796b;fill-rule:nonzero;stroke:none;stroke-width:0.5956881px;stroke-linecap:butt;stroke-linejoin:miter;stroke-opacity:1" />
    </g>
    <g
       style="display:inline"
       inkscape:label="torso"
       id="layer1"
       inkscape:groupmode="layer">
      <path
         inkscape:connector-curvature="0"
         id="path3846"
         d="m 1552.9468,551.76442 c -0.513,0.007 -1.026,0.0225 -1.5393,0.0454 0.5131,-0.0228 1.0264,-0.0394 1.5393,-0.0454 z m 0,0 c 0.6434,-0.007 1.2857,0.004 1.9277,0.0233 -0.6416,-0.0194 -1.2844,-0.0309 -1.9277,-0.0233 z m 2.3676,0.0372 c 0.6309,0.0254 1.2614,0.0618 1.8895,0.11401 -0.6284,-0.0523 -1.2582,-0.0888 -1.8895,-0.11401 z m -4.4583,0.0384 c -0.3492,0.0195 -0.6983,0.0415 -1.0472,0.0686 0.3489,-0.0272 0.698,-0.0492 1.0472,-0.0686 z m 6.6142,0.10115 c 0.5689,0.0507 1.1356,0.11378 1.7009,0.18732 -0.565,-0.0735 -1.1323,-0.1365 -1.7009,-0.18732 z m -8.2151,0.0139 c -0.3547,0.0317 -0.7093,0.0677 -1.0635,0.1071 0.3542,-0.0393 0.7086,-0.0755 1.0635,-0.1071 z m -1.5836,0.16637 c -0.387,0.0472 -0.7727,0.0998 -1.1587,0.15591 0.3858,-0.056 0.7718,-0.10889 1.1587,-0.15591 z m 11.9058,0.0593 c 0.6176,0.0865 1.233,0.18702 1.8452,0.30133 -0.6124,-0.11425 -1.2273,-0.21488 -1.8452,-0.30133 z m -13.4752,0.15474 c -0.5091,0.0782 -1.0178,0.16364 -1.524,0.25711 0.5064,-0.0936 1.0149,-0.17891 1.524,-0.25711 z m 15.7044,0.22339 c 0.5402,0.10639 1.0774,0.22264 1.6125,0.35136 -0.5348,-0.12865 -1.0726,-0.24507 -1.6125,-0.35136 z m -17.6287,0.11294 c -0.3877,0.0748 -0.7744,0.15267 -1.1601,0.2362 0.3858,-0.0836 0.7724,-0.16144 1.1601,-0.2362 z m 19.6309,0.33041 c 0.1048,0.0267 0.211,0.0551 0.3165,0.0826 -0.1048,-0.0274 -0.2108,-0.0559 -0.3165,-0.0826 z m -21.2959,0.0197 c -0.337,0.0765 -0.6735,0.15545 -1.0086,0.23852 0.3354,-0.083 0.6715,-0.16198 1.0086,-0.23852 z m 22.5281,0.31298 c 0.127,0.0366 0.2537,0.0739 0.3803,0.11163 -0.1265,-0.0378 -0.2534,-0.0753 -0.3803,-0.11163 z m -24.136,0.0768 c -0.3404,0.0888 -0.6798,0.18163 -1.018,0.2769 0.3384,-0.0952 0.6776,-0.18824 1.018,-0.2769 z m 25.4248,0.31994 c 0.098,0.0321 0.1976,0.0625 0.2957,0.0953 -0.098,-0.0329 -0.1971,-0.0633 -0.2957,-0.0953 z m -26.8954,0.0851 c -0.4304,0.1254 -0.8583,0.25611 -1.2844,0.39207 0.4258,-0.13585 0.8542,-0.26677 1.2844,-0.39207 z m 28.3732,0.4293 c 0.074,0.0276 0.147,0.0579 0.221,0.086 -0.074,-0.0282 -0.147,-0.0584 -0.221,-0.086 z m -29.9055,0.0397 c -0.4922,0.15971 -0.9811,0.32798 -1.4671,0.50145 0.4861,-0.17356 0.9746,-0.34167 1.4671,-0.50145 z m 31.0794,0.42582 c 0.1319,0.0547 0.2632,0.11128 0.3945,0.16754 -0.1313,-0.0564 -0.2627,-0.11295 -0.3945,-0.16754 z m -32.899,0.20592 c -0.3618,0.1321 -0.7219,0.26651 -1.0796,0.40607 0.3577,-0.13956 0.7178,-0.27397 1.0796,-0.40607 z m 34.0717,0.30723 c 0.1267,0.058 0.2534,0.11616 0.3793,0.1757 -0.1259,-0.0596 -0.2525,-0.11759 -0.3793,-0.1757 z m -35.6946,0.3153 c -0.3011,0.12127 -0.6003,0.24578 -0.8982,0.37231 0.2979,-0.12649 0.5971,-0.25103 0.8982,-0.37231 z m 37.0489,0.33972 c 0.052,0.0266 0.1049,0.0511 0.156,0.0779 -0.052,-0.0268 -0.1037,-0.0513 -0.156,-0.0779 z m -38.4684,0.25596 c -0.3446,0.15078 -0.6873,0.30543 -1.0272,0.46306 0.34,-0.15771 0.6824,-0.31221 1.0272,-0.46306 z m 39.7633,0.44096 c 0.078,0.0442 0.1551,0.0903 0.2328,0.13495 -0.077,-0.0448 -0.1547,-0.0908 -0.2328,-0.13495 z m -41.1594,0.19197 c -0.4648,0.21993 -0.9249,0.44467 -1.3798,0.67713 0.4549,-0.23239 0.9152,-0.45726 1.3798,-0.67713 z m 42.2194,0.43628 c 0.1386,0.0854 0.2765,0.17195 0.4142,0.25946 -0.1376,-0.0873 -0.2756,-0.17416 -0.4142,-0.25946 z m -43.7598,0.32577 c -0.395,0.20353 -0.7858,0.41208 -1.1728,0.62478 0.3872,-0.21274 0.7776,-0.42121 1.1728,-0.62478 z m 44.8917,0.40372 c 0.1096,0.0741 0.222,0.14655 0.3317,0.22222 -0.1096,-0.0757 -0.2211,-0.14796 -0.3317,-0.22222 z m -46.4821,0.45492 c -0.3014,0.1694 -0.6009,0.34169 -0.8971,0.51656 0.2964,-0.175 0.5954,-0.34704 0.8971,-0.51656 z m -1.3625,0.79462 c -0.2939,0.17797 -0.5843,0.35893 -0.8725,0.54217 0.2882,-0.18321 0.5787,-0.36423 0.8725,-0.54217 z m 50.2274,0.50728 c 0.1226,0.099 0.244,0.20034 0.3654,0.30134 -0.1211,-0.10103 -0.2428,-0.20236 -0.3654,-0.30134 z m -51.4769,0.27456 c -0.3738,0.24268 -0.7427,0.48972 -1.1064,0.74113 0.3635,-0.25131 0.7326,-0.49854 1.1064,-0.74113 z m 52.5113,0.59804 c 0.1108,0.0973 0.2227,0.19407 0.3327,0.29317 -0.1096,-0.0992 -0.2216,-0.19573 -0.3327,-0.29317 z m -53.747,0.23152 c -0.4004,0.27891 -0.7944,0.56356 -1.1819,0.85279 0.3879,-0.2894 0.7813,-0.57371 1.1819,-0.85279 z m 54.8348,0.76554 c 0.073,0.0695 0.1465,0.13674 0.2187,0.2071 -0.073,-0.0703 -0.1461,-0.13762 -0.2187,-0.2071 z m -56.3402,0.33507 c -0.297,0.22594 -0.591,0.45345 -0.8796,0.68529 0.2886,-0.23187 0.5826,-0.45934 0.8796,-0.68529 z m 57.5001,0.82489 c 0.069,0.0717 0.1349,0.14624 0.2024,0.21875 -0.067,-0.0726 -0.1343,-0.14705 -0.2024,-0.21875 z m -58.6659,0.0932 c -0.2774,0.22682 -0.5499,0.4566 -0.8192,0.68879 0.2692,-0.23214 0.5419,-0.46202 0.8192,-0.68879 z m 59.5933,0.92612 c 0.088,0.10127 0.1772,0.20333 0.2653,0.30598 -0.088,-0.1027 -0.1766,-0.20476 -0.2653,-0.30598 z m -60.7591,0.0652 c -0.2657,0.23466 -0.5269,0.4722 -0.7842,0.71204 0.2573,-0.23991 0.5184,-0.4773 0.7842,-0.71204 z m -1.0425,0.95055 c -0.3465,0.32918 -0.6856,0.6622 -1.0156,1.00058 0.3298,-0.33829 0.6691,-0.67152 1.0156,-1.00058 z m 62.7438,0.10472 c 0.075,0.0924 0.1495,0.1844 0.2235,0.27807 -0.074,-0.0936 -0.1487,-0.18545 -0.2235,-0.27807 z m -63.8025,0.94124 c -0.3119,0.32089 -0.6148,0.64733 -0.911,0.97613 0.2964,-0.32905 0.599,-0.655 0.911,-0.97613 z m 64.887,0.46538 c 0.3964,0.4082 0.7684,0.82683 1.1168,1.25421 -0.3484,-0.42738 -0.7204,-0.84601 -1.1168,-1.25421 z m -66.0365,0.78186 c -0.2233,0.25318 -0.4425,0.50794 -0.6561,0.76553 0.2136,-0.2575 0.4329,-0.51244 0.6561,-0.76553 z m -0.9413,1.11574 c -0.1947,0.24147 -0.385,0.48438 -0.5712,0.72948 0.1861,-0.24509 0.3766,-0.48801 0.5712,-0.72948 z m 68.7986,0.27923 c 0.1881,0.2608 0.3678,0.52489 0.541,0.79113 -0.1732,-0.26625 -0.3529,-0.53032 -0.541,-0.79113 z m -69.6408,0.80976 c -0.2028,0.27541 -0.3995,0.55331 -0.591,0.83304 0.1916,-0.27988 0.3881,-0.55748 0.591,-0.83304 z m 70.5099,0.50376 c 0.3621,0.5961 0.6935,1.20259 0.9902,1.81966 -0.2966,-0.61683 -0.6282,-1.22379 -0.9902,-1.81966 z m -71.2813,0.58989 c -0.2425,0.36204 -0.4749,0.72718 -0.6982,1.09596 0.2232,-0.36861 0.4559,-0.73411 0.6982,-1.09596 z m -0.8924,1.4322 c -0.1516,0.25891 -0.3014,0.5187 -0.4433,0.78069 0.1419,-0.26207 0.2916,-0.52171 0.4433,-0.78069 z m -0.6678,1.21 c -0.1341,0.25891 -0.2642,0.51894 -0.3886,0.78067 0.1245,-0.26186 0.2545,-0.52162 0.3886,-0.78067 z m -0.5631,1.15531 c -0.1264,0.2779 -0.2467,0.55682 -0.3619,0.83768 0.1155,-0.28076 0.2356,-0.55989 0.3619,-0.83768 z m 75.5499,0.30599 c 0.323,0.97273 0.5882,1.95689 0.8099,2.94236 -0.2217,-0.98552 -0.4869,-1.96957 -0.8099,-2.94236 z m -76.0584,0.89003 c -0.154,0.39417 -0.3002,0.7907 -0.4316,1.19022 0.1314,-0.39938 0.2776,-0.79619 0.4316,-1.19022 z m 77.1696,3.53109 c 0.2719,1.47673 0.4612,2.94547 0.6143,4.37342 -0.1531,-1.42799 -0.3424,-2.8966 -0.6143,-4.37342 z m 11.8182,40.3253 c 0.089,0.0646 0.1805,0.12816 0.2712,0.19197 -0.091,-0.0637 -0.1812,-0.12746 -0.2712,-0.19197 z m 1.3137,0.89702 c 0.056,0.0372 0.1143,0.0749 0.171,0.11163 -0.057,-0.0368 -0.1143,-0.0746 -0.171,-0.11163 z m 2.8738,1.69516 c 20.6358,11.04778 54.6834,7.85318 72.4679,48.60093 6.5311,9.70325 10.6363,26.12435 12.1291,32.84199 1.4927,6.71762 4.1916,12.12947 8.5839,20.19632 4.3923,8.06699 15.4886,21.78894 18.101,26.26731 2.6123,4.47845 2.0523,14.55482 2.0523,14.55482 0,0 0.3734,2.61249 -11.1957,11.56939 -11.5695,8.95682 -27.9902,16.42161 -50.3823,20.52685 -22.3924,4.10516 -51.1292,-2.98614 -55.9807,-5.59864 -4.8519,-2.61239 -4.479,-10.44975 -5.5985,-19.77979 -1.082,-9.11399 -2.1696,-21.26661 -8.0233,-33.40157 -3.9532,-11.04941 -34.9755,-14.61924 -17.9138,-51.6888 2.6124,-2.98561 4.2913,-9.32978 5.5974,-15.11441 1.2407,-5.49374 -0.5454,-7.28566 -1.0481,-9.52985 4.1539,-1.48083 7.5331,-3.59982 10.5909,-6.19421 7.2812,-6.17812 17.6515,-23.82999 20.5198,-32.65581 z m -84.0515,14.87939 c 0.012,0.60882 4e-4,1.09737 -0.036,1.41593 0.036,-0.31853 0.045,-0.80655 0.036,-1.41593 z m -0.3432,1.7731 c 0.033,-0.007 0.073,0.007 0.1191,0.0408 -0.046,-0.035 -0.086,-0.0471 -0.1191,-0.0397 2e-4,-6e-5 -2e-4,-9e-4 0,-9e-4 z m 0.1191,0.0408 c 0.024,0.0175 0.044,0.0206 0.063,0.0107 -0.02,0.008 -0.041,0.007 -0.063,-0.0107 z m -0.1965,0.0397 c -0.039,0.0892 -0.053,0.24707 -0.045,0.45258 -0.012,-0.20554 0.012,-0.36329 0.045,-0.45258 z m -0.045,0.45258 c 0.014,0.41105 0.1144,1.01198 0.2654,1.63002 -0.1516,-0.61814 -0.2508,-1.21891 -0.2654,-1.63002 z m 9.0774,2.75275 c 0.013,0.0316 0.037,0.0658 0.068,0.10353 -0.031,-0.0383 -0.055,-0.072 -0.068,-0.10353 z m 4.2791,7.01213 c -0.012,0.17935 -0.062,0.4073 -0.068,0.66782 0.012,-0.26049 0.054,-0.4885 0.068,-0.66782 z m -0.052,0.93891 c 0.012,0.0934 0.032,0.19223 0.06,0.29318 -0.029,-0.10138 -0.049,-0.19946 -0.06,-0.29318 z m 0.06,0.29316 c 0.074,0.26446 0.2032,0.54335 0.362,0.79695 -0.1589,-0.25335 -0.2881,-0.53264 -0.362,-0.79695 z m 7.1089,6.21399 c 0.2716,0.55493 0.5436,1.02383 0.8248,1.42175 -0.2813,-0.39792 -0.5532,-0.86681 -0.8248,-1.42175 z m 1.2553,1.96742 c 0.2937,0.33007 0.602,0.59524 0.9354,0.81093 -0.3334,-0.2157 -0.6417,-0.48086 -0.9354,-0.81093 z m 1.4555,1.09945 c 0.3607,0.16912 0.7505,0.29472 1.1809,0.39209 -0.4305,-0.0973 -0.8201,-0.22296 -1.1809,-0.39209 z"
         style="opacity:1;fill:#ffebee;fill-rule:nonzero;stroke:none;stroke-width:0.5956881px;stroke-linecap:butt;stroke-linejoin:miter;stroke-opacity:1"
         sodipodi:nodetypes="ccccccccccccccccccccccccccccccccccccccccccccccccccccccccccccccccccccccccccccccccccccccccccccccccccccccccccccccccccccccccccccccccccccccccccccccccccccccccccccccccccccccccccccccccccccccssccssscccccscccccccccccccccccccccccccccccccccccccccc" />
    </g>
    <g
       style="display:inline"
       inkscape:label="tanktop"
       id="layer3"
       inkscape:groupmode="layer">
      <path
         sodipodi:nodetypes="scccsssccccccsccssscccccccccssscccsczcs"
         inkscape:connector-curvature="0"
         id="path865"
         d="m 1626.0874,629.66345 c 1.2523,-0.0136 2.5731,0.10651 3.9673,0.37464 13.9481,2.07911 25.6714,3.04666 39.1332,21.84986 8.1875,11.10842 12.3224,22.70096 17.7295,34.59156 1.0919,2.18435 2.0278,1.40366 2.0278,2.33971 0,0.93612 -0.1559,3.43309 2.9645,13.10638 3.1202,9.67327 3.2763,9.04921 4.8365,10.76539 1.5601,1.71619 2.9648,4.52451 2.6526,6.2408 -0.312,1.71619 -0.78,1.71556 1.2483,3.89991 2.0284,2.18425 2.9638,0.31271 3.8999,0.6247 0.9362,0.31208 -0.9351,3.27629 -1.0912,4.83648 -0.1559,1.5602 5.1484,3.90037 6.3965,4.8365 1.2483,0.93614 0.4682,1.09268 -1.4041,2.3409 -1.8723,1.24812 0.4682,1.40403 2.9645,4.8364 2.4964,3.43248 4.9924,7.6451 4.9924,7.6451 1.8402,2.83116 -0.014,4.34018 -6.2409,9.40304 -5.4607,6.24079 -13.2612,8.58087 -23.8706,14.1976 -10.6094,5.61674 -39.6862,7.75684 -62.2528,14.19878 -22.6904,6.47739 -29.3243,4.47033 -27.8706,-5.50313 1.1457,-7.85894 -6.3252,-34.165 -9.5391,-38.51498 -2.4697,-11.48396 -10.7335,-12.22242 -19.2063,-18.52911 -3.612,-4.3929 -3.6844,-13.59308 -2.8085,-20.28248 0.4681,-3.43247 7.0504,-47.47544 7.0504,-47.47544 l 5.1567,3.57365 c 0.4689,0.78202 -0.9519,8.30157 -2.4958,15.76597 -2.7584,14.10061 -6.0954,38.43964 9.3611,42.74181 9.1695,2.42744 16.052,-21.79206 17.0063,-32.76408 0.624,-4.99261 1.4045,-15.75854 2.6526,-22.46742 2.7523,-13.71259 7.9607,-32.47313 22.7398,-32.63254 z m 14.5861,7.08309 c -3.7412,0.0459 -7.8676,1.40557 -12.2068,5.11105 -13.886,11.85755 -19.8142,27.30355 -20.7502,30.89202 -0.9361,3.58847 -2.9651,10.29724 -2.3411,14.0417 0.6243,3.74454 0.3124,6.55259 2.8086,9.67298 2.4964,3.1204 12.638,10.29798 21.375,9.9859 8.7371,-0.31208 20.9063,0.15618 26.8351,-3.27631 5.9287,-3.43237 12.2359,-12.89993 13.8078,-20.51683 1.5721,-7.61689 -2.7609,-31.52339 -12.2475,-38.14676 -2.6818,-1.60897 -9.05,-7.86472 -17.2809,-7.76375 z"
         style="fill:#263238;stroke:none;stroke-width:0.5956881px;stroke-linecap:butt;stroke-linejoin:miter;stroke-opacity:1" />
    </g>
    <g
       style="display:inline"
       inkscape:label="head"
       id="layer4"
       inkscape:groupmode="layer">
      <path
         sodipodi:nodetypes="ccsccccsccccccsscsassccsc"
         id="path3846-6"
         d="m 1552.9468,551.76442 c 11.5831,-0.13504 23.0439,4.04897 30.6675,14.50245 6.3445,6.53103 6.3448,15.67537 7.0912,22.393 0.7465,6.71762 3.1727,23.88457 9.5171,29.66922 1.6509,1.30587 3.4416,2.44184 5.3438,3.4601 l 0.524,1.60867 c -2.8686,8.82585 -12.8876,26.08766 -20.1688,32.26576 -2.9261,3.34029 -4.319,5.01611 -6.078,5.26576 -2.0441,0.29011 -4.583,-3.72835 -10.5969,-6.91601 -1.7725,-1.21292 -4.1061,-1.0266 -4.9456,-0.84 -5.112,3.44071 -7.5207,6.02949 -13.6683,6.95395 -5.8124,-0.17911 -6.2726,-0.60458 -9.936,-5.87777 -0.7931,-1.81937 -1.5396,-1.63259 -1.8662,-2.0058 -0.3264,-0.3732 -2.4267,-0.55939 -3.0797,-0.65269 -0.6531,-0.0934 -1.3051,-1.16631 -1.3984,-1.91273 -0.093,-0.74641 0.3259,-1.30645 -0.2804,-1.35309 -0.6065,-0.0465 -1.1661,-1.0261 -1.5392,-1.53925 -0.3733,-0.51317 -0.4201,-0.65332 -0.4201,-2.33271 0,-1.67941 -0.1667,-2.60948 -1.146,-3.14209 -1.8094,-0.98397 -3.49,0.86456 -6.0235,1.37804 -1.0003,0.20279 -3.0515,-1.58777 -3.175,-1.96961 -1.1339,-3.51158 1.5485,-11.11054 -0.8387,-17.64923 -14.4022,-10.32096 -21.2383,-24.85736 -8.9701,-46.5395 4.5513,-13.8328 22.9175,-24.55579 40.9873,-24.76644 z"
         style="display:inline;opacity:1;fill:#ffebee;fill-rule:nonzero;stroke:none;stroke-width:0.5956881px;stroke-linecap:butt;stroke-linejoin:miter;stroke-opacity:1"
         inkscape:connector-curvature="0" />
    </g>
    <g
       inkscape:label="hair"
       id="layer5"
       inkscape:groupmode="layer">
      <path
         sodipodi:nodetypes="ccsccssssscscsszccczsccsaccscascszzcsccsccczssccszcscccscssacssscccsccccc"
         inkscape:connector-curvature="0"
         id="path911"
         d="m 1546.6595,540.85819 c 7.4635,-0.25911 14.3947,3.96202 19.3994,7.69858 3.4326,2.49634 7.1769,0.62465 10.9213,2.34087 3.7446,1.71623 2.9637,4.36866 5.6161,4.52467 2.6522,0.15603 -0.3119,2.18381 -0.3119,2.18381 0,0 -2.8084,1.71608 0.156,3.27627 2.9643,1.56021 5.1449,2.09794 7.1773,2.18497 0.9152,0.0392 2.3123,-0.99862 2.5079,-1.84907 0.2007,-0.87221 1.3148,-0.5647 1.3241,0.81554 0.012,0.63195 -0.5213,2.20888 -1.2633,3.40083 -1.5591,2.50524 -2.5762,4.86242 1.4691,8.28057 3.3136,1.73433 4.3876,0.89688 4.8556,-0.35131 0.4681,-1.24815 0.1503,-4.21479 0.8718,-4.19603 0.2012,0.006 0.4822,0.47531 0.6463,0.68417 0.4248,0.54023 0.2918,2.44885 -0.2709,4.13666 -0.7801,2.34029 -2.2405,2.38936 -2.8073,4.99236 -0.5668,2.60299 5.9212,1.05717 7.1582,-0.25817 0.6554,-1.73276 1.3035,-0.7927 1.364,-0.2968 0.06,0.49593 -0.5345,2.10579 -1.8138,3.51945 -1.827,1.6865 -4.0686,2.81674 -4.8283,3.31352 -0.7599,0.49679 0.7187,1.71497 1.9902,3.20899 1.828,2.14816 4.7109,-0.27233 4.9953,0.16459 1.2963,-0.68485 1.5229,2.39191 0.3781,2.08964 -6.9069,1.57679 0.2144,3.83866 -0.1865,5.26283 -0.1156,0.41 -0.5458,0.71119 -0.9449,0.86013 -1.0157,0.37903 -1.915,-0.16683 -3.2509,-0.078 -3.4127,7.67504 1.7516,8.75752 -2.0541,16.22628 -0.7322,1.53802 1.8731,2.49604 -1.0913,4.99236 -2.9644,2.49634 -4.6811,1.09248 -3.7451,4.21288 0.2613,0.87122 3.9594,2.13198 3.8011,3.95313 -0.026,0.30128 -0.4322,0.5723 -0.7323,0.53555 -1.9016,-0.23286 -5.5833,-3.18679 -6.9687,-0.90059 -1.7163,2.65235 -0.6791,4.28468 -2.4129,8.25066 -0.6161,1.40925 -2.4935,1.31419 -1.4448,-0.91979 1.0486,-2.23397 -1.7752,-5.56961 -4.7239,-3.42981 -2.9489,2.1398 -3.5749,17.29819 0,18.5664 1.0946,0.30632 0.4676,3.18478 -1.5603,1.40428 -3.2427,-2.84718 -2.964,-5.10928 -3.4321,-7.44958 -0.1269,-0.48757 -0.1456,-2.23378 -1.6766,0.19429 -1.888,2.99431 -4.0607,5.92722 -5.3158,6.4083 -0.6482,0.24852 -1.3123,-0.23861 -1.1204,-0.55729 1.6503,-2.73991 8.7696,-9.43019 3.4323,-11.38906 -5.1318,-1.23781 -11.259,-8.80309 -12.6376,-13.10629 -3.5051,-10.64751 -10.5782,-20.44251 -16.2086,-19.02077 -5.6305,1.42174 -1.0516,5.6054 -1.7534,6.08451 -0.5387,0.36763 -1.2042,0.35905 -2.3322,-0.33664 -0.9242,-0.57 -2.0031,-2.53743 -3.7332,-4.20101 -16.3236,-11.37578 -14.0073,12.72005 -6.0851,6.39665 1.8721,-2.49631 1.1897,-3.42632 3.0041,-1.9895 1.9893,1.57538 -8.1282,7.66554 -12.521,7.29368 -4.393,-0.37183 -11.0147,-3.43344 -8.8935,0.15578 2.0823,2.62732 5.0083,2.66702 6.6119,3.68179 1.1096,0.70223 0.4088,1.41632 -1.7752,0.88328 -2.6839,-0.15243 -7.3192,-4.68799 -7.1765,-2.53601 0.3122,2.96438 2.3405,4.36864 1.4043,6.08486 -0.4528,0.83054 -0.8696,1.02304 -1.2849,0.4486 -0.4431,-0.6126 -0.8456,-2.87365 -1.3287,-3.92038 -1.5602,-1.48219 -0.039,1.13102 -2.0671,4.09539 -1.275,1.86366 -2.7705,3.8394 -3.9083,4.32552 -0.6719,0.28712 -1.2547,-0.0966 -1.3969,-0.58037 -0.2319,-0.78916 1.0119,-1.30618 1.4043,-2.02906 3.1527,-6.00134 0.012,-10.25382 -2.6178,-8.05851 -1.5811,1.32047 -4.0033,1.83808 -6.2135,1.63526 -0.5448,-0.0499 -1.4944,-1.02852 -1.0105,-1.27188 0.6329,-0.31847 7.3695,-0.82317 5.7849,-6.03477 -3.4372,-5.90515 1.6488,-8.20468 0.1572,-13.88583 -2.9431,-9.15132 -1.3518,-13.13853 2.8071,-17.31799 4.3688,-4.36858 0.3121,-4.21213 2.9646,-9.82887 2.6524,-5.61672 3.9007,-7.95776 7.6451,-9.83001 8.6696,-2.42707 4.305,-13.9382 11.7019,-15.91372 6.6779,-0.71323 5.9294,-4.9884 10.4536,-4.99238 6.616,1.09084 7.8499,-2.2268 12.897,-2.23834 z"
         style="opacity:1;fill:#004d40;stroke:none;stroke-width:0.5956881px;stroke-linecap:butt;stroke-linejoin:miter;stroke-opacity:1" />
    </g>
    <g
       inkscape:groupmode="layer"
       id="layer19"
       inkscape:label="pen"
       style="display:inline">
      <g
         id="g901"
         transform="matrix(-0.5949963,-0.0286982,-0.0286982,0.5949963,1842.2446,454.96937)">
        <path
           sodipodi:nodetypes="ccccc"
           inkscape:connector-curvature="0"
           id="path1426"
           d="m 580.58629,600.04479 c -5.32307,-1.01847 -8.39017,0.84732 -8.5725,4.73528 l 20.86065,39.87287 2.77414,-2.94326 c -7.69083,-17.11577 -7.6998,-23.87534 -15.06229,-41.66489 z"
           style="fill:#009688;stroke:none;stroke-width:1.24685657px;stroke-linecap:butt;stroke-linejoin:miter;stroke-opacity:1" />
        <path
           sodipodi:nodetypes="ccc"
           inkscape:connector-curvature="0"
           id="path1428"
           d="m 572.01379,604.78007 c 1.38069,2.54566 11.44376,2.43568 8.5725,-4.73528 -6.25692,-1.27092 -8.65117,1.37026 -8.5725,4.73528 z"
           style="fill:#4db6ac;stroke:none;stroke-width:1.24685657px;stroke-linecap:butt;stroke-linejoin:miter;stroke-opacity:1" />
        <path
           sodipodi:nodetypes="ccccc"
           inkscape:connector-curvature="0"
           id="path1430"
           d="m 578.56138,602.43114 -3.08744,-6.84604 c -2.88427,-0.27608 -2.68687,1.47887 -2.88608,1.47658 l 2.41628,6.57759 c 1.39896,0.58996 2.69547,0.63099 3.55724,-1.20813 z"
           style="fill:#009688;stroke:none;stroke-width:1.44961405px;stroke-linecap:butt;stroke-linejoin:miter;stroke-opacity:1" />
        <path
           sodipodi:nodetypes="ccc"
           inkscape:connector-curvature="0"
           id="path1428-7"
           d="m 572.58786,597.06168 c 0.44856,0.82699 3.81887,0.853 2.88608,-1.47658 -2.03266,-0.41289 -2.91163,0.38339 -2.88608,1.47658 z"
           style="fill:#4db6ac;stroke:none;stroke-width:0.40505967px;stroke-linecap:butt;stroke-linejoin:miter;stroke-opacity:1" />
      </g>
      <path
         sodipodi:nodetypes="czccsscczsssssscc"
         inkscape:connector-curvature="0"
         id="path1118-3"
         d="m 1635.0333,639.15333 c -31.3278,20.55965 -28.8423,73.79456 -30.2285,86.05195 -1.3865,12.25741 0.2871,39.70227 -10.591,44.12922 -23.9253,6.23036 -43.983,26.61712 -77.4467,30.00786 -6.1781,0.30953 -24.3232,-0.70089 -27.4789,-0.94491 -2.1864,-0.16909 -5.0715,0.67698 -5.464,1.18215 -0.5415,0.69702 -0.5288,0.88261 -1.402,2.31183 -1.5793,2.9339 -3.3892,5.51671 -6.0973,6.04992 -3.813,0.73546 -0.7543,-2.61795 -6.2804,0.61103 -5.5263,3.22898 -4.2684,7.76434 -0.2497,14.16007 6.4305,10.23475 9.254,12.0787 21.5087,9.21632 12.5769,-2.93763 19.8048,-6.18918 26.2034,-8.83694 6.3987,-2.64775 49.1261,-11.61393 55.7456,-13.59975 6.6193,-1.98581 24.883,-8.96779 36.8479,-11.0323 12.3904,-2.13795 15.1498,-2.57666 18.7548,-9.48779 3.5187,-6.74566 2.8684,-12.57682 8.3845,-22.06461 23.5753,-44.2623 54.419,-125.65768 -2.2064,-127.75405 z"
         style="fill:#ffebee;stroke:none;stroke-width:0.59568805px;stroke-linecap:butt;stroke-linejoin:miter;stroke-opacity:1" />
    </g>
    <g
       inkscape:label="top-arm"
       id="layer7"
       inkscape:groupmode="layer"
       style="display:inline" />
  </g>
</svg>
