<?xml version="1.0" encoding="UTF-8" standalone="no"?>
<svg version="1.1" id="svg3820" width="1920" height="540" viewBox="0 0 1920 540" sodipodi:docname="self-portrait-wider.svg" inkscape:version="1.4.1 (93de688d07, 2025-03-30)" inkscape:export-filename="/home/elm/Documents/Self-Portrait/export/self-portrait.png" inkscape:export-xdpi="192" inkscape:export-ydpi="192" xmlns:inkscape="http://www.inkscape.org/namespaces/inkscape" xmlns:sodipodi="http://sodipodi.sourceforge.net/DTD/sodipodi-0.dtd" xmlns="http://www.w3.org/2000/svg" xmlns:svg="http://www.w3.org/2000/svg" xmlns:rdf="http://www.w3.org/1999/02/22-rdf-syntax-ns#" xmlns:cc="http://creativecommons.org/ns#" xmlns:dc="http://purl.org/dc/elements/1.1/">
    <sodipodi:namedview pagecolor="#ffffff" bordercolor="#666666" borderopacity="1" objecttolerance="10" gridtolerance="10" guidetolerance="10" inkscape:pageopacity="0" inkscape:pageshadow="2" inkscape:window-width="1849" inkscape:window-height="1024" id="namedview3822" showgrid="false" units="px" inkscape:snap-others="true" inkscape:snap-global="true" inkscape:zoom="0.67493617" inkscape:cx="1891.3196" inkscape:cy="92.781858" inkscape:window-x="71" inkscape:window-y="30" inkscape:window-maximized="1" inkscape:current-layer="layer15" inkscape:snap-bbox="true" inkscape:snap-grids="false" inkscape:bbox-paths="true" inkscape:bbox-nodes="true" inkscape:object-paths="true" inkscape:snap-intersection-paths="true" showguides="false" inkscape:guide-bbox="true" inkscape:snap-bbox-edge-midpoints="true" inkscape:snap-bbox-midpoints="true" inkscape:snap-smooth-nodes="true" inkscape:snap-midpoints="true" inkscape:snap-object-midpoints="true" inkscape:snap-center="true" inkscape:snap-page="true" inkscape:snap-nodes="true" inkscape:snap-to-guides="true" inkscape:showpageshadow="0" inkscape:pagecheckerboard="0" inkscape:deskcolor="#d1d1d1">
        <inkscape:grid spacingy="24" spacingx="24" units="in" id="grid3830" type="xygrid" originx="0" originy="0" />
        <sodipodi:guide id="guide1071" position="408.0,0" orientation="1056.0,0" inkscape:locked="false" />
        <sodipodi:guide id="guide1073" position="0,352.0" orientation="0,816.0" inkscape:locked="false" />
        <sodipodi:guide id="guide1075" position="0,704.0" orientation="0,816.0" inkscape:locked="false" />
        <sodipodi:guide position="0,1056" orientation="0,816" id="guide1181" inkscape:locked="false" />
        <sodipodi:guide position="816,1056" orientation="1056,0" id="guide1183" inkscape:locked="false" />
        <sodipodi:guide position="816,0" orientation="0,-816" id="guide1185" inkscape:locked="false" />
        <sodipodi:guide position="0,0" orientation="-1056,0" id="guide1187" inkscape:locked="false" />
        <sodipodi:guide position="-423.74378,161.74066" orientation="161.74066,0" id="guide926" inkscape:locked="false" />
        <sodipodi:guide position="-423.74378,0" orientation="0,1920" id="guide928" inkscape:locked="false" />
        <sodipodi:guide position="1496.2562,0" orientation="-327.47229,-0.5084" id="guide930" inkscape:locked="false" />
        <sodipodi:guide position="1920,168.0665" orientation="168.0665,0" inkscape:locked="false" id="guide1008" />
        <sodipodi:guide position="1920,0" orientation="0,-960.00019" inkscape:locked="false" id="guide1010" />
        <sodipodi:guide position="959.99981,0" orientation="-141.8027,0" inkscape:locked="false" id="guide1012" />
        <sodipodi:guide position="1920,287.19851" orientation="86.96802,0" inkscape:locked="false" id="guide1088" />
        <sodipodi:guide position="1920,200.23049" orientation="200.23049,0" inkscape:locked="false" id="guide1090" />
        <sodipodi:guide position="1920,0" orientation="0,-2287.4422" inkscape:locked="false" id="guide1092" />
        <sodipodi:guide position="-367.4422,0" orientation="-50.6824,0" inkscape:locked="false" id="guide1094" />
        <sodipodi:guide position="-367.4422,50.6824" orientation="-236.51611,2287.4422" inkscape:locked="false" id="guide1096" />
    </sodipodi:namedview>
    <metadata id="metadata3826">
        <rdf:RDF>
            <cc:Work rdf:about="">
                <dc:format>image/svg+xml</dc:format>
                <dc:type rdf:resource="http://purl.org/dc/dcmitype/StillImage" />
            </cc:Work>
        </rdf:RDF>
    </metadata>
    <defs id="defs3824">
        <inkscape:path-effect effect="powerstroke" message="" id="path-effect45" is_visible="true" lpeversion="1.3" scale_width="1" interpolator_type="CubicBezierJohan" interpolator_beta="0.2" start_linecap_type="zerowidth" end_linecap_type="zerowidth" offset_points="0,0.89010672165522" linejoin_type="extrp_arc" miter_limit="4" not_jump="false" sort_points="true" />
        <inkscape:path-effect effect="powerstroke" message="" id="path-effect43" is_visible="true" lpeversion="1.3" scale_width="1" interpolator_type="CubicBezierJohan" interpolator_beta="0.2" start_linecap_type="zerowidth" end_linecap_type="zerowidth" offset_points="0,0.89010672165522" linejoin_type="extrp_arc" miter_limit="4" not_jump="false" sort_points="true" />
        <inkscape:path-effect effect="powerstroke" message="" id="path-effect41" is_visible="true" lpeversion="1.3" scale_width="1" interpolator_type="CubicBezierJohan" interpolator_beta="0.2" start_linecap_type="zerowidth" end_linecap_type="zerowidth" offset_points="8.40197570706689e-16,0.89010672165522" linejoin_type="extrp_arc" miter_limit="4" not_jump="false" sort_points="true" />
        <inkscape:path-effect effect="powerstroke" message="" id="path-effect39" is_visible="true" lpeversion="1.3" scale_width="1" interpolator_type="CubicBezierJohan" interpolator_beta="0.2" start_linecap_type="zerowidth" end_linecap_type="zerowidth" offset_points="0,0.89010672165522" linejoin_type="extrp_arc" miter_limit="4" not_jump="false" sort_points="true" />
        <inkscape:path-effect effect="powerstroke" message="" id="path-effect37" is_visible="true" lpeversion="1.3" scale_width="1" interpolator_type="CubicBezierJohan" interpolator_beta="0.2" start_linecap_type="zerowidth" end_linecap_type="zerowidth" offset_points="0,0.89010672165522" linejoin_type="extrp_arc" miter_limit="4" not_jump="false" sort_points="true" />
        <inkscape:path-effect effect="powerstroke" message="" id="path-effect36" is_visible="true" lpeversion="1.3" scale_width="1" interpolator_type="CubicBezierJohan" interpolator_beta="0.2" start_linecap_type="zerowidth" end_linecap_type="zerowidth" offset_points="0.01037313402978376,0.8901067216552203" linejoin_type="extrp_arc" miter_limit="4" not_jump="false" sort_points="true" />
        <inkscape:path-effect effect="powerstroke" message="" id="path-effect35" is_visible="true" lpeversion="1.3" scale_width="1" interpolator_type="CubicBezierJohan" interpolator_beta="0.2" start_linecap_type="zerowidth" end_linecap_type="zerowidth" offset_points="0.02606882829488448,2.461925459614312" linejoin_type="extrp_arc" miter_limit="4" not_jump="false" sort_points="true" />
        <inkscape:path-effect effect="powerstroke" message="" id="path-effect34" is_visible="true" lpeversion="1.3" scale_width="1" interpolator_type="CubicBezierJohan" interpolator_beta="0.2" start_linecap_type="zerowidth" end_linecap_type="zerowidth" offset_points="0.001186129318461862,2.922934053488965" linejoin_type="extrp_arc" miter_limit="4" not_jump="false" sort_points="true" />
        <inkscape:path-effect effect="powerstroke" message="" id="path-effect33" is_visible="true" lpeversion="1.3" scale_width="1" interpolator_type="CubicBezierJohan" interpolator_beta="0.2" start_linecap_type="zerowidth" end_linecap_type="zerowidth" offset_points="0,4.44441018384093" linejoin_type="extrp_arc" miter_limit="4" not_jump="false" sort_points="true" />
        <inkscape:path-effect effect="powerstroke" message="" id="path-effect32" is_visible="true" lpeversion="1.3" scale_width="1" interpolator_type="CubicBezierJohan" interpolator_beta="0.2" start_linecap_type="zerowidth" end_linecap_type="zerowidth" offset_points="0,4.44441018384093" linejoin_type="extrp_arc" miter_limit="4" not_jump="false" sort_points="true" />
        <inkscape:path-effect effect="powerstroke" message="" id="path-effect30" is_visible="true" lpeversion="1.3" scale_width="1" interpolator_type="CubicBezierJohan" interpolator_beta="0.2" start_linecap_type="zerowidth" end_linecap_type="zerowidth" offset_points="0,4.44441018384093" linejoin_type="extrp_arc" miter_limit="4" not_jump="false" sort_points="true" />
        <inkscape:path-effect effect="powerstroke" message="" id="path-effect28" is_visible="true" lpeversion="1.3" scale_width="1" interpolator_type="CubicBezierJohan" interpolator_beta="0.2" start_linecap_type="zerowidth" end_linecap_type="zerowidth" offset_points="0,4.44441018384093" linejoin_type="extrp_arc" miter_limit="4" not_jump="false" sort_points="true" />
        <inkscape:path-effect effect="powerstroke" message="" id="path-effect26" is_visible="true" lpeversion="1.3" scale_width="1" interpolator_type="CubicBezierJohan" interpolator_beta="0.2" start_linecap_type="zerowidth" end_linecap_type="zerowidth" offset_points="0,4.44441018384093" linejoin_type="extrp_arc" miter_limit="4" not_jump="false" sort_points="true" />
        <inkscape:path-effect effect="powerstroke" message="" id="path-effect23" is_visible="true" lpeversion="1.3" scale_width="1" interpolator_type="CubicBezierJohan" interpolator_beta="0.2" start_linecap_type="zerowidth" end_linecap_type="zerowidth" offset_points="0,4.44441018384093" linejoin_type="extrp_arc" miter_limit="4" not_jump="false" sort_points="true" />
        <inkscape:path-effect effect="powerstroke" message="" id="path-effect20" is_visible="true" lpeversion="1.3" scale_width="1" interpolator_type="CubicBezierJohan" interpolator_beta="0.2" start_linecap_type="zerowidth" end_linecap_type="zerowidth" offset_points="0,4.44441018384093" linejoin_type="extrp_arc" miter_limit="4" not_jump="false" sort_points="true" />
        <inkscape:path-effect effect="powerstroke" message="" id="path-effect18" is_visible="true" lpeversion="1.3" scale_width="1" interpolator_type="CubicBezierJohan" interpolator_beta="0.2" start_linecap_type="zerowidth" end_linecap_type="zerowidth" offset_points="0,4.44441018384093" linejoin_type="extrp_arc" miter_limit="4" not_jump="false" sort_points="true" />
        <clipPath id="clipPath3842" clipPathUnits="userSpaceOnUse">
            <rect style="stroke-width:3.77460217" y="0" x="0" height="1056" width="816" id="rect3844" />
        </clipPath>
        <clipPath id="clipPath3842-3" clipPathUnits="userSpaceOnUse">
            <rect style="stroke-width:3.77460217" y="0" x="0" height="1056" width="816" id="rect3844-5" />
        </clipPath>
        <clipPath id="clipPath3842-3-9" clipPathUnits="userSpaceOnUse">
            <rect style="stroke-width:3.77460217" y="0" x="0" height="1056" width="816" id="rect3844-5-1" />
        </clipPath>
        <clipPath id="clipPath3842-3-9-2" clipPathUnits="userSpaceOnUse">
            <rect style="stroke-width:3.77460217" y="0" x="0" height="1056" width="816" id="rect3844-5-1-7" />
        </clipPath>
        <clipPath id="clipPath3842-3-9-2-3" clipPathUnits="userSpaceOnUse">
            <rect style="stroke-width:3.77460217" y="0" x="0" height="1056" width="816" id="rect3844-5-1-7-6" />
        </clipPath>
        <inkscape:path-effect effect="fill_between_many" method="bsplinespiro" autoreverse="false" close="false" join="false" linkedpaths="#path18,0,1" id="path-effect19" />
        <inkscape:path-effect effect="fill_between_many" method="bsplinespiro" autoreverse="false" close="false" join="false" linkedpaths="#path20,0,1" id="path-effect21" />
        <inkscape:path-effect effect="fill_between_many" method="bsplinespiro" autoreverse="false" close="false" join="false" linkedpaths="#path23,0,1" id="path-effect24" />
        <inkscape:path-effect effect="fill_between_many" method="bsplinespiro" autoreverse="false" close="false" join="false" linkedpaths="#path26,0,1" id="path-effect27" />
        <inkscape:path-effect effect="fill_between_many" method="bsplinespiro" autoreverse="false" close="false" join="false" linkedpaths="#path28,0,1" id="path-effect29" />
        <inkscape:path-effect effect="fill_between_many" method="bsplinespiro" autoreverse="false" close="false" join="false" linkedpaths="#path30,0,1" id="path-effect31" />
        <inkscape:path-effect effect="fill_between_many" method="bsplinespiro" autoreverse="false" close="false" join="false" linkedpaths="#path37,0,1" id="path-effect38" />
        <inkscape:path-effect effect="fill_between_many" method="bsplinespiro" autoreverse="false" close="false" join="false" linkedpaths="#path39,0,1" id="path-effect40" />
        <inkscape:path-effect effect="fill_between_many" method="bsplinespiro" autoreverse="false" close="false" join="false" linkedpaths="#path40,0,1" id="path-effect42" />
        <inkscape:path-effect effect="fill_between_many" method="bsplinespiro" autoreverse="false" close="false" join="false" linkedpaths="#path42,0,1" id="path-effect44" />
        <inkscape:path-effect effect="fill_between_many" method="bsplinespiro" autoreverse="false" close="false" join="false" linkedpaths="#path44,0,1" id="path-effect46" />
    </defs>
    <g style="display:inline" inkscape:label="bottom" id="layer8" inkscape:groupmode="layer" transform="translate(0,-516)" sodipodi:insensitive="true" />
    <g style="display:inline" inkscape:label="bg" id="layer13" inkscape:groupmode="layer" transform="translate(0,-516)">
        <g style="display:inline;opacity:1" inkscape:label="walls" id="layer16" inkscape:groupmode="layer">
            <path inkscape:connector-curvature="0" id="path1056" d="M 0,967.3249499999999 V 516 H 1920 V 768.8014899999999 Z" style="fill:#2f9e44;stroke:none;stroke-width:0.595688px;stroke-linecap:butt;stroke-linejoin:miter;stroke-opacity:1" sodipodi:nodetypes="ccccc" />
        </g>
        <g inkscape:label="floor" id="layer17" inkscape:groupmode="layer" style="display:inline">
            <path sodipodi:nodetypes="cccccc" inkscape:connector-curvature="0" id="path1022" d="M 1920,768.8014899999999 V 855.7695099999998 1056 H 0 V 967.3249499999999 Z" style="display:inline;fill:#51cf66;stroke:none;stroke-width:0.595688px;stroke-linecap:butt;stroke-linejoin:miter;stroke-opacity:1" />
        </g>
        <g inkscape:label="surface" id="layer15" inkscape:groupmode="layer" style="display:inline">
            <path style="font-variation-settings:normal;opacity:1;vector-effect:none;fill:#2b8a3e;fill-opacity:1;stroke-width:0.999531;stroke-linecap:butt;stroke-linejoin:miter;stroke-miterlimit:4;stroke-dasharray:0.999531, 5.99717;stroke-dashoffset:0;stroke-opacity:1;-inkscape-stroke:none;paint-order:fill markers stroke" d="M 1920,473.4604096792679 1581.534998651888,287.7979708106936 1559.982907552414,0 H 1920 Z" id="path18" transform="translate(0,516)" />
            <path style="font-variation-settings:normal;opacity:1;vector-effect:none;fill:#212529;fill-opacity:1;stroke-width:0.999531;stroke-linecap:butt;stroke-linejoin:miter;stroke-miterlimit:4;stroke-dasharray:0.999531, 5.99717;stroke-dashoffset:0;stroke-opacity:1;-inkscape-stroke:none;paint-order:fill markers stroke" d="M 935.3970958962454,883.4421538261913 952.1888072270121,781.9398454913889 1631.9921875,741.6624749999998 1649.994195617853,631.969185102306 1844.125003208332,606.9649263215004 1884.148478121399,983.8753669853731 1009.478175296687,1056 Z" id="path22" sodipodi:nodetypes="cccccccc" />
            <path id="path880" style="fill:#495057;stroke:none;stroke-width:0.595688px;stroke-linecap:butt;stroke-linejoin:miter;stroke-opacity:1" d="M 1624.921875,761.056640625 1617.640625,761.572265625 1617.669921875,761.583984375 973.3863543581732,804.9588901189904 1056.679628677848,907.046867483956 1788.93359375,830.720703125 1796.435546875,830.232421875 Z" sodipodi:nodetypes="cccccccc" />
            <path id="path14" style="font-variation-settings:normal;opacity:1;vector-effect:none;fill:#343a40;fill-opacity:1;stroke-width:0.999531;stroke-linecap:butt;stroke-linejoin:miter;stroke-miterlimit:4;stroke-dasharray:0.999531, 5.99717;stroke-dashoffset:0;stroke-opacity:1;-inkscape-stroke:none;paint-order:fill markers stroke" d="M 1784.53125,632.333984375 1796.435546875,830.232421875 1056.6796875,907.046875 1035.48828125,1028.0390625 1853.541015625,960.06640625 1828.650390625,632.333984375 Z" sodipodi:nodetypes="ccccccc" />
            <path style="font-variation-settings:normal;opacity:1;vector-effect:none;fill:#2b8a3e;fill-opacity:1;stroke-width:0.999531;stroke-linecap:butt;stroke-linejoin:miter;stroke-miterlimit:4;stroke-dasharray:0.999531, 5.99717;stroke-dashoffset:0;stroke-opacity:1;-inkscape-stroke:none;paint-order:fill markers stroke" d="M 973.3863543581732,804.9588901189904 952.1888072270121,881.466658375513 1035.488865397286,1028.038508370687 1056.679628677848,907.046867483956 Z" id="path19" sodipodi:nodetypes="ccccc" />
            <path style="font-variation-settings:normal;opacity:1;vector-effect:none;fill:#868e96;fill-opacity:1;stroke-width:0.999531;stroke-linecap:butt;stroke-linejoin:miter;stroke-miterlimit:4;stroke-dasharray:0.999531, 5.99717;stroke-dashoffset:0;stroke-opacity:1;-inkscape-stroke:none;paint-order:fill markers stroke" d="M 1784.530890446197,632.3343633522899 1622.778157495231,649.6508033298504 1644.910742633906,749.1084631800567 1724.312911115097,801.1435473849443 1796.435546875,830.232421875 Z" id="path21" />
        </g>
        <g inkscape:groupmode="layer" id="layer18" inkscape:label="paper">
            <path style="fill:#cfd8dc;stroke:none;stroke-width:0.595688px;stroke-linecap:butt;stroke-linejoin:miter;stroke-opacity:1" d="M 1524.1991,832.96027 1413.4247,837.6127099999997 1394.2341,809.99711 1501.2263,806.0900799999999 Z" id="path1190" inkscape:connector-curvature="0" sodipodi:nodetypes="ccccc" />
            <path style="fill:#b0bec5;stroke:none;stroke-width:0.595688px;stroke-linecap:butt;stroke-linejoin:miter;stroke-opacity:1" d="M 1413.4247,837.6127 1412.8007,844.63364 1394.1634,816.32315 1394.2354,809.9971 Z" id="path1192" inkscape:connector-curvature="0" sodipodi:nodetypes="ccccc" />
            <path style="fill:#90a4ae;stroke:none;stroke-width:0.595688px;stroke-linecap:butt;stroke-linejoin:miter;stroke-opacity:1" d="M 1524.1991,832.96027 1522.9452,838.5071699999998 1412.8007,844.6336400000001 1413.4247,837.6127100000001 Z" id="path1194" inkscape:connector-curvature="0" sodipodi:nodetypes="ccccc" />
            <path style="opacity:1;fill:#343a40;fill-rule:nonzero;stroke:none;stroke-width:0.595688" d="M 1428.1234,809.3786099999997 C 1428.1834,809.3663099999997 1428.247,809.3706099999999 1428.3049,809.39521 1428.5735,809.55046 1428.88,809.6304199999998 1429.1623,809.75819 1428.6794,810.5819099999997 1428.1966,811.40566 1427.7138,812.2293899999998 1427.6066,812.2886899999997 1427.5473,812.4666099999999 1427.6508,812.5562599999999 L 1425.0725,819.6265399999997 C 1424.6778,820.05515 1424.2829,820.4836399999999 1423.8882,820.91223 1423.2258,820.7888599999997 1422.5634,820.6655899999999 1421.9011,820.54222 1421.4466,820.2457699999997 1420.9532,819.8922199999999 1420.8085,819.33806 1420.8085,819.33006 1420.8086,819.3273599999997 1420.8085,819.32146 1420.7335,819.26926 1420.6805,819.22486 1420.6885,819.2109 1420.7205,819.1653 1420.7505,819.1204999999997 1420.7835,819.0759299999998 1420.7715,818.69861 1420.9314,818.3254899999999 1421.1327,818.0113199999999 1422.2001,816.2610499999999 1423.2866,814.5228300000001 1424.3613,812.7769399999998 1424.7182,812.19955 1425.0749,811.6220300000001 1425.4317,811.0445700000001 1425.6603,810.7348700000001 1426.0353,810.5132599999999 1426.4287,810.5431300000001 1427.0478,810.3541699999999 1427.4276,809.7872099999999 1427.9574,809.4541200000001 1428.0064,809.4175199999998 1428.0634,809.3901200000001 1428.1249,809.37822 Z M 1441.296,810.0521999999997 1441.346,810.1114999999997 C 1441.358,810.2253999999999 1441.1901,810.0246999999999 1441.296,810.0521999999997 Z M 1439.9323,810.0822999999999 C 1440.3604,810.2138099999998 1440.7886,810.3452199999999 1441.2169,810.4767199999996 L 1443.1855,810.6872499999998 C 1444.2512,811.0037399999996 1445.317,811.3201799999998 1446.3825,811.6366399999998 1446.236,811.9252399999998 1446.0894,812.2137299999998 1445.9428,812.5022399999998 1444.7809,812.0899999999998 1443.6189,811.6777699999995 1442.4571,811.2655299999995 1442.3197,811.3322299999997 1442.136,811.2911299999998 1442.0498,811.1619999999998 1441.9738,811.2159999999995 1442.1098,811.3259399999998 1442.0198,811.3714499999997 1441.9138,811.8072599999997 1441.805,812.2431599999996 1441.6975,812.6791599999995 L 1440.7481,812.5080899999998 C 1440.6741,812.7644199999997 1440.6016,813.0207499999995 1440.5283,813.2771799999998 1439.914,813.1638799999998 1439.2996,813.0506399999998 1438.6854,812.9374099999995 1438.5974,813.2348699999995 1438.5086,813.5323099999998 1438.4202,813.8297899999995 1438.6114,814.0217799999998 1438.8025,814.2137699999997 1438.993699999999,814.4056799999997 1438.9727,814.5344399999995 1438.9537,814.6631899999996 1438.935699999999,814.7919699999996 1439.634499999999,815.0017699999997 1440.3333,815.2115899999995 1441.0322,815.4214199999995 1441.1252,815.3876199999997 1441.0052,815.2437499999997 1441.1072,815.2190199999995 1441.3092,814.7453499999998 1441.5111,814.2718999999997 1441.7132,813.7983399999998 1442.113,813.4306999999995 1442.5129,813.0630699999998 1442.9128,812.6954199999995 1443.5534,812.8350799999998 1444.1942,812.9746999999996 1444.8347,813.1142499999997 1445.4057,813.3582299999997 1445.9765,813.6021499999997 1446.5473,813.8460499999996 1446.5468,813.7664499999997 1446.6521,813.6879499999995 1446.7208,813.7529499999997 L 1448.5811,812.9036299999994 C 1448.7023,812.8607299999996 1448.8395,812.8406299999994 1448.9336,812.7442499999996 L 1450.6194,813.3131199999993 1450.5254,813.3560199999996 C 1450.6004,813.3376199999994 1450.722,813.3640199999996 1450.7592,813.2674199999994 1450.7982,813.2819199999994 1450.8604,813.3844199999995 1450.9127,813.3222199999994 1450.409499999999,813.8542499999995 1449.906,814.3863799999993 1449.4027,814.9184199999995 1449.1295,815.4792399999995 1448.8567,816.0399699999992 1448.5836,816.6007899999995 1448.1095,816.9466899999995 1447.6358,817.2926699999992 1447.1619,817.6386399999995 L 1445.4108,817.0045299999993 C 1445.1441,817.0045299999993 1444.9555,817.3190799999996 1445.0538,817.5583199999996 L 1444.9095,818.7078399999994 C 1443.7823,819.1584599999996 1442.6553,819.6090699999997 1441.5284,820.0597799999997 1440.9552,819.7421399999997 1440.382,819.4244799999994 1439.8087,819.1068399999994 1439.5425,818.9855699999997 1439.276,818.8641199999997 1439.0096,818.7427599999997 1438.747,819.4000799999995 1438.4845,820.0573999999998 1438.221999999999,820.7148199999998 1437.252999999999,820.4533799999998 1436.2843,820.1920099999997 1435.315499999999,819.9306599999996 1435.885499999999,818.2586799999995 1436.4556,816.5868099999995 1437.025799999999,814.9149699999998 1436.792399999999,814.6039799999997 1436.558899999999,814.2929099999995 1436.325399999999,813.9818299999998 1436.541899999999,813.3652699999995 1436.758199999999,812.7485999999995 1436.9746,812.1320399999998 1437.220199999999,811.5646399999998 1437.465699999999,810.9972299999998 1437.711099999999,810.4298299999998 1437.955799999999,810.4801299999998 1438.200599999999,810.5307399999998 1438.445199999999,810.5810699999998 1438.413199999999,810.7235399999998 1438.694199999999,810.6981899999998 1438.641999999999,810.5644699999998 1439.072699999999,810.4035499999996 1439.503499999999,810.2425999999998 1439.934399999999,810.0816899999997 Z M 1421.7755,811.1770699999998 C 1422.3007,811.4557999999999 1422.4739,812.1548899999999 1422.2759,812.68957 1422.0584,813.30077 1421.6077,813.7880099999997 1421.2218,814.29749 1419.6174,816.33725 1418.0129,818.3775 1416.4085,820.4172899999998 1415.7373,821.1529299999998 1415.0659,821.8886599999998 1414.3946,822.6243100000001 1413.8129,822.9452400000001 1413.2399,823.3829700000001 1412.5448,823.3817900000001 1411.9607,823.4128899999999 1411.3019,823.4529900000001 1410.8067,823.0862399999998 1410.3605,822.7378000000001 1410.1824,822.1019500000001 1410.3668,821.5691 1410.5603,821.0041599999999 1410.9438,820.53143 1411.2661,820.0356699999998 1412.1689,818.7260500000001 1413.0719,817.41632 1413.9745,816.1067 1414.4225,815.5717499999999 1414.945,815.09856 1415.5302,814.71748 1416.9226,813.75832 1418.353,812.8561799999997 1419.7733,811.93912 1420.285499999999,811.6450499999998 1420.8142,811.36954 1421.3846,811.2073299999999 1421.5133,811.1862299999999 1421.6445,811.1562299999999 1421.7755,811.17723 Z M 1428.9552,813.4201999999999 1428.9752,813.4457999999998 C 1428.9632,813.5362 1429.1312,813.5371999999997 1429.1345,813.4538 1429.2095,813.4326999999999 1429.3019,813.5131 1429.3568,813.4281999999999 1429.4548,813.5435299999999 1429.6175,813.3815999999999 1429.7231,813.4784999999999 L 1431.5395,813.5031999999997 1430.9472,815.43686 C 1430.1573,816.9936 1429.3673,818.55032 1428.5773,820.10706 1429.0438,820.5739399999997 1429.5102,821.04091 1429.9768,821.50778 1430.777,822.0007 1431.577,822.49364 1432.3771,822.98657 1434.9552,824.13646 1437.5336,825.28633 1440.1116,826.4362099999998 1439.8538,827.23355 1439.5958,828.03087 1439.338,828.8282799999999 1438.7726,828.6284399999999 1438.2067,828.3987899999998 1437.6441,828.18019 1436.3329,827.6413 1435.0092,827.1306399999998 1433.729,826.51994 1433.0719,826.22275 1432.4647,825.82951 1431.8534,825.44955 1431.1384,824.93524 1430.4245,824.41818 1429.7327,823.8730799999998 1428.8664,823.1439199999998 1427.9845,822.4291899999999 1427.1788,821.6322500000001 1426.751,821.2256800000001 1426.4452,820.6376100000001 1426.5237,820.0348599999998 1426.6147,819.3771699999998 1426.8982,818.76808 1427.123,818.1489699999998 1427.7188,816.56785 1428.3366,814.99503 1428.9553,813.4229600000001 Z M 1434.3618,814.6500299999999 1434.3798,814.6838299999999 C 1433.969,816.0314799999997 1433.5583,817.3792099999999 1433.1476,818.7268499999996 1432.9983,819.3682699999999 1432.849,820.0097799999997 1432.6997,820.6512099999996 1434.4871,821.2146799999999 1436.2746,821.7782499999998 1438.062,822.3417199999996 L 1438.8788,824.3068499999999 1432.7427,822.1182799999999 C 1432.196,821.8323499999999 1431.5995,821.4424099999996 1431.4664,820.7943199999997 1431.3187,820.1778499999998 1431.5514,819.5621999999998 1431.6688,818.9618799999998 1431.8291,818.3035499999997 1432.0063,817.6499899999996 1432.1773,816.9944899999998 1432.4184,816.4586999999995 1432.6517,815.8887399999996 1433.108,815.4959699999998 1433.5174,815.2022499999998 1433.937,814.9219899999998 1434.3611,814.6501299999996 Z M 1454.5966,815.4074199999996 1454.6086,815.4651199999998 C 1454.906,815.6861799999998 1455.2034,815.9072499999997 1455.5009,816.1282899999996 1455.7391,815.9564899999999 1455.9771,815.7846999999999 1456.2152,815.6128899999996 1456.9227,816.0646799999998 1457.63,816.5164899999997 1458.3376,816.9682899999999 1458.5133,816.9809899999999 1458.4724,817.2870499999999 1458.3046,817.2720699999996 1455.2798,819.6505299999996 1452.2554,822.0289599999997 1449.2307,824.4075099999996 1451.0069,826.2669999999999 1452.7832,828.1265699999999 1454.5594,829.9862199999996 L 1452.7246,832.0886099999999 C 1452.1735,831.7438099999999 1451.6225,831.3990299999999 1451.0713,831.0543299999999 1450.4823,831.7224399999996 1449.8931,832.3907299999998 1449.304,833.0589199999999 L 1447.3436,832.0862399999997 C 1446.7883,831.7298299999997 1446.2329,831.3734399999998 1445.6774,831.0170499999999 L 1443.5612,828.8657699999996 C 1443.1873,828.3270599999998 1442.8135,827.7884399999999 1442.4396,827.2497499999998 1442.1472,826.2057599999998 1441.8548,825.1617099999997 1441.5624,824.1177399999995 1441.9813,823.5762699999995 1442.3932,823.0284299999998 1442.8503,822.5180599999996 1444.9868,821.0675999999997 1447.1232,819.6171799999997 1449.2598,818.1667099999997 1451.0334,817.2361499999997 1452.8046,816.3007399999995 1454.5978,815.4081199999997 Z M 1447.5984,815.8203899999997 C 1447.5984,815.8123899999998 1447.5864,815.8123899999998 1447.5684,815.8283899999996 L 1447.5424,815.8713899999999 C 1447.5634,815.8887899999997 1447.6064,815.8365899999996 1447.5984,815.8238899999996 Z M 1446.819,815.8925899999998 C 1446.807,815.8845899999995 1446.807,815.8925899999998 1446.793,815.9108899999996 L 1446.781,815.9630899999997 C 1446.811,815.9710899999995 1446.833,815.9000899999997 1446.82,815.8918899999996 Z M 1460.4419,818.0287099999998 C 1460.4689,818.0207099999995 1460.4969,818.0287099999998 1460.5189,818.0433099999995 L 1464.783,822.0386199999998 1465.1343,822.4027799999995 C 1464.0008,823.2078799999998 1462.8671,824.0129799999997 1461.7335,824.8180599999998 1460.6639,825.4327999999998 1459.5943,826.0474499999995 1458.5248,826.6621899999995 1460.2529,827.1798799999995 1461.981,827.6976599999998 1463.7092,828.2153499999998 1463.411700000001,828.9552799999995 1463.1142,829.6953199999998 1462.8167,830.4352599999997 1462.767700000001,830.5363999999998 1462.718700000001,830.6376799999998 1462.6703,830.7388399999997 L 1460.6353,830.2781599999998 1457.8547,829.3869799999996 C 1457.2493,829.1282799999999 1456.644,828.8695599999997 1456.0385,828.6109599999997 1455.4416,828.2964099999998 1454.8448,827.9818699999998 1454.2479,827.6674099999999 1453.9908,827.0480199999999 1453.7336,826.4287099999999 1453.4765,825.8093899999996 1453.3246,825.1826899999997 1453.1725,824.5559799999997 1453.0205,823.9291699999996 1454.7199,822.5310899999998 1456.4193,821.1329999999999 1458.1187,819.7350099999996 L 1460.3666,818.0607799999999 C 1460.3876,818.0451799999998 1460.4126,818.0323799999996 1460.4416,818.0278799999997 Z M 1443.2018,818.5673199999996 C 1443.1808,818.5673199999996 1443.1538,818.5753199999998 1443.1528,818.5780199999998 L 1443.2158,818.5981199999996 C 1443.2388,818.5761199999997 1443.2278,818.5680199999998 1443.2018,818.5670199999997 Z M 1438.4969,818.5753199999998 C 1438.4849,818.5753199999998 1438.4829,818.5833199999998 1438.4749,818.5956199999998 H 1438.5729 C 1438.5469,818.6036199999997 1438.5169,818.5690199999995 1438.4959,818.5737199999997 Z M 1419.8909,820.8779299999996 C 1419.9993,820.8859299999998 1420.109,820.9062299999997 1420.2166,820.9583299999998 L 1420.3215,820.9867299999998 1420.3765,821.0014299999998 C 1420.9803,821.2097799999995 1421.5852,821.4210599999995 1422.166,821.6878999999995 1422.7576,821.9487199999997 1423.3383,822.2347399999996 1423.9124,822.5313799999995 1424.4156,822.8283699999998 1424.8289,823.2680199999997 1425.1015,823.7844399999995 1425.2422,824.0247699999996 1425.3356,824.2886999999998 1425.3887,824.5615599999996 1424.9266,824.5753599999997 1424.4673,824.6300599999997 1424.0078,824.6755799999997 1425.5474,825.3387299999997 1427.087,826.0019099999997 1428.6267,826.6650899999997 1429.3379,827.0128899999997 1430.0491,827.3607899999997 1430.7605,827.7086899999997 1432.1318,828.6487599999994 1433.503,829.5889199999994 1434.8743,830.5288999999994 1435.3461,830.8838299999996 1435.8098,831.4968499999996 1435.5527,832.1111999999997 1435.2955,832.7168999999995 1434.6588,833.0489799999994 1434.045,833.1827799999997 1433.2388,833.3814499999997 1432.4085,833.4608699999995 1431.5806,833.4968499999996 1430.9739,833.5048499999998 1430.3525,833.5075499999998 1429.7702,833.3153599999997 1429.0148,833.0606799999997 1428.3359,832.6355599999997 1427.6481,832.2415299999995 1425.6686,831.0541699999995 1423.704,829.8419499999996 1421.7343,828.6383199999994 1420.7844,828.0483599999995 1419.827,827.4691599999996 1418.8815,826.8721599999995 1418.4043,826.5454599999997 1417.9172,826.2186699999996 1417.5272,825.7865899999997 1417.191,825.3601199999997 1416.96,824.8559399999994 1416.8303,824.3300299999997 1416.6098,823.7105399999994 1416.8993,823.0231499999996 1417.3701,822.6022499999994 1417.9029,822.1458699999997 1418.4516,821.7083299999997 1418.9897,821.2585299999997 1419.2406,821.0491799999997 1419.5632,820.8679499999997 1419.8903,820.8780999999994 Z" id="path1225" inkscape:connector-curvature="0" sodipodi:nodetypes="ccccccccccccccccccccccccccccccccccccccccccccccccccccccccccccccccccccccccccccccccccccccccccccccccccccccccccccccccccccccccccccccccccccccccccscccsccccccccccccccccccccccccccccccccccccccccccccccccccccccccccc" />
        </g>
    </g>
    <g inkscape:groupmode="layer" id="layer20" inkscape:label="new 1">
        <path style="baseline-shift:baseline;display:inline;overflow:visible;opacity:1;vector-effect:none;stroke-linejoin:bevel;paint-order:fill markers stroke;enable-background:accumulate;stop-color:#000000;stop-opacity:1;fill:#212529" d="M 1538.986328125,8.326171875 1517.037109375,13.431640625 1506.712890625,24.560546875 1502.70703125,42.2626953125 1494.962890625,48.443359375 1480.330078125,73.3203125 1478.998046875,76.408203125 1475.32421875,89.041015625 1480.095703125,93.796875 1481.370668321242,111.1532376947347 1506.0400390625,117.3408203125 1507.189453125,127.978515625 1522.30078125,142.765625 H 1529.523055575939 L 1537.854361673408,153.7383078114564 1531.40234375,198.40625 1503.419921875,269.326171875 1485.01171875,268.69921875 1472.596827144833,280.4182201599685 1458.90625,283.14453125 1454.138693627349,298.1792064324116 1469.4228515625,325.7548828125 1485.240234375,330.1875 1544.37890625,314.466796875 1540.236328125,335.65234375 1545.3203125,349.03125 1605.40625,394.837890625 1591.90234375,407.8076171875 1598.515625,433.638671875 1612.755859375,439.205078125 1620.951171875,457.14453125 1609.046875,474.54296875 1588.095703125,484.38671875 1577.127678277531,498.1418238950943 1584.584344546712,540 1638.1982421875,546.5126953125 1707.220703125,490.490234375 1709.125,482.615234375 1722.614743689196,487.8358129201004 1762.20147766584,471.231380055454 1753.3046875,436.7705078125 1717.12890625,403.83203125 1702.91796875,384.607421875 1697.630859375,380.62109375 1693.5859375,371.1015625 1683.794921875,368.5244140625 1680.498046875,341.205078125 1699.634765625,336.125 1731.9736328125,309.0732421875 1738.37109375,281.076171875 1735.0830078125,257.552734375 1729.984375,238.9580078125 1731.604279473121,231.6165541659709 1722.614743689196,219.7498307903184 V 202.8457901343947 L 1709.16015625,190.69921875 V 192.4370528188935 L 1688.9794921875,135.4052734375 1658.3515625,104.9423828125 1620.4033203125,96.2275390625 1626.564453125,78.271484375 1622.66015625,75.31640625 1626.513671875,61.779296875 1618.21484375,45.162109375 1609.50390625,46.359375 1599.9814453125,32.1572265625 1573.16015625,15.3798828125 1545.203125,16.69140625 Z" id="path32" sodipodi:nodetypes="ccccccccccccccccccccccccccccccccccccccccccccccccccccccccccccccccccccc" />
        <path style="font-variation-settings:normal;opacity:1;vector-effect:none;fill:none;fill-opacity:1;stroke:#000000;stroke-width:27.1066;stroke-linecap:butt;stroke-linejoin:bevel;stroke-miterlimit:4;stroke-dasharray:none;stroke-dashoffset:0;stroke-opacity:1;-inkscape-stroke:none;paint-order:fill markers stroke" d="M 1537.391900638171,277.5143644368004 1571.553600391225,221.2108222512117 1573.243760575846,211.748044191225 1582.52734375,216.744140625 1595.896614593899,252.1464319877611 1549.408203125,274.119140625 Z" id="path33" />
    </g>
    <g inkscape:groupmode="layer" id="layer6" inkscape:label="new">
        <path style="fill:#495057;fill-opacity:1;stroke-width:0.999531;stroke-dasharray:0.999531, 5.99717;-inkscape-stroke:none;paint-order:fill markers stroke" d="M 1558.543966421671,134.8214673006228 1545.837263529888,165.9692475788086 1544.886220095994,201.1590923110595 1510.936964943594,287.2028941628319 1530.448031123134,288.9588901189904 1572.591934070941,219.4994945198273 1579.81102855737,133.6508033298504 Z" id="path2" sodipodi:nodetypes="cccccccc" />
        <path style="font-variation-settings:normal;opacity:1;vector-effect:none;fill:#fff5f5;fill-opacity:1;stroke-width:0.999531;stroke-linecap:butt;stroke-linejoin:miter;stroke-miterlimit:4;stroke-dasharray:0.999531, 5.99717;stroke-dashoffset:0;stroke-opacity:1;-inkscape-stroke:none;paint-order:fill markers stroke;stop-color:#000000;stop-opacity:1" d="M 1612.887265062002,280.1499492692805 1614.324719062966,268.4053836295752 1684.2214662716,256.5145697771073 1715.683495205825,236.563551649487 1718.314183249537,249.7073149357366 1688.942545248557,270.8776461712827 1632.678131003136,272.8085995983095 Z" id="path7" sodipodi:nodetypes="cccccccc" />
        <path style="fill:#37b24d;fill-opacity:1;stroke-width:0.999531;stroke-dasharray:0.999531, 5.99717;-inkscape-stroke:none;paint-order:fill markers stroke" d="M 1715.683495205825,236.563551649487 1718.951027911588,229.9991259736908 1709.227477005106,221.9024035770959 1712.48627857824,215.4021706221234 1705.667054167014,211.6425111273486 1707.03875,204.0857522379901 1699.408224296481,202.8763848391024 1677.756580778659,142.4307831106432 1652.219369797177,116.33436335229 1649.703170152752,118.6465751653314 1652.219369797177,123.7059921389756 1670.438961078428,160.3408074985073 1582.52734375,216.744140625 1600.88298003127,265.3505000417462 1628.81767960513,265.939845491389 1684.2214662716,256.5145697771073 Z" id="path8" sodipodi:nodetypes="ccccccccccccccccc" />
        <path id="path1" style="font-variation-settings:normal;opacity:1;vector-effect:none;fill:#fff5f5;fill-opacity:1;stroke-width:0.999531;stroke-linecap:butt;stroke-linejoin:miter;stroke-miterlimit:4;stroke-dasharray:0.999531, 5.99717;stroke-dashoffset:0;stroke-opacity:1;-inkscape-stroke:none;paint-order:fill markers stroke;stop-color:#000000;stop-opacity:1" d="M 1568.982421875,38.7109375 1527.150390625,43.18359375 1498.189453125,84.98046875 1510.27734375,104.63671875 1520.7421875,108.421875 V 127.978515625 L 1529.197265625,128.115234375 1532.20703125,125.05859375 1532.828125,133.65234375 1540.7890625,140.3828125 1547.943359375,148.51171875 1554.666644125199,148.1738078626415 1564.30078125,137.173828125 1572.8203125,140.83203125 1574.044921875,160.263671875 1559.75390625,204.48828125 1582.52734375,216.744140625 1602.623046875,214.998046875 1605.302734375,200.990234375 1600.03125,246.83984375 1595.4765625,252.685546875 1549.408203125,274.119140625 1516.767578125,283.341796875 1484.55078125,282.244140625 1478.587890625,290.916015625 1476.32421875,291.94140625 1475.177358284872,289.9850989024245 1465.134765625,295.181640625 1470.208984375,310.701171875 1481.7578125,317.08984375 1510.72265625,309.884765625 1623.16015625,279.318359375 1630.890625,267.9609375 1670.439453125,160.341796875 1649.703125,118.646484375 1606.08984375,107.3984375 1588.591796875,96.580078125 1590.021484375,65.916015625 Z" sodipodi:nodetypes="ccccccccccccccccccccccccccccccccccccccc" />
        <path style="font-variation-settings:normal;opacity:1;vector-effect:none;fill:#37b24d;fill-opacity:1;stroke-width:0.999531;stroke-linecap:butt;stroke-linejoin:miter;stroke-miterlimit:4;stroke-dasharray:0.999531, 5.99717;stroke-dashoffset:0;stroke-opacity:1;-inkscape-stroke:none;paint-order:fill markers stroke;stop-color:#000000;stop-opacity:1" d="M 1582.52734375,216.744140625 1559.75390625,204.48828125 1570.751356471052,170.4558546605125 1571.978215498569,178.9866037873577 1593.096399120869,177.900390625 1606.935034839161,124.4795177010156 1620.648740841235,111.1532376947347 1652.219369797177,116.33436335229 1649.703170152752,118.6465751653314 1615.455263955794,127.9925941377834 1606.1718696049,176.2978643031622 1605.302734375,200.990234375 1603.538580351266,216.3342564969506 Z" id="path9" sodipodi:nodetypes="cccccccccccccc" />
        <path style="fill:#495057;fill-opacity:1;stroke-width:0.999531;stroke-dasharray:0.999531, 5.99717;-inkscape-stroke:none;paint-order:fill markers stroke" d="M 1593.096399120869,287.4912989402515 1560.631827726012,301.9725855696123 1553.536925259652,338.253201329445 1680.0587,434.7056700000001 1692.01938973081,415.0037198998811 1680.72673485972,391.7642369473143 1633.4889,331.0019600000001 1672.984914462444,329.0255615775288 1662.346898927913,291.4473501399186 1623.160788256329,279.3185589960825 Z" id="path6" sodipodi:nodetypes="ccccccccccc" />
        <path style="font-variation-settings:normal;opacity:1;vector-effect:none;fill:#495057;fill-opacity:1;stroke:none;stroke-width:0.999531;stroke-linecap:butt;stroke-linejoin:miter;stroke-miterlimit:4;stroke-dasharray:0.999531, 5.99717;stroke-dashoffset:0;stroke-opacity:1;-inkscape-stroke:none;paint-order:fill markers stroke" d="M 1679.122355411226,435.89453125 1693.045190186932,441.3093878891369 1710.632727291183,467.8753669853731 1726.729356889304,477.0455680897568 1750.337746966547,465.5340390438281 1742.468283607466,444.2019400208642 1707.088216935234,413.0492710208652 1692.01938973081,392.6638188266279 1677.084949194041,387.0797887744066 1668.513181337888,376.0538784220294 1641.465997684713,345.9312033632469 1636.626404782527,390.1341312596482 1629.456993555862,396.1300215355673 1626.327250818838,393.7440969474145 1628.207741042095,401.3132495484439 1636.467209228674,401.4741815344555 Z" id="path17" sodipodi:nodetypes="ccccccccccccccccc" />
        <path id="path3" style="fill:#495057;fill-opacity:1;stroke-width:0.999531;stroke-dasharray:0.999531, 5.99717;-inkscape-stroke:none;paint-order:fill markers stroke" d="M 1542.056640625,21.52738725469732 1520.107421875,26.6328125 1516.302734375,51.216796875 1506.64453125,55.314453125 1492.01171875,80.19140625 1488.339367090548,92.82414850802102 1493.479356688978,91.3125 1494.64453125,104.189453125 1508.693359375,102.7265625 V 91.3125 L 1513.375,100.384765625 1535.326171875,81.947265625 1545.568359375,87.5078125 1556.544119765654,112.958984375 H 1569.357421875 L 1571.16015625,126.658203125 1578.208984375,116.947265625 1587.843237561847,122.0745789217119 1595.232421875,103.849609375 1608.16796875,97.490234375 1600.435546875,97.248046875 1610.833984375,86.62890625 1613.33203125,75.341796875 1608.471972609231,77.95046563126118 1600.9765625,76.11328125 1614.38933421216,67.83435668084516 1606.0904,51.216796875 1603.834772756941,62.9595485920173 1590.49171373269,41.38124613291579 1569.861328125,27.802734375 1542.056640625,29.55859375 1537.936968207533,27.19745527739246 Z" sodipodi:nodetypes="ccccccccccccccccccccccccccccccccc" />
        <path style="font-variation-settings:normal;vector-effect:none;fill:#ad8305;fill-opacity:1;stroke-width:0.893254;stroke-linecap:butt;stroke-linejoin:miter;stroke-miterlimit:4;stroke-dasharray:0.893254, 5.35951;stroke-dashoffset:0;stroke-opacity:1;-inkscape-stroke:none;paint-order:fill markers stroke" d="M 1676.696625860933,393.9825952548647 1685.289486907964,392.8156361947141 1690.022302903736,384.17774 1674.98262202282,387.1357372644525 1674.097075751369,391.9909829776289 Z" id="path12-2" sodipodi:nodetypes="cccccc" />
        <path style="font-variation-settings:normal;opacity:1;vector-effect:none;fill:#ffcb2f;fill-opacity:1;stroke-width:0.893254;stroke-linecap:butt;stroke-linejoin:miter;stroke-miterlimit:4;stroke-dasharray:0.893254, 5.35951;stroke-dashoffset:0;stroke-opacity:1;-inkscape-stroke:none;paint-order:fill markers stroke" d="M 1674.975294130004,392.6638188266279 1690.022302903736,384.17774 1680.428775831772,381.5634909964142 1670.398795724721,389.1575927388208 Z" id="path12" sodipodi:nodetypes="ccccc" />
        <path style="fill:#fff5f5;fill-opacity:1;stroke-width:0.999531;stroke-dasharray:0.999531, 5.99717;-inkscape-stroke:none;paint-order:fill markers stroke" d="M 1593.096399120869,287.4912989402515 1590.7388,307.5041100000001 1642.5354,433.60247 1677.925,433.52947 1665.5166,329.35612 1672.984914462444,329.0255615775288 1688.289555378436,297.348648576192 1649.367032195651,272.2358487506701 Z" id="path5" />
        <path style="font-variation-settings:normal;opacity:1;vector-effect:none;fill:#343a40;fill-opacity:1;stroke-width:0.999531;stroke-linecap:butt;stroke-linejoin:miter;stroke-miterlimit:4;stroke-dasharray:0.999531, 5.99717;stroke-dashoffset:0;stroke-opacity:1;-inkscape-stroke:none;paint-order:fill markers stroke;stop-color:#000000;stop-opacity:1" d="M 1721.0857,302.53849 1693.892046477293,324.2215923439879 1672.984914462444,329.0255615775288 1676.976138131477,309.88396710798 1662.346898927913,291.4473501399186 1630.041645902438,280.9730859756626 1593.096399120869,287.4912989402515 1627.025390625,273.6396484375 1630.890157549697,267.9617098197625 1687.96699193958,262.2927770522852 1716.998839227681,243.1354332926118 1722.256817892377,257.5702600041313 1721.368103937988,262.1885879920781 1725.0565,281.1355400000001 Z" id="path4" sodipodi:nodetypes="ccccccccccccccc" />
        <path style="font-variation-settings:normal;opacity:1;vector-effect:none;fill:#37b24d;fill-opacity:1;stroke-width:0.999531;stroke-linecap:butt;stroke-linejoin:miter;stroke-miterlimit:4;stroke-dasharray:0.999531, 5.99717;stroke-dashoffset:0;stroke-opacity:1;-inkscape-stroke:none;paint-order:fill markers stroke" d="M 1620.185396659714,398.7731585894712 1626.088170510819,393.5618367319989 1630.189119676541,403.5455608420936 1660.1869,410.43455 1673.812942812591,399.0071486206104 1672.864769863788,391.0468674839561 1679.1626,395.87187 1681.132690511353,449.6829043023293 1695.962489061176,478.5088980532224 1635.124901176363,532.3594407087532 1600.297648045884,529.1401147891291 1593.858996206636,496.6541896001947 1618.150273600163,485.2402158851638 1637.466229117908,457.0103605107149 1625.502,415.2748800000001 Z" id="path10" sodipodi:nodetypes="cccccccccccccccc" />
        <path style="font-variation-settings:normal;opacity:1;vector-effect:none;fill:#2b8a3e;fill-opacity:1;stroke-width:0.999531;stroke-linecap:butt;stroke-linejoin:miter;stroke-miterlimit:4;stroke-dasharray:0.999531, 5.99717;stroke-dashoffset:0;stroke-opacity:1;-inkscape-stroke:none;paint-order:fill markers stroke" d="M 1637.466229117908,457.0103605107149 1613.467617717074,408.854391792264 1647.958075105103,410.2341154131764 1657.924390593884,455.9736166158535 1635.340280551346,487.8358129201004 1618.150273600163,485.2402158851638 Z" id="path11" />
        <path style="font-variation-settings:normal;opacity:1;vector-effect:none;fill:#343a40;fill-opacity:1;stroke-width:0.999531;stroke-linecap:butt;stroke-linejoin:miter;stroke-miterlimit:4;stroke-dasharray:0.999531, 5.99717;stroke-dashoffset:0;stroke-opacity:1;-inkscape-stroke:none;paint-order:fill markers stroke" d="M 1595.419881500999,519.969913684745 1630.344689962376,524.0672375824484 1693.365433722291,467.8753669853731 1698.438310928971,480.1673386784834 1634.442013860079,534.6032133194004 1597.07832212626,531.0912214070832 Z" id="path13" />
        <path style="baseline-shift:baseline;display:inline;overflow:visible;opacity:1;vector-effect:none;fill:#343a40;stroke-linejoin:bevel;paint-order:fill markers stroke;enable-background:accumulate;stop-color:#000000;stop-opacity:1" d="M 1605.03125,408.349609375 1602.49609375,411.642578125 1606.4453125,424.818359375 1609.736328125,426.5 1632.748046875,418.513671875 1648.892578125,427.490234375 1651.4296875,427.4609375 1661.48828125,421.57421875 1660.83203125,416.88671875 1635.607421875,410.40625 1633.34375,410.962890625 1633.220703125,410.697265625 1630.98046875,409.20703125 Z M 1608.419921875,413.58203125 1629.228515625,414.271484375 1629.24609375,414.310546875 1610.58203125,420.791015625 Z M 1640.431640625,416.9296875 1653.537109375,420.296875 1650.103515625,422.306640625 Z M 1622.76171875,422.744140625 1621.408203125,427.6796875 1636.33203125,431.7734375 1624.611328125,432.412109375 1623.908203125,437.3828125 1645.8828125,445.046875 1631.552734375,447.802734375 1630.974609375,452.64453125 1654.646484375,463.439453125 1656.771484375,458.783203125 1640.392578125,451.314453125 1656.19140625,448.275390625 1656.55078125,443.345703125 1637.826171875,436.81640625 1652.3359375,436.025390625 1652.873046875,431.00390625 Z" id="path15" />
        <path style="font-variation-settings:normal;opacity:1;vector-effect:none;fill:#495057;fill-opacity:1;stroke:none;stroke-width:0.999531;stroke-linecap:butt;stroke-linejoin:miter;stroke-miterlimit:4;stroke-dasharray:0.999531, 5.99717;stroke-dashoffset:0;stroke-opacity:1;-inkscape-stroke:none;paint-order:fill markers stroke;stop-color:#000000;stop-opacity:1" d="M 1521.147756244215,105.1378315046629 1534.130923721171,90.96492632150057 1540.486830126955,95.48240660245821 1522.18130367102,109.478760229642 Z" id="path16" sodipodi:nodetypes="ccccc" />
    </g>
    <g inkscape:groupmode="layer" id="layer21" inkscape:label="new 2" />
</svg>
